<svg xmlns="http://www.w3.org/2000/svg" xmlns:xlink="http://www.w3.org/1999/xlink" width="101" height="101" viewBox="0 0 101 101">
  <defs>
    <clipPath id="clip-path">
      <rect id="Rectángulo_37678" data-name="Rectángulo 37678" width="59.662" height="55.931" fill="none"/>
    </clipPath>
  </defs>
  <g id="Grupo_114912" data-name="Grupo 114912" transform="translate(-749.994 -1181)">
    <g id="Elipse_1142" data-name="Elipse 1142" transform="translate(749.994 1181)" fill="#fff" stroke="#009e83" stroke-width="2">
      <circle cx="50.5" cy="50.5" r="50.5" stroke="none"/>
      <circle cx="50.5" cy="50.5" r="49.5" fill="none"/>
    </g>
    <g id="Grupo_114881" data-name="Grupo 114881" transform="translate(770.669 1202.035)">
      <g id="Grupo_114880" data-name="Grupo 114880" clip-path="url(#clip-path)">
        <path id="Trazado_166237" data-name="Trazado 166237" d="M0,45.3c.187-.6.35-1.2.564-1.791a8.5,8.5,0,0,1,7.629-5.532c.465-.014.566-.144.544-.587A18.675,18.675,0,0,1,24.589,17.932,18.3,18.3,0,0,1,38.58,21.445a13.867,13.867,0,0,1,1.642,1.39c.315.316.534.269.882.1a9.51,9.51,0,0,1,10.507.863A9.64,9.64,0,0,1,55,34.439a.765.765,0,0,0,.316,1c3.56,2.862,5.027,6.6,4.046,11.039-.985,4.463-3.914,7.23-8.353,8.35a10.118,10.118,0,0,1-2.485.256q-5.853,0-11.705,0c-.965,0-1.289-.25-1.531-1.159.229-.922.545-1.171,1.514-1.171q5.738,0,11.476,0a12.784,12.784,0,0,0,1.626-.1,8.612,8.612,0,0,0,1.247-16.79,8.815,8.815,0,0,0-5.7.275,1.177,1.177,0,0,1-1.77-1.072c-.057-.442-.1-.888-.175-1.327A15.739,15.739,0,0,0,37.7,23.764c-5.106-4.041-10.794-4.9-16.776-2.367a16.166,16.166,0,0,0-9.888,16.019,1.217,1.217,0,0,0,.927,1.279,8.565,8.565,0,0,1,5.161,7.724,1.159,1.159,0,0,1-1.18,1.235A1.143,1.143,0,0,1,14.8,46.438a7.286,7.286,0,0,0-.616-2.583A6.225,6.225,0,1,0,8.73,52.748q8.359.012,16.719,0c1.023,0,1.291.2,1.581,1.17-.294.949-.58,1.161-1.592,1.161q-8.3,0-16.591,0a8.568,8.568,0,0,1-8.72-7.107c-.019-.091,0-.2-.127-.227V45.3M42.236,24.976a1.079,1.079,0,0,0,.1.207,18.419,18.419,0,0,1,3.45,8.031c.062.367.237.307.486.25a10.56,10.56,0,0,1,6.063.344c.4.144.455-.024.532-.322a7.411,7.411,0,0,0-10.626-8.51" transform="translate(0 -15.123)" fill="#020203"/>
        <path id="Trazado_166238" data-name="Trazado 166238" d="M40.643,67.147c-.29-.968-.559-1.169-1.581-1.17q-8.359,0-16.719,0a6.229,6.229,0,1,1,5.452-8.893,7.286,7.286,0,0,1,.616,2.583,1.143,1.143,0,0,0,1.145,1.216,1.159,1.159,0,0,0,1.18-1.235,8.565,8.565,0,0,0-5.161-7.724,1.217,1.217,0,0,1-.927-1.279,16.166,16.166,0,0,1,9.888-16.019c5.982-2.53,11.67-1.674,16.776,2.367a15.738,15.738,0,0,1,5.806,9.974c.076.439.118.884.175,1.327a1.177,1.177,0,0,0,1.77,1.072,8.815,8.815,0,0,1,5.7-.275,8.612,8.612,0,0,1-1.247,16.79,12.812,12.812,0,0,1-1.626.1q-5.738,0-11.476,0c-.969,0-1.285.249-1.514,1.171H46.049c-.207-1.02-1.036-1.458-1.805-.969a1.553,1.553,0,0,0-.564.973l-3.037-.007m13.28-19.153a12.84,12.84,0,0,0-4.856-8.96A12.36,12.36,0,0,0,46.3,37.35a1.182,1.182,0,0,0-1.644.505,1.16,1.16,0,0,0,.584,1.563c.267.157.546.291.82.437a10.406,10.406,0,0,1,3.912,3.637,11.089,11.089,0,0,1,1.639,4.847,1.194,1.194,0,0,0,1.261,1.171c.666-.066,1.082-.6,1.056-1.516M40.979,38.527a1.149,1.149,0,1,0,.04-2.3,1.149,1.149,0,1,0-.04,2.3" transform="translate(-13.613 -28.35)" fill="#befff4"/>
        <path id="Trazado_166239" data-name="Trazado 166239" d="M255.762,338.86a1.155,1.155,0,0,1-.982-1.719,1.55,1.55,0,0,1,.241-.325q2.545-2.553,5.1-5.1a1.218,1.218,0,0,1,1.043-.41,1.113,1.113,0,0,1,.786,1.792c-1.758,1.934-3.622,3.769-5.536,5.55a.945.945,0,0,1-.65.211" transform="translate(-217.458 -282.932)" fill="#060606"/>
        <path id="Trazado_166240" data-name="Trazado 166240" d="M158.664,332.525a1.17,1.17,0,0,1-.428.852q-2.5,2.512-5.017,5.013a1.173,1.173,0,0,1-1.753.131,1.19,1.19,0,0,1,.128-1.793q2.478-2.5,4.974-4.973a1.178,1.178,0,0,1,1.416-.353,1.126,1.126,0,0,1,.679,1.124" transform="translate(-129.056 -282.925)" fill="#020203"/>
        <path id="Trazado_166241" data-name="Trazado 166241" d="M47.725,337.458a1.2,1.2,0,0,1,.421-.722q2.5-2.511,5.017-5.01a1.163,1.163,0,0,1,1.753-.133,1.2,1.2,0,0,1-.131,1.795q-2.477,2.5-4.972,4.974a1.174,1.174,0,0,1-2.089-.9" transform="translate(-40.757 -282.894)" fill="#020203"/>
        <path id="Trazado_166242" data-name="Trazado 166242" d="M373.686,18.641a1.2,1.2,0,0,1-.426.726c-1.106,1.114-2.213,2.227-3.332,3.328a1.177,1.177,0,1,1-1.646-1.646c1.1-1.119,2.217-2.223,3.326-3.334a1.2,1.2,0,0,1,1.424-.33,1.156,1.156,0,0,1,.655,1.256" transform="translate(-314.119 -14.751)" fill="#060606"/>
        <path id="Trazado_166243" data-name="Trazado 166243" d="M30.183,286.916a1.157,1.157,0,0,1-1.011-1.7,1.2,1.2,0,0,1,.2-.286c1.175-1.182,2.331-2.384,3.542-3.529a1.156,1.156,0,1,1,1.6,1.663q-1.715,1.739-3.452,3.456a1.3,1.3,0,0,1-.881.392" transform="translate(-24.798 -240.016)" fill="#030303"/>
        <path id="Trazado_166244" data-name="Trazado 166244" d="M237.642,286.844a1.156,1.156,0,0,1-1.071-1.687,2.071,2.071,0,0,1,.356-.455q1.577-1.588,3.163-3.167a1.3,1.3,0,0,1,1.125-.491,1.139,1.139,0,0,1,.95.757,1.069,1.069,0,0,1-.253,1.184q-1.751,1.782-3.533,3.535a1.036,1.036,0,0,1-.737.325" transform="translate(-201.918 -240.006)" fill="#030303"/>
        <path id="Trazado_166245" data-name="Trazado 166245" d="M341.284,286.811a1.154,1.154,0,0,1-1.012-1.595,1.771,1.771,0,0,1,.363-.518q1.595-1.613,3.207-3.209a1.191,1.191,0,0,1,1.309-.39,1.125,1.125,0,0,1,.776.928,1.164,1.164,0,0,1-.382,1.047q-1.655,1.676-3.328,3.335a1.4,1.4,0,0,1-.934.4" transform="translate(-290.52 -240.004)" fill="#030303"/>
        <path id="Trazado_166246" data-name="Trazado 166246" d="M138.418,282.314a1.225,1.225,0,0,1-.426.762c-1.107,1.112-2.211,2.226-3.33,3.326a1.189,1.189,0,0,1-1.754.1,1.155,1.155,0,0,1,.086-1.711q1.685-1.724,3.409-3.411a1.118,1.118,0,0,1,1.33-.278,1.189,1.189,0,0,1,.685,1.213" transform="translate(-113.216 -239.968)" fill="#020203"/>
        <path id="Trazado_166247" data-name="Trazado 166247" d="M307.151,2.445c0,.407.02.816,0,1.222A1.147,1.147,0,0,1,306,4.823a1.136,1.136,0,0,1-1.166-1.131c-.037-.852-.037-1.708,0-2.56a1.154,1.154,0,0,1,2.308.033c.025.425,0,.854,0,1.28" transform="translate(-260.312 0.001)" fill="#020203"/>
        <path id="Trazado_166248" data-name="Trazado 166248" d="M390.34,106.679c-1.064,0-1.677-.681-1.381-1.545a1.547,1.547,0,0,1,2.032-.7,1.133,1.133,0,0,1,.694,1.458,1.247,1.247,0,0,1-1.345.787" transform="translate(-332.114 -89.086)" fill="#030303"/>
        <path id="Trazado_166249" data-name="Trazado 166249" d="M205.959,258.945a1.553,1.553,0,0,1,.564-.973c.769-.488,1.6-.05,1.805.969-.163.751-.616,1.18-1.216,1.149a1.274,1.274,0,0,1-1.153-1.145" transform="translate(-175.892 -220.141)" fill="#060606"/>
        <path id="Trazado_166250" data-name="Trazado 166250" d="M289.316,62.252a7.411,7.411,0,0,1,10.626,8.51c-.077.3-.135.466-.532.322a10.56,10.56,0,0,0-6.063-.344c-.25.057-.424.117-.486-.25a18.419,18.419,0,0,0-3.45-8.031,1.078,1.078,0,0,1-.1-.207" transform="translate(-247.08 -52.399)" fill="#fcf300"/>
        <path id="Trazado_166251" data-name="Trazado 166251" d="M221.188,71.48c.026.919-.39,1.451-1.056,1.516a1.194,1.194,0,0,1-1.261-1.171,11.087,11.087,0,0,0-1.639-4.847,10.4,10.4,0,0,0-3.912-3.637c-.273-.146-.553-.28-.82-.437a1.16,1.16,0,0,1-.584-1.563,1.182,1.182,0,0,1,1.644-.505,12.358,12.358,0,0,1,2.772,1.684,12.841,12.841,0,0,1,4.856,8.96" transform="translate(-180.878 -51.835)" fill="#030303"/>
        <path id="Trazado_166252" data-name="Trazado 166252" d="M180.74,56.273a1.149,1.149,0,1,1,1.186-1.157,1.159,1.159,0,0,1-1.186,1.157" transform="translate(-153.374 -46.096)" fill="#030303"/>
      </g>
    </g>
  </g>
</svg>
