<svg id="Grupo_114849" data-name="Grupo 114849" xmlns="http://www.w3.org/2000/svg" xmlns:xlink="http://www.w3.org/1999/xlink" width="119.996" height="120" viewBox="0 0 119.996 120">
  <defs>
    <clipPath id="clip-path">
      <rect id="Rectángulo_37658" data-name="Rectángulo 37658" width="119.996" height="120" fill="none"/>
    </clipPath>
  </defs>
  <g id="Grupo_114849-2" data-name="Grupo 114849" clip-path="url(#clip-path)">
    <path id="Trazado_165614" data-name="Trazado 165614" d="M342.544,0c2.04,1.015,2.382,2.276,1.1,4.195q-6.1,9.144-12.228,18.276c-1.351,2.015-2.784,2.16-4.489.472-1.138-1.127-2.3-2.233-3.382-3.41-.574-.622-.8-.525-1.208.166-2.537,4.294-5.122,8.56-7.69,12.835-1.109,1.846-2.37,2.395-3.665,1.595-1.319-.814-1.445-2.183-.359-4q4.687-7.82,9.38-15.638c1.314-2.187,2.76-2.352,4.586-.528,1.133,1.131,2.3,2.232,3.377,3.415.583.639.838.606,1.317-.12,3.373-5.108,6.8-10.18,10.187-15.28A6.507,6.507,0,0,1,341.372,0Z" transform="translate(-237.081)" fill="#030303"/>
    <path id="Trazado_165615" data-name="Trazado 165615" d="M416.688,161.635a5.979,5.979,0,0,1-2.478,2.015q-5.79,3.163-11.566,6.354c-.338.186-.672.379-1.1.623,1.633,1.631,3.206,3.194,4.77,4.765,2,2.014,1.515,3.909-1.208,4.6q-7.019,1.78-14.05,3.513a2.354,2.354,0,1,1-1.177-4.516c3.5-.9,7.011-1.766,10.725-2.7-1.408-1.4-2.732-2.7-4.046-4.019-1.858-1.86-1.658-3.369.623-4.625q7.622-4.2,15.251-8.379c2.069-1.135,2.976-.926,4.26.959Z" transform="translate(-296.692 -121.317)" fill="#030303"/>
    <path id="Trazado_165616" data-name="Trazado 165616" d="M261.166,0c1.808.929,2.146,1.758,1.506,3.764q-1.808,5.672-3.63,11.34c-.8,2.485-2.656,2.955-4.484,1.127-.492-.492-.909-1.06-1.539-1.8-.948,3.437-1.794,6.507-2.641,9.577-.1.375-.19.757-.326,1.12a2.328,2.328,0,0,1-4.475-1.288c.608-2.375,1.294-4.731,1.947-7.095.631-2.289,1.241-4.584,1.9-6.866s2.572-2.778,4.261-1.126c.583.57,1.1,1.212,1.812,2.012.937-2.91,1.815-5.515,2.6-8.147A4.084,4.084,0,0,1,259.994,0Z" transform="translate(-187.818)" fill="#030303"/>
    <path id="Trazado_165617" data-name="Trazado 165617" d="M66.122,211.678l2.407-4.119c1.6.416,2.618.092,3.2-1.013.565-1.078.295-2.043-.879-3.138a41.829,41.829,0,0,1,2.437-3.957c1.823.419,2.483.135,3.451-1.54,2.36-4.085,4.74-8.159,7.043-12.276.527-.944.8-.884,1.506-.175q17.413,17.474,34.884,34.89c.616.614.74.843-.146,1.351q-21.968,12.6-43.884,25.286a1.052,1.052,0,0,1-1.557-.2q-7.837-7.908-15.747-15.742a1.186,1.186,0,0,1-.184-1.762c2.695-4.612,5.35-9.247,8.007-13.881.915-1.6.78-2.439-.534-3.724" transform="translate(-44.635 -141.478)" fill="#009e83"/>
    <path id="Trazado_165618" data-name="Trazado 165618" d="M21.487,151.494c1.315,1.285,1.449,2.127.534,3.724-2.657,4.634-5.312,9.269-8.007,13.881a1.186,1.186,0,0,0,.184,1.762q7.92,7.824,15.747,15.742a1.052,1.052,0,0,0,1.557.2q21.921-12.68,43.884-25.286c.886-.508.761-.738.146-1.351q-17.468-17.42-34.884-34.89c-.707-.71-.979-.769-1.506.174-2.3,4.118-4.682,8.192-7.042,12.277-.968,1.675-1.627,1.959-3.45,1.54-1.444-1.266-1.616-2.124-.672-3.766q7.956-13.833,15.934-27.653c1.108-1.919,2.7-2.108,4.287-.522Q70.785,129.907,93.362,152.5c1.691,1.692,1.476,3.207-.623,4.417q-19.343,11.153-38.691,22.3c-.365.21-.725.429-1.151.682a13.2,13.2,0,0,1,3.206,7.66,12.785,12.785,0,0,1-21.863,9.933c-1.125-1.084-2.243-2.178-3.3-3.324-.518-.56-.831-.554-1.347,0a21.242,21.242,0,0,1-6.708,5.192c-9.674,4.383-21.279-1.989-22.7-12.472-.722-5.343.661-10.075,4.521-13.793a40.569,40.569,0,0,0,7.4-9.992c1.868-3.419,3.865-6.767,5.817-10.14.972-1.68,1.7-1.968,3.566-1.466M46.6,112.644c.077-.06,0-.027-.037.032q-1.733,2.976-3.458,5.957c-.912,1.578-.91,1.58.336,2.826l36.187,36.187c.165.166.344.32.494.5.274.328.531.328.905.109,2.378-1.394,4.772-2.761,7.088-4.1L46.6,112.644M16.937,195.982c.589-.1,1.248-.088,1.905-.227,3.282-.7,5.547-2.868,7.738-5.178.36-.38.172-.569-.1-.836q-7.742-7.734-15.474-15.477c-.262-.262-.458-.486-.853-.115-2.716,2.55-4.976,5.29-5.429,9.24-.775,6.756,5.348,13.2,12.208,12.594m26.423.634a8.143,8.143,0,0,0,5.8-13.824.719.719,0,0,0-1.076-.174q-6.666,3.877-13.36,7.7c-.5.283-.618.459-.148.9,1.051.99,2.034,2.053,3.082,3.046a8.281,8.281,0,0,0,5.7,2.347" transform="translate(0 -81.294)" fill="#030303"/>
    <path id="Trazado_165619" data-name="Trazado 165619" d="M362.222,119.582c1.137,1.064,2.188,1.991,3.174,2.984,1.5,1.516,1.235,3.213-.674,4.165q-6.639,3.308-13.309,6.555c-1.484.726-2.8.375-3.418-.859-.651-1.292-.147-2.589,1.381-3.354,3.308-1.656,6.634-3.277,9.952-4.913a.928.928,0,0,0,.613-.552c-.96-.922-1.992-1.867-2.97-2.864-1.46-1.488-1.216-3.185.612-4.111,2.744-1.389,5.515-2.727,8.278-4.079a2.393,2.393,0,0,1,2.741.2,2.218,2.218,0,0,1,.768,2.318,2.574,2.574,0,0,1-1.586,1.749c-1.77.874-3.536,1.754-5.563,2.76" transform="translate(-266.019 -85.852)" fill="#030303"/>
    <path id="Trazado_165620" data-name="Trazado 165620" d="M100.173,262.959c1.174,1.095,1.445,2.06.88,3.138-.579,1.1-1.6,1.428-3.2,1.013-1.176-1.064-1.467-2.084-.9-3.156.594-1.121,1.617-1.437,3.218-1" transform="translate(-73.961 -201.028)" fill="#030303"/>
    <path id="Trazado_165621" data-name="Trazado 165621" d="M459.186,94.194a2.418,2.418,0,0,1,2.338,2.293,2.331,2.331,0,1,1-4.662.009,2.4,2.4,0,0,1,2.324-2.3" transform="translate(-349.52 -72.063)" fill="#030303"/>
    <path id="Trazado_165622" data-name="Trazado 165622" d="M184.866,133.327l41.515,41.515c-2.316,1.334-4.71,2.7-7.088,4.1-.374.219-.63.22-.905-.109-.149-.179-.328-.334-.494-.5l-36.187-36.187c-1.246-1.245-1.248-1.248-.336-2.826q1.723-2.982,3.458-5.957c.035-.059.114-.092.037-.032" transform="translate(-138.263 -101.977)" fill="#fcf300"/>
    <path id="Trazado_165623" data-name="Trazado 165623" d="M32.118,416.4c-6.859.606-12.983-5.838-12.208-12.594.453-3.95,2.713-6.689,5.428-9.24.395-.371.591-.147.853.115q7.733,7.742,15.474,15.477c.268.267.457.456.1.836-2.191,2.311-4.456,4.482-7.737,5.178-.658.14-1.316.124-1.906.227" transform="translate(-15.182 -301.708)" fill="#fcf300"/>
    <path id="Trazado_165624" data-name="Trazado 165624" d="M154.989,444.7a8.279,8.279,0,0,1-5.7-2.347c-1.048-.993-2.031-2.056-3.082-3.046-.469-.443-.347-.618.148-.9q6.694-3.827,13.361-7.7a.718.718,0,0,1,1.076.174,8.142,8.142,0,0,1-5.8,13.823" transform="translate(-111.628 -329.382)" fill="#ff8628"/>
  </g>
</svg>
