<svg id="Grupo_114879" data-name="Grupo 114879" xmlns="http://www.w3.org/2000/svg" xmlns:xlink="http://www.w3.org/1999/xlink" width="80" height="79.949" viewBox="0 0 80 79.949">
  <defs>
    <clipPath id="clip-path">
      <rect id="Rectángulo_37677" data-name="Rectángulo 37677" width="80" height="79.949" fill="none"/>
    </clipPath>
  </defs>
  <g id="Grupo_114878" data-name="Grupo 114878" clip-path="url(#clip-path)">
    <path id="Trazado_166228" data-name="Trazado 166228" d="M37.058,79.95a15.759,15.759,0,0,0-2.88-.427A39.871,39.871,0,0,1,1.728,51.394C-1.841,38.79.088,26.995,7.8,16.376A38.235,38.235,0,0,1,33.169.629,38.768,38.768,0,0,1,65.183,8.947,38.821,38.821,0,0,1,79.4,33.128a31.132,31.132,0,0,1,.459,3.712c.007.124-.015.264.142.325v5.778c-.222.1-.138.312-.152.479A36.4,36.4,0,0,1,76.822,55.6C70.682,69.044,60.348,77.1,45.717,79.543a20.711,20.711,0,0,0-2.881.407ZM40,3.166A36.793,36.793,0,1,0,76.8,39.949,36.8,36.8,0,0,0,40,3.166" transform="translate(0 0)"/>
    <path id="Trazado_166229" data-name="Trazado 166229" d="M53.021,15.865A36.793,36.793,0,1,1,16.269,52.7,36.8,36.8,0,0,1,53.021,15.865m.02,4.957A31.852,31.852,0,1,0,84.9,52.687,31.968,31.968,0,0,0,53.041,20.822" transform="translate(-13.022 -12.699)" fill="#ff8628"/>
    <path id="Trazado_166230" data-name="Trazado 166230" d="M72.8,40.7A31.852,31.852,0,1,1,40.952,72.5,31.968,31.968,0,0,1,72.8,40.7m28.676,31.883A28.655,28.655,0,1,0,72.794,101.2a28.647,28.647,0,0,0,28.681-28.608" transform="translate(-32.78 -32.582)"/>
    <path id="Trazado_166231" data-name="Trazado 166231" d="M114.363,85.466a28.655,28.655,0,1,1-28.62-28.672,28.635,28.635,0,0,1,28.62,28.672M82.345,100.561a14.362,14.362,0,0,0,10.588-4.7c5.072-5.456,9.545-11.4,14.05-17.313,1.019-1.338.749-2.314-.824-2.977a57.965,57.965,0,0,0-13.961-4,30.309,30.309,0,0,0-12.153.3,15.366,15.366,0,0,0-9.742,6.76,13.853,13.853,0,0,0-.461,14.451,1.08,1.08,0,0,1-.052,1.326A25.879,25.879,0,0,0,67.729,97.8a1.607,1.607,0,1,0,2.784,1.545c.458-.784.945-1.555,1.359-2.362.3-.588.531-.5.956-.108a14.1,14.1,0,0,0,9.516,3.688M59.288,84.433c0,.364-.022.729,0,1.091A1.527,1.527,0,0,0,60.732,87a1.544,1.544,0,0,0,1.664-1.32,7.352,7.352,0,0,0,.059-.933A23.467,23.467,0,0,1,79.106,63.119a1.6,1.6,0,0,0,1.227-2.081,1.644,1.644,0,0,0-2.247-.913,23.619,23.619,0,0,0-5.013,2.105c-8.583,4.921-13.1,12.373-13.786,22.2M86.84,59.024c-.389,0-.779-.017-1.166,0a1.542,1.542,0,0,0-1.543,1.449,1.5,1.5,0,0,0,1.393,1.665q2.521.184,5.024.51a1.531,1.531,0,0,0,1.816-1.387,1.622,1.622,0,0,0-1.436-1.737,28.1,28.1,0,0,0-4.089-.5" transform="translate(-45.668 -45.461)" fill="#d5ce26"/>
    <path id="Trazado_166232" data-name="Trazado 166232" d="M123.985,157.96a14.1,14.1,0,0,1-9.515-3.688c-.425-.388-.655-.48-.956.108-.414.807-.9,1.577-1.36,2.362a1.607,1.607,0,1,1-2.784-1.545,25.879,25.879,0,0,1,2.062-3.393,1.08,1.08,0,0,0,.052-1.326,13.853,13.853,0,0,1,.461-14.451,15.367,15.367,0,0,1,9.742-6.76,30.313,30.313,0,0,1,12.153-.3,57.959,57.959,0,0,1,13.961,4c1.573.663,1.843,1.638.824,2.977-4.5,5.916-8.978,11.857-14.05,17.313a14.366,14.366,0,0,1-10.589,4.705m17.848-23.778a43.507,43.507,0,0,0-15.034-2.446,18.206,18.206,0,0,0-7.925,2.033,11.125,11.125,0,0,0-5.633,12.542,10.536,10.536,0,0,0,8.195,8.1A10.741,10.741,0,0,0,132.323,151c3.344-3.571,6.371-7.409,9.387-11.254.631-.8,1.241-1.625,1.923-2.52a3.353,3.353,0,0,0-.538,0,75.749,75.749,0,0,0-9.6,2.662c-.977.349-1.931.766-2.919,1.08a1.445,1.445,0,0,1-1.864-1.056c-.268-.894.128-1.592,1.2-2.039a56.5,56.5,0,0,1,7.516-2.553c1.429-.372,2.859-.74,4.4-1.139" transform="translate(-87.309 -102.859)"/>
    <path id="Trazado_166233" data-name="Trazado 166233" d="M68.219,97.321c.687-9.83,5.2-17.283,13.786-22.2a23.628,23.628,0,0,1,5.013-2.105,1.644,1.644,0,0,1,2.247.913,1.6,1.6,0,0,1-1.228,2.081A23.467,23.467,0,0,0,71.386,97.633a7.349,7.349,0,0,1-.059.933,1.544,1.544,0,0,1-1.664,1.32,1.526,1.526,0,0,1-1.439-1.473c-.027-.362,0-.727,0-1.091" transform="translate(-54.599 -58.348)"/>
    <path id="Trazado_166234" data-name="Trazado 166234" d="M195.437,67.946a28.1,28.1,0,0,1,4.089.5,1.622,1.622,0,0,1,1.436,1.737,1.531,1.531,0,0,1-1.816,1.387q-2.507-.327-5.024-.51a1.5,1.5,0,0,1-1.393-1.665,1.542,1.542,0,0,1,1.543-1.449c.388-.02.777,0,1.166,0" transform="translate(-154.266 -54.382)"/>
    <path id="Trazado_166235" data-name="Trazado 166235" d="M157.151,147.047c-1.539.4-2.969.767-4.4,1.139a56.511,56.511,0,0,0-7.515,2.553c-1.073.447-1.47,1.145-1.2,2.039a1.445,1.445,0,0,0,1.864,1.056c.988-.313,1.942-.731,2.919-1.08a75.743,75.743,0,0,1,9.6-2.662,3.357,3.357,0,0,1,.538,0c-.682.9-1.292,1.716-1.923,2.52-3.017,3.845-6.043,7.683-9.387,11.255a10.741,10.741,0,0,1-10.888,3.416,10.535,10.535,0,0,1-8.2-8.1,11.125,11.125,0,0,1,5.634-12.542,18.2,18.2,0,0,1,7.924-2.033,43.512,43.512,0,0,1,15.034,2.446m-15.8,5.993c-.989,0-3.364,1.938-3.513,2.892a1.458,1.458,0,0,0,.578,1.445,1.357,1.357,0,0,0,1.668.173,25.755,25.755,0,0,0,2.424-1.943,1.313,1.313,0,0,0,.259-1.647,1.518,1.518,0,0,0-1.416-.921" transform="translate(-102.627 -115.723)" fill="#04d9b5"/>
    <path id="Trazado_166236" data-name="Trazado 166236" d="M179.884,187a1.518,1.518,0,0,1,1.416.921,1.313,1.313,0,0,1-.259,1.647,25.75,25.75,0,0,1-2.424,1.943,1.357,1.357,0,0,1-1.668-.173,1.457,1.457,0,0,1-.578-1.445c.149-.954,2.524-2.9,3.513-2.892" transform="translate(-141.159 -149.688)"/>
  </g>
</svg>
