<svg xmlns="http://www.w3.org/2000/svg" xmlns:xlink="http://www.w3.org/1999/xlink" width="101" height="101" viewBox="0 0 101 101">
  <defs>
    <clipPath id="clip-path">
      <rect id="Rectángulo_37680" data-name="Rectángulo 37680" width="64.727" height="64.732" fill="none"/>
    </clipPath>
  </defs>
  <g id="Grupo_114914" data-name="Grupo 114914" transform="translate(-749.994 -1503)">
    <g id="Elipse_1147" data-name="Elipse 1147" transform="translate(749.994 1503)" fill="#fff" stroke="#009e83" stroke-width="2">
      <circle cx="50.5" cy="50.5" r="50.5" stroke="none"/>
      <circle cx="50.5" cy="50.5" r="49.5" fill="none"/>
    </g>
    <g id="Grupo_114885" data-name="Grupo 114885" transform="translate(767.625 1518)">
      <g id="Grupo_114884" data-name="Grupo 114884" clip-path="url(#clip-path)">
        <path id="Trazado_166267" data-name="Trazado 166267" d="M201.872,152a1.679,1.679,0,0,1-.614-1.291,91.929,91.929,0,0,1,.1-12.877,1.215,1.215,0,0,1,.43-.875c3.436-2.945,6.726-6.063,10.345-8.791a11.378,11.378,0,0,1,4.679-2.376,5.17,5.17,0,0,1,.813-.09c.836-.023.83-.017.775-.882a43.729,43.729,0,0,1,.03-8.953,11.235,11.235,0,0,1,1.058-3.612,5.458,5.458,0,0,1,4.215-3.06.684.684,0,0,0,.623-.49,5.6,5.6,0,0,1,4.982-3.6,12.843,12.843,0,0,1,1.386-.09c.8-.006,1.172.37,1.13,1.168q-.2,3.786-.269,7.576c-.1,5.119-.05,10.235.271,15.346a1.953,1.953,0,0,1-.578,1.58,125.753,125.753,0,0,1-9.59,9.159,1.069,1.069,0,0,1-1.475.146c-.428-.693-.382-1.054.229-1.581a118.685,118.685,0,0,0,9.14-8.7,1.08,1.08,0,0,0,.356-.878c-.275-4.623-.354-9.251-.265-13.881.048-2.5.139-5.006.2-7.508,0-.188.164-.522-.284-.433a3.773,3.773,0,0,0-3.658,2.855,19.42,19.42,0,0,0-.763,4.978c-.187,3.073-.141,6.151-.132,9.227a1.707,1.707,0,0,1-.641,1.425c-.723.613-1.41,1.267-2.107,1.909-.141.13-.39.271-.038.451.111.124.217.252.332.372.826.858.818,1.25-.065,2.024-1.281,1.123-2.559,2.249-3.855,3.354-1.36,1.159-2.74,2.3-4.114,3.438a.932.932,0,0,1-1.1.178.918.918,0,0,1-.529-.864,1.205,1.205,0,0,1,.591-.917q3.5-2.846,6.875-5.839c.143-.127.421-.189.35-.483a3.787,3.787,0,0,0-4.925-1,13.365,13.365,0,0,0-2.146,1.314c-2.981,2.17-5.616,4.755-8.481,7.059-1.408,1.132-2.348,2.328-2.075,4.209a.727.727,0,0,1-.009.126,82.911,82.911,0,0,0,.159,10.273,1.739,1.739,0,0,1-.6.9Zm21.742-40.827a3.574,3.574,0,0,0-2.506,2.071,9.371,9.371,0,0,0-.784,2.712,41.712,41.712,0,0,0-.057,8.44c.036.673.084,1.346.134,2.132.836-.764,1.553-1.442,2.3-2.087a1.087,1.087,0,0,0,.41-.918c0-2.84-.037-5.681.118-8.52.07-1.278.209-2.548.384-3.83" transform="translate(-167.104 -87.27)" fill="#040403"/>
        <path id="Trazado_166268" data-name="Trazado 166268" d="M17.7,151.938a1.566,1.566,0,0,1-.649-1.271,30.815,30.815,0,0,1-.008-5.046.707.707,0,0,0-.342-.726A112.745,112.745,0,0,1,1.787,131.873c-.611-.63-1.192-1.289-1.787-1.934v-2.276c.137-.035.119-.148.126-.249a117.381,117.381,0,0,0,.082-18.219A3.449,3.449,0,0,0,0,107.686v-2.149a1.4,1.4,0,0,1,1.413-.589,13.358,13.358,0,0,1,2.37.335A5.393,5.393,0,0,1,7.5,108.6c.089.214.115.457.466.508,3.14.451,4.544,2.59,5.182,5.429a25.439,25.439,0,0,1,.439,6.725c-.058,1.326-.131,2.651-.191,3.976-.008.186-.116.435.266.411,1.966-.125,3.568.8,5.135,1.813.283.182.551.387.828.579a1.012,1.012,0,0,1,.345,1.384c-.664.536-.9.545-1.613.041a15.3,15.3,0,0,0-2.363-1.436,3.758,3.758,0,0,0-4.86,1.025c-.116.258.146.3.256.4,1.023.906,2.051,1.807,3.094,2.69,1.332,1.127,2.68,2.236,4.02,3.354a.975.975,0,0,1,.416,1.046.936.936,0,0,1-.736.7,1.1,1.1,0,0,1-.967-.347c-2.514-2.042-4.968-4.154-7.4-6.293-1.154-1.015-1.769-1.241-.2-2.815.349-.18.106-.321-.037-.453-.7-.641-1.385-1.3-2.108-1.909a1.7,1.7,0,0,1-.642-1.424c.009-3.055.058-6.111-.131-9.163a18.238,18.238,0,0,0-.875-5.336,3.719,3.719,0,0,0-3.546-2.561c-.241-.073-.292.047-.279.259.026.421.025.843.063,1.263a122.4,122.4,0,0,1-.116,20.2,1.18,1.18,0,0,0,.358,1,111.114,111.114,0,0,0,15.984,14.021,1.429,1.429,0,0,1,.687,1.429A30.365,30.365,0,0,0,19,151.052c-.01.4-.348.6-.54.886Zm-6.389-25.584c.051-.072.089-.1.092-.134a59.2,59.2,0,0,0,.192-9.525,9.766,9.766,0,0,0-.921-3.582A3.514,3.514,0,0,0,8.212,111.1c.2,1.364.327,2.679.4,4,.151,2.8.1,5.6.126,8.4,0,.222-.059.454.154.645.812.728,1.611,1.468,2.421,2.209" transform="translate(0 -87.206)" fill="#040403"/>
        <path id="Trazado_166269" data-name="Trazado 166269" d="M129.765,259.032a1.075,1.075,0,0,1,1.525.095q3.125,2.753,6.274,5.477a1.63,1.63,0,0,1,.571,1.2,91.763,91.763,0,0,1,.093,12.485,1.728,1.728,0,0,1-.622,1.479h-.758a1.741,1.741,0,0,1-.6-.9c.05-.711.116-1.422.147-2.134a86.921,86.921,0,0,0-.122-10.331,1,1,0,0,0-.389-.739q-2.908-2.516-5.794-5.056c-.654-.572-.7-.818-.329-1.574" transform="translate(-107.644 -215.036)" fill="#040403"/>
        <path id="Trazado_166270" data-name="Trazado 166270" d="M275.981,319.592a1.075,1.075,0,0,1-.456,1.414c-.883.644-1.746,1.315-2.632,1.953a.611.611,0,0,0-.291.624,31.447,31.447,0,0,1,0,5.041,1.587,1.587,0,0,1-.651,1.332h-.758c-.193-.288-.53-.487-.541-.886a31.99,31.99,0,0,0,.027-6.04,1.242,1.242,0,0,1,.572-1.229c1.061-.753,2.094-1.545,3.14-2.32a1.026,1.026,0,0,1,1.6.11" transform="translate(-224.916 -265.225)" fill="#040403"/>
        <path id="Trazado_166271" data-name="Trazado 166271" d="M235.351,160.859l-7.056-.028a10.839,10.839,0,0,0-.119-1.562c.065-1.509.009-3.018.093-4.532.081-1.462.127-2.934.186-4.4a2.455,2.455,0,0,1,.32-1.619c.424-.491.859-.981,1.316-1.438,1.587-1.589,3.129-3.222,4.864-4.665a14.457,14.457,0,0,1,8.265-3.752c.071.294-.207.357-.35.483q-3.374,2.994-6.875,5.839a1.205,1.205,0,0,0-.592.917.917.917,0,0,0,.529.864.931.931,0,0,0,1.1-.178c1.374-1.143,2.754-2.279,4.114-3.438,1.3-1.1,2.574-2.231,3.855-3.354.884-.774.891-1.166.065-2.024-.115-.12-.222-.248-.332-.372.105-.232.307-.244.528-.258a4.392,4.392,0,0,0,4.406-3.96,16.42,16.42,0,0,0,.148-3.491,48.371,48.371,0,0,1,.243-7.36,15.28,15.28,0,0,1,.823-3.728,14.526,14.526,0,0,1,1.192-2.049c.447-.09.289.245.284.433-.064,2.5-.155,5.005-.2,7.508-.089,4.63-.009,9.258.265,13.881a1.08,1.08,0,0,1-.356.878,118.65,118.65,0,0,1-9.14,8.7c-.611.527-.657.888-.229,1.581a5.63,5.63,0,0,0-2.014,1.647,1.026,1.026,0,0,0-1.6-.11c-1.046.775-2.079,1.566-3.14,2.32a1.242,1.242,0,0,0-.572,1.229,32,32,0,0,1-.026,6.04" transform="translate(-189.62 -97.013)" fill="#fde4c5"/>
        <path id="Trazado_166272" data-name="Trazado 166272" d="M115.12,7.365c.78-.262,1.021-.175,1.526.55A18.372,18.372,0,1,1,98.688.234a18.068,18.068,0,0,1,14.278,3.754c.71.547.768.793.451,1.555-.645.487-.917.487-1.558-.013A16.9,16.9,0,0,0,98.722,2.139a16.443,16.443,0,0,0-13.5,18.413c1.144,7.131,5.315,11.74,12.255,13.739a14.6,14.6,0,0,0,8.163-.032l.294-.067,0,0c.182-.046.368-.084.546-.141a16.47,16.47,0,0,0,8.626-25.022c-.53-.776-.529-1.025.007-1.667" transform="translate(-69.108 0)" fill="#040403"/>
        <path id="Trazado_166273" data-name="Trazado 166273" d="M83.354,262.258l-2.552-.013a11.856,11.856,0,0,1,.116-1.689c-.057-1.425-.013-2.85-.09-4.28-.079-1.463-.11-2.936-.194-4.4-.033-.576.114-1.244-.309-1.748-.5-.594-1.024-1.169-1.579-1.711-1.277-1.248-2.5-2.553-3.837-3.74-2.611-2.309-5.432-4.143-9.032-4.4a3.758,3.758,0,0,1,4.86-1.025,15.338,15.338,0,0,1,2.363,1.436c.716.5.949.5,1.613-.041l2.154,1.778c-.375.756-.325,1,.329,1.574q2.894,2.532,5.794,5.056a1,1,0,0,1,.389.74,86.914,86.914,0,0,1,.122,10.331c-.032.712-.1,1.423-.147,2.134" transform="translate(-54.747 -198.427)" fill="#fcd3ae"/>
        <path id="Trazado_166274" data-name="Trazado 166274" d="M226.359,19.621c-.536.642-.537.891-.007,1.667a16.47,16.47,0,0,1-8.626,25.022c-.179.057-.364.094-.546.141.039-.267.291-.28.464-.37a16.855,16.855,0,0,0,5.72-4.75A17.058,17.058,0,0,0,226.835,28a16.939,16.939,0,0,0-7.628-11.927c-.709-.476-1.46-.888-2.192-1.33a15.519,15.519,0,0,1,6.083,3.038c.64.5.912.5,1.558.013l1.7,1.822" transform="translate(-180.347 -12.256)" fill="#fdd165"/>
        <path id="Trazado_166275" data-name="Trazado 166275" d="M230.058,240.276a14.456,14.456,0,0,0-8.265,3.752c-1.736,1.443-3.277,3.076-4.864,4.665-.456.457-.892.946-1.316,1.438a2.453,2.453,0,0,0-.319,1.619c-.059,1.467-.1,2.939-.186,4.4-.084,1.513-.028,3.023-.093,4.532a10.837,10.837,0,0,1,.119,1.562l-2.554.013a82.911,82.911,0,0,1-.159-10.273.743.743,0,0,0,.009-.126c-.273-1.882.667-3.077,2.075-4.209,2.865-2.3,5.5-4.889,8.481-7.059a13.357,13.357,0,0,1,2.147-1.314,3.787,3.787,0,0,1,4.925,1" transform="translate(-176.459 -198.428)" fill="#fcd3ae"/>
        <path id="Trazado_166276" data-name="Trazado 166276" d="M332.658,116.827a14.542,14.542,0,0,0-1.192,2.049,15.294,15.294,0,0,0-.823,3.728,48.368,48.368,0,0,0-.243,7.36,16.428,16.428,0,0,1-.148,3.49,4.392,4.392,0,0,1-4.406,3.96c-.221.014-.423.026-.528.258-.353-.18-.1-.321.038-.451.7-.642,1.385-1.3,2.107-1.909a1.707,1.707,0,0,0,.641-1.425c-.008-3.076-.055-6.153.132-9.227a19.418,19.418,0,0,1,.763-4.977,3.772,3.772,0,0,1,3.658-2.855" transform="translate(-270.2 -97.087)" fill="#fcd3ae"/>
        <path id="Trazado_166277" data-name="Trazado 166277" d="M317.046,141.477c-.175,1.282-.314,2.552-.384,3.83-.155,2.839-.123,5.679-.118,8.52a1.087,1.087,0,0,1-.41.918c-.746.645-1.463,1.324-2.3,2.087-.05-.786-.1-1.458-.134-2.132a41.71,41.71,0,0,1,.057-8.44,9.37,9.37,0,0,1,.784-2.712,3.574,3.574,0,0,1,2.506-2.071" transform="translate(-260.537 -117.572)" fill="#fde4c5"/>
        <path id="Trazado_166278" data-name="Trazado 166278" d="M20.652,138.83c3.6.26,6.421,2.093,9.032,4.4,1.341,1.187,2.56,2.492,3.837,3.74.554.542,1.08,1.117,1.579,1.711.423.5.277,1.173.309,1.748.083,1.464.115,2.938.194,4.4.077,1.429.033,2.854.09,4.28a11.876,11.876,0,0,0-.116,1.689l-7.057.027a30.38,30.38,0,0,1-.027-5.931,1.429,1.429,0,0,0-.687-1.429A111.125,111.125,0,0,1,11.82,139.447a1.181,1.181,0,0,1-.358-1,122.405,122.405,0,0,0,.116-20.2c-.038-.419-.037-.842-.063-1.263-.013-.212.038-.332.279-.259a9.148,9.148,0,0,1,1.655,3.55,36.931,36.931,0,0,1,.615,5.923c.128,2.094-.134,4.19,0,6.288.185,2.809,1.625,4.581,4.538,4.826.22.019.423.027.528.259-1.566,1.574-.951,1.8.2,2.815,2.432,2.139,4.886,4.25,7.4,6.293a1.1,1.1,0,0,0,.967.347.936.936,0,0,0,.736-.7.975.975,0,0,0-.415-1.046c-1.34-1.118-2.688-2.226-4.02-3.354-1.043-.883-2.071-1.784-3.094-2.69-.11-.1-.372-.14-.256-.4" transform="translate(-9.521 -96.982)" fill="#fde4c5"/>
        <path id="Trazado_166279" data-name="Trazado 166279" d="M20.79,137.672c-.1-.232-.308-.24-.528-.259-2.913-.245-4.353-2.017-4.538-4.826-.138-2.1.124-4.194,0-6.287a36.913,36.913,0,0,0-.615-5.923,9.147,9.147,0,0,0-1.655-3.55A3.719,3.719,0,0,1,17,119.388a18.245,18.245,0,0,1,.875,5.336c.189,3.052.14,6.108.131,9.163a1.7,1.7,0,0,0,.642,1.424c.723.612,1.41,1.267,2.108,1.909.143.132.386.273.037.453" transform="translate(-11.178 -97.087)" fill="#fcd3ae"/>
        <path id="Trazado_166280" data-name="Trazado 166280" d="M51.7,156.658c-.81-.741-1.61-1.481-2.421-2.209-.213-.191-.152-.422-.154-.645-.021-2.8.026-5.6-.126-8.4-.071-1.322-.2-2.638-.4-4a3.514,3.514,0,0,1,2.462,2.015A9.766,9.766,0,0,1,51.984,147a59.2,59.2,0,0,1-.192,9.525c0,.032-.041.062-.092.134" transform="translate(-40.389 -117.509)" fill="#fde4c5"/>
        <path id="Trazado_166281" data-name="Trazado 166281" d="M115,11.832c.731.442,1.483.854,2.191,1.33a16.938,16.938,0,0,1,7.628,11.927,17.058,17.058,0,0,1-3.472,13.326,16.861,16.861,0,0,1-5.72,4.75c-.173.09-.425.1-.463.37l0,0a.2.2,0,0,0-.294.068,14.6,14.6,0,0,1-8.163.031c-6.94-2-11.111-6.609-12.255-13.739a16.443,16.443,0,0,1,13.5-18.413,15.653,15.653,0,0,1,7.056.353M99.065,31.192c-.685.509-.752.757-.42,1.549a13.12,13.12,0,1,0-1-5.348c-.012.878.158,1.09,1.036,1.289a10.277,10.277,0,0,0,.383,2.51" transform="translate(-78.332 -9.34)" fill="#fcee8b"/>
        <path id="Trazado_166282" data-name="Trazado 166282" d="M216.217,202.252a.2.2,0,0,1,.294-.067l-.294.067" transform="translate(-179.683 -167.993)" fill="#fdd165"/>
        <path id="Trazado_166283" data-name="Trazado 166283" d="M120.773,56.968a10.277,10.277,0,0,1-.383-2.51c.71-.218.852-.75.874-1.423a11.217,11.217,0,1,1,.884,4.831c-.275-.634-.629-1.037-1.374-.9m15.447-6.742a3.158,3.158,0,0,0-1.605-2.64c-.889-.477-1.367-.948-1.238-2.011.061-.5-.4-.836-.928-.825a.89.89,0,0,0-.921.862,3.639,3.639,0,0,0,0,.82c.043.39-.088.566-.475.724a3.767,3.767,0,0,0-1.018,6.377,4.2,4.2,0,0,0,2.565.917,1.843,1.843,0,0,1,1.71,2.2,1.874,1.874,0,0,1-3.715-.3c-.1-.648-.484-1.027-1.009-1a.977.977,0,0,0-.878,1.162,3.258,3.258,0,0,0,1.714,2.913,1.644,1.644,0,0,1,1.127,1.876c-.058.511.328.847.874.881a.911.911,0,0,0,.985-.855,3.618,3.618,0,0,0,.005-.82c-.049-.4.1-.574.477-.727a3.758,3.758,0,0,0-1.246-7.241,1.95,1.95,0,0,1-2.006-1.5,1.873,1.873,0,1,1,3.692-.581c.115.822.455,1.168,1.084,1.1.552-.058.839-.459.81-1.343" transform="translate(-100.04 -35.116)" fill="#fdd165"/>
        <path id="Trazado_166284" data-name="Trazado 166284" d="M115.723,47.649c.745-.139,1.1.264,1.374.9a11.235,11.235,0,1,0-.884-4.831c-.022.673-.164,1.2-.874,1.423-.878-.2-1.048-.411-1.036-1.289a13.1,13.1,0,1,1,1,5.348c-.332-.791-.265-1.04.42-1.549" transform="translate(-94.99 -25.797)" fill="#040403"/>
        <path id="Trazado_166285" data-name="Trazado 166285" d="M177.085,62.487c.029.885-.258,1.285-.81,1.343-.629.066-.969-.28-1.084-1.1a1.873,1.873,0,1,0-3.692.581,1.95,1.95,0,0,0,2.006,1.5,3.758,3.758,0,0,1,1.246,7.241c-.376.153-.526.33-.477.727a3.619,3.619,0,0,1-.005.82.911.911,0,0,1-.985.855c-.547-.035-.932-.37-.874-.881a1.644,1.644,0,0,0-1.127-1.876,3.258,3.258,0,0,1-1.714-2.913.977.977,0,0,1,.878-1.162c.525-.031.909.348,1.009,1a1.874,1.874,0,0,0,3.715.3,1.843,1.843,0,0,0-1.71-2.2,4.2,4.2,0,0,1-2.565-.917,3.767,3.767,0,0,1,1.018-6.377c.387-.158.518-.334.475-.724a3.639,3.639,0,0,1,0-.82.89.89,0,0,1,.921-.862c.528-.011.99.321.928.825-.13,1.063.348,1.534,1.238,2.011a3.158,3.158,0,0,1,1.605,2.64" transform="translate(-140.904 -47.377)" fill="#040403"/>
      </g>
    </g>
  </g>
</svg>
