<svg id="Grupo_114832" data-name="Grupo 114832" xmlns="http://www.w3.org/2000/svg" xmlns:xlink="http://www.w3.org/1999/xlink" width="100" height="98.511" viewBox="0 0 100 98.511">
  <defs>
    <clipPath id="clip-path">
      <rect id="Rectángulo_37642" data-name="Rectángulo 37642" width="100" height="98.511" fill="none"/>
    </clipPath>
  </defs>
  <g id="Grupo_114831" data-name="Grupo 114831" clip-path="url(#clip-path)">
    <path id="Trazado_165542" data-name="Trazado 165542" d="M100,231.5c-.635,2.215-2.118,3.88-3.569,5.578-4.627,5.414-9.289,10.8-13.825,16.29a14.382,14.382,0,0,1-10.689,5.244c-4.708.3-9.431.071-14.148.117-4.846.047-9.695-.129-14.538.12-1.478.076-2.95.286-4.455.438.112.471.451.638.689.88,1.145,1.166,1.171,2.21.03,3.383q-5.274,5.421-10.562,10.828c-.795.815-1.578,1.642-2.385,2.445a1.973,1.973,0,0,1-3.153.082Q12.113,266.186.849,255.444A1.977,1.977,0,0,1,.8,252.23q6.557-6.828,13.132-13.637a2,2,0,0,1,3.218-.05c.661.626,1.343,1.235,1.954,1.909.471.519.721.5,1.146-.081a25.39,25.39,0,0,1,6.935-6.5,20.529,20.529,0,0,1,16.834-2.5,38.255,38.255,0,0,0,9.933,1.219c4.717-.011,9.434.01,14.151-.007a7.148,7.148,0,0,1,6.363,3.111c.471.688.683.105.927-.136,3.5-3.446,6.968-6.926,10.49-10.35a8.557,8.557,0,0,1,12.839,1.18A12.445,12.445,0,0,1,100,229.161ZM57.937,254.745c3.725,0,8.509.084,13.288-.028a10.875,10.875,0,0,0,8.639-4.177c3.452-4.275,7.091-8.4,10.648-12.589,1.579-1.859,3.193-3.691,4.717-5.594,1.341-1.675,1.051-3.358-.678-4.63a4.571,4.571,0,0,0-6.11.471c-3.983,3.931-7.947,7.879-11.937,11.8a2.273,2.273,0,0,0-.723,1.515,7.2,7.2,0,0,1-7.1,6.6c-2.5.061-5.01.024-7.515.026-2.115,0-4.23.019-6.344-.013a1.912,1.912,0,0,1-1.976-1.967,1.964,1.964,0,0,1,1.926-1.941c.259-.019.52-.006.78-.006q6.344,0,12.688,0a3.266,3.266,0,0,0,3.015-1.452,4.393,4.393,0,0,0,.186-4.468c-.679-1.406-1.928-1.779-3.411-1.769-4.814.031-9.63.014-14.444.011a38.581,38.581,0,0,1-10.222-1.279,17.413,17.413,0,0,0-8.772-.3c-4.9,1.171-8.489,4.187-11.467,8.088-.424.556-.464.887.094,1.419q5.507,5.254,10.93,10.6a2.049,2.049,0,0,0,1.9.617c2.257-.284,4.518-.565,6.785-.73,4.677-.34,9.366-.07,15.106-.2M24.821,272.8c.287-.014.395-.239.541-.389,3.247-3.326,6.479-6.667,9.74-9.978.436-.443.368-.665-.041-1.059q-9.467-9.148-18.9-18.334c-.417-.406-.632-.461-1.064-.007q-4.873,5.122-9.808,10.185c-.425.436-.414.652.022,1.066q9.555,9.054,19.08,18.141c.14.133.29.256.426.375" transform="translate(0 -179.145)" fill="#040303"/>
    <path id="Trazado_165543" data-name="Trazado 165543" d="M70.406,21.708A9.969,9.969,0,0,1,73.6,18.86c.665-.362.146-.618-.03-.876A11.078,11.078,0,0,1,72.211,7.33,11.306,11.306,0,0,1,93.966,9.62a10.964,10.964,0,0,1-2.017,8.386c-.376.525-.309.688.217.979a10.248,10.248,0,0,1,3,2.709,10.238,10.238,0,0,1,3.183-2.831c.654-.36.156-.622-.031-.889a11.336,11.336,0,1,1,18.543-.195c-.462.66-.461.885.242,1.339a9.861,9.861,0,0,1,4.747,8.468c.069,3.057.037,6.117.012,9.175a4.6,4.6,0,0,1-4.388,4.71c-1.879.125-3.772.062-5.658.065-4.392.007-8.785,0-13.177,0a5.372,5.372,0,0,1-3.089-.7.623.623,0,0,0-.787.007,5.13,5.13,0,0,1-2.9.688H73.71a5.139,5.139,0,0,1-2.9-.683.622.622,0,0,0-.786-.02,5.021,5.021,0,0,1-2.891.7c-6.084,0-12.168.017-18.252-.007-3.291-.013-5.174-1.949-5.18-5.246q-.008-4.148,0-8.3a10.04,10.04,0,0,1,5-9.02c.6-.373.416-.582.12-1.006a11.33,11.33,0,1,1,18.486-.095c-.4.564-.526.8.2,1.187a9.067,9.067,0,0,1,2.9,2.654m37.081,15.855c3.09,0,6.181-.012,9.271.008.81.005,1.2-.283,1.192-1.135-.023-2.96.028-5.921-.027-8.881a6.31,6.31,0,0,0-4.6-5.891,1.639,1.639,0,0,0-1.21.067,11.041,11.041,0,0,1-9.165,0,1.648,1.648,0,0,0-1.211-.069,6.411,6.411,0,0,0-4.62,6.383c-.029,2.732-.011,5.465,0,8.2,0,1.132.186,1.316,1.292,1.318q4.538.008,9.076,0m-49.516,0c3.09,0,6.18-.011,9.27.008.742,0,1.192-.209,1.187-1.033-.018-3.09.049-6.182-.06-9.268a6.173,6.173,0,0,0-4.635-5.634,1.413,1.413,0,0,0-1.025.055,11.139,11.139,0,0,1-9.348,0,1.418,1.418,0,0,0-1.024-.065,6.306,6.306,0,0,0-4.69,6.012c-.037,2.894.012,5.79-.026,8.684-.013.943.365,1.257,1.276,1.248,3.025-.032,6.05-.012,9.075-.013m24.749,0c3.089,0,6.178-.013,9.267.009.807.006,1.2-.266,1.195-1.125-.025-2.959.019-5.918-.027-8.877a6.271,6.271,0,0,0-4.566-5.9,1.634,1.634,0,0,0-1.211.055,11.049,11.049,0,0,1-9.164.013A1.654,1.654,0,0,0,77,21.657a6.226,6.226,0,0,0-4.58,5.786c-.076,2.957-.008,5.918-.045,8.876-.012.925.341,1.268,1.268,1.257,3.024-.036,6.048-.013,9.072-.013m.037-18.79a7.409,7.409,0,1,0-7.378-7.38,7.435,7.435,0,0,0,7.378,7.38M65.425,11.39a7.408,7.408,0,1,0-7.37,7.383,7.427,7.427,0,0,0,7.37-7.383m34.723-.069a7.4,7.4,0,1,0,14.8.1,7.4,7.4,0,1,0-14.8-.1" transform="translate(-35.129 0)" fill="#040303"/>
    <path id="Trazado_165544" data-name="Trazado 165544" d="M151.438,270.867c-5.74.128-10.429-.142-15.106.2-2.268.165-4.529.445-6.785.73a2.05,2.05,0,0,1-1.9-.617q-5.423-5.341-10.93-10.6c-.558-.532-.518-.864-.094-1.419,2.978-3.9,6.57-6.917,11.466-8.088a17.411,17.411,0,0,1,8.772.3,38.587,38.587,0,0,0,10.222,1.279c4.815,0,9.63.02,14.444-.01,1.483-.009,2.731.363,3.411,1.769a4.394,4.394,0,0,1-.186,4.468,3.265,3.265,0,0,1-3.015,1.452q-6.344-.013-12.688,0c-.26,0-.522-.012-.78.006a1.964,1.964,0,0,0-1.926,1.94,1.913,1.913,0,0,0,1.976,1.968c2.114.032,4.229.015,6.344.014,2.505,0,5.011.034,7.515-.026a7.2,7.2,0,0,0,7.1-6.6,2.273,2.273,0,0,1,.723-1.515c3.989-3.924,7.954-7.872,11.937-11.8a4.571,4.571,0,0,1,6.11-.471c1.729,1.271,2.02,2.955.679,4.63-1.524,1.9-3.139,3.734-4.717,5.594-3.558,4.19-7.2,8.314-10.649,12.589a10.875,10.875,0,0,1-8.639,4.176c-4.779.112-9.563.028-13.288.028m-11.151-6.612a1.92,1.92,0,0,0,1.932-2,1.969,1.969,0,1,0-3.937.038,2,2,0,0,0,2.006,1.965" transform="translate(-93.501 -195.267)" fill="#fdcbab"/>
    <path id="Trazado_165545" data-name="Trazado 165545" d="M45.24,354.287c-.136-.119-.286-.242-.426-.375q-9.536-9.075-19.08-18.141c-.436-.414-.447-.63-.022-1.066q4.934-5.063,9.808-10.185c.433-.454.647-.4,1.064.007q9.429,9.187,18.9,18.334c.408.395.477.617.041,1.059-3.262,3.311-6.493,6.652-9.74,9.978-.146.15-.254.375-.541.389" transform="translate(-20.419 -260.629)" fill="#ff8628"/>
    <path id="Trazado_165546" data-name="Trazado 165546" d="M326.453,126.031q-4.538,0-9.076,0c-1.107,0-1.289-.186-1.293-1.318-.007-2.732-.025-5.465,0-8.2a6.411,6.411,0,0,1,4.62-6.383,1.647,1.647,0,0,1,1.211.068,11.041,11.041,0,0,0,9.165,0,1.64,1.64,0,0,1,1.21-.067,6.31,6.31,0,0,1,4.6,5.892c.055,2.959,0,5.92.027,8.88.007.852-.382,1.141-1.192,1.135-3.09-.021-6.181-.008-9.271-.008" transform="translate(-254.096 -88.468)" fill="#fcf300"/>
    <path id="Trazado_165547" data-name="Trazado 165547" d="M74.053,125.984c-3.025,0-6.05-.02-9.075.012-.911.01-1.288-.305-1.276-1.248.039-2.894-.011-5.79.026-8.684a6.306,6.306,0,0,1,4.69-6.012,1.418,1.418,0,0,1,1.024.064,11.137,11.137,0,0,0,9.348,0,1.414,1.414,0,0,1,1.025-.055,6.173,6.173,0,0,1,4.635,5.634c.109,3.086.041,6.179.06,9.268,0,.824-.445,1.038-1.187,1.033-3.09-.019-6.18-.008-9.27-.008" transform="translate(-51.211 -88.42)" fill="#04d9b5"/>
    <path id="Trazado_165548" data-name="Trazado 165548" d="M200.312,126.029c-3.024,0-6.048-.023-9.072.013-.927.011-1.279-.332-1.268-1.257.037-2.959-.031-5.919.045-8.876a6.226,6.226,0,0,1,4.579-5.786,1.654,1.654,0,0,1,1.209.079,11.049,11.049,0,0,0,9.164-.013,1.634,1.634,0,0,1,1.211-.055,6.271,6.271,0,0,1,4.566,5.9c.045,2.958,0,5.918.027,8.877.007.86-.388,1.131-1.195,1.125-3.089-.022-6.178-.009-9.267-.009" transform="translate(-152.721 -88.466)" fill="#ff8628"/>
    <path id="Trazado_165549" data-name="Trazado 165549" d="M212.65,34.991a7.409,7.409,0,1,1,7.441-7.425,7.414,7.414,0,0,1-7.441,7.425" transform="translate(-165.021 -16.218)" fill="#fdcbab"/>
    <path id="Trazado_165550" data-name="Trazado 165550" d="M93.765,27.61a7.408,7.408,0,1,1-7.428-7.434,7.4,7.4,0,0,1,7.428,7.434" transform="translate(-63.468 -16.22)" fill="#fdcbab"/>
    <path id="Trazado_165551" data-name="Trazado 165551" d="M331.586,27.535a7.4,7.4,0,1,1,7.29,7.453,7.414,7.414,0,0,1-7.29-7.453" transform="translate(-266.566 -16.213)" fill="#fdcbab"/>
    <path id="Trazado_165552" data-name="Trazado 165552" d="M230.375,335.562a2,2,0,0,1-2.006-1.965,1.969,1.969,0,1,1,3.937-.038,1.92,1.92,0,0,1-1.932,2" transform="translate(-183.588 -266.575)" fill="#040303"/>
  </g>
</svg>
