<svg id="Grupo_114840" data-name="Grupo 114840" xmlns="http://www.w3.org/2000/svg" xmlns:xlink="http://www.w3.org/1999/xlink" width="79.985" height="80" viewBox="0 0 79.985 80">
  <defs>
    <clipPath id="clip-path">
      <rect id="Rectángulo_37651" data-name="Rectángulo 37651" width="79.985" height="80" fill="none"/>
    </clipPath>
  </defs>
  <g id="Grupo_114839" data-name="Grupo 114839" clip-path="url(#clip-path)">
    <path id="Trazado_165553" data-name="Trazado 165553" d="M38.9,0h1.875c1.913.449,2.993,1.8,3.946,3.413,3.1,5.257,6.292,10.462,9.424,15.7a1.035,1.035,0,0,0,1.042.583c5.129-.02,10.259.083,15.385-.046A5.056,5.056,0,0,1,75.964,25c-.079,14.448-.035,28.9-.033,43.347,0,.726-.259,1.7.105,2.113.421.484,1.414.125,2.158.149a1.613,1.613,0,0,1,1.79,1.851,7.8,7.8,0,0,1-7.829,7.521c-8.279.026-16.557.009-24.836.006-1.148,0-1.623-.4-1.875-1.551a1.641,1.641,0,0,1,1.935-1.572q7.381,0,14.761,0c3.359,0,6.717-.01,10.076,0,2.063.008,4.082-1.645,4.25-3.08H3.476a4.535,4.535,0,0,0,4.533,3.075q12.3.006,24.6,0a1.642,1.642,0,0,1,1.936,1.572c-.241,1.093-.716,1.548-1.716,1.548-8.428,0-16.856.029-25.284-.017A7.716,7.716,0,0,1,.289,74.263c-.064-.23-.017-.527-.289-.675V71.557a2.414,2.414,0,0,1,2.385-.943c.282.035.578-.034.857.013.692.116.838-.153.837-.831q-.033-22.525-.016-45.05a4.7,4.7,0,0,1,5.062-5.06c5.205,0,10.41-.011,15.615.014a1.161,1.161,0,0,0,1.156-.663c3.278-5.483,6.587-10.946,9.871-16.426a5.012,5.012,0,0,1,2.846-2.4c.115-.035.263-.048.289-.213M23.6,22.811c-4.89,0-9.651,0-14.413,0-1.49,0-2,.521-2,2.031q0,22.5-.016,44.993c0,.647.146.8.8.8q32.026-.029,64.052,0c.645,0,.8-.143.8-.8q-.032-22.5-.017-44.993c0-1.51-.515-2.034-2-2.034q-6.835,0-13.67,0a1.081,1.081,0,0,0-.688.09c1,1.672,1.975,3.326,2.984,4.958a4.648,4.648,0,0,1,.236,5.085,4.714,4.714,0,0,1-4.439,2.37q-15.232-.023-30.464,0a4.72,4.72,0,0,1-4.441-2.368,4.644,4.644,0,0,1,.234-5.085c1.01-1.631,1.982-3.286,3.045-5.054m16.369,9.374q7.655,0,15.311,0c1.671,0,2.38-1.194,1.532-2.6Q49.158,16.85,41.482,4.131c-.833-1.38-2.154-1.366-2.993.026Q30.863,16.814,23.238,29.471a1.748,1.748,0,0,0-.227,1.9,1.815,1.815,0,0,0,1.807.822c5.052-.014,10.1-.007,15.154-.007" fill="#010101"/>
    <path id="Trazado_165554" data-name="Trazado 165554" d="M50.775,109.206c-1.063,1.769-2.035,3.423-3.045,5.054a4.644,4.644,0,0,0-.234,5.085,4.721,4.721,0,0,0,4.441,2.368q15.232-.025,30.464,0a4.714,4.714,0,0,0,4.439-2.37,4.648,4.648,0,0,0-.236-5.085c-1.01-1.631-1.98-3.286-2.985-4.958a1.08,1.08,0,0,1,.688-.09q6.835-.007,13.67,0c1.485,0,2,.525,2,2.034q0,22.5.017,44.994c0,.653-.157.8-.8.8q-32.026-.028-64.052,0c-.651,0-.8-.153-.8-.8q.031-22.5.016-44.993c0-1.51.513-2.03,2-2.031,4.762,0,9.523,0,14.413,0m-10.167,33.27c0-1.526.026-3.054-.014-4.58-.014-.52.176-.586.622-.577,1.327.027,2.656.023,3.983,0a1.56,1.56,0,1,0,.011-3.115c-.7-.018-1.406.017-2.108-.01-.821-.032-1.981.367-2.373-.158-.414-.554-.091-1.646-.128-2.5-.017-.393.129-.473.489-.468,1.3.019,2.6.012,3.905.006,1.138,0,1.849-.6,1.858-1.547s-.706-1.57-1.828-1.575c-1.3-.006-2.6-.017-3.905.008-.407.008-.54-.1-.52-.518.034-.7.034-1.407,0-2.108-.02-.414.113-.525.52-.517,1.327.025,2.656.017,3.983.006a1.572,1.572,0,1,0-.03-3.12c-1.067-.009-2.135,0-3.2,0-1.253,0-1.253,0-1.262-1.24-.009-1.151-.582-1.857-1.525-1.88-.973-.024-1.6.7-1.6,1.883q0,15.778,0,31.556c0,1.287.574,1.865,1.855,1.865q27.845,0,55.69,0c1.117,0,1.833-.638,1.818-1.586a1.6,1.6,0,0,0-1.79-1.535c-1.276-.008-2.552-.027-3.827.011-.51.015-.641-.128-.639-.638.018-6.483.011-12.966.015-19.449,0-.2-.077-.429.089-.6.967-.985,1.94-1.964,3.033-3.068,0,.92-.008,1.619,0,2.319a1.568,1.568,0,1,0,3.119.011q.018-2.968,0-5.936a1.561,1.561,0,0,0-1.694-1.708q-2.968-.022-5.936,0a1.568,1.568,0,1,0-.019,3.119c.716.012,1.432,0,2.227,0a2.35,2.35,0,0,1-.18.263c-2.8,2.8-5.6,5.59-8.384,8.405-.339.343-.58.27-.936.092q-5.217-2.621-10.446-5.219c-1.288-.642-1.675-.578-2.678.426q-5.413,5.412-10.815,10.835a.793.793,0,0,1-1.122.19c-1.42-.756-2.881-1.434-4.305-2.181a2.074,2.074,0,0,0-2.067.019c-3.029,1.54-6.073,3.05-9.114,4.565-.223.111-.422.309-.77.253" transform="translate(-27.172 -86.396)" fill="#fff"/>
    <path id="Trazado_165555" data-name="Trazado 165555" d="M126.426,43.95c-5.051,0-10.1-.006-15.154.007a1.815,1.815,0,0,1-1.807-.822,1.748,1.748,0,0,1,.227-1.9q7.634-12.652,15.252-25.314c.839-1.391,2.16-1.406,2.993-.026q7.674,12.719,15.332,25.448c.848,1.41.139,2.6-1.532,2.6q-7.655.007-15.311,0m1.586-16.093c0-1.638.006-3.275,0-4.913a1.576,1.576,0,1,0-3.121,0q-.009,4.913,0,9.825a1.576,1.576,0,1,0,3.12,0c.008-1.637,0-3.275,0-4.912m-.005,11.371a1.558,1.558,0,1,0-1.563,1.592,1.573,1.573,0,0,0,1.563-1.592" transform="translate(-86.454 -11.765)" fill="#fcf300"/>
    <path id="Trazado_165556" data-name="Trazado 165556" d="M51.583,358.056H47.717a1.642,1.642,0,0,0-1.936-1.572q-12.3,0-24.6,0a4.535,4.535,0,0,1-4.533-3.075h72.99c-.168,1.435-2.187,3.087-4.25,3.08-3.359-.012-6.717,0-10.076,0q-7.381,0-14.761,0a1.641,1.641,0,0,0-1.935,1.572H54.747c-.221-1.058-.768-1.587-1.623-1.568-.82.018-1.341.548-1.541,1.568" transform="translate(-13.169 -279.614)" fill="#014136"/>
    <path id="Trazado_165557" data-name="Trazado 165557" d="M183.972,369.73c.2-1.02.721-1.55,1.541-1.568.855-.019,1.4.51,1.623,1.568-.23,1.046-.779,1.57-1.621,1.548-.813-.021-1.322-.532-1.543-1.548" transform="translate(-145.558 -291.289)" fill="#010101"/>
    <path id="Trazado_165558" data-name="Trazado 165558" d="M52.507,178.051c.348.057.547-.141.77-.253,3.041-1.515,6.085-3.026,9.114-4.565a2.074,2.074,0,0,1,2.068-.019c1.424.747,2.885,1.426,4.305,2.181a.793.793,0,0,0,1.121-.19q5.388-5.437,10.815-10.835c1-1,1.39-1.067,2.678-.426q5.226,2.6,10.446,5.219c.356.179.6.252.936-.092,2.781-2.815,5.587-5.606,8.384-8.405a2.35,2.35,0,0,0,.18-.263c-.8,0-1.511.01-2.227,0a1.568,1.568,0,1,1,.019-3.12q2.968-.016,5.936,0a1.561,1.561,0,0,1,1.694,1.708q.021,2.968,0,5.936a1.568,1.568,0,1,1-3.119-.011c-.011-.7,0-1.4,0-2.319-1.092,1.1-2.065,2.083-3.033,3.068-.166.169-.089.4-.089.6,0,6.483,0,12.966-.015,19.449,0,.511.129.653.639.638,1.275-.038,2.551-.019,3.827-.011a1.6,1.6,0,0,1,1.79,1.535c.015.948-.7,1.586-1.818,1.586q-27.845,0-55.69,0c-1.281,0-1.854-.578-1.854-1.865q0-15.778,0-31.556c0-1.179.626-1.907,1.6-1.883.943.023,1.516.73,1.525,1.881.009,1.24.009,1.24,1.262,1.24,1.067,0,2.135-.007,3.2,0A1.572,1.572,0,1,1,57,160.4c-1.328.011-2.656.018-3.983-.006-.407-.008-.54.1-.52.517.034.7.034,1.407,0,2.108-.02.413.113.525.52.518,1.3-.025,2.6-.014,3.905-.008,1.123.006,1.838.628,1.829,1.575s-.72,1.542-1.858,1.547c-1.3.005-2.6.013-3.905-.006-.36-.005-.506.074-.489.467.037.855-.286,1.947.128,2.5.393.525,1.552.126,2.373.158.7.027,1.406-.008,2.109.01A1.56,1.56,0,1,1,57.1,172.9c-1.328.019-2.656.023-3.983,0-.446-.009-.636.057-.622.577.041,1.526.015,3.054.015,4.58m31.247-10.429v.983c0,5.074-.007,10.148.007,15.222,0,.821-.363,1.95.155,2.381.5.413,1.585.117,2.413.132a.608.608,0,0,1,.078,0c.38.058.479-.113.478-.48q-.015-8.118-.008-16.236c0-.2.05-.42-.194-.541-.943-.467-1.885-.939-2.929-1.46m-3.138,1.23c-1.057,1.078-1.958,2-2.868,2.922a.715.715,0,0,0-.235.545q.008,6.785,0,13.571c0,.334.088.457.436.446.727-.024,1.457-.035,2.183,0,.452.024.493-.18.492-.55-.009-5.561-.006-11.122-.006-16.937m18.76.232-.176-.115c-.827.854-1.635,1.728-2.49,2.553a1.445,1.445,0,0,0-.468,1.159c.018,3.719,0,7.439.018,11.158,0,.82-.371,1.976.158,2.373.553.415,1.643.1,2.5.136.4.018.468-.143.468-.5q-.014-8.383-.006-16.767m-9.389,9.469c0,1.8-.005,3.592,0,5.388,0,.775-.262,1.821.133,2.255.455.5,1.52.082,2.312.17.6.066.726-.158.722-.731-.027-3.54-.005-7.08-.019-10.62,0-.9.345-2-.134-2.662s-1.546-.876-2.339-1.317c-.509-.283-.7-.244-.689.41.03,2.368.012,4.737.012,7.106m-15.608-3.215-.176-.122c-.917.945-1.827,1.9-2.755,2.829a.884.884,0,0,0-.193.72c0,1.69-.017,3.379.007,5.069.012.821-.365,1.948.157,2.377.5.412,1.585.115,2.413.129a.571.571,0,0,1,.078,0c.381.058.478-.115.477-.481-.012-3.507-.007-7.014-.007-10.522M61.88,177c-.974.485-1.795.924-2.643,1.3a.754.754,0,0,0-.49.838c.024,1.56-.007,3.12.016,4.679.012.822-.364,1.979.15,2.376.542.419,1.636.123,2.49.14.026,0,.052,0,.078,0,.3.036.405-.088.4-.394-.009-2.933-.005-5.867-.005-8.94m3.11,4.655c0,.729-.023,1.458.006,2.186.032.821-.369,1.947.165,2.379.508.411,1.59.1,2.418.138.431.022.583-.1.578-.556-.023-2.264-.015-4.528-.005-6.792a.621.621,0,0,0-.382-.674c-.777-.36-1.541-.749-2.3-1.146-.4-.211-.487-.066-.484.328.012,1.379,0,2.758,0,4.138M55.647,180.1c-1.069.53-1.992.992-2.919,1.445-.272.133-.238.368-.237.6,0,1.223.011,2.445-.006,3.667-.006.377.06.572.5.551.727-.034,1.457-.027,2.184,0,.379.013.486-.123.483-.491-.015-1.871-.007-3.742-.007-5.771" transform="translate(-39.071 -121.97)" fill="#010101"/>
    <path id="Trazado_165559" data-name="Trazado 165559" d="M187.183,51.628c0,1.637.006,3.275,0,4.912a1.576,1.576,0,1,1-3.121,0q-.008-4.913,0-9.825a1.576,1.576,0,1,1,3.12,0c.008,1.637,0,3.275,0,4.912" transform="translate(-145.625 -35.535)" fill="#010101"/>
    <path id="Trazado_165560" data-name="Trazado 165560" d="M187.2,125.755a1.558,1.558,0,1,1-1.553-1.524,1.573,1.573,0,0,1,1.553,1.524" transform="translate(-145.65 -98.291)" fill="#010101"/>
    <path id="Trazado_165561" data-name="Trazado 165561" d="M213.558,218.635c1.044.521,1.985.993,2.929,1.46.244.121.194.341.194.541q0,8.118.008,16.236c0,.367-.1.538-.478.48a.6.6,0,0,0-.078,0c-.828-.015-1.916.281-2.413-.132-.518-.43-.153-1.559-.155-2.381-.014-5.074-.007-10.148-.007-15.221v-.984" transform="translate(-168.875 -172.984)" fill="#ff8628"/>
    <path id="Trazado_165562" data-name="Trazado 165562" d="M187.205,224.525c0,5.815,0,11.376.006,16.937,0,.369-.04.573-.492.55-.726-.038-1.456-.027-2.183,0-.348.011-.437-.112-.436-.446q.014-6.785,0-13.571a.714.714,0,0,1,.234-.544c.91-.918,1.812-1.844,2.868-2.922" transform="translate(-145.66 -177.644)" fill="#009e83"/>
    <path id="Trazado_165563" data-name="Trazado 165563" d="M276.537,225.2q0,8.383.006,16.767c0,.355-.072.515-.467.5-.854-.038-1.944.279-2.5-.136-.529-.4-.154-1.553-.158-2.373-.018-3.719,0-7.439-.018-11.158a1.445,1.445,0,0,1,.468-1.159c.855-.825,1.663-1.7,2.49-2.553l.176.115" transform="translate(-216.231 -178.087)" fill="#ff8628"/>
    <path id="Trazado_165564" data-name="Trazado 165564" d="M243.543,241.871c0-2.369.019-4.737-.012-7.106-.008-.655.179-.693.689-.41.793.44,1.865.659,2.339,1.316s.131,1.758.135,2.662c.014,3.54-.008,7.08.019,10.62,0,.572-.12.8-.722.731-.792-.087-1.857.331-2.312-.17-.395-.434-.129-1.48-.133-2.255-.008-1.8,0-3.592,0-5.388" transform="translate(-192.627 -185.289)" fill="#009e83"/>
    <path id="Trazado_165565" data-name="Trazado 165565" d="M156.834,255.126c0,3.507,0,7.015.007,10.522,0,.366-.1.539-.477.481a.566.566,0,0,0-.078,0c-.828-.015-1.912.283-2.412-.129-.521-.429-.145-1.557-.157-2.377-.024-1.689-.008-3.379-.007-5.069a.884.884,0,0,1,.193-.72c.928-.934,1.839-1.885,2.755-2.829l.176.122" transform="translate(-121.525 -201.759)" fill="#ff8628"/>
    <path id="Trazado_165566" data-name="Trazado 165566" d="M96.968,263.575c0,3.074,0,6.007,0,8.94,0,.306-.105.431-.4.394a.741.741,0,0,0-.078,0c-.853-.017-1.947.279-2.49-.14-.514-.4-.138-1.554-.15-2.376-.023-1.56.008-3.12-.016-4.679a.754.754,0,0,1,.49-.838c.848-.378,1.669-.817,2.643-1.3" transform="translate(-74.159 -208.54)" fill="#ff8628"/>
    <path id="Trazado_165567" data-name="Trazado 165567" d="M123.722,268.584c0-1.379.008-2.759,0-4.138,0-.393.081-.539.484-.327.759.4,1.523.787,2.3,1.146a.621.621,0,0,1,.382.674c-.01,2.264-.018,4.529.005,6.792,0,.458-.147.578-.578.556-.828-.042-1.909.273-2.418-.138-.533-.432-.132-1.557-.165-2.379-.029-.727-.006-1.457-.006-2.186" transform="translate(-97.803 -208.894)" fill="#009e83"/>
    <path id="Trazado_165568" data-name="Trazado 165568" d="M67.4,278.4c0,2.029-.008,3.9.007,5.771,0,.368-.1.5-.483.491-.727-.025-1.457-.032-2.184,0-.443.021-.508-.174-.5-.551.018-1.222.007-2.445.006-3.667,0-.232-.035-.467.237-.6.927-.453,1.849-.915,2.919-1.445" transform="translate(-50.827 -220.273)" fill="#009e83"/>
  </g>
</svg>
