<svg xmlns="http://www.w3.org/2000/svg" xmlns:xlink="http://www.w3.org/1999/xlink" width="1027.105" height="272.749" viewBox="0 0 1027.105 272.749">
  <defs>
    <clipPath id="clip-path">
      <path id="Trazado_166313" data-name="Trazado 166313" d="M908.03,157.865a121.6,121.6,0,1,0,121.6-121.6,121.6,121.6,0,0,0-121.6,121.6" transform="translate(-908.03 -36.263)" fill="#fff"/>
    </clipPath>
    <clipPath id="clip-path-2">
      <path id="Trazado_166314" data-name="Trazado 166314" d="M923.657,166.747A114.856,114.856,0,1,0,1038.512,51.892,114.856,114.856,0,0,0,923.657,166.747" transform="translate(-923.657 -51.892)" fill="#f6f6f6"/>
    </clipPath>
    <clipPath id="clip-path-3">
      <rect id="Rectángulo_37686" data-name="Rectángulo 37686" width="100" height="103.655" fill="none"/>
    </clipPath>
  </defs>
  <g id="Grupo_114908" data-name="Grupo 114908" transform="translate(-285 -898.782)">
    <path id="Trazado_166307" data-name="Trazado 166307" d="M978.01,17.859,960.142,6.2l1.392,21.242A136.157,136.157,0,0,0,921.976,68.95l111.941,64.206V4.126A134.775,134.775,0,0,0,978.01,17.859" transform="translate(-238.943 894.656)" fill="#009e83"/>
    <path id="Trazado_166308" data-name="Trazado 166308" d="M1270.416,27.218l1.365-20.836-17.557,11.454a134.775,134.775,0,0,0-55.861-13.71v129.03L1310.3,68.95a136.172,136.172,0,0,0-39.889-41.732" transform="translate(-396.01 894.656)" fill="#007a64"/>
    <path id="Trazado_166309" data-name="Trazado 166309" d="M1033.917,332.513,921.975,396.719a136.172,136.172,0,0,0,39.573,41.515l-1.406,21.453L978.2,447.9a134.777,134.777,0,0,0,55.714,13.639Z" transform="translate(-238.943 708.039)" fill="#009e83"/>
    <path id="Trazado_166310" data-name="Trazado 166310" d="M1310.3,396.719l-111.942-64.206v129.03a134.783,134.783,0,0,0,55.667-13.617l17.752,11.581L1270.4,438.46a136.166,136.166,0,0,0,39.9-41.741" transform="translate(-396.01 708.039)" fill="#007a64"/>
    <path id="Trazado_166311" data-name="Trazado 166311" d="M979.592,233.278,867.7,169.1a134.64,134.64,0,0,0-15.824,54.881l-18.937,9.4,18.962,9.553a134.64,134.64,0,0,0,15.8,54.525Z" transform="translate(-188.346 800.902)" fill="#007a64"/>
    <path id="Trazado_166312" data-name="Trazado 166312" d="M1353.7,233.378l-18.992-9.424a134.635,134.635,0,0,0-15.822-54.854l-111.893,64.178,111.893,64.178a134.632,134.632,0,0,0,15.8-54.5Z" transform="translate(-400.914 800.902)" fill="#009e83"/>
    <g id="Grupo_114892" data-name="Grupo 114892" transform="translate(677.012 912.654)">
      <g id="Grupo_114891" data-name="Grupo 114891" clip-path="url(#clip-path)">
        <rect id="Rectángulo_37684" data-name="Rectángulo 37684" width="342.435" height="342.436" transform="translate(-119.476 98.96) rotate(-39.634)" fill="#fff"/>
      </g>
    </g>
    <g id="Grupo_114894" data-name="Grupo 114894" transform="translate(683.758 919.402)">
      <g id="Grupo_114893" data-name="Grupo 114893" clip-path="url(#clip-path-2)">
        <rect id="Rectángulo_37685" data-name="Rectángulo 37685" width="317.221" height="317.221" transform="matrix(0.843, -0.538, 0.538, 0.843, -104.179, 66.497)" fill="#f6f6f6"/>
      </g>
    </g>
    <path id="Trazado_166315" data-name="Trazado 166315" d="M337.707,78.082H159.234a34.573,34.573,0,0,1,0-69.146H337.707a34.573,34.573,0,1,1,0,69.146" transform="translate(214.158 891.922)" fill="#fffb8b"/>
    <path id="Trazado_166316" data-name="Trazado 166316" d="M337.707,535.308H159.234a34.573,34.573,0,0,1,0-69.146H337.707a34.573,34.573,0,0,1,0,69.146" transform="translate(214.158 632.088)" fill="#fffb8b"/>
    <path id="Trazado_166317" data-name="Trazado 166317" d="M1890.785,78.082H1712.312a34.573,34.573,0,0,1,0-69.146h178.474a34.573,34.573,0,0,1,0,69.146" transform="translate(-668.43 891.922)" fill="#fffb8b"/>
    <path id="Trazado_166318" data-name="Trazado 166318" d="M1890.785,535.308H1712.312a34.573,34.573,0,0,1,0-69.146h178.474a34.573,34.573,0,0,1,0,69.146" transform="translate(-668.43 632.088)" fill="#fffb8b"/>
    <path id="Trazado_166319" data-name="Trazado 166319" d="M213.046,306.992H34.573a34.573,34.573,0,1,1,0-69.146H213.046a34.573,34.573,0,1,1,0,69.146" transform="translate(285 761.836)" fill="#fffb8b"/>
    <path id="Trazado_166320" data-name="Trazado 166320" d="M2018.6,306.992H1840.122a34.573,34.573,0,0,1,0-69.146H2018.6a34.573,34.573,0,0,1,0,69.146" transform="translate(-741.063 761.836)" fill="#fffb8b"/>
    <path id="Trazado_166321" data-name="Trazado 166321" d="M602.335,317a1.174,1.174,0,0,1,0-2.348l86.353-.194a1.174,1.174,0,0,1,.005,2.348L602.338,317Z" transform="translate(-56.629 718.297)" fill="#ff8628"/>
    <path id="Trazado_166322" data-name="Trazado 166322" d="M770.052,43.137H727.931a1.174,1.174,0,0,1,0-2.348h42.121a10,10,0,0,0,8.955-5.493c3.42-6.727,8.136-16.038,11.188-22.193a12.319,12.319,0,0,1,11.1-6.887h35.074a1.174,1.174,0,0,1,0,2.348H801.3a9.985,9.985,0,0,0-9,5.582c-3.057,6.164-7.777,15.483-11.2,22.214a12.338,12.338,0,0,1-11.049,6.777" transform="translate(-128.004 893.467)" fill="#ff8628"/>
    <path id="Trazado_166323" data-name="Trazado 166323" d="M728.256,83.94a3.858,3.858,0,1,1-3.858-3.858,3.858,3.858,0,0,1,3.858,3.858" transform="translate(-124.471 851.49)" fill="#ff8628"/>
    <path id="Trazado_166325" data-name="Trazado 166325" d="M1504.589,43.137h-42.121a12.337,12.337,0,0,1-11.049-6.777c-2.8-5.5-7.968-15.7-11.2-22.214a9.985,9.985,0,0,0-9-5.582h-35.074a1.174,1.174,0,0,1,0-2.348h35.074a12.319,12.319,0,0,1,11.1,6.887c3.226,6.507,8.395,16.7,11.188,22.193a10,10,0,0,0,8.956,5.493h42.121a1.174,1.174,0,0,1,0,2.348" transform="translate(-507.738 893.467)" fill="#ff8628"/>
    <path id="Trazado_166326" data-name="Trazado 166326" d="M1639.945,83.94a3.858,3.858,0,1,0,3.858-3.858,3.858,3.858,0,0,0-3.858,3.858" transform="translate(-646.953 851.49)" fill="#ff8628"/>
    <path id="Trazado_166328" data-name="Trazado 166328" d="M1503.107,537.954a3.859,3.859,0,0,0-3.674,2.684h-38.447a12.336,12.336,0,0,0-11.049,6.777c-2.792,5.493-7.96,15.683-11.2,22.214a9.986,9.986,0,0,1-9,5.582H1399.9a3.858,3.858,0,1,0,0,2.349h29.842a12.32,12.32,0,0,0,11.1-6.887c3.234-6.521,8.4-16.7,11.188-22.193a10,10,0,0,1,8.956-5.492h38.447a3.858,3.858,0,1,0,3.674-5.032" transform="translate(-506.258 591.289)" fill="#ff8628"/>
    <path id="Trazado_166329" data-name="Trazado 166329" d="M836.373,581.012H801.3a12.32,12.32,0,0,1-11.1-6.887c-3.058-6.168-7.772-15.473-11.188-22.194a10,10,0,0,0-8.956-5.493H727.93a1.174,1.174,0,1,1,0-2.348h42.121a12.337,12.337,0,0,1,11.049,6.777c3.419,6.725,8.137,16.038,11.2,22.214a9.986,9.986,0,0,0,9,5.582h35.074a1.174,1.174,0,1,1,0,2.348" transform="translate(-128.004 587.803)" fill="#ff8628"/>
    <path id="Trazado_166330" data-name="Trazado 166330" d="M728.256,541.733a3.858,3.858,0,1,0-3.858,3.858,3.858,3.858,0,0,0,3.858-3.858" transform="translate(-124.471 591.334)" fill="#ff8628"/>
    <path id="Trazado_166332" data-name="Trazado 166332" d="M602.661,312.553A3.858,3.858,0,1,1,598.8,308.7a3.858,3.858,0,0,1,3.858,3.858" transform="translate(-53.098 721.574)" fill="#ff8628"/>
    <path id="Trazado_166333" data-name="Trazado 166333" d="M803.459,312.553A3.858,3.858,0,1,1,799.6,308.7a3.858,3.858,0,0,1,3.858,3.858" transform="translate(-167.207 721.574)" fill="#ff8628"/>
    <path id="Trazado_166334" data-name="Trazado 166334" d="M1574.448,317a1.174,1.174,0,0,1,0-2.348l86.353-.194a1.174,1.174,0,1,1,.005,2.348L1574.45,317Z" transform="translate(-609.064 718.297)" fill="#ff8628"/>
    <path id="Trazado_166335" data-name="Trazado 166335" d="M1574.773,312.553a3.858,3.858,0,1,1-3.858-3.858,3.858,3.858,0,0,1,3.858,3.858" transform="translate(-605.533 721.574)" fill="#ff8628"/>
    <path id="Trazado_166336" data-name="Trazado 166336" d="M1775.572,312.553a3.858,3.858,0,1,1-3.858-3.858,3.858,3.858,0,0,1,3.858,3.858" transform="translate(-719.643 721.574)" fill="#ff8628"/>
    <path id="Trazado_166392" data-name="Trazado 166392" d="M10.66,10.055H6.16v3.063h5.281V15H3.816V3.625h7.609v1.9H6.16V8.234h4.5Zm4.086-3.508.07.977a2.951,2.951,0,0,1,2.43-1.133,2.453,2.453,0,0,1,2,.789,3.682,3.682,0,0,1,.672,2.359V15H17.66V9.581a1.47,1.47,0,0,0-.312-1.045,1.4,1.4,0,0,0-1.039-.325,1.553,1.553,0,0,0-1.43.814V15H12.621V6.547Zm9.586-2.078V6.547h1.445V8.2H24.332v4.219a1.007,1.007,0,0,0,.18.672.9.9,0,0,0,.688.2,3.6,3.6,0,0,0,.664-.055v1.711a4.648,4.648,0,0,1-1.367.2,2.156,2.156,0,0,1-2.422-2.4V8.2H20.84V6.547h1.234V4.469Zm6.594,10.688A4.15,4.15,0,0,1,27.9,14.016a4.054,4.054,0,0,1-1.168-3.039v-.219a5.106,5.106,0,0,1,.492-2.277,3.612,3.612,0,0,1,1.395-1.547,3.914,3.914,0,0,1,2.059-.543,3.508,3.508,0,0,1,2.73,1.094,4.444,4.444,0,0,1,1,3.1v.922H29.02a2.1,2.1,0,0,0,.66,1.328,2,2,0,0,0,1.395.5,2.437,2.437,0,0,0,2.039-.945l1.109,1.242a3.389,3.389,0,0,1-1.375,1.121A4.511,4.511,0,0,1,30.926,15.156Zm-.258-6.945a1.411,1.411,0,0,0-1.09.455,2.357,2.357,0,0,0-.535,1.3h3.141V9.788a1.681,1.681,0,0,0-.406-1.165A1.456,1.456,0,0,0,30.668,8.211Zm7.094-1.664.07.977a2.951,2.951,0,0,1,2.43-1.133,2.453,2.453,0,0,1,2,.789,3.682,3.682,0,0,1,.672,2.359V15H40.676V9.581a1.47,1.47,0,0,0-.312-1.045,1.4,1.4,0,0,0-1.039-.325,1.553,1.553,0,0,0-1.43.814V15H35.637V6.547Zm6.531,4.164a5.094,5.094,0,0,1,.887-3.148,2.877,2.877,0,0,1,2.426-1.172,2.589,2.589,0,0,1,2.039.922V3H51.91V15H49.871l-.109-.9a2.657,2.657,0,0,1-2.172,1.055A2.869,2.869,0,0,1,45.2,13.98,5.258,5.258,0,0,1,44.293,10.711Zm2.258.161a3.355,3.355,0,0,0,.414,1.829,1.348,1.348,0,0,0,1.2.636,1.51,1.51,0,0,0,1.477-.887V9.1a1.489,1.489,0,0,0-1.461-.887Q46.551,8.211,46.551,10.872Zm11,4.285a4.15,4.15,0,0,1-3.027-1.141,4.054,4.054,0,0,1-1.168-3.039v-.219a5.106,5.106,0,0,1,.492-2.277,3.612,3.612,0,0,1,1.395-1.547A3.914,3.914,0,0,1,57.3,6.391a3.508,3.508,0,0,1,2.73,1.094,4.444,4.444,0,0,1,1,3.1v.922H55.645a2.1,2.1,0,0,0,.66,1.328,2,2,0,0,0,1.395.5,2.437,2.437,0,0,0,2.039-.945l1.109,1.242a3.389,3.389,0,0,1-1.375,1.121A4.511,4.511,0,0,1,57.551,15.156Zm-.258-6.945a1.411,1.411,0,0,0-1.09.455,2.357,2.357,0,0,0-.535,1.3h3.141V9.788A1.681,1.681,0,0,0,58.4,8.623,1.456,1.456,0,0,0,57.293,8.211Zm9.766.453a6.134,6.134,0,0,0-.812-.062,1.654,1.654,0,0,0-1.68.867V15H62.309V6.547h2.133L64.5,7.555a2.092,2.092,0,0,1,1.883-1.164,2.366,2.366,0,0,1,.7.1Zm.32,9.188-1.18-.617.281-.508a4.059,4.059,0,0,0,.539-1.9v-1.75h1.906l-.008,1.563a4.059,4.059,0,0,1-.437,1.75A4.486,4.486,0,0,1,67.379,17.852Zm10.938-7.141A5.094,5.094,0,0,1,79.2,7.563a2.877,2.877,0,0,1,2.426-1.172,2.589,2.589,0,0,1,2.039.922V3h2.266V15H83.895l-.109-.9a2.657,2.657,0,0,1-2.172,1.055,2.869,2.869,0,0,1-2.395-1.176A5.258,5.258,0,0,1,78.316,10.711Zm2.258.161a3.355,3.355,0,0,0,.414,1.829,1.348,1.348,0,0,0,1.2.636,1.51,1.51,0,0,0,1.477-.887V9.1a1.489,1.489,0,0,0-1.461-.887Q80.574,8.211,80.574,10.872Zm11,4.285a4.15,4.15,0,0,1-3.027-1.141,4.054,4.054,0,0,1-1.168-3.039v-.219a5.106,5.106,0,0,1,.492-2.277,3.612,3.612,0,0,1,1.395-1.547,3.914,3.914,0,0,1,2.059-.543,3.508,3.508,0,0,1,2.73,1.094,4.444,4.444,0,0,1,1,3.1v.922H89.668a2.1,2.1,0,0,0,.66,1.328,2,2,0,0,0,1.395.5,2.437,2.437,0,0,0,2.039-.945l1.109,1.242A3.389,3.389,0,0,1,93.5,14.754,4.511,4.511,0,0,1,91.574,15.156Zm-.258-6.945a1.411,1.411,0,0,0-1.09.455,2.357,2.357,0,0,0-.535,1.3h3.141V9.788a1.681,1.681,0,0,0-.406-1.165A1.456,1.456,0,0,0,91.316,8.211Zm9.594,4.453a.727.727,0,0,0-.41-.652,4.659,4.659,0,0,0-1.316-.426q-3.016-.633-3.016-2.562A2.323,2.323,0,0,1,97.1,7.145a3.766,3.766,0,0,1,2.441-.754,4.053,4.053,0,0,1,2.574.758,2.388,2.388,0,0,1,.965,1.969h-2.258a1.092,1.092,0,0,0-.312-.8A1.322,1.322,0,0,0,99.535,8a1.351,1.351,0,0,0-.883.258.814.814,0,0,0-.312.656.7.7,0,0,0,.355.605,3.657,3.657,0,0,0,1.2.4,9.8,9.8,0,0,1,1.422.379,2.336,2.336,0,0,1,1.789,2.273,2.2,2.2,0,0,1-.992,1.871,4.28,4.28,0,0,1-2.562.715,4.47,4.47,0,0,1-1.887-.379,3.166,3.166,0,0,1-1.293-1.039,2.414,2.414,0,0,1-.469-1.426h2.141a1.179,1.179,0,0,0,.445.922,1.766,1.766,0,0,0,1.109.32,1.635,1.635,0,0,0,.98-.246A.766.766,0,0,0,100.91,12.664Zm7.164.672a1.481,1.481,0,0,0,1.016-.344,1.2,1.2,0,0,0,.406-.914h2.117a2.9,2.9,0,0,1-.469,1.574,3.093,3.093,0,0,1-1.262,1.109,3.949,3.949,0,0,1-1.77.395A3.67,3.67,0,0,1,105.254,14a4.56,4.56,0,0,1-1.047-3.184v-.148a4.508,4.508,0,0,1,1.039-3.117A3.627,3.627,0,0,1,108.1,6.391a3.555,3.555,0,0,1,2.543.9,3.2,3.2,0,0,1,.973,2.4H109.5a1.551,1.551,0,0,0-.406-1.072,1.51,1.51,0,0,0-2.223.163,3.333,3.333,0,0,0-.4,1.866v.235a3.375,3.375,0,0,0,.4,1.878A1.377,1.377,0,0,0,108.074,13.336Zm9.578-4.672a6.134,6.134,0,0,0-.812-.062,1.654,1.654,0,0,0-1.68.867V15H112.9V6.547h2.133l.063,1.008a2.092,2.092,0,0,1,1.883-1.164,2.366,2.366,0,0,1,.7.1ZM121.121,15h-2.266V6.547h2.266Zm-2.4-10.641a1.112,1.112,0,0,1,.34-.836,1.465,1.465,0,0,1,1.848,0,1.105,1.105,0,0,1,.344.836,1.108,1.108,0,0,1-.348.844,1.448,1.448,0,0,1-1.836,0A1.108,1.108,0,0,1,118.723,4.359ZM130.6,10.852a5.119,5.119,0,0,1-.867,3.168,2.872,2.872,0,0,1-2.422,1.137,2.639,2.639,0,0,1-2.2-1.055l-.1.9H122.98V3h2.258V7.3a2.571,2.571,0,0,1,2.055-.914,2.9,2.9,0,0,1,2.426,1.137,5.126,5.126,0,0,1,.879,3.2Zm-2.258-.172a3.381,3.381,0,0,0-.406-1.877,1.372,1.372,0,0,0-1.211-.592,1.489,1.489,0,0,0-1.484.885v3.346a1.509,1.509,0,0,0,1.5.893,1.4,1.4,0,0,0,1.438-1.081A5.6,5.6,0,0,0,128.34,10.679ZM134.371,15h-2.266V6.547h2.266Zm-2.4-10.641a1.112,1.112,0,0,1,.34-.836,1.465,1.465,0,0,1,1.848,0,1.105,1.105,0,0,1,.344.836,1.109,1.109,0,0,1-.348.844,1.448,1.448,0,0,1-1.836,0A1.109,1.109,0,0,1,131.973,4.359Zm9.008,4.3a6.134,6.134,0,0,0-.812-.062,1.654,1.654,0,0,0-1.68.867V15H136.23V6.547h2.133l.063,1.008a2.092,2.092,0,0,1,1.883-1.164,2.366,2.366,0,0,1,.7.1ZM35.57,35.8l1.563-5.258h2.422l-3.4,9.766-.187.445a2.577,2.577,0,0,1-2.5,1.656,3.553,3.553,0,0,1-1-.148V40.555l.344.008a1.857,1.857,0,0,0,.957-.2,1.283,1.283,0,0,0,.5-.648l.266-.7L31.57,30.547H34ZM49.328,39a2.507,2.507,0,0,1-.227-.758,2.732,2.732,0,0,1-2.133.914,3,3,0,0,1-2.059-.719,2.312,2.312,0,0,1-.816-1.812,2.389,2.389,0,0,1,1-2.062,4.915,4.915,0,0,1,2.879-.727h1.039v-.484a1.393,1.393,0,0,0-.3-.937,1.183,1.183,0,0,0-.949-.352,1.345,1.345,0,0,0-.895.273.929.929,0,0,0-.324.75H44.281a2.268,2.268,0,0,1,.453-1.359,3,3,0,0,1,1.281-.98,4.669,4.669,0,0,1,1.859-.355,3.689,3.689,0,0,1,2.48.785,2.747,2.747,0,0,1,.918,2.207v3.664a4.041,4.041,0,0,0,.336,1.82V39Zm-1.867-1.57a1.945,1.945,0,0,0,.922-.223,1.462,1.462,0,0,0,.625-.6V35.156h-.844q-1.7,0-1.8,1.172l-.008.133a.9.9,0,0,0,.3.7A1.153,1.153,0,0,0,47.461,37.43ZM53.555,39V32.2H52.3V30.547h1.258v-.391a3.17,3.17,0,0,1,.98-2.457,3.945,3.945,0,0,1,2.723-.863,9.031,9.031,0,0,1,2.563.461l-.328,1.867a10,10,0,0,0-1.187-.293A5.834,5.834,0,0,0,57.4,28.8q-1.578,0-1.578,1.4v.344h1.664V32.2H55.82V39Zm7.32,0H58.609V30.547h2.266Zm6.766,0a2.507,2.507,0,0,1-.227-.758,2.732,2.732,0,0,1-2.133.914,3,3,0,0,1-2.059-.719,2.312,2.312,0,0,1-.816-1.812,2.389,2.389,0,0,1,1-2.062,4.915,4.915,0,0,1,2.879-.727H67.32v-.484a1.393,1.393,0,0,0-.3-.937,1.183,1.183,0,0,0-.949-.352,1.345,1.345,0,0,0-.895.273.929.929,0,0,0-.324.75H62.594a2.268,2.268,0,0,1,.453-1.359,3,3,0,0,1,1.281-.98,4.669,4.669,0,0,1,1.859-.355,3.689,3.689,0,0,1,2.48.785,2.747,2.747,0,0,1,.918,2.207v3.664a4.041,4.041,0,0,0,.336,1.82V39Zm-1.867-1.57a1.945,1.945,0,0,0,.922-.223,1.462,1.462,0,0,0,.625-.6V35.156h-.844q-1.7,0-1.8,1.172l-.008.133a.9.9,0,0,0,.3.7A1.153,1.153,0,0,0,65.773,37.43ZM73.4,30.547l.07.977a2.951,2.951,0,0,1,2.43-1.133,2.453,2.453,0,0,1,2,.789,3.682,3.682,0,0,1,.672,2.359V39H76.313V33.581A1.47,1.47,0,0,0,76,32.536a1.4,1.4,0,0,0-1.039-.325,1.553,1.553,0,0,0-1.43.814V39H71.273V30.547Zm9.477,6.633h4.133V39H79.992V37.625l3.977-5.258H80.109v-1.82h6.773v1.33ZM93.32,39a2.507,2.507,0,0,1-.227-.758,2.732,2.732,0,0,1-2.133.914,3,3,0,0,1-2.059-.719,2.312,2.312,0,0,1-.816-1.812,2.389,2.389,0,0,1,1-2.062,4.915,4.915,0,0,1,2.879-.727H93v-.484a1.393,1.393,0,0,0-.3-.937,1.183,1.183,0,0,0-.949-.352,1.345,1.345,0,0,0-.895.273.929.929,0,0,0-.324.75H88.273a2.268,2.268,0,0,1,.453-1.359,3,3,0,0,1,1.281-.98,4.669,4.669,0,0,1,1.859-.355,3.689,3.689,0,0,1,2.48.785,2.747,2.747,0,0,1,.918,2.207v3.664a4.041,4.041,0,0,0,.336,1.82V39Zm-1.867-1.57a1.945,1.945,0,0,0,.922-.223,1.462,1.462,0,0,0,.625-.6V35.156h-.844q-1.7,0-1.8,1.172l-.008.133a.9.9,0,0,0,.3.7A1.153,1.153,0,0,0,91.453,37.43Zm10.3-4.766a6.134,6.134,0,0,0-.812-.062,1.654,1.654,0,0,0-1.68.867V39H97V30.547h2.133l.063,1.008a2.092,2.092,0,0,1,1.883-1.164,2.366,2.366,0,0,1,.7.1Zm-.094,5.227a1.137,1.137,0,0,1,.363-.875,1.412,1.412,0,0,1,1.828,0,1.137,1.137,0,0,1,.363.875,1.121,1.121,0,0,1-.359.863,1.435,1.435,0,0,1-1.836,0A1.121,1.121,0,0,1,101.656,37.891Zm3.7,0a1.137,1.137,0,0,1,.363-.875,1.412,1.412,0,0,1,1.828,0,1.137,1.137,0,0,1,.363.875,1.121,1.121,0,0,1-.359.863,1.435,1.435,0,0,1-1.836,0A1.121,1.121,0,0,1,105.352,37.891Zm3.625,0a1.137,1.137,0,0,1,.363-.875,1.412,1.412,0,0,1,1.828,0,1.137,1.137,0,0,1,.363.875,1.121,1.121,0,0,1-.359.863,1.435,1.435,0,0,1-1.836,0A1.121,1.121,0,0,1,108.977,37.891Z" transform="translate(728 1076.859)" fill="#12263f"/>
    <path id="Trazado_166397" data-name="Trazado 166397" d="M12.136,10.711a5.094,5.094,0,0,1,.887-3.148,2.877,2.877,0,0,1,2.426-1.172,2.589,2.589,0,0,1,2.039.922V3h2.266V15H17.714l-.109-.9a2.657,2.657,0,0,1-2.172,1.055,2.869,2.869,0,0,1-2.395-1.176A5.258,5.258,0,0,1,12.136,10.711Zm2.258.161a3.355,3.355,0,0,0,.414,1.829,1.348,1.348,0,0,0,1.2.636,1.51,1.51,0,0,0,1.477-.887V9.1a1.489,1.489,0,0,0-1.461-.887Q14.394,8.211,14.394,10.872ZM23.886,15H21.62V6.547h2.266Zm-2.4-10.641a1.112,1.112,0,0,1,.34-.836,1.465,1.465,0,0,1,1.848,0,1.105,1.105,0,0,1,.344.836,1.108,1.108,0,0,1-.348.844,1.448,1.448,0,0,1-1.836,0A1.108,1.108,0,0,1,21.487,4.359Zm8.836,8.3a.727.727,0,0,0-.41-.652,4.659,4.659,0,0,0-1.316-.426q-3.016-.633-3.016-2.562a2.323,2.323,0,0,1,.934-1.879,3.766,3.766,0,0,1,2.441-.754,4.053,4.053,0,0,1,2.574.758A2.388,2.388,0,0,1,32.5,9.117H30.237a1.092,1.092,0,0,0-.312-.8A1.322,1.322,0,0,0,28.948,8a1.351,1.351,0,0,0-.883.258.814.814,0,0,0-.312.656.7.7,0,0,0,.355.605,3.657,3.657,0,0,0,1.2.4,9.8,9.8,0,0,1,1.422.379,2.336,2.336,0,0,1,1.789,2.273,2.2,2.2,0,0,1-.992,1.871,4.28,4.28,0,0,1-2.562.715,4.47,4.47,0,0,1-1.887-.379,3.166,3.166,0,0,1-1.293-1.039,2.414,2.414,0,0,1-.469-1.426h2.141a1.179,1.179,0,0,0,.445.922,1.766,1.766,0,0,0,1.109.32,1.635,1.635,0,0,0,.98-.246A.766.766,0,0,0,30.323,12.664Zm6.352-8.2V6.547H38.12V8.2H36.675v4.219a1.007,1.007,0,0,0,.18.672.9.9,0,0,0,.688.2,3.6,3.6,0,0,0,.664-.055v1.711a4.648,4.648,0,0,1-1.367.2,2.156,2.156,0,0,1-2.422-2.4V8.2H33.183V6.547h1.234V4.469ZM41.761,15H39.5V6.547h2.266Zm-2.4-10.641a1.112,1.112,0,0,1,.34-.836,1.465,1.465,0,0,1,1.848,0,1.105,1.105,0,0,1,.344.836,1.108,1.108,0,0,1-.348.844,1.448,1.448,0,0,1-1.836,0A1.108,1.108,0,0,1,39.362,4.359ZM45.7,6.547l.07.977A2.951,2.951,0,0,1,48.2,6.391a2.453,2.453,0,0,1,2,.789,3.682,3.682,0,0,1,.672,2.359V15H48.612V9.581A1.47,1.47,0,0,0,48.3,8.536a1.4,1.4,0,0,0-1.039-.325,1.553,1.553,0,0,0-1.43.814V15H43.573V6.547Zm9.586-2.078V6.547h1.445V8.2H55.284v4.219a1.007,1.007,0,0,0,.18.672.9.9,0,0,0,.688.2,3.6,3.6,0,0,0,.664-.055v1.711a4.648,4.648,0,0,1-1.367.2,2.156,2.156,0,0,1-2.422-2.4V8.2H51.792V6.547h1.234V4.469ZM57.4,10.7a5.013,5.013,0,0,1,.484-2.242A3.546,3.546,0,0,1,59.28,6.93a4.069,4.069,0,0,1,2.113-.539,3.849,3.849,0,0,1,2.793,1.047,4.2,4.2,0,0,1,1.207,2.844l.016.578a4.418,4.418,0,0,1-1.086,3.121,4.209,4.209,0,0,1-5.832,0A4.5,4.5,0,0,1,57.4,10.8Zm2.258.16a3.16,3.16,0,0,0,.453,1.843,1.628,1.628,0,0,0,2.578.008,3.457,3.457,0,0,0,.461-2.015A3.128,3.128,0,0,0,62.69,8.86a1.5,1.5,0,0,0-1.3-.649,1.474,1.474,0,0,0-1.281.646A3.516,3.516,0,0,0,59.659,10.856Zm11.719,1.808a.727.727,0,0,0-.41-.652,4.659,4.659,0,0,0-1.316-.426q-3.016-.633-3.016-2.562a2.323,2.323,0,0,1,.934-1.879,3.766,3.766,0,0,1,2.441-.754,4.053,4.053,0,0,1,2.574.758,2.388,2.388,0,0,1,.965,1.969H71.292a1.092,1.092,0,0,0-.312-.8A1.322,1.322,0,0,0,70,8a1.351,1.351,0,0,0-.883.258.814.814,0,0,0-.312.656.7.7,0,0,0,.355.605,3.657,3.657,0,0,0,1.2.4,9.8,9.8,0,0,1,1.422.379,2.336,2.336,0,0,1,1.789,2.273,2.2,2.2,0,0,1-.992,1.871,4.28,4.28,0,0,1-2.562.715,4.47,4.47,0,0,1-1.887-.379,3.166,3.166,0,0,1-1.293-1.039,2.414,2.414,0,0,1-.469-1.426h2.141a1.179,1.179,0,0,0,.445.922,1.766,1.766,0,0,0,1.109.32,1.635,1.635,0,0,0,.98-.246A.766.766,0,0,0,71.378,12.664ZM79.628,15V8.2H78.37V6.547h1.258V5.828a2.918,2.918,0,0,1,.816-2.207,3.162,3.162,0,0,1,2.285-.785,5.321,5.321,0,0,1,1.148.155l-.023,1.736a2.878,2.878,0,0,0-.687-.07q-1.273,0-1.273,1.205v.685h1.68V8.2h-1.68V15Zm8.82.156a4.15,4.15,0,0,1-3.027-1.141,4.054,4.054,0,0,1-1.168-3.039v-.219a5.106,5.106,0,0,1,.492-2.277A3.612,3.612,0,0,1,86.14,6.934,3.914,3.914,0,0,1,88.2,6.391a3.508,3.508,0,0,1,2.73,1.094,4.444,4.444,0,0,1,1,3.1v.922H86.542a2.1,2.1,0,0,0,.66,1.328,2,2,0,0,0,1.395.5,2.437,2.437,0,0,0,2.039-.945l1.109,1.242a3.389,3.389,0,0,1-1.375,1.121A4.511,4.511,0,0,1,88.448,15.156ZM88.19,8.211a1.411,1.411,0,0,0-1.09.455,2.357,2.357,0,0,0-.535,1.3h3.141V9.788A1.681,1.681,0,0,0,89.3,8.623,1.456,1.456,0,0,0,88.19,8.211Zm7.094-1.664.07.977a2.951,2.951,0,0,1,2.43-1.133,2.453,2.453,0,0,1,2,.789,3.682,3.682,0,0,1,.672,2.359V15H98.2V9.581a1.47,1.47,0,0,0-.312-1.045,1.4,1.4,0,0,0-1.039-.325,1.553,1.553,0,0,0-1.43.814V15H93.159V6.547Zm6.531,4.148a5.013,5.013,0,0,1,.484-2.242,3.546,3.546,0,0,1,1.395-1.523,4.069,4.069,0,0,1,2.113-.539A3.849,3.849,0,0,1,108.6,7.438a4.2,4.2,0,0,1,1.207,2.844l.016.578a4.418,4.418,0,0,1-1.086,3.121,4.209,4.209,0,0,1-5.832,0,4.5,4.5,0,0,1-1.09-3.187Zm2.258.16a3.16,3.16,0,0,0,.453,1.843,1.628,1.628,0,0,0,2.578.008,3.457,3.457,0,0,0,.461-2.015A3.128,3.128,0,0,0,107.1,8.86a1.5,1.5,0,0,0-1.3-.649,1.474,1.474,0,0,0-1.281.646A3.516,3.516,0,0,0,104.073,10.856ZM106.253,3h2.461L106.55,5.422h-1.836Zm7.078,3.547.07.945a2.971,2.971,0,0,1,2.43-1.1,2.255,2.255,0,0,1,2.242,1.289,2.9,2.9,0,0,1,2.539-1.289,2.521,2.521,0,0,1,2.047.8,3.681,3.681,0,0,1,.672,2.41V15h-2.266V9.6a1.616,1.616,0,0,0-.281-1.053,1.245,1.245,0,0,0-.992-.333,1.409,1.409,0,0,0-1.406.971L118.394,15h-2.258V9.6a1.6,1.6,0,0,0-.289-1.065,1.257,1.257,0,0,0-.984-.329,1.463,1.463,0,0,0-1.391.8V15h-2.258V6.547Zm15.625,8.609a4.15,4.15,0,0,1-3.027-1.141,4.054,4.054,0,0,1-1.168-3.039v-.219a5.106,5.106,0,0,1,.492-2.277,3.612,3.612,0,0,1,1.395-1.547,3.914,3.914,0,0,1,2.059-.543,3.508,3.508,0,0,1,2.73,1.094,4.444,4.444,0,0,1,1,3.1v.922H127.05a2.1,2.1,0,0,0,.66,1.328,2,2,0,0,0,1.395.5,2.437,2.437,0,0,0,2.039-.945l1.109,1.242a3.389,3.389,0,0,1-1.375,1.121A4.511,4.511,0,0,1,128.956,15.156ZM128.7,8.211a1.411,1.411,0,0,0-1.09.455,2.357,2.357,0,0,0-.535,1.3h3.141V9.788a1.681,1.681,0,0,0-.406-1.165A1.456,1.456,0,0,0,128.7,8.211Zm7.094-1.664.07.977a2.951,2.951,0,0,1,2.43-1.133,2.453,2.453,0,0,1,2,.789,3.682,3.682,0,0,1,.672,2.359V15h-2.258V9.581a1.47,1.47,0,0,0-.312-1.045,1.4,1.4,0,0,0-1.039-.325,1.553,1.553,0,0,0-1.43.814V15h-2.258V6.547Zm6.531,4.148a5.013,5.013,0,0,1,.484-2.242A3.546,3.546,0,0,1,144.2,6.93a4.069,4.069,0,0,1,2.113-.539,3.849,3.849,0,0,1,2.793,1.047,4.2,4.2,0,0,1,1.207,2.844l.016.578a4.418,4.418,0,0,1-1.086,3.121,4.209,4.209,0,0,1-5.832,0,4.5,4.5,0,0,1-1.09-3.187Zm2.258.16a3.16,3.16,0,0,0,.453,1.843,1.628,1.628,0,0,0,2.578.008,3.457,3.457,0,0,0,.461-2.015,3.128,3.128,0,0,0-.461-1.831,1.5,1.5,0,0,0-1.3-.649,1.474,1.474,0,0,0-1.281.646A3.516,3.516,0,0,0,144.581,10.856ZM156.3,12.664a.727.727,0,0,0-.41-.652,4.659,4.659,0,0,0-1.316-.426q-3.016-.633-3.016-2.562a2.323,2.323,0,0,1,.934-1.879,3.766,3.766,0,0,1,2.441-.754,4.053,4.053,0,0,1,2.574.758,2.388,2.388,0,0,1,.965,1.969h-2.258a1.092,1.092,0,0,0-.312-.8A1.322,1.322,0,0,0,154.925,8a1.351,1.351,0,0,0-.883.258.814.814,0,0,0-.312.656.7.7,0,0,0,.355.605,3.657,3.657,0,0,0,1.2.4,9.8,9.8,0,0,1,1.422.379A2.336,2.336,0,0,1,158.5,12.57a2.205,2.205,0,0,1-.992,1.871,4.28,4.28,0,0,1-2.562.715,4.47,4.47,0,0,1-1.887-.379,3.166,3.166,0,0,1-1.293-1.039,2.414,2.414,0,0,1-.469-1.426h2.141a1.179,1.179,0,0,0,.445.922,1.766,1.766,0,0,0,1.109.32,1.635,1.635,0,0,0,.98-.246A.766.766,0,0,0,156.3,12.664Zm9.711-6.117.07.977a2.951,2.951,0,0,1,2.43-1.133,2.453,2.453,0,0,1,2,.789,3.682,3.682,0,0,1,.672,2.359V15h-2.258V9.581a1.47,1.47,0,0,0-.312-1.045,1.4,1.4,0,0,0-1.039-.325,1.553,1.553,0,0,0-1.43.814V15h-2.258V6.547ZM177.792,15a2.507,2.507,0,0,1-.227-.758,2.732,2.732,0,0,1-2.133.914,3,3,0,0,1-2.059-.719,2.312,2.312,0,0,1-.816-1.812,2.389,2.389,0,0,1,1-2.062,4.915,4.915,0,0,1,2.879-.727h1.039V9.352a1.393,1.393,0,0,0-.3-.937,1.183,1.183,0,0,0-.949-.352,1.345,1.345,0,0,0-.895.273.929.929,0,0,0-.324.75h-2.258a2.268,2.268,0,0,1,.453-1.359,3,3,0,0,1,1.281-.98,4.669,4.669,0,0,1,1.859-.355,3.689,3.689,0,0,1,2.48.785,2.747,2.747,0,0,1,.918,2.207v3.664a4.041,4.041,0,0,0,.336,1.82V15Zm-1.867-1.57a1.945,1.945,0,0,0,.922-.223,1.462,1.462,0,0,0,.625-.6V11.156h-.844q-1.7,0-1.8,1.172l-.008.133a.9.9,0,0,0,.3.7A1.153,1.153,0,0,0,175.925,13.43Zm8.25-8.961V6.547h1.445V8.2h-1.445v4.219a1.007,1.007,0,0,0,.18.672.9.9,0,0,0,.688.2,3.6,3.6,0,0,0,.664-.055v1.711a4.648,4.648,0,0,1-1.367.2,2.156,2.156,0,0,1-2.422-2.4V8.2h-1.234V6.547h1.234V4.469Zm7.766,9.672a2.831,2.831,0,0,1-2.312,1.016,2.67,2.67,0,0,1-2.074-.781,3.335,3.335,0,0,1-.73-2.289V6.547h2.258v5.467q0,1.322,1.2,1.322a1.63,1.63,0,0,0,1.578-.8V6.547h2.266V15H192Zm8.641-5.477a6.134,6.134,0,0,0-.812-.062,1.654,1.654,0,0,0-1.68.867V15h-2.258V6.547h2.133l.063,1.008a2.092,2.092,0,0,1,1.883-1.164,2.366,2.366,0,0,1,.7.1ZM206.331,15a2.507,2.507,0,0,1-.227-.758,2.732,2.732,0,0,1-2.133.914,3,3,0,0,1-2.059-.719,2.312,2.312,0,0,1-.816-1.812,2.389,2.389,0,0,1,1-2.062,4.915,4.915,0,0,1,2.879-.727h1.039V9.352a1.393,1.393,0,0,0-.3-.937,1.183,1.183,0,0,0-.949-.352,1.345,1.345,0,0,0-.895.273.929.929,0,0,0-.324.75h-2.258a2.268,2.268,0,0,1,.453-1.359,3,3,0,0,1,1.281-.98,4.669,4.669,0,0,1,1.859-.355,3.689,3.689,0,0,1,2.48.785,2.747,2.747,0,0,1,.918,2.207v3.664a4.041,4.041,0,0,0,.336,1.82V15Zm-1.867-1.57a1.945,1.945,0,0,0,.922-.223,1.462,1.462,0,0,0,.625-.6V11.156h-.844q-1.7,0-1.8,1.172l-.008.133a.9.9,0,0,0,.3.7A1.153,1.153,0,0,0,204.464,13.43Zm7.93,1.57h-2.266V3h2.266Zm5.75.156a4.15,4.15,0,0,1-3.027-1.141,4.054,4.054,0,0,1-1.168-3.039v-.219a5.106,5.106,0,0,1,.492-2.277,3.612,3.612,0,0,1,1.395-1.547,3.914,3.914,0,0,1,2.059-.543,3.508,3.508,0,0,1,2.73,1.094,4.444,4.444,0,0,1,1,3.1v.922h-5.383a2.1,2.1,0,0,0,.66,1.328,2,2,0,0,0,1.395.5,2.437,2.437,0,0,0,2.039-.945l1.109,1.242a3.389,3.389,0,0,1-1.375,1.121A4.511,4.511,0,0,1,218.144,15.156Zm-.258-6.945a1.411,1.411,0,0,0-1.09.455,2.357,2.357,0,0,0-.535,1.3H219.4V9.788A1.681,1.681,0,0,0,219,8.623,1.456,1.456,0,0,0,217.886,8.211Zm9.594,4.453a.727.727,0,0,0-.41-.652,4.659,4.659,0,0,0-1.316-.426q-3.016-.633-3.016-2.562a2.323,2.323,0,0,1,.934-1.879,3.766,3.766,0,0,1,2.441-.754,4.053,4.053,0,0,1,2.574.758,2.388,2.388,0,0,1,.965,1.969h-2.258a1.092,1.092,0,0,0-.312-.8A1.322,1.322,0,0,0,226.1,8a1.351,1.351,0,0,0-.883.258.814.814,0,0,0-.312.656.7.7,0,0,0,.355.605,3.657,3.657,0,0,0,1.2.4,9.8,9.8,0,0,1,1.422.379,2.336,2.336,0,0,1,1.789,2.273,2.205,2.205,0,0,1-.992,1.871,4.28,4.28,0,0,1-2.562.715,4.47,4.47,0,0,1-1.887-.379,3.166,3.166,0,0,1-1.293-1.039,2.414,2.414,0,0,1-.469-1.426h2.141a1.179,1.179,0,0,0,.445.922,1.766,1.766,0,0,0,1.109.32,1.635,1.635,0,0,0,.98-.246A.766.766,0,0,0,227.479,12.664Z" transform="translate(1008.561 925.93)" fill="#12263f"/>
    <path id="Trazado_166395" data-name="Trazado 166395" d="M54.754,13.336a1.481,1.481,0,0,0,1.016-.344,1.2,1.2,0,0,0,.406-.914h2.117a2.9,2.9,0,0,1-.469,1.574,3.093,3.093,0,0,1-1.262,1.109,3.949,3.949,0,0,1-1.77.395A3.67,3.67,0,0,1,51.934,14a4.56,4.56,0,0,1-1.047-3.184v-.148a4.508,4.508,0,0,1,1.039-3.117,3.627,3.627,0,0,1,2.852-1.164,3.555,3.555,0,0,1,2.543.9,3.2,3.2,0,0,1,.973,2.4H56.176a1.551,1.551,0,0,0-.406-1.072,1.51,1.51,0,0,0-2.223.163,3.333,3.333,0,0,0-.4,1.866v.235a3.375,3.375,0,0,0,.4,1.878A1.377,1.377,0,0,0,54.754,13.336ZM61.965,15H59.7V3h2.266Zm4.242,0H63.941V6.547h2.266Zm-2.4-10.641a1.112,1.112,0,0,1,.34-.836,1.465,1.465,0,0,1,1.848,0,1.105,1.105,0,0,1,.344.836,1.108,1.108,0,0,1-.348.844,1.448,1.448,0,0,1-1.836,0A1.108,1.108,0,0,1,63.809,4.359Zm6.375,2.188.07.945a2.971,2.971,0,0,1,2.43-1.1A2.255,2.255,0,0,1,74.926,7.68a2.9,2.9,0,0,1,2.539-1.289,2.521,2.521,0,0,1,2.047.8,3.681,3.681,0,0,1,.672,2.41V15H77.918V9.6a1.616,1.616,0,0,0-.281-1.053,1.245,1.245,0,0,0-.992-.333,1.409,1.409,0,0,0-1.406.971L75.246,15H72.988V9.6A1.6,1.6,0,0,0,72.7,8.54a1.257,1.257,0,0,0-.984-.329,1.463,1.463,0,0,0-1.391.8V15H68.066V6.547ZM86.816,15a2.507,2.507,0,0,1-.227-.758,2.732,2.732,0,0,1-2.133.914,3,3,0,0,1-2.059-.719,2.312,2.312,0,0,1-.816-1.812,2.389,2.389,0,0,1,1-2.062,4.915,4.915,0,0,1,2.879-.727H86.5V9.352a1.393,1.393,0,0,0-.3-.937,1.183,1.183,0,0,0-.949-.352,1.345,1.345,0,0,0-.895.273.929.929,0,0,0-.324.75H81.77a2.268,2.268,0,0,1,.453-1.359,3,3,0,0,1,1.281-.98,4.669,4.669,0,0,1,1.859-.355,3.689,3.689,0,0,1,2.48.785,2.747,2.747,0,0,1,.918,2.207v3.664a4.041,4.041,0,0,0,.336,1.82V15Zm-1.867-1.57a1.945,1.945,0,0,0,.922-.223,1.462,1.462,0,0,0,.625-.6V11.156h-.844q-1.7,0-1.8,1.172l-.008.133a.9.9,0,0,0,.3.7A1.153,1.153,0,0,0,84.949,13.43Z" transform="translate(1116 1024)" fill="#12263f"/>
    <path id="Trazado_166393" data-name="Trazado 166393" d="M10.008,15H7.742V3h2.266Zm1.508-4.3A5.013,5.013,0,0,1,12,8.453,3.546,3.546,0,0,1,13.395,6.93a4.069,4.069,0,0,1,2.113-.539A3.849,3.849,0,0,1,18.3,7.438a4.2,4.2,0,0,1,1.207,2.844l.016.578a4.418,4.418,0,0,1-1.086,3.121,3.775,3.775,0,0,1-2.914,1.176,3.793,3.793,0,0,1-2.918-1.172,4.5,4.5,0,0,1-1.09-3.187Zm2.258.16a3.16,3.16,0,0,0,.453,1.843,1.628,1.628,0,0,0,2.578.008,3.457,3.457,0,0,0,.461-2.015A3.128,3.128,0,0,0,16.8,8.86a1.5,1.5,0,0,0-1.3-.649,1.474,1.474,0,0,0-1.281.646A3.516,3.516,0,0,0,13.773,10.856Zm11.719,1.808a.727.727,0,0,0-.41-.652,4.659,4.659,0,0,0-1.316-.426q-3.016-.633-3.016-2.562a2.323,2.323,0,0,1,.934-1.879,3.766,3.766,0,0,1,2.441-.754,4.053,4.053,0,0,1,2.574.758,2.388,2.388,0,0,1,.965,1.969H25.406a1.092,1.092,0,0,0-.312-.8A1.322,1.322,0,0,0,24.117,8a1.351,1.351,0,0,0-.883.258.814.814,0,0,0-.312.656.7.7,0,0,0,.355.605,3.657,3.657,0,0,0,1.2.4A9.8,9.8,0,0,1,25.9,10.3a2.336,2.336,0,0,1,1.789,2.273,2.2,2.2,0,0,1-.992,1.871,4.28,4.28,0,0,1-2.562.715,4.47,4.47,0,0,1-1.887-.379,3.166,3.166,0,0,1-1.293-1.039,2.414,2.414,0,0,1-.469-1.426h2.141a1.179,1.179,0,0,0,.445.922,1.766,1.766,0,0,0,1.109.32,1.635,1.635,0,0,0,.98-.246A.766.766,0,0,0,25.492,12.664Zm12.383-4a6.134,6.134,0,0,0-.812-.062,1.654,1.654,0,0,0-1.68.867V15H33.125V6.547h2.133l.063,1.008A2.092,2.092,0,0,1,37.2,6.391a2.366,2.366,0,0,1,.7.1ZM41.344,15H39.078V6.547h2.266Zm-2.4-10.641a1.112,1.112,0,0,1,.34-.836,1.465,1.465,0,0,1,1.848,0,1.105,1.105,0,0,1,.344.836,1.108,1.108,0,0,1-.348.844,1.448,1.448,0,0,1-1.836,0A1.108,1.108,0,0,1,38.945,4.359Zm8.148,10.8a4.15,4.15,0,0,1-3.027-1.141A4.054,4.054,0,0,1,42.9,10.977v-.219a5.106,5.106,0,0,1,.492-2.277,3.612,3.612,0,0,1,1.395-1.547,3.914,3.914,0,0,1,2.059-.543,3.508,3.508,0,0,1,2.73,1.094,4.444,4.444,0,0,1,1,3.1v.922H45.188a2.1,2.1,0,0,0,.66,1.328,2,2,0,0,0,1.395.5,2.437,2.437,0,0,0,2.039-.945l1.109,1.242a3.389,3.389,0,0,1-1.375,1.121A4.511,4.511,0,0,1,47.094,15.156Zm-.258-6.945a1.411,1.411,0,0,0-1.09.455,2.357,2.357,0,0,0-.535,1.3h3.141V9.788a1.681,1.681,0,0,0-.406-1.165A1.456,1.456,0,0,0,46.836,8.211Zm9.594,4.453a.727.727,0,0,0-.41-.652,4.659,4.659,0,0,0-1.316-.426q-3.016-.633-3.016-2.562a2.323,2.323,0,0,1,.934-1.879,3.766,3.766,0,0,1,2.441-.754,4.053,4.053,0,0,1,2.574.758A2.388,2.388,0,0,1,58.6,9.117H56.344a1.092,1.092,0,0,0-.312-.8A1.322,1.322,0,0,0,55.055,8a1.351,1.351,0,0,0-.883.258.814.814,0,0,0-.312.656.7.7,0,0,0,.355.605,3.657,3.657,0,0,0,1.2.4,9.8,9.8,0,0,1,1.422.379,2.336,2.336,0,0,1,1.789,2.273,2.2,2.2,0,0,1-.992,1.871,4.28,4.28,0,0,1-2.562.715,4.47,4.47,0,0,1-1.887-.379,3.166,3.166,0,0,1-1.293-1.039,2.414,2.414,0,0,1-.469-1.426h2.141a1.179,1.179,0,0,0,.445.922,1.766,1.766,0,0,0,1.109.32,1.635,1.635,0,0,0,.98-.246A.766.766,0,0,0,56.43,12.664Zm3.32-1.953a4.954,4.954,0,0,1,.926-3.133,3,3,0,0,1,2.5-1.187,2.631,2.631,0,0,1,2.164.953l.094-.8h2.047v8.172a3.613,3.613,0,0,1-.5,1.93,3.236,3.236,0,0,1-1.418,1.25,4.985,4.985,0,0,1-2.141.43,4.635,4.635,0,0,1-1.812-.371A3.217,3.217,0,0,1,60.266,17l1-1.375a2.645,2.645,0,0,0,2.047.945,1.936,1.936,0,0,0,1.4-.48,1.8,1.8,0,0,0,.5-1.363v-.453a2.612,2.612,0,0,1-2.055.883,2.992,2.992,0,0,1-2.465-1.191,4.953,4.953,0,0,1-.941-3.16Zm2.258.161a3.1,3.1,0,0,0,.461,1.809,1.465,1.465,0,0,0,1.266.655,1.567,1.567,0,0,0,1.477-.777V8.988a1.563,1.563,0,0,0-1.461-.777,1.474,1.474,0,0,0-1.277.667A3.5,3.5,0,0,0,62.008,10.872Zm6.852-.176a5.013,5.013,0,0,1,.484-2.242A3.546,3.546,0,0,1,70.738,6.93a4.069,4.069,0,0,1,2.113-.539,3.849,3.849,0,0,1,2.793,1.047,4.2,4.2,0,0,1,1.207,2.844l.016.578a4.418,4.418,0,0,1-1.086,3.121,4.209,4.209,0,0,1-5.832,0,4.5,4.5,0,0,1-1.09-3.187Zm2.258.16A3.16,3.16,0,0,0,71.57,12.7a1.628,1.628,0,0,0,2.578.008,3.457,3.457,0,0,0,.461-2.015,3.128,3.128,0,0,0-.461-1.831,1.5,1.5,0,0,0-1.3-.649,1.474,1.474,0,0,0-1.281.646A3.516,3.516,0,0,0,71.117,10.856Zm11.719,1.808a.727.727,0,0,0-.41-.652,4.659,4.659,0,0,0-1.316-.426q-3.016-.633-3.016-2.562a2.323,2.323,0,0,1,.934-1.879,3.766,3.766,0,0,1,2.441-.754,4.053,4.053,0,0,1,2.574.758,2.388,2.388,0,0,1,.965,1.969H82.75a1.092,1.092,0,0,0-.312-.8A1.322,1.322,0,0,0,81.461,8a1.351,1.351,0,0,0-.883.258.814.814,0,0,0-.312.656.7.7,0,0,0,.355.605,3.657,3.657,0,0,0,1.2.4,9.8,9.8,0,0,1,1.422.379,2.336,2.336,0,0,1,1.789,2.273,2.2,2.2,0,0,1-.992,1.871,4.28,4.28,0,0,1-2.562.715,4.47,4.47,0,0,1-1.887-.379A3.166,3.166,0,0,1,78.3,13.738a2.414,2.414,0,0,1-.469-1.426h2.141a1.179,1.179,0,0,0,.445.922,1.766,1.766,0,0,0,1.109.32,1.635,1.635,0,0,0,.98-.246A.766.766,0,0,0,82.836,12.664Zm7.281-1.953A5.094,5.094,0,0,1,91,7.563,2.877,2.877,0,0,1,93.43,6.391a2.589,2.589,0,0,1,2.039.922V3h2.266V15H95.7l-.109-.9a2.657,2.657,0,0,1-2.172,1.055A2.869,2.869,0,0,1,91.02,13.98,5.258,5.258,0,0,1,90.117,10.711Zm2.258.161a3.355,3.355,0,0,0,.414,1.829,1.348,1.348,0,0,0,1.2.636,1.51,1.51,0,0,0,1.477-.887V9.1a1.489,1.489,0,0,0-1.461-.887Q92.375,8.211,92.375,10.872Zm11,4.285a4.15,4.15,0,0,1-3.027-1.141,4.054,4.054,0,0,1-1.168-3.039v-.219a5.106,5.106,0,0,1,.492-2.277,3.612,3.612,0,0,1,1.395-1.547,3.914,3.914,0,0,1,2.059-.543,3.508,3.508,0,0,1,2.73,1.094,4.444,4.444,0,0,1,1,3.1v.922h-5.383a2.1,2.1,0,0,0,.66,1.328,2,2,0,0,0,1.395.5,2.437,2.437,0,0,0,2.039-.945l1.109,1.242a3.389,3.389,0,0,1-1.375,1.121A4.511,4.511,0,0,1,103.375,15.156Zm-.258-6.945a1.411,1.411,0,0,0-1.09.455,2.357,2.357,0,0,0-.535,1.3h3.141V9.788a1.681,1.681,0,0,0-.406-1.165A1.456,1.456,0,0,0,103.117,8.211Zm12.891,6.945a4.15,4.15,0,0,1-3.027-1.141,4.054,4.054,0,0,1-1.168-3.039v-.219A5.106,5.106,0,0,1,112.3,8.48,3.612,3.612,0,0,1,113.7,6.934a3.914,3.914,0,0,1,2.059-.543,3.508,3.508,0,0,1,2.73,1.094,4.444,4.444,0,0,1,1,3.1v.922H114.1a2.1,2.1,0,0,0,.66,1.328,2,2,0,0,0,1.395.5,2.437,2.437,0,0,0,2.039-.945l1.109,1.242a3.389,3.389,0,0,1-1.375,1.121A4.511,4.511,0,0,1,116.008,15.156Zm-.258-6.945a1.411,1.411,0,0,0-1.09.455,2.357,2.357,0,0,0-.535,1.3h3.141V9.788a1.681,1.681,0,0,0-.406-1.165A1.456,1.456,0,0,0,115.75,8.211Zm9.594,4.453a.727.727,0,0,0-.41-.652,4.659,4.659,0,0,0-1.316-.426q-3.016-.633-3.016-2.562a2.323,2.323,0,0,1,.934-1.879,3.766,3.766,0,0,1,2.441-.754,4.053,4.053,0,0,1,2.574.758,2.388,2.388,0,0,1,.965,1.969h-2.258a1.092,1.092,0,0,0-.312-.8A1.322,1.322,0,0,0,123.969,8a1.351,1.351,0,0,0-.883.258.814.814,0,0,0-.312.656.7.7,0,0,0,.355.605,3.657,3.657,0,0,0,1.2.4,9.8,9.8,0,0,1,1.422.379,2.336,2.336,0,0,1,1.789,2.273,2.2,2.2,0,0,1-.992,1.871,4.28,4.28,0,0,1-2.562.715,4.47,4.47,0,0,1-1.887-.379,3.166,3.166,0,0,1-1.293-1.039,2.414,2.414,0,0,1-.469-1.426h2.141a1.179,1.179,0,0,0,.445.922,1.766,1.766,0,0,0,1.109.32,1.635,1.635,0,0,0,.98-.246A.766.766,0,0,0,125.344,12.664ZM136.6,10.852a5.07,5.07,0,0,1-.887,3.129,2.843,2.843,0,0,1-2.395,1.176,2.633,2.633,0,0,1-2.07-.891V18.25h-2.258V6.547h2.094l.078.828a2.654,2.654,0,0,1,2.141-.984,2.862,2.862,0,0,1,2.43,1.156,5.207,5.207,0,0,1,.867,3.188Zm-2.258-.172a3.345,3.345,0,0,0-.418-1.826,1.36,1.36,0,0,0-1.215-.643,1.478,1.478,0,0,0-1.461.815V12.5a1.5,1.5,0,0,0,1.477.839Q134.344,13.336,134.344,10.679Zm7.547,4.477a4.15,4.15,0,0,1-3.027-1.141,4.054,4.054,0,0,1-1.168-3.039v-.219a5.106,5.106,0,0,1,.492-2.277,3.612,3.612,0,0,1,1.395-1.547,3.914,3.914,0,0,1,2.059-.543,3.508,3.508,0,0,1,2.73,1.094,4.444,4.444,0,0,1,1,3.1v.922h-5.383a2.1,2.1,0,0,0,.66,1.328,2,2,0,0,0,1.395.5,2.437,2.437,0,0,0,2.039-.945l1.109,1.242a3.389,3.389,0,0,1-1.375,1.121A4.511,4.511,0,0,1,141.891,15.156Zm-.258-6.945a1.411,1.411,0,0,0-1.09.455,2.357,2.357,0,0,0-.535,1.3h3.141V9.788a1.681,1.681,0,0,0-.406-1.165A1.456,1.456,0,0,0,141.633,8.211Zm8.531,5.125a1.481,1.481,0,0,0,1.016-.344,1.2,1.2,0,0,0,.406-.914H153.7a2.9,2.9,0,0,1-.469,1.574,3.093,3.093,0,0,1-1.262,1.109,3.949,3.949,0,0,1-1.77.395A3.67,3.67,0,0,1,147.344,14,4.56,4.56,0,0,1,146.3,10.82v-.148a4.508,4.508,0,0,1,1.039-3.117,3.627,3.627,0,0,1,2.852-1.164,3.555,3.555,0,0,1,2.543.9,3.2,3.2,0,0,1,.973,2.4h-2.117a1.551,1.551,0,0,0-.406-1.072,1.51,1.51,0,0,0-2.223.163,3.333,3.333,0,0,0-.4,1.866v.235a3.375,3.375,0,0,0,.4,1.878A1.377,1.377,0,0,0,150.164,13.336ZM157.375,15h-2.266V6.547h2.266Zm-2.4-10.641a1.112,1.112,0,0,1,.34-.836,1.465,1.465,0,0,1,1.848,0,1.105,1.105,0,0,1,.344.836,1.109,1.109,0,0,1-.348.844,1.448,1.448,0,0,1-1.836,0A1.109,1.109,0,0,1,154.977,4.359Zm8.148,10.8a4.15,4.15,0,0,1-3.027-1.141,4.054,4.054,0,0,1-1.168-3.039v-.219a5.106,5.106,0,0,1,.492-2.277,3.612,3.612,0,0,1,1.395-1.547,3.914,3.914,0,0,1,2.059-.543,3.508,3.508,0,0,1,2.73,1.094,4.444,4.444,0,0,1,1,3.1v.922h-5.383a2.1,2.1,0,0,0,.66,1.328,2,2,0,0,0,1.395.5,2.437,2.437,0,0,0,2.039-.945l1.109,1.242a3.389,3.389,0,0,1-1.375,1.121A4.511,4.511,0,0,1,163.125,15.156Zm-.258-6.945a1.411,1.411,0,0,0-1.09.455,2.357,2.357,0,0,0-.535,1.3h3.141V9.788a1.681,1.681,0,0,0-.406-1.165A1.456,1.456,0,0,0,162.867,8.211Zm9.594,4.453a.727.727,0,0,0-.41-.652,4.659,4.659,0,0,0-1.316-.426q-3.016-.633-3.016-2.562a2.323,2.323,0,0,1,.934-1.879,3.766,3.766,0,0,1,2.441-.754,4.053,4.053,0,0,1,2.574.758,2.388,2.388,0,0,1,.965,1.969h-2.258a1.092,1.092,0,0,0-.312-.8A1.322,1.322,0,0,0,171.086,8a1.351,1.351,0,0,0-.883.258.814.814,0,0,0-.312.656.7.7,0,0,0,.355.605,3.657,3.657,0,0,0,1.2.4,9.8,9.8,0,0,1,1.422.379,2.336,2.336,0,0,1,1.789,2.273,2.205,2.205,0,0,1-.992,1.871,4.28,4.28,0,0,1-2.562.715,4.47,4.47,0,0,1-1.887-.379,3.166,3.166,0,0,1-1.293-1.039,2.414,2.414,0,0,1-.469-1.426h2.141a1.179,1.179,0,0,0,.445.922,1.766,1.766,0,0,0,1.109.32,1.635,1.635,0,0,0,.98-.246A.766.766,0,0,0,172.461,12.664Z" transform="translate(1042.119 1122.395)" fill="#12263f"/>
    <path id="Trazado_166394" data-name="Trazado 166394" d="M23.523,11.211A4.025,4.025,0,0,1,22.168,14.1a4.76,4.76,0,0,1-3.223,1.055A4.28,4.28,0,0,1,15.5,13.684,6.038,6.038,0,0,1,14.25,9.641v-.7a6.819,6.819,0,0,1,.578-2.891A4.332,4.332,0,0,1,16.48,4.137a4.629,4.629,0,0,1,2.5-.668,4.637,4.637,0,0,1,3.172,1.055,4.326,4.326,0,0,1,1.391,2.961H21.2a2.376,2.376,0,0,0-.613-1.6,2.271,2.271,0,0,0-1.605-.5,1.991,1.991,0,0,0-1.754.84,4.707,4.707,0,0,0-.6,2.605V9.7a5.038,5.038,0,0,0,.559,2.7,1.954,1.954,0,0,0,1.762.852,2.314,2.314,0,0,0,1.621-.5,2.241,2.241,0,0,0,.613-1.535ZM29.813,15a2.507,2.507,0,0,1-.227-.758,2.732,2.732,0,0,1-2.133.914,3,3,0,0,1-2.059-.719,2.312,2.312,0,0,1-.816-1.812,2.389,2.389,0,0,1,1-2.062,4.915,4.915,0,0,1,2.879-.727h1.039V9.352a1.393,1.393,0,0,0-.3-.937,1.183,1.183,0,0,0-.949-.352,1.345,1.345,0,0,0-.895.273.929.929,0,0,0-.324.75H24.766a2.268,2.268,0,0,1,.453-1.359,3,3,0,0,1,1.281-.98,4.669,4.669,0,0,1,1.859-.355,3.689,3.689,0,0,1,2.48.785,2.747,2.747,0,0,1,.918,2.207v3.664a4.041,4.041,0,0,0,.336,1.82V15Zm-1.867-1.57a1.945,1.945,0,0,0,.922-.223,1.462,1.462,0,0,0,.625-.6V11.156h-.844q-1.7,0-1.8,1.172l-.008.133a.9.9,0,0,0,.3.7A1.153,1.153,0,0,0,27.945,13.43Zm7.664-6.883.07.945a2.971,2.971,0,0,1,2.43-1.1A2.255,2.255,0,0,1,40.352,7.68a2.9,2.9,0,0,1,2.539-1.289,2.521,2.521,0,0,1,2.047.8,3.681,3.681,0,0,1,.672,2.41V15H43.344V9.6a1.616,1.616,0,0,0-.281-1.053,1.245,1.245,0,0,0-.992-.333,1.409,1.409,0,0,0-1.406.971L40.672,15H38.414V9.6a1.6,1.6,0,0,0-.289-1.065,1.257,1.257,0,0,0-.984-.329,1.463,1.463,0,0,0-1.391.8V15H33.492V6.547Zm19.352,4.3a5.119,5.119,0,0,1-.867,3.168,2.872,2.872,0,0,1-2.422,1.137,2.639,2.639,0,0,1-2.2-1.055l-.1.9H47.344V3H49.6V7.3a2.571,2.571,0,0,1,2.055-.914,2.9,2.9,0,0,1,2.426,1.137,5.126,5.126,0,0,1,.879,3.2ZM52.7,10.679A3.381,3.381,0,0,0,52.3,8.8a1.372,1.372,0,0,0-1.211-.592A1.489,1.489,0,0,0,49.6,9.1v3.346a1.509,1.509,0,0,0,1.5.893,1.4,1.4,0,0,0,1.438-1.081A5.6,5.6,0,0,0,52.7,10.679ZM58.734,15H56.469V6.547h2.266Zm-2.4-10.641a1.112,1.112,0,0,1,.34-.836,1.465,1.465,0,0,1,1.848,0,1.105,1.105,0,0,1,.344.836,1.108,1.108,0,0,1-.348.844,1.448,1.448,0,0,1-1.836,0A1.108,1.108,0,0,1,56.336,4.359ZM60.242,10.7a5.013,5.013,0,0,1,.484-2.242A3.546,3.546,0,0,1,62.121,6.93a4.069,4.069,0,0,1,2.113-.539,3.849,3.849,0,0,1,2.793,1.047,4.2,4.2,0,0,1,1.207,2.844l.016.578a4.418,4.418,0,0,1-1.086,3.121,4.209,4.209,0,0,1-5.832,0,4.5,4.5,0,0,1-1.09-3.187Zm2.258.16a3.16,3.16,0,0,0,.453,1.843,1.628,1.628,0,0,0,2.578.008,3.457,3.457,0,0,0,.461-2.015,3.128,3.128,0,0,0-.461-1.831,1.5,1.5,0,0,0-1.3-.649,1.474,1.474,0,0,0-1.281.646A3.516,3.516,0,0,0,62.5,10.856Zm11.719,1.808a.727.727,0,0,0-.41-.652,4.659,4.659,0,0,0-1.316-.426q-3.016-.633-3.016-2.562a2.323,2.323,0,0,1,.934-1.879,3.766,3.766,0,0,1,2.441-.754,4.053,4.053,0,0,1,2.574.758,2.388,2.388,0,0,1,.965,1.969H74.133a1.092,1.092,0,0,0-.312-.8A1.322,1.322,0,0,0,72.844,8a1.351,1.351,0,0,0-.883.258.814.814,0,0,0-.312.656A.7.7,0,0,0,72,9.52a3.657,3.657,0,0,0,1.2.4,9.8,9.8,0,0,1,1.422.379,2.336,2.336,0,0,1,1.789,2.273,2.2,2.2,0,0,1-.992,1.871,4.28,4.28,0,0,1-2.562.715,4.47,4.47,0,0,1-1.887-.379,3.166,3.166,0,0,1-1.293-1.039,2.414,2.414,0,0,1-.469-1.426h2.141a1.179,1.179,0,0,0,.445.922,1.766,1.766,0,0,0,1.109.32,1.635,1.635,0,0,0,.98-.246A.766.766,0,0,0,74.219,12.664Zm11.523,2.492a4.15,4.15,0,0,1-3.027-1.141,4.054,4.054,0,0,1-1.168-3.039v-.219a5.106,5.106,0,0,1,.492-2.277,3.612,3.612,0,0,1,1.395-1.547,3.914,3.914,0,0,1,2.059-.543,3.508,3.508,0,0,1,2.73,1.094,4.444,4.444,0,0,1,1,3.1v.922H83.836a2.1,2.1,0,0,0,.66,1.328,2,2,0,0,0,1.395.5,2.437,2.437,0,0,0,2.039-.945l1.109,1.242a3.389,3.389,0,0,1-1.375,1.121A4.511,4.511,0,0,1,85.742,15.156Zm-.258-6.945a1.411,1.411,0,0,0-1.09.455,2.357,2.357,0,0,0-.535,1.3H87V9.788a1.681,1.681,0,0,0-.406-1.165A1.456,1.456,0,0,0,85.484,8.211Zm7.094-1.664.07.977a2.951,2.951,0,0,1,2.43-1.133,2.453,2.453,0,0,1,2,.789,3.682,3.682,0,0,1,.672,2.359V15H95.492V9.581a1.47,1.47,0,0,0-.312-1.045,1.4,1.4,0,0,0-1.039-.325,1.553,1.553,0,0,0-1.43.814V15H90.453V6.547ZM105.828,15h-2.266V3h2.266Zm1.508-4.3a5.013,5.013,0,0,1,.484-2.242,3.546,3.546,0,0,1,1.395-1.523,4.069,4.069,0,0,1,2.113-.539,3.849,3.849,0,0,1,2.793,1.047,4.2,4.2,0,0,1,1.207,2.844l.016.578a4.418,4.418,0,0,1-1.086,3.121,4.209,4.209,0,0,1-5.832,0,4.5,4.5,0,0,1-1.09-3.187Zm2.258.16a3.16,3.16,0,0,0,.453,1.843,1.628,1.628,0,0,0,2.578.008,3.457,3.457,0,0,0,.461-2.015,3.128,3.128,0,0,0-.461-1.831,1.5,1.5,0,0,0-1.3-.649,1.474,1.474,0,0,0-1.281.646A3.516,3.516,0,0,0,109.594,10.856Zm11.719,1.808a.727.727,0,0,0-.41-.652,4.659,4.659,0,0,0-1.316-.426q-3.016-.633-3.016-2.562a2.323,2.323,0,0,1,.934-1.879,3.766,3.766,0,0,1,2.441-.754,4.053,4.053,0,0,1,2.574.758,2.388,2.388,0,0,1,.965,1.969h-2.258a1.092,1.092,0,0,0-.312-.8A1.322,1.322,0,0,0,119.938,8a1.351,1.351,0,0,0-.883.258.814.814,0,0,0-.312.656.7.7,0,0,0,.355.605,3.657,3.657,0,0,0,1.2.4,9.8,9.8,0,0,1,1.422.379,2.336,2.336,0,0,1,1.789,2.273,2.2,2.2,0,0,1-.992,1.871,4.28,4.28,0,0,1-2.562.715,4.47,4.47,0,0,1-1.887-.379,3.166,3.166,0,0,1-1.293-1.039,2.414,2.414,0,0,1-.469-1.426h2.141a1.179,1.179,0,0,0,.445.922,1.766,1.766,0,0,0,1.109.32,1.635,1.635,0,0,0,.98-.246A.766.766,0,0,0,121.313,12.664Zm12.211,0a.727.727,0,0,0-.41-.652,4.659,4.659,0,0,0-1.316-.426q-3.016-.633-3.016-2.562a2.323,2.323,0,0,1,.934-1.879,3.766,3.766,0,0,1,2.441-.754,4.053,4.053,0,0,1,2.574.758,2.388,2.388,0,0,1,.965,1.969h-2.258a1.092,1.092,0,0,0-.312-.8A1.322,1.322,0,0,0,132.148,8a1.351,1.351,0,0,0-.883.258.814.814,0,0,0-.312.656.7.7,0,0,0,.355.605,3.657,3.657,0,0,0,1.2.4,9.8,9.8,0,0,1,1.422.379,2.336,2.336,0,0,1,1.789,2.273,2.205,2.205,0,0,1-.992,1.871,4.28,4.28,0,0,1-2.562.715,4.47,4.47,0,0,1-1.887-.379,3.166,3.166,0,0,1-1.293-1.039,2.414,2.414,0,0,1-.469-1.426h2.141a1.179,1.179,0,0,0,.445.922,1.766,1.766,0,0,0,1.109.32,1.635,1.635,0,0,0,.98-.246A.766.766,0,0,0,133.523,12.664Zm8.711,1.477a2.831,2.831,0,0,1-2.312,1.016,2.67,2.67,0,0,1-2.074-.781,3.335,3.335,0,0,1-.73-2.289V6.547h2.258v5.467q0,1.322,1.2,1.322a1.63,1.63,0,0,0,1.578-.8V6.547h2.266V15H142.3Zm7.781,1.016a4.15,4.15,0,0,1-3.027-1.141,4.054,4.054,0,0,1-1.168-3.039v-.219a5.106,5.106,0,0,1,.492-2.277,3.612,3.612,0,0,1,1.395-1.547,3.914,3.914,0,0,1,2.059-.543,3.508,3.508,0,0,1,2.73,1.094,4.444,4.444,0,0,1,1,3.1v.922h-5.383a2.1,2.1,0,0,0,.66,1.328,2,2,0,0,0,1.395.5,2.437,2.437,0,0,0,2.039-.945l1.109,1.242a3.389,3.389,0,0,1-1.375,1.121A4.511,4.511,0,0,1,150.016,15.156Zm-.258-6.945a1.411,1.411,0,0,0-1.09.455,2.357,2.357,0,0,0-.535,1.3h3.141V9.788a1.681,1.681,0,0,0-.406-1.165A1.456,1.456,0,0,0,149.758,8.211Zm7.4,6.789h-2.266V3h2.266Zm1.508-4.3a5.013,5.013,0,0,1,.484-2.242,3.546,3.546,0,0,1,1.395-1.523,4.069,4.069,0,0,1,2.113-.539,3.849,3.849,0,0,1,2.793,1.047,4.2,4.2,0,0,1,1.207,2.844l.016.578a4.418,4.418,0,0,1-1.086,3.121,4.209,4.209,0,0,1-5.832,0,4.5,4.5,0,0,1-1.09-3.187Zm2.258.16a3.16,3.16,0,0,0,.453,1.843,1.628,1.628,0,0,0,2.578.008,3.457,3.457,0,0,0,.461-2.015,3.128,3.128,0,0,0-.461-1.831,1.5,1.5,0,0,0-1.3-.649,1.474,1.474,0,0,0-1.281.646A3.516,3.516,0,0,0,160.922,10.856Zm11.719,1.808a.727.727,0,0,0-.41-.652,4.659,4.659,0,0,0-1.316-.426q-3.016-.633-3.016-2.562a2.323,2.323,0,0,1,.934-1.879,3.766,3.766,0,0,1,2.441-.754,4.053,4.053,0,0,1,2.574.758,2.388,2.388,0,0,1,.965,1.969h-2.258a1.092,1.092,0,0,0-.312-.8A1.322,1.322,0,0,0,171.266,8a1.351,1.351,0,0,0-.883.258.814.814,0,0,0-.312.656.7.7,0,0,0,.355.605,3.657,3.657,0,0,0,1.2.4,9.8,9.8,0,0,1,1.422.379,2.336,2.336,0,0,1,1.789,2.273,2.205,2.205,0,0,1-.992,1.871,4.28,4.28,0,0,1-2.562.715,4.47,4.47,0,0,1-1.887-.379,3.166,3.166,0,0,1-1.293-1.039,2.414,2.414,0,0,1-.469-1.426h2.141a1.179,1.179,0,0,0,.445.922,1.766,1.766,0,0,0,1.109.32,1.635,1.635,0,0,0,.98-.246A.766.766,0,0,0,172.641,12.664Z" transform="translate(370 1123.566)" fill="#12263f"/>
    <path id="Trazado_166396" data-name="Trazado 166396" d="M22.98,11.211A4.025,4.025,0,0,1,21.625,14.1,4.76,4.76,0,0,1,18.4,15.156a4.28,4.28,0,0,1-3.441-1.473,6.038,6.038,0,0,1-1.254-4.043v-.7a6.819,6.819,0,0,1,.578-2.891,4.332,4.332,0,0,1,1.652-1.918,4.629,4.629,0,0,1,2.5-.668,4.637,4.637,0,0,1,3.172,1.055A4.326,4.326,0,0,1,23,7.484H20.652a2.376,2.376,0,0,0-.613-1.6,2.271,2.271,0,0,0-1.605-.5,1.991,1.991,0,0,0-1.754.84,4.707,4.707,0,0,0-.6,2.605V9.7a5.038,5.038,0,0,0,.559,2.7,1.954,1.954,0,0,0,1.762.852,2.314,2.314,0,0,0,1.621-.5,2.241,2.241,0,0,0,.613-1.535ZM29.27,15a2.507,2.507,0,0,1-.227-.758,2.732,2.732,0,0,1-2.133.914,3,3,0,0,1-2.059-.719,2.312,2.312,0,0,1-.816-1.812,2.389,2.389,0,0,1,1-2.062,4.915,4.915,0,0,1,2.879-.727h1.039V9.352a1.393,1.393,0,0,0-.3-.937,1.183,1.183,0,0,0-.949-.352,1.345,1.345,0,0,0-.895.273.929.929,0,0,0-.324.75H24.223a2.268,2.268,0,0,1,.453-1.359,3,3,0,0,1,1.281-.98,4.669,4.669,0,0,1,1.859-.355,3.689,3.689,0,0,1,2.48.785,2.747,2.747,0,0,1,.918,2.207v3.664a4.041,4.041,0,0,0,.336,1.82V15ZM27.4,13.43a1.945,1.945,0,0,0,.922-.223,1.462,1.462,0,0,0,.625-.6V11.156h-.844q-1.7,0-1.8,1.172l-.008.133a.9.9,0,0,0,.3.7A1.153,1.153,0,0,0,27.4,13.43Zm7.664-6.883.07.945a2.971,2.971,0,0,1,2.43-1.1A2.255,2.255,0,0,1,39.809,7.68a2.9,2.9,0,0,1,2.539-1.289,2.521,2.521,0,0,1,2.047.8,3.681,3.681,0,0,1,.672,2.41V15H42.8V9.6a1.616,1.616,0,0,0-.281-1.053,1.245,1.245,0,0,0-.992-.333,1.409,1.409,0,0,0-1.406.971L40.129,15H37.871V9.6a1.6,1.6,0,0,0-.289-1.065,1.257,1.257,0,0,0-.984-.329,1.463,1.463,0,0,0-1.391.8V15H32.949V6.547Zm19.352,4.3a5.119,5.119,0,0,1-.867,3.168,2.872,2.872,0,0,1-2.422,1.137,2.639,2.639,0,0,1-2.2-1.055l-.1.9H46.8V3h2.258V7.3a2.571,2.571,0,0,1,2.055-.914,2.9,2.9,0,0,1,2.426,1.137,5.126,5.126,0,0,1,.879,3.2Zm-2.258-.172A3.381,3.381,0,0,0,51.754,8.8a1.372,1.372,0,0,0-1.211-.592,1.489,1.489,0,0,0-1.484.885v3.346a1.509,1.509,0,0,0,1.5.893A1.4,1.4,0,0,0,52,12.255,5.6,5.6,0,0,0,52.16,10.679ZM58.191,15H55.926V6.547h2.266Zm-2.4-10.641a1.112,1.112,0,0,1,.34-.836,1.465,1.465,0,0,1,1.848,0,1.105,1.105,0,0,1,.344.836,1.108,1.108,0,0,1-.348.844,1.448,1.448,0,0,1-1.836,0A1.108,1.108,0,0,1,55.793,4.359ZM59.7,10.7a5.013,5.013,0,0,1,.484-2.242A3.546,3.546,0,0,1,61.578,6.93a4.069,4.069,0,0,1,2.113-.539,3.849,3.849,0,0,1,2.793,1.047,4.2,4.2,0,0,1,1.207,2.844l.016.578a4.418,4.418,0,0,1-1.086,3.121,4.209,4.209,0,0,1-5.832,0A4.5,4.5,0,0,1,59.7,10.8Zm2.258.16A3.16,3.16,0,0,0,62.41,12.7a1.628,1.628,0,0,0,2.578.008,3.457,3.457,0,0,0,.461-2.015,3.128,3.128,0,0,0-.461-1.831,1.5,1.5,0,0,0-1.3-.649,1.474,1.474,0,0,0-1.281.646A3.516,3.516,0,0,0,61.957,10.856Zm11.719,1.808a.727.727,0,0,0-.41-.652,4.659,4.659,0,0,0-1.316-.426q-3.016-.633-3.016-2.562a2.323,2.323,0,0,1,.934-1.879,3.766,3.766,0,0,1,2.441-.754,4.053,4.053,0,0,1,2.574.758,2.388,2.388,0,0,1,.965,1.969H73.59a1.092,1.092,0,0,0-.312-.8A1.322,1.322,0,0,0,72.3,8a1.351,1.351,0,0,0-.883.258.814.814,0,0,0-.312.656.7.7,0,0,0,.355.605,3.657,3.657,0,0,0,1.2.4,9.8,9.8,0,0,1,1.422.379,2.336,2.336,0,0,1,1.789,2.273,2.2,2.2,0,0,1-.992,1.871,4.28,4.28,0,0,1-2.562.715,4.47,4.47,0,0,1-1.887-.379,3.166,3.166,0,0,1-1.293-1.039,2.414,2.414,0,0,1-.469-1.426h2.141a1.179,1.179,0,0,0,.445.922,1.766,1.766,0,0,0,1.109.32,1.635,1.635,0,0,0,.98-.246A.766.766,0,0,0,73.676,12.664Zm11.148.672a1.481,1.481,0,0,0,1.016-.344,1.2,1.2,0,0,0,.406-.914h2.117a2.9,2.9,0,0,1-.469,1.574,3.093,3.093,0,0,1-1.262,1.109,3.949,3.949,0,0,1-1.77.395A3.67,3.67,0,0,1,82,14a4.56,4.56,0,0,1-1.047-3.184v-.148A4.508,4.508,0,0,1,82,7.555a3.627,3.627,0,0,1,2.852-1.164,3.555,3.555,0,0,1,2.543.9,3.2,3.2,0,0,1,.973,2.4H86.246a1.551,1.551,0,0,0-.406-1.072,1.51,1.51,0,0,0-2.223.163,3.333,3.333,0,0,0-.4,1.866v.235a3.375,3.375,0,0,0,.4,1.878A1.377,1.377,0,0,0,84.824,13.336ZM92.035,15H89.77V3h2.266Zm4.242,0H94.012V6.547h2.266Zm-2.4-10.641a1.112,1.112,0,0,1,.34-.836,1.465,1.465,0,0,1,1.848,0,1.105,1.105,0,0,1,.344.836,1.108,1.108,0,0,1-.348.844,1.448,1.448,0,0,1-1.836,0A1.108,1.108,0,0,1,93.879,4.359Zm6.375,2.188.07.945a2.971,2.971,0,0,1,2.43-1.1A2.255,2.255,0,0,1,105,7.68a2.9,2.9,0,0,1,2.539-1.289,2.521,2.521,0,0,1,2.047.8,3.681,3.681,0,0,1,.672,2.41V15h-2.266V9.6a1.616,1.616,0,0,0-.281-1.053,1.245,1.245,0,0,0-.992-.333,1.409,1.409,0,0,0-1.406.971L105.316,15h-2.258V9.6a1.6,1.6,0,0,0-.289-1.065,1.257,1.257,0,0,0-.984-.329,1.463,1.463,0,0,0-1.391.8V15H98.137V6.547ZM116.887,15a2.507,2.507,0,0,1-.227-.758,2.732,2.732,0,0,1-2.133.914,3,3,0,0,1-2.059-.719,2.312,2.312,0,0,1-.816-1.812,2.389,2.389,0,0,1,1-2.062,4.915,4.915,0,0,1,2.879-.727h1.039V9.352a1.393,1.393,0,0,0-.3-.937,1.183,1.183,0,0,0-.949-.352,1.345,1.345,0,0,0-.895.273.929.929,0,0,0-.324.75H111.84a2.268,2.268,0,0,1,.453-1.359,3,3,0,0,1,1.281-.98,4.669,4.669,0,0,1,1.859-.355,3.689,3.689,0,0,1,2.48.785,2.747,2.747,0,0,1,.918,2.207v3.664a4.041,4.041,0,0,0,.336,1.82V15Zm-1.867-1.57a1.945,1.945,0,0,0,.922-.223,1.462,1.462,0,0,0,.625-.6V11.156h-.844q-1.7,0-1.8,1.172l-.008.133a.9.9,0,0,0,.3.7A1.153,1.153,0,0,0,115.02,13.43ZM115.879,3h2.461l-2.164,2.422H114.34Zm7.391,1.469V6.547h1.445V8.2H123.27v4.219a1.007,1.007,0,0,0,.18.672.9.9,0,0,0,.688.2,3.6,3.6,0,0,0,.664-.055v1.711a4.648,4.648,0,0,1-1.367.2,2.156,2.156,0,0,1-2.422-2.4V8.2h-1.234V6.547h1.234V4.469ZM128.355,15H126.09V6.547h2.266Zm-2.4-10.641a1.112,1.112,0,0,1,.34-.836,1.465,1.465,0,0,1,1.848,0,1.105,1.105,0,0,1,.344.836,1.109,1.109,0,0,1-.348.844,1.448,1.448,0,0,1-1.836,0A1.108,1.108,0,0,1,125.957,4.359Zm7.773,8.977a1.481,1.481,0,0,0,1.016-.344,1.2,1.2,0,0,0,.406-.914h2.117a2.9,2.9,0,0,1-.469,1.574,3.093,3.093,0,0,1-1.262,1.109,3.949,3.949,0,0,1-1.77.395A3.67,3.67,0,0,1,130.91,14a4.56,4.56,0,0,1-1.047-3.184v-.148A4.508,4.508,0,0,1,130.9,7.555a3.627,3.627,0,0,1,2.852-1.164,3.555,3.555,0,0,1,2.543.9,3.2,3.2,0,0,1,.973,2.4h-2.117a1.551,1.551,0,0,0-.406-1.072,1.51,1.51,0,0,0-2.223.163,3.333,3.333,0,0,0-.4,1.866v.235a3.375,3.375,0,0,0,.4,1.878A1.377,1.377,0,0,0,133.73,13.336Zm4.477-2.641a5.013,5.013,0,0,1,.484-2.242,3.546,3.546,0,0,1,1.395-1.523,4.069,4.069,0,0,1,2.113-.539,3.849,3.849,0,0,1,2.793,1.047,4.2,4.2,0,0,1,1.207,2.844l.016.578a4.418,4.418,0,0,1-1.086,3.121,4.209,4.209,0,0,1-5.832,0,4.5,4.5,0,0,1-1.09-3.187Zm2.258.16a3.16,3.16,0,0,0,.453,1.843,1.628,1.628,0,0,0,2.578.008,3.457,3.457,0,0,0,.461-2.015A3.128,3.128,0,0,0,143.5,8.86a1.5,1.5,0,0,0-1.3-.649,1.474,1.474,0,0,0-1.281.646A3.516,3.516,0,0,0,140.465,10.856Zm11.719,1.808a.727.727,0,0,0-.41-.652,4.659,4.659,0,0,0-1.316-.426q-3.016-.633-3.016-2.562a2.323,2.323,0,0,1,.934-1.879,3.766,3.766,0,0,1,2.441-.754,4.053,4.053,0,0,1,2.574.758,2.388,2.388,0,0,1,.965,1.969H152.1a1.092,1.092,0,0,0-.312-.8A1.322,1.322,0,0,0,150.809,8a1.351,1.351,0,0,0-.883.258.814.814,0,0,0-.312.656.7.7,0,0,0,.355.605,3.657,3.657,0,0,0,1.2.4,9.8,9.8,0,0,1,1.422.379,2.336,2.336,0,0,1,1.789,2.273,2.205,2.205,0,0,1-.992,1.871,4.28,4.28,0,0,1-2.562.715,4.47,4.47,0,0,1-1.887-.379,3.166,3.166,0,0,1-1.293-1.039,2.414,2.414,0,0,1-.469-1.426h2.141a1.179,1.179,0,0,0,.445.922,1.766,1.766,0,0,0,1.109.32,1.635,1.635,0,0,0,.98-.246A.766.766,0,0,0,152.184,12.664Z" transform="translate(319 1020.998)" fill="#12263f"/>
    <path id="Trazado_166398" data-name="Trazado 166398" d="M11.07,3.625l2.922,8.25L16.9,3.625h3.078V15H17.625V11.891l.234-5.367L14.789,15H13.18L10.117,6.531l.234,5.359V15H8.008V3.625ZM26.938,14.141a2.831,2.831,0,0,1-2.312,1.016,2.67,2.67,0,0,1-2.074-.781,3.335,3.335,0,0,1-.73-2.289V6.547h2.258v5.467q0,1.322,1.2,1.322a1.63,1.63,0,0,0,1.578-.8V6.547h2.266V15H27Zm7.406-.8a1.481,1.481,0,0,0,1.016-.344,1.2,1.2,0,0,0,.406-.914h2.117a2.9,2.9,0,0,1-.469,1.574,3.093,3.093,0,0,1-1.262,1.109,3.949,3.949,0,0,1-1.77.395A3.67,3.67,0,0,1,31.523,14a4.56,4.56,0,0,1-1.047-3.184v-.148a4.508,4.508,0,0,1,1.039-3.117,3.627,3.627,0,0,1,2.852-1.164,3.555,3.555,0,0,1,2.543.9,3.2,3.2,0,0,1,.973,2.4H35.766a1.551,1.551,0,0,0-.406-1.072,1.51,1.51,0,0,0-2.223.163,3.333,3.333,0,0,0-.4,1.866v.235a3.375,3.375,0,0,0,.4,1.878A1.377,1.377,0,0,0,34.344,13.336Zm7.031-5.867a2.818,2.818,0,0,1,2.258-1.078q2.75,0,2.789,3.2V15H44.164V9.636a1.577,1.577,0,0,0-.312-1.077,1.338,1.338,0,0,0-1.039-.348,1.536,1.536,0,0,0-1.437.767V15H39.117V3h2.258Zm6.4,3.227a5.013,5.013,0,0,1,.484-2.242A3.546,3.546,0,0,1,49.652,6.93a4.069,4.069,0,0,1,2.113-.539,3.849,3.849,0,0,1,2.793,1.047,4.2,4.2,0,0,1,1.207,2.844l.016.578A4.418,4.418,0,0,1,54.7,13.98a4.209,4.209,0,0,1-5.832,0,4.5,4.5,0,0,1-1.09-3.187Zm2.258.16a3.16,3.16,0,0,0,.453,1.843,1.628,1.628,0,0,0,2.578.008,3.457,3.457,0,0,0,.461-2.015,3.128,3.128,0,0,0-.461-1.831,1.5,1.5,0,0,0-1.3-.649,1.474,1.474,0,0,0-1.281.646A3.516,3.516,0,0,0,50.031,10.856ZM61.75,12.664a.727.727,0,0,0-.41-.652,4.659,4.659,0,0,0-1.316-.426q-3.016-.633-3.016-2.562a2.323,2.323,0,0,1,.934-1.879,3.766,3.766,0,0,1,2.441-.754,4.053,4.053,0,0,1,2.574.758,2.388,2.388,0,0,1,.965,1.969H61.664a1.092,1.092,0,0,0-.312-.8A1.322,1.322,0,0,0,60.375,8a1.351,1.351,0,0,0-.883.258.814.814,0,0,0-.312.656.7.7,0,0,0,.355.605,3.657,3.657,0,0,0,1.2.4,9.8,9.8,0,0,1,1.422.379,2.336,2.336,0,0,1,1.789,2.273,2.2,2.2,0,0,1-.992,1.871,4.28,4.28,0,0,1-2.562.715,4.47,4.47,0,0,1-1.887-.379,3.166,3.166,0,0,1-1.293-1.039,2.414,2.414,0,0,1-.469-1.426h2.141a1.179,1.179,0,0,0,.445.922,1.766,1.766,0,0,0,1.109.32,1.635,1.635,0,0,0,.98-.246A.766.766,0,0,0,61.75,12.664ZM71.5,6.547l.07.945A2.971,2.971,0,0,1,74,6.391,2.255,2.255,0,0,1,76.242,7.68a2.9,2.9,0,0,1,2.539-1.289,2.521,2.521,0,0,1,2.047.8A3.681,3.681,0,0,1,81.5,9.6V15H79.234V9.6a1.616,1.616,0,0,0-.281-1.053,1.245,1.245,0,0,0-.992-.333,1.409,1.409,0,0,0-1.406.971L76.563,15H74.3V9.6a1.6,1.6,0,0,0-.289-1.065,1.257,1.257,0,0,0-.984-.329,1.463,1.463,0,0,0-1.391.8V15H69.383V6.547ZM88.133,15a2.507,2.507,0,0,1-.227-.758,2.732,2.732,0,0,1-2.133.914,3,3,0,0,1-2.059-.719,2.312,2.312,0,0,1-.816-1.812,2.389,2.389,0,0,1,1-2.062,4.915,4.915,0,0,1,2.879-.727h1.039V9.352a1.393,1.393,0,0,0-.3-.937,1.183,1.183,0,0,0-.949-.352,1.345,1.345,0,0,0-.895.273.929.929,0,0,0-.324.75H83.086a2.268,2.268,0,0,1,.453-1.359,3,3,0,0,1,1.281-.98,4.669,4.669,0,0,1,1.859-.355,3.689,3.689,0,0,1,2.48.785,2.747,2.747,0,0,1,.918,2.207v3.664a4.041,4.041,0,0,0,.336,1.82V15Zm-1.867-1.57a1.945,1.945,0,0,0,.922-.223,1.462,1.462,0,0,0,.625-.6V11.156h-.844q-1.7,0-1.8,1.172l-.008.133a.9.9,0,0,0,.3.7A1.153,1.153,0,0,0,86.266,13.43ZM87.125,3h2.461L87.422,5.422H85.586Zm9.266,9.664a.727.727,0,0,0-.41-.652,4.659,4.659,0,0,0-1.316-.426q-3.016-.633-3.016-2.562a2.323,2.323,0,0,1,.934-1.879,3.766,3.766,0,0,1,2.441-.754,4.053,4.053,0,0,1,2.574.758,2.388,2.388,0,0,1,.965,1.969H96.3a1.092,1.092,0,0,0-.312-.8A1.322,1.322,0,0,0,95.016,8a1.351,1.351,0,0,0-.883.258.814.814,0,0,0-.312.656.7.7,0,0,0,.355.605,3.657,3.657,0,0,0,1.2.4A9.8,9.8,0,0,1,96.8,10.3a2.336,2.336,0,0,1,1.789,2.273,2.2,2.2,0,0,1-.992,1.871,4.28,4.28,0,0,1-2.562.715,4.47,4.47,0,0,1-1.887-.379,3.166,3.166,0,0,1-1.293-1.039,2.414,2.414,0,0,1-.469-1.426h2.141a1.179,1.179,0,0,0,.445.922,1.766,1.766,0,0,0,1.109.32,1.635,1.635,0,0,0,.98-.246A.766.766,0,0,0,96.391,12.664Zm3.82,1.227a1.137,1.137,0,0,1,.363-.875,1.412,1.412,0,0,1,1.828,0,1.137,1.137,0,0,1,.363.875,1.121,1.121,0,0,1-.359.863,1.435,1.435,0,0,1-1.836,0A1.121,1.121,0,0,1,100.211,13.891Zm3.7,0a1.137,1.137,0,0,1,.363-.875,1.412,1.412,0,0,1,1.828,0,1.137,1.137,0,0,1,.363.875,1.121,1.121,0,0,1-.359.863,1.435,1.435,0,0,1-1.836,0A1.121,1.121,0,0,1,103.906,13.891Zm3.625,0a1.137,1.137,0,0,1,.363-.875,1.412,1.412,0,0,1,1.828,0,1.137,1.137,0,0,1,.363.875,1.121,1.121,0,0,1-.359.863,1.435,1.435,0,0,1-1.836,0A1.121,1.121,0,0,1,107.531,13.891Z" transform="translate(403 922.43)" fill="#12263f"/>
    <g id="Grupo_114896" data-name="Grupo 114896" transform="translate(750 944.758)">
      <g id="Grupo_114895" data-name="Grupo 114895" clip-path="url(#clip-path-3)">
        <path id="Trazado_166337" data-name="Trazado 166337" d="M91.7,103.654H88.457c-.061-.07-.112-.189-.184-.2a11.234,11.234,0,0,1-6.086-3.927,2.1,2.1,0,0,0-1.748-.737q-24.991.033-49.982.017c-5.666,0-11.332.016-17-.008a5.834,5.834,0,0,1-5.872-4.843,16.286,16.286,0,0,1-.077-3.533c.021-.719-.112-1-.914-.956-1.378.078-2.764.026-4.147.021C.774,89.477.013,88.743.008,87.1q-.014-4.1,0-8.2a2.094,2.094,0,0,1,2.3-2.335c1.382-.027,2.768-.059,4.147.014.823.043,1.057-.157,1.054-1.024C7.478,65.377,7.49,55.191,7.491,45c0-1.664.414-2.2,2.02-2.642,1.653.439,2.042.952,2.043,2.719q0,14.62,0,29.24c0,2.245,0,2.245,2.226,2.245,3.419,0,3.7.246,3.714,3.648,0,.73.286.791.876.787,2.9-.023,5.815-.186,8.7.047,2.191.176,3.506-.474,4.318-2.511.3-.747.408-1.049-.361-1.546A30.3,30.3,0,1,1,75.247,39.419c.491,1.133,1,1.679,2.244,1.476.72-.117,1.65.189,2.15-.167s.125-1.318.164-2.013c.071-1.273.6-2.047,1.782-2.213.608-.086.58-.364.58-.782,0-5.936-.013-11.872.011-17.807,0-.624-.164-.8-.788-.792-2.023.038-4.047.05-6.07.005a5.883,5.883,0,0,1-6.18-6.257c-.019-1.922-.05-3.846.016-5.766.029-.851-.223-1.043-1.057-1.042q-27.063.039-54.126.021c-1.82,0-2.418.6-2.418,2.431q0,10.624,0,21.247c0,1.671-.412,2.2-2.035,2.629-1.613-.44-2.027-.973-2.027-2.641q0-10.677,0-21.354c0-3.937,2.434-6.377,6.356-6.377Q42.183.014,70.519,0a3.371,3.371,0,0,1,2.587,1.089q6.012,6.081,12.09,12.1a3.357,3.357,0,0,1,1.051,2.6c-.032,6.578,0,13.157-.033,19.735,0,.723.121.97.914.951,2.562-.06,5.127-.026,7.69-.021,1.782,0,2.518.737,2.523,2.522q.011,3.9,0,7.793c0,1.827-.755,2.593-2.567,2.6-2.564.01-5.128.033-7.691-.017-.73-.014-.871.2-.869.894q.038,12.549,0,25.1a1.9,1.9,0,0,0,.638,1.483c3.517,3.5,7.082,6.946,10.5,10.539A9.672,9.672,0,0,1,93.28,103.21c-.525.173-1.116.088-1.585.444M77.4,94.732c-2.111-2.1-4.03-4-5.928-5.911a9.33,9.33,0,0,1-2.862-6.893,1.471,1.471,0,0,0-.534-1.217c-1.145-1.046-2.282-2.1-3.37-3.208a.84.84,0,0,0-1.253-.147,29.874,29.874,0,0,1-27.225,2.372c-.553-.21-.817-.183-1.1.36-.613,1.159-1.336,2.261-1.945,3.422a2.661,2.661,0,0,1-2.673,1.567c-3.608-.061-7.218-.021-10.827-.021-2.087,0-2.087,0-2.168,2.125-.005.135-.011.27-.027.4a1.994,1.994,0,0,1-2,1.893c-.437.024-.877,0-1.315.008-.838.015-1.96-.283-2.438.142-.561.5-.164,1.645-.175,2.508-.026,2.055.522,2.6,2.545,2.6H77.4ZM45.482,42.984c0-2.732-.035-5.464.02-8.195.018-.874-.208-1.092-1.071-.938a17.993,17.993,0,0,0-7.19,32.487c.6.418.907.5,1.328-.265,1.461-2.652,3.02-5.251,4.529-7.877a2.258,2.258,0,0,1,1.582-1.29,1.934,1.934,0,0,1,2.027.841,2.078,2.078,0,0,1-.009,2.379c-1.5,2.592-2.983,5.195-4.518,7.767-.374.627-.259.777.411.978A18.029,18.029,0,0,0,65.227,54.565c.122-.785,0-.946-.783-.941-5.5.034-10.993.022-16.49.015-1.731,0-2.461-.731-2.469-2.46-.012-2.732,0-5.463,0-8.195m25.963-2.1c-.164-.377-.25-.594-.351-.8A26.232,26.232,0,0,0,21.872,57.15,25.989,25.989,0,0,0,33.217,73.613c.547.368.831.347,1.133-.26a18.861,18.861,0,0,1,1.266-2.183c.387-.571.288-.839-.281-1.248-7.858-5.633-11.1-13.262-9.388-22.777,2.086-11.56,13.9-19.471,25.435-17.251a21.884,21.884,0,0,1,15,10.347c.218.348.388.665.906.651,1.342-.037,2.685-.012,4.158-.012m6.439,35.429a5.613,5.613,0,0,0-3.594,9.543q5.984,6.1,12.077,12.093a5.6,5.6,0,0,0,7.915-7.92c-3.988-4.068-8.039-8.074-12.077-12.094a5.738,5.738,0,0,0-4.321-1.624M48.076,77.836a24.808,24.808,0,0,0,5.086-.61,26.254,26.254,0,0,0,20.109-30.7c-.287-1.585-.287-1.585-1.861-1.585-.708,0-1.418.027-2.124-.008-.591-.029-.747.1-.561.732a21.022,21.022,0,0,1,.657,8.611A22.1,22.1,0,0,1,42.582,73.1c-1.006-.219-2.1-1.2-2.979-.554-.8.584-1.111,1.806-1.689,2.714-.329.518-.218.693.339.9a27.26,27.26,0,0,0,9.823,1.67M61.895,40.864A18.054,18.054,0,0,0,50.157,33.83c-.449-.072-.584.1-.583.54q.016,7.281,0,14.562c0,.49.173.633.647.632q7.23-.019,14.46,0c.59,0,.639-.2.553-.717a27.285,27.285,0,0,0-.762-3.133.918.918,0,0,0-1.07-.771c-2.123.041-4.247.037-6.37.005a2.085,2.085,0,0,1-2.159-2.074,2.048,2.048,0,0,1,2.2-2.008c1.514-.019,3.028,0,4.823,0m20.27,32.159V62.262c0-4.012,0-8.024-.008-12.036,0-.344.2-.749-.45-.91-1.506-.37-1.881-.945-1.9-2.518-.019-1.909-.019-1.886-2-1.867-.6.006-.7.126-.576.735a30.18,30.18,0,0,1-4.25,22.339c-.276.427-.248.654.119.985,1.074.972,2.113,1.984,3.167,2.979.167.158.307.366.585.338a10.946,10.946,0,0,1,5.311.715m6.464-27.749c1.312,0,2.624-.015,3.935.008.5.009.735-.112.717-.672q-.055-1.714,0-3.43c.017-.547-.2-.678-.7-.675q-3.986.03-7.971,0c-.5,0-.736.1-.719.659.034,1.142.032,2.287,0,3.43-.015.538.191.7.707.688,1.345-.026,2.69-.009,4.036-.009M8.608,85.421c1.349,0,2.7-.019,4.048.009.53.011.8-.083.779-.7-.045-1.111-.041-2.227,0-3.339.021-.593-.2-.741-.762-.736-2.631.024-5.262.019-7.894,0-.493,0-.739.1-.719.665.039,1.146.039,2.295,0,3.44-.019.555.2.683.7.671,1.281-.029,2.563-.009,3.845-.009M73.224,7.138c0,1.464-.017,2.838.007,4.21a1.506,1.506,0,0,0,1.185,1.571,31.738,31.738,0,0,0,4.74.127L73.224,7.138m-.791,66.827c-.347-.332-.71-.682-1.076-1.03-1.207-1.146-1.206-1.145-2.363.034-.489.5-1.445,1.075-1.372,1.461.114.6.968,1.039,1.428,1.611.657.818,1.092.781,1.636-.138a8.607,8.607,0,0,1,1.387-1.455c.135-.137.36-.2.36-.483" transform="translate(0 0.001)" fill="#010202"/>
        <path id="Trazado_166338" data-name="Trazado 166338" d="M35.166,45.194q0-1.926,0-3.853c1.623-.432,2.035-.958,2.035-2.629q0-10.623,0-21.247c0-1.829.6-2.431,2.418-2.431q27.063,0,54.126-.021c.834,0,1.087.19,1.057,1.042-.066,1.92-.035,3.844-.016,5.766a5.884,5.884,0,0,0,6.18,6.257c2.023.045,4.047.032,6.07-.006.624-.011.79.169.787.792-.024,5.935-.015,11.871-.011,17.807,0,.418.028.7-.58.782-1.179.166-1.711.941-1.782,2.213-.039.7.324,1.666-.164,2.013s-1.43.05-2.15.167c-1.249.2-1.753-.343-2.245-1.476A30.3,30.3,0,1,0,56.669,87.943c.77.5.66.8.361,1.545C56.218,91.526,54.9,92.176,52.713,92c-2.882-.232-5.8-.07-8.7-.047-.59,0-.872-.057-.876-.787-.016-3.4-.295-3.648-3.714-3.648-2.226,0-2.226,0-2.226-2.245q0-14.62,0-29.24c0-1.767-.389-2.28-2.043-2.719q0-1.943.007-3.887a2.387,2.387,0,0,0,1.8-1.148c.7-1.32-.044-2.595-1.8-3.086" transform="translate(-25.647 -10.952)" fill="#f7f7f7"/>
        <path id="Trazado_166339" data-name="Trazado 166339" d="M108.244,302.757H44.95c-2.023,0-2.571-.54-2.545-2.6.011-.864-.386-2.01.175-2.508.479-.424,1.6-.126,2.438-.142.438-.008.878.016,1.315-.008a2,2,0,0,0,2-1.893c.016-.134.022-.269.027-.4.082-2.125.081-2.125,2.168-2.125,3.609,0,7.219-.04,10.827.021a2.66,2.66,0,0,0,2.673-1.567c.609-1.161,1.331-2.263,1.945-3.422.287-.543.551-.57,1.1-.36A29.876,29.876,0,0,0,94.3,285.382a.839.839,0,0,1,1.253.147c1.088,1.1,2.226,2.161,3.37,3.208a1.47,1.47,0,0,1,.534,1.217,9.331,9.331,0,0,0,2.862,6.893c1.9,1.914,3.817,3.808,5.928,5.911" transform="translate(-30.841 -208.024)" fill="#f7f7f7"/>
        <path id="Trazado_166340" data-name="Trazado 166340" d="M125.172,134.148c0,2.732-.009,5.463,0,8.195.008,1.729.739,2.457,2.469,2.46,5.5.007,10.994.018,16.49-.015.786,0,.9.157.782.941a18.028,18.028,0,0,1-22.636,14.307c-.67-.2-.785-.351-.411-.978,1.534-2.572,3.018-5.174,4.518-7.767a2.078,2.078,0,0,0,.009-2.379,1.934,1.934,0,0,0-2.027-.84,2.258,2.258,0,0,0-1.582,1.29c-1.508,2.626-3.067,5.225-4.529,7.878-.421.764-.728.683-1.327.264a17.994,17.994,0,0,1,7.19-32.487c.863-.154,1.089.064,1.071.938-.055,2.731-.02,5.463-.02,8.195" transform="translate(-79.69 -91.163)" fill="#04d9b5"/>
        <path id="Trazado_166341" data-name="Trazado 166341" d="M128.765,109.1c-1.473,0-2.816-.024-4.158.012-.518.014-.688-.3-.906-.651a21.884,21.884,0,0,0-15-10.347c-11.534-2.22-23.348,5.691-25.435,17.251-1.717,9.515,1.53,17.144,9.388,22.777.57.408.668.677.281,1.248a18.9,18.9,0,0,0-1.266,2.183c-.3.606-.586.628-1.133.26A25.988,25.988,0,0,1,79.192,125.37,26.232,26.232,0,0,1,128.414,108.3c.1.209.186.425.351.8" transform="translate(-57.321 -68.219)" fill="#fcf300"/>
        <path id="Trazado_166342" data-name="Trazado 166342" d="M273.689,282.081a5.738,5.738,0,0,1,4.321,1.624c4.037,4.02,8.088,8.026,12.077,12.094a5.6,5.6,0,0,1-7.915,7.919q-6.092-5.993-12.077-12.093a5.614,5.614,0,0,1,3.594-9.543" transform="translate(-195.805 -205.772)" fill="#ff8628"/>
        <path id="Trazado_166343" data-name="Trazado 166343" d="M149.815,199a27.261,27.261,0,0,1-9.823-1.67c-.556-.207-.668-.383-.338-.9.578-.908.893-2.13,1.689-2.714.882-.647,1.973.335,2.979.554a22.1,22.1,0,0,0,26.8-18.824,21.022,21.022,0,0,0-.658-8.611c-.186-.635-.029-.761.562-.732.706.034,1.416.008,2.124.008,1.573,0,1.573,0,1.86,1.585a26.253,26.253,0,0,1-20.109,30.7,24.809,24.809,0,0,1-5.086.61" transform="translate(-101.74 -121.168)" fill="#fcf300"/>
        <path id="Trazado_166344" data-name="Trazado 166344" d="M195.569,132.048c-1.8,0-3.31-.014-4.823,0a2.048,2.048,0,0,0-2.2,2.008,2.085,2.085,0,0,0,2.16,2.074c2.123.031,4.247.035,6.37-.005a.918.918,0,0,1,1.07.771,27.282,27.282,0,0,1,.762,3.133c.086.522.037.72-.553.717q-7.23-.028-14.46,0c-.474,0-.648-.142-.647-.632q.02-7.281,0-14.562c0-.439.134-.612.583-.54a18.054,18.054,0,0,1,11.737,7.034" transform="translate(-133.676 -91.183)" fill="#ff8628"/>
        <path id="Trazado_166345" data-name="Trazado 166345" d="M278.47,194.177a10.948,10.948,0,0,0-5.311-.715c-.278.028-.417-.18-.585-.338-1.054-.995-2.093-2.006-3.167-2.979-.367-.332-.394-.558-.119-.985a30.184,30.184,0,0,0,4.25-22.339c-.126-.609-.026-.729.576-.735,1.982-.019,1.981-.042,2,1.867.016,1.573.391,2.148,1.9,2.518.655.161.449.566.45.91.013,4.012.008,8.024.008,12.036Z" transform="translate(-196.306 -121.153)" fill="#f7f7f7"/>
        <path id="Trazado_166346" data-name="Trazado 166346" d="M314.828,154.5c-1.345,0-2.691-.017-4.036.009-.516.01-.721-.15-.707-.688.031-1.143.034-2.288,0-3.43-.017-.559.222-.663.719-.659q3.985.029,7.971,0c.509,0,.722.127.7.674q-.053,1.714,0,3.43c.018.56-.22.68-.717.671-1.311-.022-2.623-.008-3.935-.008" transform="translate(-226.2 -109.228)" fill="#ff8628"/>
        <path id="Trazado_166347" data-name="Trazado 166347" d="M19.548,302.906c-1.282,0-2.564-.019-3.845.009-.509.011-.723-.116-.7-.671q.058-1.719,0-3.44c-.019-.568.226-.668.719-.665,2.631.017,5.262.021,7.894,0,.559-.005.783.143.762.736-.04,1.112-.044,2.227,0,3.339.025.622-.248.716-.779.7-1.349-.029-2.7-.01-4.048-.01" transform="translate(-10.94 -217.484)" fill="#ff8628"/>
        <path id="Trazado_166348" data-name="Trazado 166348" d="M270.659,26.39,276.59,32.3a31.733,31.733,0,0,1-4.739-.127,1.506,1.506,0,0,1-1.185-1.571c-.024-1.373-.007-2.746-.007-4.21" transform="translate(-197.436 -19.251)" fill="#aba8ad"/>
        <path id="Trazado_166349" data-name="Trazado 166349" d="M254.77,268.339c0,.281-.225.346-.36.483a8.605,8.605,0,0,0-1.387,1.455c-.544.919-.979.956-1.636.138-.459-.572-1.313-1.008-1.428-1.611-.073-.386.883-.963,1.372-1.461,1.156-1.178,1.155-1.18,2.363-.034.366.348.729.7,1.076,1.03" transform="translate(-182.337 -194.373)" fill="#aee5f5"/>
        <path id="Trazado_166350" data-name="Trazado 166350" d="M29.663,126.579c1.755.491,2.5,1.766,1.8,3.086a2.387,2.387,0,0,1-1.8,1.148c-1.744-.492-2.483-1.774-1.79-3.09a2.452,2.452,0,0,1,1.791-1.144" transform="translate(-20.143 -92.337)" fill="#010202"/>
      </g>
    </g>
  </g>
</svg>
