<svg id="Grupo_114851" data-name="Grupo 114851" xmlns="http://www.w3.org/2000/svg" xmlns:xlink="http://www.w3.org/1999/xlink" width="119.975" height="120" viewBox="0 0 119.975 120">
  <defs>
    <clipPath id="clip-path">
      <rect id="Rectángulo_37659" data-name="Rectángulo 37659" width="119.975" height="120" fill="none"/>
    </clipPath>
  </defs>
  <g id="Grupo_114850" data-name="Grupo 114850" clip-path="url(#clip-path)">
    <path id="Trazado_165625" data-name="Trazado 165625" d="M101.932,0h3.749c3.1.73,4.6,3.024,5.663,5.759a5.9,5.9,0,0,1,.419,1.087c.406,2.431,1.992,3.246,4.253,3.178.234-.007.468.01.7.015,2.655.054,3.256.678,3.256,3.38V116.6c0,2.737-.64,3.376-3.378,3.376q-56.509,0-113.018.026A4.054,4.054,0,0,1,0,118.568V30.931c.31-.062.268-.354.334-.552a6.18,6.18,0,0,1,4.012-3.949,15.006,15.006,0,0,1,5.047-.863c.856-.009,1.017-.271.894-1.072a6.682,6.682,0,0,1,2.231-6.321,1.172,1.172,0,0,0,.348-1.034A6.772,6.772,0,0,1,20,10.039a1.366,1.366,0,0,0,1.1-.461A6.806,6.806,0,0,1,31.18,9.511a1.618,1.618,0,0,0,1.309.525A6.807,6.807,0,0,1,39.5,17.158c-.012.771.223.918.912.914a26.437,26.437,0,0,0,8.842-1.444,1.265,1.265,0,0,0,1-1.207c.285-3.177,2.262-5.087,5.033-6.167a18.883,18.883,0,0,1,14.246-.236.9.9,0,0,0,1.124-.2,14.464,14.464,0,0,1,8.414-3.677c4.32-.573,8.653-.185,12.98-.151a1.42,1.42,0,0,0,1.465-.815A6.989,6.989,0,0,1,99.609.448,4.5,4.5,0,0,0,101.932,0M48.986,21.8a11.07,11.07,0,0,0-2.738.495,64.43,64.43,0,0,1-11.8.439,11.972,11.972,0,0,0-7.64,2.463c-.683.521-1.384,1.019-2.055,1.554A15.5,15.5,0,0,1,14.1,30.233,33.925,33.925,0,0,0,7.32,30.5c-2.235.356-2.615.785-2.615,3.044q0,14.821,0,29.641c0,1.132.021,2.266-.009,3.4-.013.511.157.69.671.66q3.04-.176,6.083-.3c.654-.027.763-.25.551-.874a7.846,7.846,0,0,1-.292-3.59,1.613,1.613,0,0,0-.7-1.664,9.285,9.285,0,0,1-.256-14.334,2.361,2.361,0,0,0,.94-2.256,9.328,9.328,0,0,1,10.319-9.972,1.558,1.558,0,0,0,1.645-.637,9.319,9.319,0,0,1,14.719.1,1.244,1.244,0,0,0,1.343.554A9.352,9.352,0,0,1,50.205,44.7a1.4,1.4,0,0,0,.629,1.458,9.377,9.377,0,0,1,.543,14.289c-.2.183-.407.352-.821.707,2.319-.421,4.306-.822,6.308-1.122.695-.1.963-.309,1.075-1.045,1.443-9.521,2.929-19.037,4.857-28.474,1.153-5.644,2.042-11.365,4.342-16.712.262-.609-.023-.763-.5-.873a15.375,15.375,0,0,0-9.954.861,3,3,0,0,0-1.85,2.615c-.239,1.932-.6,3.851-.959,5.767a6.508,6.508,0,0,1-2.371,4.182,6.18,6.18,0,0,0-2.346,3.906,2.381,2.381,0,0,1-2.811,2.021,2.417,2.417,0,0,1-1.8-3.061,10.063,10.063,0,0,1,3.535-6.159c.407-.321.953-.6.884-1.275L49,21.7c-.005.034-.011.069-.017.1M93.519,93.771c.461-1.986,1-2.475,3.024-2.543a82.134,82.134,0,0,1,10.642.113c1.078.1,1.386-.4,1.495-1.272a2.708,2.708,0,0,0-1.751-2.752c-1.63-.788-2.065-1.757-1.456-3.39a2.684,2.684,0,0,0-3.61-3.572,2.286,2.286,0,0,1-3.312-1.391,2.686,2.686,0,0,0-5.083-.01,2.289,2.289,0,0,1-3.308,1.406,2.682,2.682,0,0,0-3.128.522,2.65,2.65,0,0,0-.52,3.027c.62,1.648.185,2.622-1.411,3.41a6.487,6.487,0,0,0-.807.462c-1.657,1.139-2.708.98-3.875-.6a2.641,2.641,0,0,0-3.364-1.086c-1.86.631-2.65.3-3.537-1.5a2.67,2.67,0,0,0-4.935.014c-.837,1.776-1.691,2.125-3.554,1.478a2.668,2.668,0,0,0-3.467,3.577c.632,1.729.234,2.651-1.49,3.461a2.63,2.63,0,0,0-1.7,2.445,2.565,2.565,0,0,0,1.728,2.535,2.25,2.25,0,0,1,1.357,1.043c.32.755.712.554,1.251.294a76.944,76.944,0,0,1,11.306-4.4c1.69-.506,2.5-.188,3.409,1.326.241,1.823-.3,2.619-2.235,3.212a72.35,72.35,0,0,0-19.443,9.25,62.779,62.779,0,0,0-8.095,6.453h.791q32.961,0,65.922.02c.816,0,.935-.277.931-.992-.027-5.347-.07-10.695.025-16.04.023-1.282-.38-1.6-1.554-1.732a115,115,0,0,0-17.3-.631c-1.729.072-2.407-.431-2.958-2.14M41.325,83.093a105.87,105.87,0,0,1,14.581,3.291c.685.212.984.1,1.28-.613a7.138,7.138,0,0,1,7.318-4.54c.594.03.829-.278,1.148-.615a7.346,7.346,0,0,1,8.585-1.649c1.122.527,1.825,1.763,2.852,2.135,1.044.378,2.373.092,3.533.5a1.109,1.109,0,0,1,.213.1c.543.333.756.158.911-.447.993-3.859,3.635-5.865,7.655-5.822a1.3,1.3,0,0,0,1.091-.476,7.274,7.274,0,0,1,10.959-.066,1.548,1.548,0,0,0,1.305.536,7.2,7.2,0,0,1,7.634,7.606,1.669,1.669,0,0,0,.6,1.4,6.968,6.968,0,0,1,2.247,6.565c-.248,1.4.849.725,1.342.939.736.32.707-.225.707-.716q0-14.293.011-28.587c0-.63-.2-.873-.816-1a69.833,69.833,0,0,0-10.552-1.374c-10.419-.558-20.742.487-31.033,1.958-7.219,1.031-14.4,2.313-21.578,3.58a2.077,2.077,0,0,0-1.847,1.4A9.3,9.3,0,0,1,39.859,72.8a1.479,1.479,0,0,0-1.868,1.545c-.034,1.4.016,2.812-.019,4.217-.018.724.222.783.816.5,1.126-.535,2.269-1.036,3.418-1.521A2.349,2.349,0,1,1,44.135,81.8c-.833.4-1.678.773-2.809,1.293m73.963-47.18c0-6.714-.018-13.429.022-20.142.005-.905-.251-1.178-1.148-1.256a6.857,6.857,0,0,1-6.4-4.974A28.607,28.607,0,0,0,106.552,6.5c-.806-1.726-1.226-1.945-3.094-1.774a19.225,19.225,0,0,1-2.44.263C98.3,4.885,97.13,6.52,96.5,8.833c-.132.488-.307.966-.43,1.456-1.226,4.894-1.588,9.925-2.341,14.894a35.7,35.7,0,0,1-2.4,9.607c-1.087,2.389-2.712,4.16-5.447,4.66a4.18,4.18,0,0,0-3.42,3.283A69.215,69.215,0,0,0,80.3,55.508c-.082.941.251,1.029,1.021.935A143.729,143.729,0,0,1,96.612,55.43c.765-.012,1-.321,1.091-1.013.206-1.624.456-3.243.717-4.859a17.054,17.054,0,0,1,2.837-7.471,2.256,2.256,0,0,1,3.195-.658,2.2,2.2,0,0,1,.753,3.073c-2.071,3.049-2.219,6.6-2.811,10.037-.136.788.117.987.889,1.015A66.427,66.427,0,0,1,114.2,56.81c.883.181,1.118.08,1.112-.872-.04-6.675-.021-13.35-.021-20.025m-92.4,79.363c4.919,0,9.842-.113,14.755.051a6.556,6.556,0,0,0,5.493-2.179A63.9,63.9,0,0,1,55.9,103.136c.943-.583,1.043-1.245.34-1.932-2.884-2.82-3.359-5.9-1.409-9.533.307-.572.17-.668-.371-.832a109.43,109.43,0,0,0-15.755-3.39c-.6-.089-.731.117-.723.674.027,1.952.035,3.9,0,5.856a.967.967,0,0,0,.718,1.029c1,.434,1.994.886,2.958,1.393a2.343,2.343,0,0,1-1.932,4.268,8.939,8.939,0,0,1-1.485-.683c-.7-.417-1.106-.4-1.665.365a7.017,7.017,0,0,1-10.065,1.306c-.757-.6-1.049-1.953-2.082-1.862a9.6,9.6,0,0,0-2.744,1.242,2.371,2.371,0,0,1-3.379-1c-.588-1.268-.063-2.521,1.39-3.254,1.147-.579,2.294-1.163,3.469-1.679a1.136,1.136,0,0,0,.76-1.251c-.041-2.146-.049-4.295,0-6.441.018-.769-.2-.96-.968-.96A136.514,136.514,0,0,0,5.69,87.677c-.746.1-1.019.33-1.015,1.149q.055,12.707,0,25.414c0,.927.289,1.06,1.114,1.055,5.7-.036,11.4-.019,17.1-.019M16.365,63.338a4.678,4.678,0,0,0,6.286,4.514c2.345-.824,3.042-.536,4.051,1.624a4.421,4.421,0,0,0,4.254,2.754,4.43,4.43,0,0,0,4.267-2.738c1.037-2.182,1.732-2.468,4.045-1.647a4.677,4.677,0,0,0,5.986-6.068c-.808-2.227-.5-2.955,1.618-3.954a4.688,4.688,0,0,0,.013-8.584c-2.122-.991-2.437-1.736-1.634-3.946a4.678,4.678,0,0,0-6.077-6.045c-2.125.795-2.962.453-3.885-1.568a4.684,4.684,0,0,0-8.626-.012c-.9,2.007-1.79,2.368-3.886,1.583a4.684,4.684,0,0,0-6.063,6.14c.761,2.041.413,2.949-1.548,3.8a4.673,4.673,0,0,0,.1,8.709c1.8.791,2.227,1.807,1.5,3.641a4.585,4.585,0,0,0-.4,1.8M91.422,9.544c-1.941,0-3.767.045-5.59-.022-.753-.027-.993.22-1.124.928-.391,2.106-.865,4.2-1.3,6.294a2.93,2.93,0,0,1-.905,1.848,2.212,2.212,0,0,1-2.617.267,2.172,2.172,0,0,1-1.154-2.468q.529-2.813,1.17-5.6c.191-.832.018-1.1-.876-.941a9.532,9.532,0,0,0-7.3,5.242,28.406,28.406,0,0,0-2.133,6.288C67.472,30.09,65.94,38.92,64.455,47.758c-.568,3.382-1.078,6.775-1.622,10.162-.118.732-.214,1.355.908.971a5.236,5.236,0,0,1,1.727-.27c.988.012,1.23-.531,1.306-1.376a18.5,18.5,0,0,1,.434-2.884A2.2,2.2,0,0,1,69.8,52.71,2.228,2.228,0,0,1,71.708,55c-.008.62-.146,1.237-.206,1.857a1.213,1.213,0,0,0,.037.67c.189.318,3.807-.334,3.926-.7a2.739,2.739,0,0,0,.064-.58c.133-1.4.221-2.8.408-4.192a55.69,55.69,0,0,1,2.331-11.427,7.942,7.942,0,0,1,5.881-5.494,4.192,4.192,0,0,0,3.309-3.207c.226-.744.49-1.48.668-2.236,1.549-6.573,1.693-13.371,3.3-20.156M4.687,77.431c0,1.6.032,3.2-.015,4.794-.02.7.2.839.864.757q3.42-.423,6.852-.746a102.664,102.664,0,0,1,10.624-.468c.456,0,.934.106.922-.661-.037-2.3.009-4.6-.024-6.9A1.428,1.428,0,0,0,22.4,72.729a9,9,0,0,1-5.966-1.1,2.13,2.13,0,0,0-1.319-.316c-3.14.333-6.288.575-9.445.605-.851.008-1.035.29-1,1.074.06,1.479.017,2.962.018,4.443m11.6-52a9.066,9.066,0,0,0,4.645-1.74c1.205-.86,2.381-1.762,3.581-2.63a15.543,15.543,0,0,1,8.938-3.01q1.865-.045,1.251-1.856a2.194,2.194,0,0,0-2.94-1.328c-1.917.608-2.646.319-3.548-1.5a2.212,2.212,0,0,0-4.061-.02c-.935,1.831-1.647,2.132-3.531,1.522a2.215,2.215,0,0,0-2.9,2.906c.619,1.818.267,2.66-1.414,3.5a2.542,2.542,0,0,0-1.076,3.656.881.881,0,0,0,1.06.5M28.644,86.819c0,2.966-.009,5.932,0,8.9.008,1.743.889,2.743,2.355,2.723,1.422-.02,2.25-.992,2.254-2.681.008-2.81-.01-5.62.012-8.43a1.175,1.175,0,0,0-.775-1.305,2.216,2.216,0,0,1-.308-3.908,2.027,2.027,0,0,0,1.081-2.25c-.039-.779-.036-1.562,0-2.341.028-.57-.144-.759-.734-.664a8.345,8.345,0,0,1-3.03,0c-.8-.166-.882.142-.874.825.032,3.044.014,6.089.014,9.133" fill="#010201"/>
    <path id="Trazado_165626" data-name="Trazado 165626" d="M124.6,214.888c1.131-.52,1.976-.894,2.809-1.293a2.349,2.349,0,1,0-1.928-4.256c-1.149.485-2.292.986-3.418,1.521-.594.282-.833.224-.816-.5.035-1.405-.016-2.812.018-4.217a1.48,1.48,0,0,1,1.868-1.545,9.3,9.3,0,0,0,9.615-5.617,2.077,2.077,0,0,1,1.847-1.4c7.181-1.267,14.359-2.548,21.578-3.58,10.292-1.47,20.615-2.516,31.033-1.957a69.842,69.842,0,0,1,10.552,1.374c.616.129.817.371.816,1q-.028,14.293-.011,28.587c0,.49.029,1.035-.707.716-.494-.215-1.591.458-1.342-.939a6.967,6.967,0,0,0-2.247-6.565,1.671,1.671,0,0,1-.6-1.4,7.2,7.2,0,0,0-7.634-7.606,1.549,1.549,0,0,1-1.306-.536,7.274,7.274,0,0,0-10.959.066,1.3,1.3,0,0,1-1.091.476c-4.02-.043-6.662,1.963-7.655,5.822-.156.605-.369.78-.911.447a1.108,1.108,0,0,0-.213-.1c-1.16-.405-2.489-.12-3.533-.5-1.028-.372-1.731-1.608-2.852-2.136a7.347,7.347,0,0,0-8.585,1.649c-.318.336-.554.645-1.147.615a7.137,7.137,0,0,0-7.319,4.54c-.3.712-.6.825-1.28.613a105.868,105.868,0,0,0-14.581-3.291m46.452-13.425a2.327,2.327,0,0,0,2.345-2.282,2.378,2.378,0,0,0-2.4-2.366,2.3,2.3,0,0,0-2.255,2.361,2.265,2.265,0,0,0,2.31,2.287m-24.28,5.62a2.291,2.291,0,0,0,2.353-2.226,2.329,2.329,0,0,0-2.3-2.412,2.358,2.358,0,0,0-2.368,2.362,2.315,2.315,0,0,0,2.318,2.277" transform="translate(-83.272 -131.795)" fill="#04d9b5"/>
    <path id="Trazado_165627" data-name="Trazado 165627" d="M291.357,46.176c0,6.675-.019,13.35.021,20.025.006.951-.228,1.052-1.112.872a66.392,66.392,0,0,0-10.915-1.256c-.772-.028-1.024-.228-.889-1.015.593-3.442.74-6.987,2.811-10.037a2.2,2.2,0,0,0-.753-3.073,2.256,2.256,0,0,0-3.195.659,17.048,17.048,0,0,0-2.838,7.471c-.261,1.616-.51,3.235-.717,4.859-.088.692-.326,1-1.091,1.013a143.731,143.731,0,0,0-15.293,1.013c-.769.095-1.1.006-1.02-.935A69.2,69.2,0,0,1,258.537,53a4.18,4.18,0,0,1,3.42-3.283c2.735-.5,4.36-2.271,5.447-4.66a35.705,35.705,0,0,0,2.4-9.607c.753-4.969,1.115-10,2.341-14.893.123-.491.3-.968.43-1.457.628-2.313,1.8-3.948,4.515-3.842a19.226,19.226,0,0,0,2.44-.263c1.868-.17,2.288.048,3.094,1.775a28.524,28.524,0,0,1,1.207,3.039,6.856,6.856,0,0,0,6.4,4.974c.9.079,1.153.351,1.148,1.256-.04,6.714-.022,13.428-.022,20.142M280.686,35.643a2.32,2.32,0,0,0,2.375-2.25,2.381,2.381,0,0,0-2.364-2.4,2.308,2.308,0,0,0-2.288,2.333,2.262,2.262,0,0,0,2.277,2.32" transform="translate(-176.069 -10.263)" fill="#d5ce26"/>
    <path id="Trazado_165628" data-name="Trazado 165628" d="M33.132,304.859c-5.7,0-11.4-.017-17.1.019-.826.005-1.119-.128-1.114-1.055q.064-12.707,0-25.414c0-.82.27-1.054,1.015-1.149a136.571,136.571,0,0,1,17.269-1.228c.767,0,.987.191.968.96-.052,2.146-.044,4.294,0,6.441a1.136,1.136,0,0,1-.76,1.251c-1.176.516-2.322,1.1-3.469,1.679-1.453.733-1.977,1.985-1.39,3.254a2.372,2.372,0,0,0,3.379,1,9.575,9.575,0,0,1,2.744-1.242c1.033-.091,1.325,1.264,2.082,1.862a7.017,7.017,0,0,0,10.065-1.306c.559-.767.965-.783,1.665-.366a8.915,8.915,0,0,0,1.485.683,2.343,2.343,0,0,0,1.932-4.268c-.964-.507-1.958-.96-2.958-1.393a.968.968,0,0,1-.718-1.029c.039-1.951.031-3.9,0-5.855-.008-.557.124-.762.723-.674a109.434,109.434,0,0,1,15.755,3.39c.541.164.678.26.371.832-1.949,3.629-1.474,6.713,1.409,9.533.7.687.6,1.349-.34,1.932A63.914,63.914,0,0,0,53.38,302.731a6.555,6.555,0,0,1-5.493,2.178c-4.914-.163-9.836-.05-14.755-.05" transform="translate(-10.246 -189.583)" fill="#04d9b5"/>
    <path id="Trazado_165629" data-name="Trazado 165629" d="M198.034,299.412c.552,1.708,1.229,2.212,2.958,2.14a114.956,114.956,0,0,1,17.3.631c1.174.128,1.577.45,1.554,1.732-.095,5.345-.052,10.693-.025,16.04,0,.715-.116.993-.931.992q-32.961-.038-65.922-.02h-.792a62.805,62.805,0,0,1,8.095-6.453,72.36,72.36,0,0,1,19.443-9.25c1.931-.593,2.475-1.389,2.235-3.213l5.7-1.219c.563,1.468,1.355,2.036,2.635,1.894,1.236-.137,1.88-.951,2.078-2.624a43.7,43.7,0,0,1,5.681-.65M183.2,311.439a2.327,2.327,0,0,0-.1,4.652,2.327,2.327,0,1,0,.1-4.652m24.469.605a2.335,2.335,0,0,0,2.427-2.291,2.393,2.393,0,0,0-2.255-2.372,2.339,2.339,0,0,0-2.394,2.2,2.275,2.275,0,0,0,2.222,2.463" transform="translate(-104.515 -205.641)" fill="#04d9b5"/>
    <path id="Trazado_165630" data-name="Trazado 165630" d="M59.262,49.156c.069.675-.478.953-.884,1.275a10.063,10.063,0,0,0-3.535,6.159,2.417,2.417,0,0,0,1.8,3.061,2.38,2.38,0,0,0,2.811-2.021A6.179,6.179,0,0,1,61.8,53.724a6.508,6.508,0,0,0,2.371-4.182c.357-1.916.72-3.834.959-5.767a3,3,0,0,1,1.85-2.615,15.379,15.379,0,0,1,9.954-.861c.473.109.759.263.5.873-2.3,5.346-3.189,11.067-4.342,16.712-1.928,9.438-3.414,18.953-4.857,28.474-.111.736-.38.94-1.075,1.045-2,.3-3.99.7-6.309,1.123.414-.355.624-.524.821-.707a9.376,9.376,0,0,0-.543-14.289,1.4,1.4,0,0,1-.629-1.458A9.352,9.352,0,0,0,50.013,61.633a1.245,1.245,0,0,1-1.344-.554,9.319,9.319,0,0,0-14.718-.1,1.558,1.558,0,0,1-1.645.637,9.328,9.328,0,0,0-10.319,9.972,2.359,2.359,0,0,1-.94,2.256A9.285,9.285,0,0,0,21.3,88.179a1.613,1.613,0,0,1,.7,1.664,7.843,7.843,0,0,0,.291,3.59c.212.624.1.847-.551.874q-3.042.127-6.082.3c-.514.03-.685-.149-.671-.66.029-1.132.009-2.265.009-3.4q0-14.821,0-29.641c0-2.259.38-2.688,2.615-3.044a33.9,33.9,0,0,1,6.778-.264,15.5,15.5,0,0,0,10.654-3.477c.671-.535,1.372-1.034,2.055-1.554a11.974,11.974,0,0,1,7.64-2.464,64.43,64.43,0,0,0,11.8-.438,11.069,11.069,0,0,1,2.738-.495Z" transform="translate(-10.297 -27.369)" fill="#d5ce26"/>
    <path id="Trazado_165631" data-name="Trazado 165631" d="M43.16,139.691a4.585,4.585,0,0,1,.4-1.8c.727-1.833.3-2.85-1.5-3.641a4.673,4.673,0,0,1-.1-8.709c1.961-.848,2.31-1.756,1.548-3.8a4.685,4.685,0,0,1,6.063-6.14c2.1.785,2.987.424,3.886-1.583a4.684,4.684,0,0,1,8.626.011c.924,2.021,1.76,2.363,3.885,1.568a4.678,4.678,0,0,1,6.077,6.045c-.8,2.21-.488,2.955,1.634,3.946a4.688,4.688,0,0,1-.013,8.584c-2.121,1-2.427,1.727-1.618,3.954a4.677,4.677,0,0,1-5.986,6.068c-2.313-.821-3.008-.535-4.045,1.647a4.677,4.677,0,0,1-8.521-.016c-1.01-2.16-1.706-2.448-4.051-1.624a4.678,4.678,0,0,1-6.286-4.514" transform="translate(-26.796 -76.354)" fill="#009e83"/>
    <path id="Trazado_165632" data-name="Trazado 165632" d="M229.066,30.424c-1.6,6.785-1.749,13.583-3.3,20.156-.178.755-.442,1.491-.668,2.235a4.193,4.193,0,0,1-3.309,3.208,7.941,7.941,0,0,0-5.882,5.493,55.709,55.709,0,0,0-2.33,11.427c-.187,1.391-.275,2.794-.409,4.192a2.718,2.718,0,0,1-.064.58c-.118.361-3.737,1.013-3.925.7a1.212,1.212,0,0,1-.037-.67c.06-.62.2-1.237.206-1.857a2.228,2.228,0,0,0-1.909-2.295,2.2,2.2,0,0,0-2.592,1.652,18.534,18.534,0,0,0-.434,2.884c-.076.845-.317,1.388-1.306,1.376a5.239,5.239,0,0,0-1.727.27c-1.122.383-1.025-.239-.907-.971.544-3.387,1.054-6.779,1.622-10.162,1.485-8.838,3.017-17.667,5.133-26.383a28.394,28.394,0,0,1,2.133-6.288,9.534,9.534,0,0,1,7.3-5.243c.893-.156,1.067.109.876.942q-.639,2.79-1.17,5.6a2.173,2.173,0,0,0,1.154,2.468,2.212,2.212,0,0,0,2.617-.267,2.928,2.928,0,0,0,.905-1.848c.439-2.1.913-4.188,1.3-6.293.131-.708.372-.955,1.124-.928,1.822.066,3.649.022,5.59.022M215.612,47.54a2.46,2.46,0,0,0-1.966-2.621,2.225,2.225,0,0,0-2.57,1.54c-.548,2.23-1.016,4.483-1.43,6.743a2.254,2.254,0,0,0,1.706,2.474,2.114,2.114,0,0,0,2.679-1.289c.65-2.36,1.113-4.772,1.582-6.848" transform="translate(-137.644 -20.879)" fill="#b7deea"/>
    <path id="Trazado_165633" data-name="Trazado 165633" d="M221.541,262.941a43.707,43.707,0,0,0-5.681.65c-.643-1.539-1.51-2.164-2.728-1.965-1.288.211-1.9,1.042-1.984,2.7l-5.7,1.219c-.909-1.513-1.719-1.831-3.409-1.325a76.924,76.924,0,0,0-11.307,4.4c-.539.259-.931.461-1.251-.294a2.249,2.249,0,0,0-1.357-1.043,2.565,2.565,0,0,1-1.729-2.535,2.63,2.63,0,0,1,1.7-2.445c1.724-.81,2.122-1.733,1.49-3.461a2.668,2.668,0,0,1,3.467-3.576c1.863.647,2.718.3,3.554-1.478a2.67,2.67,0,0,1,4.935-.014c.886,1.8,1.677,2.129,3.537,1.5a2.642,2.642,0,0,1,3.364,1.086c1.167,1.581,2.218,1.74,3.875.6a6.487,6.487,0,0,1,.807-.462c1.6-.788,2.031-1.762,1.411-3.41a2.65,2.65,0,0,1,.519-3.027,2.682,2.682,0,0,1,3.128-.522,2.289,2.289,0,0,0,3.309-1.406,2.686,2.686,0,0,1,5.083.01,2.286,2.286,0,0,0,3.312,1.391,2.684,2.684,0,0,1,3.61,3.572c-.609,1.633-.174,2.6,1.456,3.39a2.708,2.708,0,0,1,1.751,2.752c-.109.869-.417,1.377-1.5,1.273a82.071,82.071,0,0,0-10.642-.113c-2.027.068-2.563.557-3.024,2.543" transform="translate(-128.021 -169.17)" fill="#009e83"/>
    <path id="Trazado_165634" data-name="Trazado 165634" d="M14.92,233.788c0-1.481.042-2.964-.017-4.443-.032-.784.153-1.066,1-1.074,3.157-.03,6.306-.272,9.445-.605a2.132,2.132,0,0,1,1.319.316,9,9,0,0,0,5.966,1.1,1.428,1.428,0,0,1,1.505,1.479c.034,2.3-.012,4.6.025,6.9.012.768-.465.665-.922.661a102.754,102.754,0,0,0-10.625.469q-3.43.325-6.851.746c-.662.082-.884-.06-.864-.757.047-1.6.015-3.2.015-4.794" transform="translate(-10.233 -156.357)" fill="#87dd8d"/>
    <path id="Trazado_165635" data-name="Trazado 165635" d="M48.824,51.8a.881.881,0,0,1-1.06-.5,2.543,2.543,0,0,1,1.076-3.656c1.681-.841,2.033-1.683,1.414-3.5a2.216,2.216,0,0,1,2.9-2.907c1.884.61,2.6.309,3.531-1.521a2.212,2.212,0,0,1,4.061.02c.9,1.818,1.63,2.107,3.548,1.5a2.194,2.194,0,0,1,2.94,1.329q.615,1.809-1.251,1.856a15.545,15.545,0,0,0-8.938,3.01c-1.2.868-2.376,1.77-3.581,2.63a9.067,9.067,0,0,1-4.645,1.74" transform="translate(-32.538 -26.367)" fill="#009e83"/>
    <path id="Trazado_165636" data-name="Trazado 165636" d="M91.427,255.281c0-3.044.018-6.089-.014-9.133-.007-.682.077-.991.875-.825a8.345,8.345,0,0,0,3.03,0c.589-.1.761.094.734.664-.037.779-.039,1.562,0,2.341a2.027,2.027,0,0,1-1.081,2.25,2.217,2.217,0,0,0,.308,3.908,1.175,1.175,0,0,1,.775,1.305c-.022,2.81,0,5.62-.012,8.43-.005,1.69-.833,2.661-2.254,2.681-1.466.02-2.348-.98-2.355-2.723-.013-2.966,0-5.932,0-8.9" transform="translate(-62.783 -168.461)" fill="#c9e357"/>
    <path id="Trazado_165637" data-name="Trazado 165637" d="M156.367,69.4l.017-.1-.038.085.021.018" transform="translate(-107.381 -47.591)" fill="#89a6bb"/>
    <path id="Trazado_165638" data-name="Trazado 165638" d="M275.207,212.256a2.266,2.266,0,0,1-2.31-2.287,2.3,2.3,0,0,1,2.256-2.361,2.377,2.377,0,0,1,2.4,2.366,2.327,2.327,0,0,1-2.345,2.282" transform="translate(-187.43 -142.588)" fill="#010201"/>
    <path id="Trazado_165639" data-name="Trazado 165639" d="M197.663,230.224a2.315,2.315,0,0,1-2.318-2.277,2.358,2.358,0,0,1,2.368-2.362,2.329,2.329,0,0,1,2.3,2.412,2.291,2.291,0,0,1-2.353,2.226" transform="translate(-134.166 -154.936)" fill="#010201"/>
    <path id="Trazado_165640" data-name="Trazado 165640" d="M329.05,70.835a2.262,2.262,0,0,1-2.277-2.32,2.308,2.308,0,0,1,2.288-2.333,2.381,2.381,0,0,1,2.364,2.4,2.32,2.32,0,0,1-2.375,2.25" transform="translate(-224.433 -45.455)" fill="#010201"/>
    <path id="Trazado_165641" data-name="Trazado 165641" d="M246.083,337.811a2.327,2.327,0,1,1-.1,4.652,2.327,2.327,0,0,1,.1-4.652" transform="translate(-167.393 -232.013)" fill="#010201"/>
    <path id="Trazado_165642" data-name="Trazado 165642" d="M265.42,297.832c.085-1.653.7-2.484,1.984-2.7,1.218-.2,2.086.425,2.728,1.965-.2,1.673-.842,2.487-2.078,2.624-1.28.143-2.071-.426-2.635-1.894" transform="translate(-182.295 -202.68)" fill="#010201"/>
    <path id="Trazado_165643" data-name="Trazado 165643" d="M324.506,329.513a2.275,2.275,0,0,1-2.222-2.463,2.339,2.339,0,0,1,2.394-2.2,2.393,2.393,0,0,1,2.255,2.372,2.335,2.335,0,0,1-2.427,2.291" transform="translate(-221.347 -223.11)" fill="#010201"/>
    <path id="Trazado_165644" data-name="Trazado 165644" d="M235.8,79.3c-.469,2.076-.932,4.487-1.582,6.848a2.114,2.114,0,0,1-2.679,1.289,2.254,2.254,0,0,1-1.706-2.474c.414-2.26.882-4.512,1.43-6.743a2.225,2.225,0,0,1,2.57-1.54A2.46,2.46,0,0,1,235.8,79.3" transform="translate(-157.83 -52.64)" fill="#010201"/>
  </g>
</svg>
