<svg id="Grupo_114898" data-name="Grupo 114898" xmlns="http://www.w3.org/2000/svg" xmlns:xlink="http://www.w3.org/1999/xlink" width="71.484" height="80" viewBox="0 0 71.484 80">
  <defs>
    <clipPath id="clip-path">
      <rect id="Rectángulo_37687" data-name="Rectángulo 37687" width="71.484" height="80" fill="#fffb8b"/>
    </clipPath>
  </defs>
  <g id="Grupo_114897" data-name="Grupo 114897" clip-path="url(#clip-path)">
    <path id="Trazado_166351" data-name="Trazado 166351" d="M9.347,1.268C9.439.019,9.439.019,10.721.019Q31.874.019,53.027,0c.7,0,.9.162.882.876-.047,2.6.007,5.206-.037,7.808-.011.629.221.766.771.829a18.726,18.726,0,0,1,2.326,36.87c-.559.125-.775.288-.752.889.051,1.3.024,2.6.01,3.9a.731.731,0,0,0,.431.8,3.392,3.392,0,0,1,1.916,3.231q0,3.592,0,7.183c0,1.18,0,1.18-1.135,1.232-1.209-.057-1.209-.057-1.209-1.261,0-2.343.005-4.685,0-7.028,0-1.009-.412-1.412-1.423-1.417-1.2-.006-2.394.007-3.591.009-1.777,0-2,.226-2,2.04q0,4.06,0,8.121c0,3.332-.023,6.664.009,10a3.5,3.5,0,1,0,7-.028c.011-.729,0-1.458,0-2.186,0-1.2,0-1.2,1.209-1.262,1.135.052,1.156.053,1.129,1.229a16.8,16.8,0,0,1-.167,3.727,5.708,5.708,0,0,1-4.691,4.311c-.059.01-.107.085-.16.13h-2.03c-.059-.241-.294-.188-.446-.238a5.691,5.691,0,0,1-3.935-3.977c-.164-.565-.511-.469-.88-.469q-12.331,0-24.662,0c-3.642,0-7.284-.006-10.926.009A1.3,1.3,0,0,1,9.656,74.9Q5.065,70.278.441,65.684a1.383,1.383,0,0,1-.436-1.089Q.02,32.665,0,.735C0,.158.125-.01.72,0,2.54.047,4.363.055,6.182,0c.706-.021.99.167.866.877a1.53,1.53,0,0,0,.031.386,1.451,1.451,0,0,0-.032.38c.115.632-.18.776-.753.731-.534-.042-1.076.007-1.614.016a12.382,12.382,0,0,1-1.4-.037c-.738-.1-.943.137-.942.91q.037,29.093.025,58.186c0,.694-.311,1.651.131,2.016.505.418,1.439.129,2.188.105,2.055.009,4.111.045,6.166.011.672-.011.917.113.9.862-.054,2.576,0,5.155-.037,7.732-.01.646.146.812.8.811q16.787-.033,33.574,0c.666,0,.794-.178.791-.812-.027-5.571-.01-11.143-.019-16.714a3.589,3.589,0,0,1,1.994-3.515.612.612,0,0,0,.354-.679c0-1.328-.033-2.657.012-3.983.02-.584-.166-.772-.738-.9-13.828-3.141-19.211-20.33-9.649-30.79A18.25,18.25,0,0,1,50.781,9.525c.635-.065.8-.273.783-.9q-.071-2.692,0-5.388c.018-.685-.134-.9-.867-.894q-20.066.039-40.133.019c-1.135,0-1.135,0-1.216-1.1m27,26.889A16.394,16.394,0,1,0,52.693,11.736,16.4,16.4,0,0,0,36.351,28.157M9.384,71.135c0-1.605,0-3.164,0-4.723,0-.228.051-.476-.323-.474-1.622.008-3.245,0-4.865,0l5.189,5.193M53.873,49.25c0-.623-.024-1.247.008-1.868.023-.435-.186-.616-.542-.483-.58.216-1.573-.559-1.73.431a26.643,26.643,0,0,0-.053,3.807c0,.363.172.481.472.413.608-.138,1.314.339,1.833-.283.064-.077.012-.252.012-.382q0-.818,0-1.635" transform="translate(0 0)" fill="#030302"/>
    <path id="Trazado_166352" data-name="Trazado 166352" d="M22.42,7.182c.538-.009,1.08-.058,1.614-.016.573.046.869-.1.753-.731a1.441,1.441,0,0,1,.032-.38l2.268,0c.081,1.1.081,1.1,1.216,1.1q20.066,0,40.132-.019c.734,0,.886.209.868.894q-.072,2.693,0,5.388c.016.625-.147.832-.783.9a18.25,18.25,0,0,0-11.949,6.068c-9.562,10.459-4.179,27.649,9.649,30.79.572.13.758.318.738.9-.046,1.326-.017,2.655-.012,3.983a.613.613,0,0,1-.354.679A3.59,3.59,0,0,0,64.6,60.253c.009,5.571-.008,11.143.019,16.714,0,.634-.125.813-.791.812q-16.787-.036-33.574,0c-.656,0-.812-.166-.8-.811.04-2.577-.017-5.155.038-7.732.016-.748-.229-.873-.9-.862-2.055.034-4.111,0-6.166-.011,0-14.969,0-29.937,0-45.178,0-5.153,0-10.577,0-16M36.3,20.326c-1.626-4.244-4.4-6.2-8.554-6.156-.532.006-.652.171-.63.662.037.831.008,1.665.011,2.5a8.225,8.225,0,0,0,6.59,8.4c.247.061.444.08.44.407-.011,1.053,0,2.106,0,3.315A8.672,8.672,0,0,0,27.733,27c-.465.01-.646.106-.621.6.042.8.011,1.613.011,2.419a8.189,8.189,0,0,0,6.608,8.53c.314.081.459.2.419.518-.083.65.2,1.336-.173,1.949-.043.071-.3.019-.453.019H31.106c-1.656,0-1.632,0-1.653,1.661-.006.54.128.7.684.7,3.1-.028,6.191-.013,9.286-.013,1.839,0,1.821,0,1.77-1.852-.012-.438-.165-.506-.546-.5-1.17.021-2.342-.018-3.511.019-.51.016-.657-.129-.654-.646q.034-5.23,0-10.46c0-.509.143-.669.657-.8a8.007,8.007,0,0,0,6.214-6.373,27.187,27.187,0,0,0,.178-4.513c.031-.545-.185-.62-.665-.63a8.5,8.5,0,0,0-6.572,2.7m4.245,45.292c3.486,0,6.973-.017,10.458.016.632.006.768-.183.761-.782-.032-2.706-.014-5.413-.014-8.119,0-1.65,0-1.627-1.663-1.651-.529-.008-.7.1-.7.671.035,2.289,0,4.58.025,6.87.005.495-.1.7-.639.662a19.472,19.472,0,0,0-2.262,0c-.5.027-.678-.115-.66-.643.04-1.17.013-2.342.013-3.513,0-1.734,0-1.713-1.758-1.7-.493,0-.607.15-.6.621.03,1.535-.014,3.071.024,4.606.013.532-.164.656-.657.631-.753-.038-1.509-.03-2.263,0-.409.015-.616-.054-.59-.537.041-.753-.037-1.513.025-2.262.051-.621-.185-.723-.744-.713-1.615.029-1.615,0-1.615,1.61,0,1.895,0,1.895-1.881,1.895-1.639,0-1.66,0-1.644-1.651.005-.526-.111-.713-.678-.707-1.668.02-1.7-.006-1.663,1.65.013.59-.147.735-.728.723-1.638-.034-1.6,0-1.648,1.59-.019.652.213.756.792.752,3.434-.024,6.868-.012,10.3-.012m.057-19.9H31c-1.541,0-1.493,0-1.558,1.528-.031.732.221.834.872.832,6.605-.024,13.21-.014,19.815-.014,1.623,0,1.585,0,1.633-1.612.019-.656-.219-.749-.791-.745-3.458.024-6.917.012-10.376.012m.008,7.031h9.517c1.63,0,1.6,0,1.64-1.6.018-.641-.195-.755-.782-.753-6.631.02-13.262.013-19.893.013-1.645,0-1.618,0-1.638,1.677-.007.562.17.684.7.68,3.484-.023,6.969-.012,10.454-.012m20.42-40.913c1.288-.015,1.212.163,1.206-1.038-.008-1.4.182-1.307-1.016-1.3-1.451.006-1.324-.185-1.321,1.074,0,1.4-.172,1.254,1.132,1.267M65.781,9.5c-1.2,0-1.211,0-1.2,1.042.011,1.394-.184,1.3,1.021,1.3,1.447-.006,1.32.185,1.318-1.078,0-1.4.171-1.25-1.136-1.263" transform="translate(-17.74 -4.791)" fill="#fffb8b"/>
    <path id="Trazado_166353" data-name="Trazado 166353" d="M243.981,274.968c-1.209.057-1.209.057-1.209,1.262,0,.729.008,1.458,0,2.186a3.5,3.5,0,1,1-7,.028c-.032-3.331-.009-6.663-.009-10v-8.121c0-1.814.219-2.036,2-2.04,1.2,0,2.394-.015,3.591-.009,1.011.005,1.42.409,1.423,1.417.008,2.343,0,4.685,0,7.028,0,1.2,0,1.2,1.209,1.261q0,1.148,0,2.3c-1.21.057-1.21.057-1.21,1.233,0,1.1,0,1.1,1.21,1.157v2.3" transform="translate(-186.54 -204.364)" fill="#04d9b5"/>
    <path id="Trazado_166354" data-name="Trazado 166354" d="M270.59,318.175c-1.21-.057-1.21-.057-1.21-1.156,0-1.176,0-1.176,1.211-1.233,1.134.053,1.134.053,1.134,1.195s0,1.142-1.134,1.2" transform="translate(-213.149 -249.867)" fill="#030302"/>
    <path id="Trazado_166355" data-name="Trazado 166355" d="M174.143,72.644a16.394,16.394,0,1,1,16.381,16.383,16.394,16.394,0,0,1-16.381-16.383m2.342-.052a14.052,14.052,0,1,0,14.051-14.026,14.05,14.05,0,0,0-14.051,14.026" transform="translate(-137.792 -44.487)" fill="#fcf300"/>
    <path id="Trazado_166356" data-name="Trazado 166356" d="M13.23,11.23V72.41c-.748.024-1.683.313-2.188-.105-.441-.366-.13-1.323-.131-2.016Q10.9,41.195,10.886,12.1c0-.773.2-1.009.942-.91a12.383,12.383,0,0,0,1.4.037" transform="translate(-8.55 -8.839)" fill="#fffb8b"/>
    <path id="Trazado_166357" data-name="Trazado 166357" d="M25.283,321.08l-5.189-5.193c1.621,0,3.243,0,4.865,0,.374,0,.323.246.323.474,0,1.559,0,3.118,0,4.723" transform="translate(-15.9 -249.945)" fill="#fcf300"/>
    <path id="Trazado_166358" data-name="Trazado 166358" d="M249.127,226.7q0,.818,0,1.635c0,.13.052.3-.012.382-.519.622-1.225.145-1.833.283-.3.068-.476-.05-.472-.413a26.645,26.645,0,0,1,.053-3.807c.157-.989,1.15-.215,1.73-.431.356-.133.565.048.542.483-.033.621-.008,1.245-.008,1.868" transform="translate(-195.254 -177.45)" fill="#e3a84a"/>
    <path id="Trazado_166359" data-name="Trazado 166359" d="M54.075,51.08a8.5,8.5,0,0,1,6.572-2.7c.479.01.7.085.665.63a27.188,27.188,0,0,1-.178,4.513A8.007,8.007,0,0,1,54.918,59.9c-.514.133-.66.293-.657.8q.031,5.23,0,10.46c0,.517.144.662.654.646,1.169-.037,2.341,0,3.511-.019.381-.007.534.062.546.5.051,1.853.069,1.852-1.77,1.852-3.1,0-6.191-.014-9.286.013-.557.005-.691-.157-.684-.7.02-1.661,0-1.661,1.653-1.661H51.3c.156,0,.41.053.453-.019.369-.613.09-1.3.173-1.949.04-.316-.1-.437-.419-.518a8.189,8.189,0,0,1-6.608-8.53c0-.807.03-1.615-.011-2.419-.026-.5.156-.594.621-.6a8.671,8.671,0,0,1,6.417,2.45c0-1.209-.007-2.262,0-3.315,0-.326-.194-.345-.44-.407a8.225,8.225,0,0,1-6.59-8.4c0-.833.027-1.667-.011-2.5-.022-.491.1-.655.63-.662,4.153-.047,6.928,1.913,8.554,6.156m-2.208,3.034a5.9,5.9,0,0,0-3.441-6.345c-1.186-.516-1.225-.49-1.18.772a5.756,5.756,0,0,0,4.621,5.573m7.03-3.192a5.884,5.884,0,0,0-4.627,6.084c.005.6.162.628.673.46,2.689-.882,4.23-3.387,3.954-6.544M51.917,66A5.814,5.814,0,0,0,47.8,60.4c-.24-.066-.511-.3-.555.252a6.042,6.042,0,0,0,4.016,6.183c.483.16.748.169.661-.445a2.872,2.872,0,0,1,0-.389" transform="translate(-35.518 -35.546)" fill="#030302"/>
    <path id="Trazado_166360" data-name="Trazado 166360" d="M67.18,251.456c-3.434,0-6.868-.012-10.3.012-.579,0-.811-.1-.792-.752.046-1.595.009-1.624,1.648-1.59.581.012.741-.133.728-.723-.035-1.656-.005-1.63,1.663-1.65.567-.007.683.181.678.707-.015,1.651.006,1.651,1.645,1.651,1.881,0,1.881,0,1.881-1.895,0-1.605,0-1.581,1.615-1.609.559-.01.8.092.744.713-.062.75.015,1.51-.025,2.262-.026.483.181.552.59.537.753-.028,1.51-.036,2.263,0,.492.025.67-.1.657-.631-.038-1.534.005-3.071-.024-4.606-.009-.471.105-.618.6-.621,1.758-.011,1.757-.032,1.757,1.7,0,1.171.028,2.343-.013,3.513-.018.528.155.67.659.643a19.519,19.519,0,0,1,2.262,0c.536.034.645-.167.64-.662-.024-2.29.01-4.58-.025-6.87-.009-.567.166-.678.7-.671,1.663.024,1.663,0,1.663,1.651,0,2.707-.018,5.413.014,8.119.007.6-.129.788-.761.782-3.486-.033-6.972-.016-10.458-.016" transform="translate(-44.378 -190.629)" fill="#030302"/>
    <path id="Trazado_166361" data-name="Trazado 166361" d="M67.22,196.04c3.459,0,6.917.012,10.376-.012.572,0,.81.088.791.745-.048,1.611-.01,1.612-1.633,1.612-6.605,0-13.21-.009-19.815.014-.651,0-.9-.1-.872-.832.065-1.525.017-1.528,1.558-1.528h9.6" transform="translate(-44.361 -155.109)" fill="#030302"/>
    <path id="Trazado_166362" data-name="Trazado 166362" d="M67.259,220.832c-3.485,0-6.969-.011-10.454.012-.532,0-.709-.118-.7-.68.02-1.676-.006-1.677,1.638-1.677,6.631,0,13.262.007,19.893-.013.587,0,.8.113.782.753-.045,1.6-.01,1.6-1.64,1.6H67.259" transform="translate(-44.392 -172.87)" fill="#030302"/>
    <path id="Trazado_166363" data-name="Trazado 166363" d="M203.057,24.875c-1.3-.013-1.129.135-1.132-1.267,0-1.259-.129-1.068,1.321-1.074,1.2,0,1.009-.1,1.016,1.3.006,1.2.082,1.024-1.206,1.038" transform="translate(-159.769 -17.825)" fill="#fefefe"/>
    <path id="Trazado_166364" data-name="Trazado 166364" d="M225.567,22.546c1.307.013,1.133-.137,1.136,1.263,0,1.262.129,1.072-1.318,1.078-1.2,0-1.009.1-1.021-1.3-.008-1.042,0-1.042,1.2-1.042" transform="translate(-177.526 -17.84)" fill="#fefefe"/>
    <path id="Trazado_166365" data-name="Trazado 166365" d="M185.365,81.476a14.052,14.052,0,1,1,13.987,14.091,14.048,14.048,0,0,1-13.987-14.091m10.8-11.17a2.046,2.046,0,0,0-.3.05,11.61,11.61,0,0,0-7.927,13.393,11.214,11.214,0,0,0,8.226,8.963,5.7,5.7,0,0,0,.592.19A11.711,11.711,0,0,0,210.13,76.858c-2.291-5.461-8.7-8.411-13.964-6.552" transform="translate(-146.671 -53.371)" fill="#030302"/>
    <path id="Trazado_166366" data-name="Trazado 166366" d="M60.767,63.711a5.757,5.757,0,0,1-4.621-5.573c-.046-1.262-.006-1.288,1.18-.772a5.9,5.9,0,0,1,3.441,6.345" transform="translate(-44.418 -45.142)" fill="#009e83"/>
    <path id="Trazado_166367" data-name="Trazado 166367" d="M94.46,73.663c.277,3.157-1.264,5.662-3.954,6.544-.511.168-.668.135-.673-.46a5.884,5.884,0,0,1,4.627-6.084" transform="translate(-71.081 -58.286)" fill="#009e83"/>
    <path id="Trazado_166368" data-name="Trazado 166368" d="M60.777,124.249a2.805,2.805,0,0,0,0,.389c.087.614-.178.605-.661.445A6.042,6.042,0,0,1,56.1,118.9c.044-.555.315-.319.555-.252a5.815,5.815,0,0,1,4.119,5.6" transform="translate(-44.377 -93.796)" fill="#009e83"/>
    <path id="Trazado_166369" data-name="Trazado 166369" d="M213.957,79.018c5.266-1.859,11.673,1.09,13.964,6.552a11.711,11.711,0,0,1-13.372,16.044,5.675,5.675,0,0,1-.592-.19c0-.333-.3-.388-.5-.543a19.142,19.142,0,0,1-1.57-1.264,12.626,12.626,0,0,1-3.869-11.443,12.414,12.414,0,0,1,4.512-7.908c.48-.4,1.165-.591,1.424-1.248m8.3,15.017h-.007c0-.52.013-1.041,0-1.561a9.063,9.063,0,0,0-9.705-8.648c-.342.029-.447.135-.44.463.025,1.326-.056,2.661.06,3.979a9.042,9.042,0,0,0,9.6,8.351c.437-.021.515-.178.5-.555-.022-.676-.006-1.353-.006-2.029" transform="translate(-164.463 -62.083)" fill="#b4e4f8"/>
    <path id="Trazado_166370" data-name="Trazado 166370" d="M205.009,81.13c-.258.657-.943.847-1.424,1.248a12.414,12.414,0,0,0-4.512,7.908,12.626,12.626,0,0,0,3.869,11.443,19.184,19.184,0,0,0,1.57,1.264c.194.155.5.21.5.543a11.214,11.214,0,0,1-8.227-8.963A11.61,11.61,0,0,1,204.71,81.18a2.047,2.047,0,0,1,.3-.05" transform="translate(-155.515 -64.195)" fill="#acc1db"/>
    <path id="Trazado_166371" data-name="Trazado 166371" d="M238.354,114.253c0,.677-.016,1.353.006,2.029.012.377-.067.534-.5.555a9.042,9.042,0,0,1-9.6-8.351c-.116-1.318-.035-2.652-.06-3.979-.006-.328.1-.434.44-.463a9.063,9.063,0,0,1,9.706,8.648c.015.52,0,1.041,0,1.561h.007m-2.36-1.12c0-.208.01-.417,0-.624a6.632,6.632,0,0,0-4.924-5.881c-.238-.056-.5-.236-.528.243a6.822,6.822,0,0,0,4.222,7.136c1.263.519,1.268.508,1.232-.874" transform="translate(-180.56 -82.301)" fill="#030302"/>
    <path id="Trazado_166372" data-name="Trazado 166372" d="M244.814,122.741c.036,1.381.032,1.393-1.232.874a6.822,6.822,0,0,1-4.222-7.136c.03-.479.29-.3.528-.243a6.632,6.632,0,0,1,4.924,5.881c.011.207,0,.416,0,.624" transform="translate(-189.381 -91.909)" fill="#009e83"/>
  </g>
</svg>
