<svg xmlns="http://www.w3.org/2000/svg" xmlns:xlink="http://www.w3.org/1999/xlink" width="101" height="101" viewBox="0 0 101 101">
  <defs>
    <clipPath id="clip-path">
      <rect id="Rectángulo_37663" data-name="Rectángulo 37663" width="63.466" height="63.402" fill="none"/>
    </clipPath>
  </defs>
  <g id="Grupo_114862" data-name="Grupo 114862" transform="translate(-750 -3078)">
    <g id="Elipse_4069" data-name="Elipse 4069" transform="translate(750 3078)" fill="#fff" stroke="#009e83" stroke-width="2">
      <circle cx="50.5" cy="50.5" r="50.5" stroke="none"/>
      <circle cx="50.5" cy="50.5" r="49.5" fill="none"/>
    </g>
    <g id="Grupo_114861" data-name="Grupo 114861" transform="translate(766.768 3093.113)">
      <g id="Grupo_114860" data-name="Grupo 114860" clip-path="url(#clip-path)">
        <path id="Trazado_165680" data-name="Trazado 165680" d="M30.218,0h2.848c.019.1.092.112.178.123a9.6,9.6,0,0,1,8.62,9.046.947.947,0,0,0,.35.677,10.558,10.558,0,0,1,2.722,11.548.64.64,0,0,0,.126.763,10.132,10.132,0,0,1,2.146,4.261c.075.3.026.654.246.924A2.747,2.747,0,0,1,50.126,27c.39.162.554.081.773-.254A23.369,23.369,0,0,1,55.65,21.4c.259-.213.4-.228.654,0,.816.729,1.631,1.458,2.376,2.26a17.549,17.549,0,0,1,4.427,7.6,7.431,7.431,0,0,1-5.8,9.493c-.346.05-.412.231-.408.547.016,1.259.007,2.517.007,3.776,0,1.446,0,1.432-1.424,1.4-.363-.008-.448-.127-.444-.466.016-1.4-.031-2.808.023-4.209.027-.7-.117-1.021-.894-1.162a7.025,7.025,0,0,1-3.84-2.261,1.35,1.35,0,0,0-.051.225c0,4.086,0,8.171-.012,12.257,0,.323.142.412.39.508a3.778,3.778,0,0,1,2.231,2.334c.14.371-.076.923.327,1.1.349.15.814.009,1.224.046.46.042.665-.073.621-.589-.051-.594-.016-1.2-.009-1.794,0-.15-.072-.391.16-.4a12.39,12.39,0,0,1,1.544,0c.225.015.149.261.151.411.008.619.026,1.239,0,1.857-.019.392.079.529.5.521,1.424-.028,2.848-.023,4.272-.005.569.007,1.373-.26,1.644.112.284.39.068,1.145.07,1.74L0,56.7V54.847c2,0,4-.014,6,0,.4,0,.516-.094.514-.506q-.024-6.488,0-12.976c0-.41-.123-.547-.525-.638A7.283,7.283,0,0,1,.231,35.265c-.057-.2-.011-.455-.231-.6V32.314A19.72,19.72,0,0,0,.629,30.1a21.168,21.168,0,0,1,6.593-8.8c.248-.214.353-.044.506.086a28.623,28.623,0,0,1,2.425,2.3,16.74,16.74,0,0,1,4.519,8.15,7.389,7.389,0,0,1-5.865,8.91c-.412.086-.451.292-.451.638.009,3.98,0,7.96.009,11.94,0,.489-.212,1.129.088,1.428s.944.041,1.431.1.566-.086.477-.564a2.779,2.779,0,0,1,2.42-3.16c1.047-.094,1.244-.3,1.244-1.342,0-2.578-.01-5.155,0-7.733a6.45,6.45,0,0,1,3.035-5.679c.441-.289.934-.5,1.429-.757a10.265,10.265,0,0,1-2.519-6.744c-.013-.988-.006-.988.979-1.01.873.188.855.189.889,1.133a8.061,8.061,0,0,0,2.717,6.018,1.166,1.166,0,0,0,.831.324q4.427-.018,8.854,0c.4,0,.535-.1.528-.515q-.032-2.011.009-4.023a1.217,1.217,0,0,0-.416-.969c-1.543-1.521-3.063-3.065-4.608-4.584-.268-.263-.324-.442,0-.676a2.808,2.808,0,0,0,.308-.3c.677-.677.679-.679,1.364.01,1.069,1.076,2.135,2.155,3.226,3.257a1.123,1.123,0,0,0,.115-.734q.007-7.149,0-14.3c0-1.338,0-1.319,1.324-1.328.438,0,.558.131.553.56-.021,1.9-.012,3.8-.005,5.694a1.027,1.027,0,0,0,.136.739c.972-.985,1.918-1.949,2.871-2.907,1.006-1.013,1-1,1.99,0,.286.286.238.422-.021.676-1.529,1.505-3.032,3.037-4.565,4.54A1.3,1.3,0,0,0,32.63,21.5c.014,3.879.008,7.758.009,11.636,0,.6.016,1.2,0,1.795,0,.28.075.408.382.405,1.3-.012,2.6-.007,3.9,0,.223,0,.345-.062.338-.315a13.214,13.214,0,0,1,.16-2.154c.124-.895-.915-1.054-1.2-1.711a.294.294,0,0,0-.038-.049,2.677,2.677,0,0,1,1.783-4.254,2.857,2.857,0,0,1,2.756,1.177.738.738,0,0,0,.955.229,5.876,5.876,0,0,1,3.411-.211c.485.114.525-.042.462-.432a8.339,8.339,0,0,0-2.665-5.033c-.334-.3-.385-.486-.152-.891a8.635,8.635,0,0,0-1.785-10.446A2.39,2.39,0,0,1,40,9.413,7.6,7.6,0,0,0,35.21,2.549a8.412,8.412,0,0,0-8.819,1.085,7.946,7.946,0,0,0-3.022,6.372.872.872,0,0,1-.342.79,8.585,8.585,0,0,0-2.286,10.976c.2.345.168.508-.123.752a7.469,7.469,0,0,0-2.147,2.906c-.346.837-.347.836-1.213.647a.986.986,0,0,0-.227-.085c-.574-.067-.676-.316-.455-.859a9.269,9.269,0,0,1,1.669-2.859.882.882,0,0,0,.177-1.08,10.559,10.559,0,0,1,2.8-11.349.922.922,0,0,0,.337-.673A9.449,9.449,0,0,1,28.064.621C28.763.363,29.5.2,30.218,0M59.081,38.034a.227.227,0,0,0,.22-.14,5.6,5.6,0,0,0,2.052-6.035c-.8-3.268-2.834-5.747-5.142-8.054-.212-.212-.325-.132-.5.035A21.714,21.714,0,0,0,51.989,28.5c-.091.158-.228.3-.175.508a2.7,2.7,0,0,1-.424,2.055c-.629.77-1.446,1.266-1.169,2.652a6.127,6.127,0,0,0,3.826,4.972c.994.4,1.007.376,1-.653,0-.246-.023-.491-.035-.737.01-1.5.024-3,.03-4.5,0-1.192,0-1.162,1.191-1.2.54-.018.7.123.688.675-.024,1.909.012,3.819.025,5.728-.015.121-.026.243-.046.363-.094.559.162.626.618.457a4.281,4.281,0,0,0,1.575-.8ZM46.6,46.471l.189-.168a5.58,5.58,0,0,0,1.391-2.44,10.929,10.929,0,0,0,.234-3.255c0-.4.181-1.055-.084-1.151-.415-.149-.94.156-1.4.327a2.146,2.146,0,0,0-.355.246,4.778,4.778,0,0,1-5.207.226,9.758,9.758,0,0,0-2.327-.937c-.458-.121-.907-.279-1.368-.379-.327-.071-.407-.231-.41-.551-.012-1.189-.026-1.15-1.2-1.2-.583-.025-.675.184-.659.7.036,1.174.011,2.351.011,3.527,0,1.365,0,1.349-1.346,1.351-.4,0-.532-.095-.523-.51.027-1.237.01-2.475.01-3.713,0-1.373,0-1.352-1.357-1.347-.435,0-.5.167-.5.542.018,1.237.007,2.475.007,3.713,0,1.344,0,1.33-1.379,1.315-.373,0-.5-.1-.489-.484.024-1.237.009-2.475.009-3.713,0-1.4,0-1.388-1.388-1.372-.379,0-.492.109-.485.489.023,1.237.008,2.475.008,3.713,0,1.4,0,1.38-1.393,1.368-.393,0-.48-.128-.474-.5.021-1.278.008-2.557.008-3.836,0-1.379,0-1.364-1.34-.963a.621.621,0,0,0-.538.725c.033,1.34-.006,2.681.022,4.022.009.441-.132.58-.559.545s-.866-.015-1.3-.02V38.9a4.892,4.892,0,0,0-1.7,3.038,29.951,29.951,0,0,1-1.023,6.252.97.97,0,0,0,.028.487c.477,1.918.973,3.832,1.437,5.753.08.333.217.43.542.423.866-.019,1.734,0,2.6-.012.277,0,.681.152.805-.094.175-.347-.092-.709-.3-1.015a1.785,1.785,0,0,0-.77-.6A1.9,1.9,0,0,0,23,52.99c-.5.065-.67-.136-.6-.61a.966.966,0,0,0-.024-.245c.007-.968.016-1.937.02-2.905,0-.878,0-.878.869-.9a3.607,3.607,0,0,0,3.685-3.005c.084-.588.288-.679.8-.666,1.152.03,1.152.009,1.069,1.127a7,7,0,0,1-1.262,2.542h5.247c1.754,0,1.754,0,1.625-1.78.01-.509.022-1.017.028-1.526,0-.214,0-.43.3-.413a5.954,5.954,0,0,1,1.572.077c0,3.229,0,6.458-.023,9.686,0,.4.14.479.5.473,1.111-.02,2.222,0,3.333-.014.274,0,.666.159.8-.1a1.092,1.092,0,0,0-.211-1.045,1.375,1.375,0,0,0-1.223-.7c-.432,0-.864-.005-1.3-.008q1.263-3.534,2.527-7.067c.481-1.343.482-1.32,1.912-1.312.478,0,.435.173.31.5-.182.478-.334.967-.5,1.451-.189.474-.374.948-.567,1.42-.137.334.047.4.319.391a5.977,5.977,0,0,0,4.389-1.892ZM16.025,53.75A4.148,4.148,0,0,0,17.49,51.7a7.978,7.978,0,0,0,.206-3.034l.113-.753a18.9,18.9,0,0,0,.9-4.711,7.526,7.526,0,0,1,2.258-5.516c.119-.125.309-.2.335-.474a4.821,4.821,0,0,0-3.332.821,3.978,3.978,0,0,0-1.981,3.112c-.228,2.915-.1,5.841-.065,8.763a3.2,3.2,0,0,1-1.582,2.844,4.345,4.345,0,0,1-1.189.293c-.588.043-.916.382-.89.882a.863.863,0,0,0,.947.848,3.969,3.969,0,0,0,2.819-1.021M46.6,52.991c-.007.453.012.909-.029,1.359-.04.433.149.509.532.5,1.073-.022,2.146,0,3.219-.014.273,0,.664.159.8-.1.167-.324-.075-.68-.276-.965a1.764,1.764,0,0,0-1.409-.779c-.329-.016-.66,0-.99,0v-5.65a10.8,10.8,0,0,1-1.687,1.474.433.433,0,0,0-.181.423c.011,1.253.016,2.505.023,3.758M3.213,28.973l0-.008a8.6,8.6,0,0,0-1.177,2.942,5.664,5.664,0,0,0,3.835,6.915c.441.132.711.151.636-.44-.046-.363-.032-.734-.045-1.1.011-1.482.025-2.964.031-4.445.005-1.226,0-1.2,1.232-1.234.527-.015.649.155.645.658C8.359,34.172,8.39,36.086,8.4,38c-.016.119-.027.24-.047.358-.09.525.135.639.6.472a4.51,4.51,0,0,0,1.616-.813.062.062,0,0,0,.073-.039l.108-.083a5.589,5.589,0,0,0,2.067-5.989c-.8-3.3-2.851-5.8-5.179-8.124-.193-.193-.3-.112-.451.036a20.16,20.16,0,0,0-3.84,4.889.262.262,0,0,0-.135.264m43.748,8.8a8.143,8.143,0,0,1,.9-.209c.466-.057.589-.295.57-.745-.038-.9.024-1.812-.028-2.715a4.16,4.16,0,0,0-2.424-3.863,4.6,4.6,0,0,0-4.745.312,4.167,4.167,0,0,0-1.948,2.673,19.045,19.045,0,0,0-.152,3.946c-.012.294.227.29.42.353a9.012,9.012,0,0,1,2.566,1.006,2.807,2.807,0,0,0,3.314,0,6.357,6.357,0,0,1,1.532-.756M31.224,50.2c-.887,0-1.775-.015-2.662.01-.215.006-.6-.209-.613.258-.007.35-.152.721.4.931a3.508,3.508,0,0,1,2.359,3.054c.039.333.156.4.454.4.949-.014,1.9-.019,2.847,0,.336.007.463-.071.456-.436q-.034-1.887,0-3.775c.006-.359-.112-.456-.459-.448-.928.021-1.857.007-2.786.007m13.493,2.174c0-.72,0-1.44,0-2.159,0-.173.055-.41-.264-.315a11.841,11.841,0,0,1-3.057.307c-.56.018-.4.58-.581.881-.2.334.136.35.306.452a3.562,3.562,0,0,1,1.646,2.211c.1.363-.127.88.235,1.057a2.9,2.9,0,0,0,1.157.036,1.276,1.276,0,0,1,.185,0c.3.045.389-.077.381-.374-.02-.7-.006-1.4-.006-2.1M26.073,49.537a10.673,10.673,0,0,1-1.449.506c-.181.031-.391.07-.36.328.036.294-.175.715.114.86a6.326,6.326,0,0,1,1.695,1.087ZM26.6,53.03a5.86,5.86,0,0,0,.265.68c.193.353-.074.928.347,1.092a4.6,4.6,0,0,0,1.286.047c.376.025.4-.16.342-.45A1.938,1.938,0,0,0,26.6,53.03m-8.912,1.812c.527,0,.966-.005,1.405,0,.2,0,.25-.078.2-.257-.123-.448-.244-.9-.392-1.442a9.737,9.737,0,0,1-1.214,1.7" fill="#040302"/>
        <path id="Trazado_165681" data-name="Trazado 165681" d="M63.389,342.572c.007,2.083.007,4.167.028,6.25,0,.357-.113.492-.458.443a1.365,1.365,0,0,0-.186,0H0v-6.686l63.389,0m-55.834,2.85c0-.944,0-.95-.762-.943-1.263.012-1.084-.144-1.094.794-.012,1.1,0,1.1.852,1.1,1,0,1,0,1-.95m-3.715.026c-.018-1.087.151-.968-.8-.967-1.22,0-1.047-.135-1.057.766-.012,1.125,0,1.125.825,1.125,1.029,0,1.029,0,1.029-.924" transform="translate(0 -285.872)" fill="#04d9b5"/>
        <path id="Trazado_165682" data-name="Trazado 165682" d="M102.425,36.82a7.9,7.9,0,0,1,.3-1.783c.866.189.868.19,1.214-.647a7.47,7.47,0,0,1,2.147-2.906c.292-.244.321-.408.123-.752A8.585,8.585,0,0,1,108.5,19.756a.873.873,0,0,0,.342-.79,7.946,7.946,0,0,1,3.022-6.372,8.412,8.412,0,0,1,8.819-1.085,7.6,7.6,0,0,1,4.795,6.864,2.39,2.39,0,0,0,.949,1.826,8.635,8.635,0,0,1,1.785,10.446c-.233.4-.182.59.152.891a8.339,8.339,0,0,1,2.665,5.033c.063.39.023.547-.462.432a5.876,5.876,0,0,0-3.411.211.738.738,0,0,1-.955-.23,2.857,2.857,0,0,0-2.756-1.177,2.677,2.677,0,0,0-1.783,4.254.287.287,0,0,1,.038.049c.283.657,1.322.816,1.2,1.711a13.214,13.214,0,0,0-.16,2.154c.007.253-.115.316-.338.315-1.3,0-2.6-.009-3.9,0-.307,0-.387-.125-.382-.405.011-.6,0-1.2,0-1.795,0-3.879.005-7.758-.009-11.636a1.3,1.3,0,0,1,.423-1.026c1.533-1.5,3.036-3.034,4.565-4.54.258-.254.307-.391.021-.676-.994-.992-.983-1.008-1.99,0-.952.958-1.9,1.922-2.871,2.907a1.028,1.028,0,0,1-.136-.739c-.007-1.9-.016-3.8.005-5.694,0-.429-.115-.563-.553-.56-1.323.009-1.324-.01-1.324,1.328q0,7.149,0,14.3a1.123,1.123,0,0,1-.115.734c-1.091-1.1-2.157-2.181-3.226-3.257-.685-.69-.687-.688-1.364-.01a2.823,2.823,0,0,1-.308.3c-.321.234-.265.412,0,.675,1.545,1.519,3.065,3.063,4.608,4.584a1.217,1.217,0,0,1,.416.969q-.042,2.011-.009,4.023c.006.413-.132.517-.528.515q-4.427-.021-8.854,0a1.165,1.165,0,0,1-.831-.324,8.062,8.062,0,0,1-2.717-6.018c-.034-.944-.016-.945-.889-1.133m11.06-23.112c-1.1.014-.991-.131-.986.775.006,1.243-.164,1.117.765,1.116,1.233,0,1.119.172,1.118-.832,0-1.2.145-1.042-.9-1.058m-5.61,10.238c.015,1.034-.14.941.765.939,1.243,0,1.083.145,1.091-.8.01-1.1,0-1.1-.855-1.1-1,0-1,0-1,.953" transform="translate(-85.472 -8.96)" fill="#009e83"/>
        <path id="Trazado_165683" data-name="Trazado 165683" d="M130.877,230.23c.433,0,.868-.016,1.3.02s.568-.1.559-.546c-.028-1.34.011-2.682-.022-4.022a.622.622,0,0,1,.538-.725c1.345-.4,1.34-.416,1.34.964,0,1.279.013,2.558-.008,3.836-.006.368.081.493.475.5,1.393.012,1.392.029,1.392-1.368,0-1.238.014-2.475-.008-3.713-.007-.38.106-.485.485-.489,1.389-.017,1.388-.031,1.389,1.372,0,1.238.015,2.476-.009,3.713-.008.388.116.48.489.484,1.379.015,1.379.029,1.379-1.315,0-1.238.011-2.475-.007-3.713-.006-.375.063-.541.5-.542,1.357,0,1.357-.025,1.357,1.347,0,1.238.018,2.476-.01,3.713-.009.416.127.511.523.51,1.346,0,1.346.014,1.346-1.351,0-1.176.024-2.352-.011-3.527-.016-.513.076-.722.659-.7,1.169.05,1.184.011,1.2,1.2,0,.32.083.481.41.551.462.1.911.258,1.368.379a9.753,9.753,0,0,1,2.327.938,4.778,4.778,0,0,0,5.207-.226,2.144,2.144,0,0,1,.355-.246c.461-.171.985-.477,1.4-.327.266.1.083.749.085,1.151a10.94,10.94,0,0,1-.234,3.255,5.58,5.58,0,0,1-1.391,2.44c-.106.008-.188.043-.189.168l.008,0c-1.378.105-2.759.1-4.14.081.165-.484.317-.973.5-1.451.124-.327.168-.5-.31-.5-1.43-.008-1.432-.03-1.913,1.312q-1.265,3.533-2.527,7.067c-.318-.142-.185-.429-.186-.651-.011-1.976.005-3.952-.014-5.928-.005-.545.253-1.241-.129-1.6-.346-.324-1.025-.067-1.554-.108a5.961,5.961,0,0,0-1.572-.077c-.3-.018-.3.2-.3.413-.005.509-.018,1.017-.028,1.526-1.063,0-2.127-.029-3.189.01a2.61,2.61,0,0,1-2.422-.772c.083-1.119.083-1.1-1.069-1.127-.508-.013-.712.078-.8.666a3.607,3.607,0,0,1-3.685,3.005c-.868.019-.866.019-.869.9,0,.968-.013,1.937-.02,2.905-.17.068-.191-.017-.218-.168-.163-.907-.3-1.822-.53-2.712a4.179,4.179,0,0,1,.016-2.046,14.126,14.126,0,0,0,.764-4.468" transform="translate(-108.464 -187.49)" fill="#ff8628"/>
        <path id="Trazado_165684" data-name="Trazado 165684" d="M310.482,150.437a2.7,2.7,0,0,0,.424-2.055c-.053-.2.084-.35.175-.508a21.725,21.725,0,0,1,3.726-4.662c.171-.167.284-.247.5-.035,2.307,2.308,4.344,4.787,5.142,8.054a5.6,5.6,0,0,1-2.052,6.035.2.2,0,0,0-.22.141l.015-.009-2.146-.022c-.013-1.909-.049-3.819-.025-5.728.007-.552-.149-.693-.688-.675-1.189.04-1.186.01-1.191,1.2-.006,1.5-.02,3-.03,4.5a3.532,3.532,0,0,1-1.489-.943,6.651,6.651,0,0,1-2.136-5.291m4.621-1.226c1.016-.013.939.137.935-.838,0-1.117.139-1.022-.816-1.017-1.259.007-1.118-.172-1.119.9,0,1.115-.133.94,1,.957" transform="translate(-259.091 -119.373)" fill="#007a64"/>
        <path id="Trazado_165685" data-name="Trazado 165685" d="M18.226,148.047a20.16,20.16,0,0,1,3.84-4.889c.149-.149.258-.23.451-.037,2.329,2.325,4.384,4.826,5.179,8.124a5.59,5.59,0,0,1-2.066,5.988l-.108.083a.062.062,0,0,1-.073.039l-2.167-.018c-.014-1.914-.045-3.827-.029-5.741,0-.5-.118-.673-.645-.658-1.23.035-1.227.007-1.232,1.234-.006,1.482-.021,2.964-.031,4.445-1.685-.568-3.413-3.079-3.506-5.01a19.68,19.68,0,0,1,.257-3.3l0,.008c.125-.047.14-.151.135-.264m4.062,1.129c1.056-.015.993.148.989-.785-.006-1.188.145-1.074-.824-1.07-1.233,0-1.112-.165-1.111.844,0,1.162-.14.994.946,1.011" transform="translate(-14.878 -119.338)" fill="#007a64"/>
        <path id="Trazado_165686" data-name="Trazado 165686" d="M247.862,180.471a4.6,4.6,0,0,1,4.745-.312,4.161,4.161,0,0,1,2.424,3.863c.052.9-.01,1.811.028,2.715.019.45-.1.688-.57.745a8.109,8.109,0,0,0-.9.209c-.244,0-.489.009-.731-.017a2.806,2.806,0,0,1-1.914-.772,7.031,7.031,0,0,1,1.164-.548c.908-.245,1.169-.783,1.1-1.7-.089-1.28-.023-1.262-1.312-1.284-.465-.008-.618.117-.583.584.021.289.155.632-.273.845-.938.466-1.559.124-1.56-.939,0-.38-.109-.51-.489-.485-.451.031-.906.011-1.359.013a8.472,8.472,0,0,1,.221-2.915" transform="translate(-206.632 -149.914)" fill="#ff8628"/>
        <path id="Trazado_165687" data-name="Trazado 165687" d="M121.589,238.853a14.126,14.126,0,0,1-.764,4.468,4.18,4.18,0,0,0-.016,2.046c.231.89.366,1.806.53,2.712.027.151.048.236.218.168a.975.975,0,0,1,.024.245c-.075.475.1.676.6.61a1.9,1.9,0,0,1,1.031.134,1.787,1.787,0,0,1,.769.6c.212.307.479.668.3,1.015-.124.245-.529.089-.805.094-.866.016-1.734-.006-2.6.012-.324.007-.462-.09-.542-.423-.464-1.921-.959-3.835-1.437-5.753a.971.971,0,0,1-.028-.487,29.943,29.943,0,0,0,1.023-6.252,4.893,4.893,0,0,1,1.7-3.038Z" transform="translate(-99.176 -196.112)" fill="#ff8628"/>
        <path id="Trazado_165688" data-name="Trazado 165688" d="M219.391,269.72c.53.041,1.208-.216,1.555.108.382.357.124,1.053.129,1.6.019,1.976,0,3.952.014,5.928,0,.222-.132.509.186.651.432,0,.864.008,1.3.008a1.375,1.375,0,0,1,1.223.7,1.092,1.092,0,0,1,.211,1.045c-.137.263-.528.1-.8.1-1.111.016-2.222-.006-3.333.014-.361.006-.5-.078-.5-.473.019-3.229.018-6.458.023-9.686" transform="translate(-183.061 -225.029)" fill="#ff8628"/>
        <path id="Trazado_165689" data-name="Trazado 165689" d="M238.375,184.622a8.471,8.471,0,0,0-.221,2.915,5.88,5.88,0,0,0,.077,2.367c.294.6,1.294.681,1.963,1.032a1.216,1.216,0,0,1,.114.047,1.047,1.047,0,0,0,1.153.07,2.806,2.806,0,0,0,1.914.772c.241.026.487.012.731.017a6.351,6.351,0,0,0-1.532.756,2.807,2.807,0,0,1-3.314,0,9.022,9.022,0,0,0-2.566-1.006c-.193-.062-.431-.058-.42-.353a19.055,19.055,0,0,1,.152-3.945,4.168,4.168,0,0,1,1.948-2.673" transform="translate(-197.145 -154.065)" fill="#ff8628"/>
        <path id="Trazado_165690" data-name="Trazado 165690" d="M95.84,241.64c-.038-2.922-.164-5.847.065-8.763a3.978,3.978,0,0,1,1.981-3.112c-.048.653-.26,1.281-.257,1.943.011,2.428,0,4.855.007,7.283,0,.219-.071.455.094.654l-.113.753a1.983,1.983,0,0,1-1.777,1.241" transform="translate(-79.92 -191.737)" fill="#ff8628"/>
        <path id="Trazado_165691" data-name="Trazado 165691" d="M12.625,175a19.68,19.68,0,0,0-.257,3.3c.093,1.93,1.82,4.442,3.506,5.01.013.368,0,.739.045,1.1.075.592-.194.572-.636.44a5.664,5.664,0,0,1-3.835-6.915A8.606,8.606,0,0,1,12.625,175" transform="translate(-9.407 -146.036)" fill="#007a64"/>
        <path id="Trazado_165692" data-name="Trazado 165692" d="M304.32,187.685a6.651,6.651,0,0,0,2.136,5.291,3.534,3.534,0,0,0,1.489.943c.012.246.034.491.035.737,0,1.03-.008,1.055-1,.653a6.126,6.126,0,0,1-3.826-4.972c-.277-1.386.539-1.882,1.169-2.652" transform="translate(-252.93 -156.621)" fill="#007a64"/>
        <path id="Trazado_165693" data-name="Trazado 165693" d="M107.054,235.452c-.165-.2-.094-.435-.094-.654-.005-2.428,0-4.855-.007-7.283,0-.663.209-1.291.257-1.943a4.821,4.821,0,0,1,3.332-.821c-.026.27-.215.349-.335.474a7.526,7.526,0,0,0-2.258,5.516,18.9,18.9,0,0,1-.9,4.711" transform="translate(-89.244 -187.543)" fill="#ff8628"/>
        <path id="Trazado_165694" data-name="Trazado 165694" d="M167.763,276.657a2.61,2.61,0,0,0,2.422.772c1.061-.04,2.126-.01,3.189-.01.129,1.781.129,1.781-1.625,1.781H166.5a7,7,0,0,0,1.262-2.542" transform="translate(-138.943 -230.867)" fill="#ff8628"/>
        <path id="Trazado_165695" data-name="Trazado 165695" d="M281.418,291.65c-.007-1.253-.012-2.505-.023-3.758a.432.432,0,0,1,.181-.423,10.808,10.808,0,0,0,1.687-1.474v5.65l-1.845,0" transform="translate(-234.821 -238.659)" fill="#ff8628"/>
        <path id="Trazado_165696" data-name="Trazado 165696" d="M88.211,295.252a1.983,1.983,0,0,0,1.777-1.241,7.984,7.984,0,0,1-.206,3.034,4.148,4.148,0,0,1-1.465,2.053c-.679-.138-1.366-.263-1.687-1a3.2,3.2,0,0,0,1.582-2.844" transform="translate(-72.291 -245.349)" fill="#ff8628"/>
        <path id="Trazado_165697" data-name="Trazado 165697" d="M281.361,320.11l1.845,0c.33,0,.661-.014.99,0a1.764,1.764,0,0,1,1.409.779c.2.285.443.641.276.965-.135.263-.526.1-.8.1-1.073.016-2.146-.008-3.219.014-.383.008-.572-.068-.532-.5.041-.45.022-.906.029-1.359" transform="translate(-234.764 -267.12)" fill="#ff8628"/>
        <path id="Trazado_165698" data-name="Trazado 165698" d="M253.475,280.828c1.381.016,2.761.024,4.14-.081a5.976,5.976,0,0,1-4.389,1.892c-.272.012-.455-.057-.318-.391.193-.472.379-.946.567-1.42" transform="translate(-211.01 -234.28)" fill="#ff8628"/>
        <path id="Trazado_165699" data-name="Trazado 165699" d="M76.139,318.691c.321.74,1.008.865,1.687,1a3.97,3.97,0,0,1-2.819,1.021.863.863,0,0,1-.947-.848c-.026-.5.3-.839.89-.882a4.352,4.352,0,0,0,1.189-.294" transform="translate(-61.801 -265.944)" fill="#ff8628"/>
        <path id="Trazado_165700" data-name="Trazado 165700" d="M148.206,299.3v2.782a6.326,6.326,0,0,0-1.695-1.087c-.289-.145-.078-.567-.114-.861-.031-.258.179-.3.36-.328a10.679,10.679,0,0,0,1.449-.506" transform="translate(-122.133 -249.76)" fill="#ff8628"/>
        <path id="Trazado_165701" data-name="Trazado 165701" d="M160.712,320.322a1.938,1.938,0,0,1,2.241,1.369c.061.29.034.475-.342.45a4.61,4.61,0,0,1-1.286-.047c-.422-.164-.155-.739-.347-1.093a5.829,5.829,0,0,1-.265-.68" transform="translate(-134.112 -267.292)" fill="#ff8628"/>
        <path id="Trazado_165702" data-name="Trazado 165702" d="M343.753,229.606l2.146.022a4.274,4.274,0,0,1-1.575.8c-.456.169-.712.1-.618-.457.02-.12.031-.242.046-.363" transform="translate(-286.803 -191.604)" fill="#007a64"/>
        <path id="Trazado_165703" data-name="Trazado 165703" d="M50.435,229.588l2.167.018a4.513,4.513,0,0,1-1.616.813c-.463.167-.688.053-.6-.472.02-.119.032-.239.047-.358" transform="translate(-42.032 -191.589)" fill="#007a64"/>
        <path id="Trazado_165704" data-name="Trazado 165704" d="M281.533,279.928c0-.125.083-.16.189-.168l-.189.168" transform="translate(-234.936 -233.456)" fill="#da911f"/>
        <path id="Trazado_165705" data-name="Trazado 165705" d="M356.96,229.084a.2.2,0,0,1,.22-.141.228.228,0,0,1-.22.141" transform="translate(-297.879 -191.05)" fill="#c8f32e"/>
        <path id="Trazado_165706" data-name="Trazado 165706" d="M19.545,173.454c0,.114-.01.217-.135.264a.262.262,0,0,1,.135-.264" transform="translate(-16.197 -144.745)" fill="#c8f32e"/>
        <path id="Trazado_165707" data-name="Trazado 165707" d="M64.3,229.041l.108-.083-.108.083" transform="translate(-53.661 -191.063)" fill="#c8f32e"/>
        <path id="Trazado_165708" data-name="Trazado 165708" d="M298.215,22.749a5.567,5.567,0,1,1,5.588,5.57,5.565,5.565,0,0,1-5.588-5.57m5.564-3.716a3.712,3.712,0,1,0,3.718,3.73,3.692,3.692,0,0,0-3.718-3.73" transform="translate(-248.857 -14.336)" fill="#040302"/>
        <path id="Trazado_165709" data-name="Trazado 165709" d="M333.539,291.982c.912,0,.912,0,.912,1.092,0,.769,0,.769-1.166.768-.7,0-.7,0-.7-1.114,0-.746,0-.746.95-.746" transform="translate(-277.542 -243.656)" fill="#040302"/>
        <path id="Trazado_165710" data-name="Trazado 165710" d="M36.271,355.019c0,.95,0,.95-1,.95-.855,0-.864,0-.852-1.1.01-.938-.169-.782,1.094-.794.762-.007.762,0,.762.943" transform="translate(-28.716 -295.47)" fill="#fdfdfd"/>
        <path id="Trazado_165711" data-name="Trazado 165711" d="M13.832,355.037c0,.925,0,.925-1.029.924-.828,0-.837,0-.825-1.125.009-.9-.164-.765,1.057-.766.949,0,.779-.12.8.967" transform="translate(-9.992 -295.462)" fill="#fdfdfd"/>
        <path id="Trazado_165712" data-name="Trazado 165712" d="M164.233,28.682c1.04.016.895-.144.9,1.058,0,1,.116.83-1.118.832-.929,0-.759.127-.765-1.115,0-.906-.114-.761.987-.775" transform="translate(-136.22 -23.934)" fill="#fdfdfd"/>
        <path id="Trazado_165713" data-name="Trazado 165713" d="M135.347,85.742c0-.953,0-.953,1-.953.858,0,.865,0,.855,1.1-.009.941.151.792-1.091.8-.9,0-.75.1-.765-.939" transform="translate(-112.944 -70.755)" fill="#fdfdfd"/>
        <path id="Trazado_165714" data-name="Trazado 165714" d="M333.346,170.886c-1.133-.017-1,.157-1-.957,0-1.069-.141-.89,1.118-.9.955-.005.812-.1.816,1.017,0,.975.081.825-.935.838" transform="translate(-277.335 -141.048)" fill="#fdfdfd"/>
        <path id="Trazado_165715" data-name="Trazado 165715" d="M39.972,170.883c-1.086-.017-.945.151-.946-1.011,0-1.009-.122-.839,1.111-.844.969,0,.818-.118.824,1.07,0,.933.067.769-.989.785" transform="translate(-32.562 -141.045)" fill="#fdfdfd"/>
        <path id="Trazado_165716" data-name="Trazado 165716" d="M250.641,205.659a1.047,1.047,0,0,1-1.153-.07c-.033-.022-.077-.028-.114-.047-.669-.351-1.67-.435-1.963-1.032a5.881,5.881,0,0,1-.077-2.367c.453,0,.908.018,1.359-.013.38-.026.488.1.489.484,0,1.063.622,1.405,1.56.939.429-.213.295-.555.273-.845-.034-.467.118-.592.583-.584,1.289.023,1.222,0,1.312,1.284.064.919-.2,1.456-1.1,1.7a7.016,7.016,0,0,0-1.164.549" transform="translate(-206.325 -168.671)" fill="#040302"/>
        <path id="Trazado_165717" data-name="Trazado 165717" d="M313.183,28.376a3.712,3.712,0,1,1-3.7,3.683,3.708,3.708,0,0,1,3.7-3.683" transform="translate(-258.261 -23.679)" fill="#fcf300"/>
      </g>
    </g>
  </g>
</svg>
