<svg xmlns="http://www.w3.org/2000/svg" xmlns:xlink="http://www.w3.org/1999/xlink" width="101" height="101" viewBox="0 0 101 101">
  <defs>
    <clipPath id="clip-path">
      <rect id="Rectángulo_37681" data-name="Rectángulo 37681" width="66.86" height="66.875" fill="none"/>
    </clipPath>
  </defs>
  <g id="Grupo_114915" data-name="Grupo 114915" transform="translate(-749.994 -1665)">
    <g id="Elipse_1145" data-name="Elipse 1145" transform="translate(749.994 1665)" fill="#fff" stroke="#009e83" stroke-width="2">
      <circle cx="50.5" cy="50.5" r="50.5" stroke="none"/>
      <circle cx="50.5" cy="50.5" r="49.5" fill="none"/>
    </g>
    <g id="Grupo_114887" data-name="Grupo 114887" transform="translate(767.064 1680.063)">
      <g id="Grupo_114886" data-name="Grupo 114886" clip-path="url(#clip-path)">
        <path id="Trazado_166286" data-name="Trazado 166286" d="M53.921,41.017c0,2.425.008,4.78-.009,7.135,0,.348.132.375.422.411a4.192,4.192,0,0,1,3.587,2.762.591.591,0,0,0,.671.459c1.617-.02,3.235-.013,4.852-.008a3.238,3.238,0,1,1,.021,6.468q-6.234.009-12.468,0a1.27,1.27,0,0,0-1.19.472,1,1,0,0,0-.079,1.082,1.041,1.041,0,0,0,.975.6c1.011.008,2.022,0,3.033,0a3.239,3.239,0,1,1,.027,6.468q-20.859.005-41.718,0c-2.373,0-3.731-1.757-3.269-4.312H7.127c-1.236,0-2.471,0-3.707,0a3.239,3.239,0,1,1-.032-6.469c.988-.006,1.977.008,2.965,0a1.09,1.09,0,0,0,1.185-.957c.359-2.232.988-2.919,3.163-3.421a5.52,5.52,0,0,1-.895-4.161,5.233,5.233,0,0,1,2.725-3.723.924.924,0,0,0,.54-.688,5.278,5.278,0,0,1,4.693-4.255c.551-.055.584-.252.575-.684-.024-1.033-.035-2.068,0-3.1.018-.473-.11-.591-.585-.588-3.549.022-7.1,0-10.648.025-.525,0-.649-.129-.658-.653A6.7,6.7,0,0,1,8.6,28.7c.92-.881,1.813-1.789,2.84-2.805-1.563,0-2.965-.026-4.365.014-.508.014-.612-.124-.622-.622a6.728,6.728,0,0,1,2.172-5.239c.91-.868,1.786-1.771,2.8-2.78H9.263c-.786,0-1.573-.019-2.358.009-.362.013-.461-.1-.443-.452.028-.515.016-1.033.005-1.55a3.237,3.237,0,0,1,1.427-2.82A28.479,28.479,0,0,0,16.866,1.716,2.739,2.739,0,0,1,21.139.629a3.162,3.162,0,0,1,.837,1.123,28.133,28.133,0,0,0,8.879,10.641,3.447,3.447,0,0,1,1.5,3.192c-.032.534.18,1.25-.09,1.56-.319.367-1.052.1-1.6.114-1.029.022-2.06.006-3.183.006,1.824,2.2,4.554,3.671,4.824,6.881,4.182-3.233,6.029-3.381,9.981-.833a5.8,5.8,0,0,1,1-1.878c.181-.207.1-.4.048-.624a5.333,5.333,0,0,1,4.146-6.657.88.88,0,0,0,.635-.51,5.357,5.357,0,0,1,9.468.03.867.867,0,0,0,.656.482,5.336,5.336,0,0,1,4.119,6.621.819.819,0,0,0,.148.79,5.122,5.122,0,0,1,.642,5.392.557.557,0,0,0,.123.7,5.3,5.3,0,0,1-.538,7.773.571.571,0,0,0-.24.559,5.382,5.382,0,0,1-8.363,5.127c-.035-.022-.075-.036-.207-.1M47.591,60.4c-.662-2.7,1.36-4.433,3.722-4.351,3.9.136,7.817.037,11.726.037,1.15,0,1.674-.347,1.66-1.1-.014-.731-.518-1.058-1.631-1.058H11.374c-.157,0-.315,0-.472,0a1.1,1.1,0,0,0-1.2,1.158,3.24,3.24,0,0,1-3.423,3.154c-1.011,0-2.022-.015-3.033.009A1.057,1.057,0,0,0,2.16,59.309,1.076,1.076,0,0,0,3.216,60.4c.179.015.359.005.539.005H16.764c1.59,0,1.574,0,1.58,1.609,0,.432-.1.566-.551.56-1.887-.026-3.774-.014-5.661-.01-.853,0-1.342.4-1.343,1.074s.488,1.071,1.34,1.08H53.376a4.839,4.839,0,0,0,.673-.015,1.046,1.046,0,0,0,.909-.792,1.013,1.013,0,0,0-.3-1.046,1.3,1.3,0,0,0-1-.306c-2.247.006-4.493,0-6.74,0-1.725,0-1.714,0-1.635-1.755.015-.329.111-.419.426-.408.622.021,1.245.006,1.882.006M8.808,32.363h4.874q7.412,0,14.824-.005c.206,0,.455.114.62-.116a1.948,1.948,0,0,0-.184-1.756Q26.8,28.338,24.657,26.2a.854.854,0,0,0-.634-.311c-.44-.005-1.021.214-1.288-.1s-.034-.906-.1-1.368c-.077-.568.135-.708.694-.7,2.043.035,4.088,0,6.131.025.565.008.58-.171.372-.6a4.45,4.45,0,0,0-.827-1.22q-2.188-2.2-4.378-4.389a.869.869,0,0,0-.645-.282c-1.343-.038-1.342-.047-1.341-1.37a1.677,1.677,0,0,0,0-.269c-.07-.425.117-.525.524-.521q2.931.028,5.862-.007c.375-.005.973.231,1.088-.148.136-.449-.43-.722-.786-.987a30.324,30.324,0,0,1-5.983-5.887,30.185,30.185,0,0,1-3.283-5.317c-.143-.3-.313-.568-.686-.55-.335.016-.5.27-.621.547-.028.061-.059.121-.089.181A30.383,30.383,0,0,1,9.439,14a4.58,4.58,0,0,0-.561.48c-.139.143-.287.338-.2.537s.32.09.484.091c1.819.008,3.639,0,5.458,0,1.572,0,1.553,0,1.566,1.568,0,.464-.106.614-.589.609-.464,0-.968-.195-1.394.24-1.462,1.491-2.955,2.953-4.42,4.442a3.169,3.169,0,0,0-.954,1.769h5.827c1.531,0,1.508,0,1.532,1.536.008.5-.113.657-.627.64-.462-.015-.958-.179-1.387.262-1.44,1.482-2.918,2.927-4.371,4.4a3.564,3.564,0,0,0-1,1.794m45.112-2c.522-.653.936-1.172,1.352-1.69,1.083-1.35,1.075-1.339,2.393-.227.278.235.279.366.058.631-.732.881-1.359,1.862-2.17,2.66a5.5,5.5,0,0,0-1.659,4.774,3.454,3.454,0,0,0,2.025,3.143A3.219,3.219,0,0,0,60.1,35.4c-.282-.647-.128-.9.484-1.168A3.052,3.052,0,0,0,62.534,31.4a3.161,3.161,0,0,0-1.677-2.944c-.964-.592-.961-.6-.246-1.474a3.076,3.076,0,0,0-.324-4.593c-.67-.537-.608-.9-.271-1.562a3.148,3.148,0,0,0-2.908-4.61c-.764.029-1.017-.205-1.192-.913a3.181,3.181,0,0,0-6.146.015c-.174.736-.468.918-1.205.891a3.1,3.1,0,0,0-3.032,4.238c.471,1.041.4,1.565-.468,2.275a2.908,2.908,0,0,0-.694,3.161A15.191,15.191,0,0,1,45.776,37.72a.945.945,0,0,0,.2.92,3.219,3.219,0,0,0,5.781-1.878c.024-2.291,0-4.582.014-6.874a1.07,1.07,0,0,0-.278-.724q-1.421-1.753-2.822-3.522c-1-1.249-.979-1.234.251-2.24.386-.316.566-.231.833.123.615.814,1.269,1.6,2.01,2.52v-5c0-1.651,0-1.63,1.626-1.636.466,0,.542.159.54.574-.015,3.19-.008,6.38-.008,9.569ZM21.6,51.776c2.2,0,4.4-.038,6.6.018a2.247,2.247,0,0,0,2.1-.907,3.369,3.369,0,0,0,.413-4.147,3.174,3.174,0,0,0-4.046-1.113c-.569.231-.8.126-1.032-.411a2.941,2.941,0,0,0-3.1-2.016,1.457,1.457,0,0,1-1.591-.8,3.188,3.188,0,0,0-5.825,1.936c.049.711-.178.941-.836,1.116a3.182,3.182,0,0,0-1.512,5.337,6.965,6.965,0,0,1,.551.59,1.01,1.01,0,0,0,.924.409c2.448-.017,4.9-.008,7.346-.008M38.822,31.442c.529-.661.945-1.183,1.363-1.7,1.062-1.321,1.053-1.31,2.348-.239.292.241.32.379.075.679-1.18,1.442-2.334,2.9-3.5,4.362a.9.9,0,0,0-.294.581c.007,2.6,0,5.2,0,7.865a6.1,6.1,0,0,0,3.511-2.734,11.5,11.5,0,0,0,1.819-5.568,12.246,12.246,0,0,0-2.214-8.6,5.182,5.182,0,0,0-4.054-2.337,5.03,5.03,0,0,0-4.325,2.329,12.564,12.564,0,0,0-1.932,10.451,9.039,9.039,0,0,0,3.295,5.623,3.347,3.347,0,0,0,1.742.782c0-.612-.034-1.175.009-1.732a2.551,2.551,0,0,0-.517-1.745c-.99-1.415-1.925-2.869-2.881-4.307-.739-1.11-.712-1.073.341-1.852.575-.426.85-.345,1.2.251.533.909,1.16,1.764,1.849,2.8V29.663c0-1.682,0-1.671,1.706-1.622.344.01.469.088.459.451-.024.92-.008,1.84-.008,2.95M32.355,51.775c1.366,0,2.623-.015,3.879.009.368.007.441-.117.438-.455q-.022-2.862,0-5.723c0-.292-.063-.409-.376-.485a7.9,7.9,0,0,1-4.452-3.06,13.4,13.4,0,0,1-2.611-6.811c-.038-.341.078-.751-.558-.743-2.581.034-5.162.021-7.743.006-.347,0-.456.084-.45.443.022,1.324.007,2.648.011,3.973,0,.13-.007.345.059.378a7.159,7.159,0,0,1,2.1,1.648c.068.074.257.037.39.049a5.238,5.238,0,0,1,3.669,1.873.764.764,0,0,0,.788.306,5.392,5.392,0,0,1,4.857,8.591m6.468-.061a5.427,5.427,0,0,1,1.753-2.3,1.244,1.244,0,0,0,.528-.866,5.164,5.164,0,0,1,3.888-4.128,5.079,5.079,0,0,1,5.366,1.629,3.146,3.146,0,0,0,1.37.872V41.005a5.46,5.46,0,0,1-3.654,1.046,5.791,5.791,0,0,1-3.386-1.575c-1.328,2.3-3.008,4.064-5.628,4.674-.266.062-.236.217-.236.39q0,3.086,0,6.173m16.855.051A2.109,2.109,0,0,0,52.762,51c-.853.337-.743.474-.979-.488a2.277,2.277,0,0,0-2.023-1.953.716.716,0,0,1-.546-.428,3.219,3.219,0,0,0-6.054,1.866c.014.424-.083.646-.517.775a1.625,1.625,0,0,0-1.241,1ZM27.738,25.91l2.284,2.3a18.315,18.315,0,0,1,1.014-2.3Z" transform="translate(0 0)" fill="#020201"/>
        <path id="Trazado_166287" data-name="Trazado 166287" d="M57.421,305.822c-.637,0-1.26.015-1.882-.006-.315-.011-.411.079-.426.408-.08,1.756-.091,1.756,1.635,1.756,2.247,0,4.493,0,6.74,0a1.3,1.3,0,0,1,1,.306,1.013,1.013,0,0,1,.3,1.046,1.046,1.046,0,0,1-.909.792,4.841,4.841,0,0,1-.673.015H22.227c-.09,0-.18,0-.27,0-.852-.009-1.341-.4-1.34-1.08s.491-1.073,1.343-1.074c1.887,0,3.774-.016,5.661.01.449.006.552-.128.551-.56-.006-1.609.01-1.609-1.58-1.609H13.586c-.18,0-.36.009-.539-.005a1.076,1.076,0,0,1-1.056-1.089,1.057,1.057,0,0,1,1.088-1.054c1.01-.023,2.022,0,3.033-.009a3.24,3.24,0,0,0,3.423-3.154,1.1,1.1,0,0,1,1.2-1.158c.157-.005.315,0,.472,0H72.9c1.112,0,1.617.328,1.631,1.058.014.751-.51,1.1-1.66,1.1-3.909,0-7.822.1-11.726-.037-2.362-.082-4.384,1.649-3.722,4.351M36.739,306.9h.539c1.731,0,1.721,0,1.677-1.711-.009-.344-.088-.464-.448-.455-.988.024-1.977-.013-2.965.016-.6.018-.881-.166-.938-.824a2.646,2.646,0,0,0-2.685-2.417c-.7-.012-1.393,0-2.089,0-1.732,0-1.721,0-1.678,1.711.009.343.087.464.448.455.988-.024,1.977.014,2.964-.017.607-.019.88.169.937.825a2.654,2.654,0,0,0,2.687,2.417c.517.01,1.033,0,1.55,0" transform="translate(-9.83 -245.419)" fill="#68f3ae"/>
        <path id="Trazado_166288" data-name="Trazado 166288" d="M48.183,42.386a3.565,3.565,0,0,1,1-1.794c1.453-1.469,2.931-2.914,4.371-4.4.428-.441.925-.276,1.387-.262.514.016.635-.142.627-.64-.023-1.536,0-1.536-1.532-1.536H48.2a3.17,3.17,0,0,1,.954-1.77c1.465-1.489,2.957-2.951,4.42-4.442.426-.434.931-.245,1.394-.24.483.005.594-.145.59-.608-.014-1.568.005-1.568-1.566-1.568-1.819,0-3.639,0-5.458-.005-.164,0-.4.106-.484-.091s.06-.393.2-.537a4.549,4.549,0,0,1,.561-.48,30.383,30.383,0,0,0,9.231-11.064c.03-.06.061-.12.088-.181.125-.277.285-.531.621-.547.373-.017.543.255.686.55a30.191,30.191,0,0,0,3.283,5.318A30.323,30.323,0,0,0,68.7,23.981c.356.264.922.537.786.987-.115.379-.713.143-1.088.148q-2.931.039-5.862.007c-.407,0-.594.1-.524.521a1.656,1.656,0,0,1,0,.269c0,1.323,0,1.331,1.341,1.369a.871.871,0,0,1,.645.282q2.183,2.2,4.378,4.389a4.45,4.45,0,0,1,.827,1.22c.208.426.194.606-.372.6-2.044-.029-4.088.01-6.131-.026-.559-.01-.772.131-.694.7.063.462-.183,1.043.1,1.368.267.31.847.091,1.288.1a.855.855,0,0,1,.634.311q2.14,2.148,4.285,4.291a1.948,1.948,0,0,1,.184,1.755c-.165.23-.413.116-.62.116q-7.412.011-14.824.006H48.183" transform="translate(-39.374 -10.023)" fill="#007a64"/>
        <path id="Trazado_166289" data-name="Trazado 166289" d="M254.856,89.306V88.5c0-3.19-.007-6.38.008-9.569,0-.415-.073-.575-.54-.574-1.626.006-1.626-.015-1.626,1.635v5c-.74-.923-1.4-1.707-2.01-2.52-.267-.353-.447-.439-.833-.123-1.23,1.006-1.246.991-.251,2.24q1.406,1.765,2.822,3.522a1.07,1.07,0,0,1,.278.724c-.012,2.291.009,4.583-.014,6.874a3.219,3.219,0,0,1-5.781,1.878.945.945,0,0,1-.2-.92A15.191,15.191,0,0,0,245.3,84.829,2.908,2.908,0,0,1,246,81.668c.872-.711.939-1.235.468-2.275a3.1,3.1,0,0,1,3.032-4.238c.737.026,1.031-.156,1.205-.891a3.181,3.181,0,0,1,6.146-.015c.175.708.429.942,1.193.913a3.148,3.148,0,0,1,2.908,4.61c-.337.667-.4,1.026.271,1.562a3.076,3.076,0,0,1,.324,4.593c-.715.876-.718.881.246,1.474a3.161,3.161,0,0,1,1.677,2.944,3.051,3.051,0,0,1-1.952,2.828c-.612.266-.766.521-.484,1.168a3.219,3.219,0,0,1-4.18,4.258,3.454,3.454,0,0,1-2.025-3.143,5.5,5.5,0,0,1,1.659-4.774c.81-.8,1.438-1.779,2.169-2.66.221-.266.221-.4-.058-.631-1.318-1.112-1.309-1.123-2.393.227-.416.518-.83,1.037-1.352,1.69" transform="translate(-200.935 -58.944)" fill="#009e83"/>
        <path id="Trazado_166290" data-name="Trazado 166290" d="M75.56,238.3c-2.449,0-4.9-.008-7.346.008a1.009,1.009,0,0,1-.923-.408,7,7,0,0,0-.551-.59,3.182,3.182,0,0,1,1.512-5.337c.658-.175.885-.4.836-1.116a3.188,3.188,0,0,1,5.825-1.936,1.458,1.458,0,0,0,1.592.8,2.941,2.941,0,0,1,3.1,2.016c.232.538.463.643,1.032.411a3.174,3.174,0,0,1,4.046,1.113,3.369,3.369,0,0,1-.413,4.147,2.247,2.247,0,0,1-2.1.907c-2.2-.056-4.4-.018-6.6-.018" transform="translate(-53.961 -186.52)" fill="#007a64"/>
        <path id="Trazado_166291" data-name="Trazado 166291" d="M181.095,139.5c0-1.11-.016-2.03.008-2.95.01-.363-.115-.441-.459-.451-1.706-.049-1.706-.06-1.706,1.622V144.4c-.689-1.031-1.316-1.886-1.849-2.8-.35-.6-.624-.677-1.2-.251-1.052.779-1.08.742-.341,1.852.957,1.438,1.891,2.892,2.882,4.307a2.551,2.551,0,0,1,.517,1.745c-.043.557-.009,1.121-.009,1.732a3.347,3.347,0,0,1-1.742-.782,9.039,9.039,0,0,1-3.295-5.623,12.564,12.564,0,0,1,1.932-10.451,5.03,5.03,0,0,1,4.325-2.329,5.181,5.181,0,0,1,4.054,2.337,12.245,12.245,0,0,1,2.214,8.6,11.5,11.5,0,0,1-1.819,5.568,6.1,6.1,0,0,1-3.511,2.735c0-2.664,0-5.264,0-7.865a.9.9,0,0,1,.294-.581c1.161-1.457,2.316-2.92,3.5-4.362.245-.3.217-.438-.075-.679-1.295-1.071-1.286-1.082-2.348.239-.418.52-.834,1.042-1.363,1.7" transform="translate(-142.272 -108.054)" fill="#04d9b5"/>
        <path id="Trazado_166292" data-name="Trazado 166292" d="M244.089,262.824H229.814a1.625,1.625,0,0,1,1.241-1c.434-.128.53-.351.517-.775a3.219,3.219,0,0,1,6.054-1.866.716.716,0,0,0,.546.428,2.277,2.277,0,0,1,2.023,1.953c.235.962.126.825.979.488a2.109,2.109,0,0,1,2.916.769" transform="translate(-188.41 -211.059)" fill="#009e83"/>
        <path id="Trazado_166293" data-name="Trazado 166293" d="M110.236,316.7c-.517,0-1.033.008-1.55,0A2.654,2.654,0,0,1,106,314.284c-.057-.655-.33-.844-.937-.825-.987.031-1.977-.007-2.964.017-.361.009-.439-.112-.448-.455-.043-1.711-.054-1.711,1.678-1.711.7,0,1.393-.01,2.089,0a2.646,2.646,0,0,1,2.685,2.417c.057.658.334.842.938.824.987-.029,1.977.008,2.965-.016.36-.009.44.111.448.455.043,1.711.054,1.711-1.677,1.711h-.539" transform="translate(-83.327 -255.221)" fill="#020201"/>
      </g>
    </g>
  </g>
</svg>
