<svg xmlns="http://www.w3.org/2000/svg" xmlns:xlink="http://www.w3.org/1999/xlink" width="539.409" height="398.961" viewBox="0 0 539.409 398.961">
  <defs>
    <clipPath id="clip-path">
      <rect id="Rectángulo_37627" data-name="Rectángulo 37627" width="265.691" height="350" fill="none"/>
    </clipPath>
    <clipPath id="clip-path-3">
      <rect id="Rectángulo_37624" data-name="Rectángulo 37624" width="19.739" height="70.28" fill="none"/>
    </clipPath>
    <clipPath id="clip-path-4">
      <rect id="Rectángulo_37625" data-name="Rectángulo 37625" width="21.845" height="90.825" fill="none"/>
    </clipPath>
  </defs>
  <g id="Grupo_114913" data-name="Grupo 114913" transform="translate(-775.591 -885)">
    <path id="Trazado_165518" data-name="Trazado 165518" d="M197.617,9.026C164.92-6.5,120.06-2.889,99.439,26.86c-17.33,25-12.507,58.765-4.905,88.22s17.247,60.74,7.482,89.55c-12.915,38.107-54.565,57.733-79,89.7C-7.734,334.555-7.151,394.755,21.644,436.405s82.485,63.395,132.713,57.041,95.583-39.115,120.688-83.081,30.561-97.944,18.453-147.108c-6.987-28.378-19.5-55.3-24.7-84.062-5.841-32.293,12.814-70.418,3.136-99.535C262.75,52.02,222.7,20.941,197.617,9.026" transform="translate(1304.542 915.041) rotate(88)" fill="#ff8628"/>
    <path id="Trazado_165519" data-name="Trazado 165519" d="M26.907,20.55C4.329,41.018-3.36,74.347,1.3,104.461s20.083,57.517,37.773,82.331c8.891,12.467,18.461,24.539,25.7,38.035,19.774,36.866,19.77,84.233-2.152,119.867-6.706,10.9-15.275,20.676-20.841,32.2-9.129,18.893-9.362,41.318-3.368,61.427,4.168,13.966,11.53,27.42,23.146,36.222,7.51,5.693,16.474,9.209,25.615,11.5,32.817,8.231,68.891.75,96.683-18.533s47.206-49.782,54.539-82.806c16.7-75.189-24.785-147.274-34.519-220.392a212.286,212.286,0,0,1-.458-55.191c2.266-17.749,9.7-39.026,3.7-56.754-7.947-23.476-39.615-27.6-59.711-36.442C108.84-1.046,61.672-10.971,26.907,20.55Z" transform="matrix(-0.242, 0.97, -0.97, -0.242, 1310.57, 1047.354)" fill="none" stroke="#fcf300" stroke-miterlimit="10" stroke-width="2.5"/>
    <g id="Grupo_114815" data-name="Grupo 114815" transform="translate(1049.309 885)">
      <g id="Grupo_114814" data-name="Grupo 114814" clip-path="url(#clip-path)">
        <g id="Grupo_114813" data-name="Grupo 114813">
          <g id="Grupo_114812" data-name="Grupo 114812" clip-path="url(#clip-path)">
            <path id="Trazado_165473" data-name="Trazado 165473" d="M70.05,168.758l-5.56,51.763s-10.833-16.38-18.166-9.079C39.338,218.4,27,269.186,27,269.186s-.171,16.562,8.64,20.935c28.208,14,59.629-12.4,59.629-12.4L90.818,129.7A59.372,59.372,0,0,0,70.05,168.758" transform="translate(4.027 19.345)" fill="#04d9b5"/>
            <path id="Trazado_165474" data-name="Trazado 165474" d="M156.342,149.013l-48.854-3.9c-.3-5.7.1-27.772.1-27.772s-20.326-3.16-20.577-23.483,3.272-66.99,3.272-66.99a70.636,70.636,0,0,1,70.973,8.921l3.012,2.319Z" transform="translate(12.976 3.151)" fill="#b78876"/>
            <path id="Trazado_165475" data-name="Trazado 165475" d="M104.9,105.575s12.844,1.045,26.495-7.529c0,0-6.263,14.625-26.542,12.795Z" transform="translate(15.638 14.624)" fill="#aa6550"/>
            <path id="Trazado_165476" data-name="Trazado 165476" d="M152.165,54.305c.346-.151,13.964-4.13,13.52,9.764s-14.3,10.583-14.313,10.183.793-19.947.793-19.947" transform="translate(22.577 8.004)" fill="#b78876"/>
            <path id="Trazado_165477" data-name="Trazado 165477" d="M155.214,68.534c.062-.043.237.177.64.378a2.419,2.419,0,0,0,1.808.094c1.485-.491,2.8-2.782,2.943-5.284a8,8,0,0,0-.567-3.488,2.8,2.8,0,0,0-1.762-1.916,1.231,1.231,0,0,0-1.449.617c-.2.383-.12.663-.194.684-.04.034-.291-.241-.161-.812a1.55,1.55,0,0,1,.575-.853,1.833,1.833,0,0,1,1.35-.311,3.407,3.407,0,0,1,2.459,2.235,8.228,8.228,0,0,1,.716,3.9c-.178,2.8-1.7,5.371-3.722,5.887a2.59,2.59,0,0,1-2.2-.439c-.419-.356-.483-.669-.433-.693" transform="translate(23.148 8.595)" fill="#aa6550"/>
            <path id="Trazado_165478" data-name="Trazado 165478" d="M93.758,53.871a2.9,2.9,0,0,0,2.8,2.928,2.776,2.776,0,0,0,2.992-2.617,2.9,2.9,0,0,0-2.8-2.93,2.778,2.778,0,0,0-2.995,2.619" transform="translate(13.984 7.644)" fill="#263238"/>
            <path id="Trazado_165479" data-name="Trazado 165479" d="M93.213,51.4c.36.379,2.559-1.248,5.681-1.239,3.12-.037,5.412,1.569,5.751,1.187.165-.169-.2-.853-1.2-1.58a7.978,7.978,0,0,0-4.6-1.419,7.657,7.657,0,0,0-4.522,1.462c-.961.735-1.286,1.421-1.109,1.589" transform="translate(13.896 7.211)" fill="#263238"/>
            <path id="Trazado_165480" data-name="Trazado 165480" d="M120.374,54.819a2.9,2.9,0,0,0,2.8,2.928,2.777,2.777,0,0,0,2.992-2.617,2.9,2.9,0,0,0-2.8-2.93,2.777,2.777,0,0,0-2.994,2.619" transform="translate(17.954 7.785)" fill="#263238"/>
            <path id="Trazado_165481" data-name="Trazado 165481" d="M119.927,51.9c.361.378,2.563-1.249,5.683-1.24,3.12-.037,5.412,1.57,5.751,1.187.165-.169-.2-.852-1.2-1.579a7.955,7.955,0,0,0-4.6-1.419,7.655,7.655,0,0,0-4.523,1.461c-.957.737-1.285,1.421-1.109,1.59" transform="translate(17.88 7.287)" fill="#263238"/>
            <path id="Trazado_165482" data-name="Trazado 165482" d="M111.091,75.042c.015-.178-1.927-.513-5.072-.915-.8-.083-1.552-.241-1.687-.785a4.056,4.056,0,0,1,.532-2.364q1.126-2.9,2.359-6.073c3.275-8.646,5.646-15.755,5.3-15.885s-3.288,6.775-6.563,15.422q-1.182,3.2-2.259,6.109a4.612,4.612,0,0,0-.414,3.129,2,2,0,0,0,1.311,1.166,5.421,5.421,0,0,0,1.355.188c3.166.17,5.13.185,5.141.007" transform="translate(15.382 7.311)" fill="#263238"/>
            <path id="Trazado_165483" data-name="Trazado 165483" d="M119.222,41.162c.308.849,3.427.447,7.09.888,3.674.368,6.628,1.441,7.114.679.216-.364-.3-1.163-1.494-1.986a12.421,12.421,0,0,0-10.82-1.194c-1.346.542-2.022,1.209-1.89,1.612" transform="translate(17.78 5.79)" fill="#263238"/>
            <path id="Trazado_165484" data-name="Trazado 165484" d="M94.216,43.556c.549.709,2.7-.028,5.288-.061,2.586-.126,4.777.476,5.281-.265.222-.361-.124-1.071-1.081-1.743a7.657,7.657,0,0,0-8.516.264c-.915.729-1.215,1.459-.972,1.805" transform="translate(14.04 6.014)" fill="#263238"/>
            <path id="Trazado_165485" data-name="Trazado 165485" d="M81.248,17.189a7.5,7.5,0,0,1,2.771-6.7A5.322,5.322,0,0,1,90.913,11,6.21,6.21,0,0,1,96.251,3.47c3.314-.21,6.141,2.294,9.344,3.172,3.127.858,6.482.116,9.49-1.1s5.818-2.882,8.863-3.994a25.986,25.986,0,0,1,33.238,15.26c4.445-1.388,9.5.868,12.236,4.632s3.444,8.709,2.9,13.335A42.338,42.338,0,0,1,170,43.9c0,.261.026.517.022.779-.21,11.175-1.473,24.3-6.241,24.372-8.311.128-6.331-15.53-6.331-15.53-10.2-3.94-6.4-19.22-8.948-21.537s-7.884-7.7-29.236,3.208c-8.291,4.238-19.315,4.1-25.333,2.741-.176-.039-.355-.066-.531-.108-.037-.01-.086-.016-.123-.025-.067-.017-.113-.053-.177-.071A19.237,19.237,0,0,1,87.623,35.4a10.819,10.819,0,0,1-4.513-5.017,5.923,5.923,0,0,1,1.165-6.362,13.027,13.027,0,0,1-3.028-6.836" transform="translate(12.114 0)" fill="#12263f"/>
            <path id="Trazado_165486" data-name="Trazado 165486" d="M199.129,261.476l1.535,28.839,3.435,41.426H73.527L79.2,270.534l-11.12-96.7c.965-34.17,14.087-48.38,40.934-51.643l-2.116.264c3.7-.437,0,0,2.116-.264a86.426,86.426,0,0,0,52.089-.032h0c8.051.341,14.721,2.82,21.568,4.131,21.566,4.132,39.324,20.8,43.636,35.3,3.552,11.942,29.234,115.51,29.234,115.51H204.446Z" transform="translate(10.154 18.22)" fill="#04d9b5"/>
            <path id="Trazado_165487" data-name="Trazado 165487" d="M107.808,80.479a13.985,13.985,0,0,0,1.811,3.55,4.717,4.717,0,0,0,3.352,1.946,4.231,4.231,0,0,0,3.578-1.951,6.752,6.752,0,0,0,1-4.069c-.057-1.284-.645-2.815-1.92-2.966a3.2,3.2,0,0,0-1.548.342l-6.7,2.719" transform="translate(16.015 11.481)" fill="#aa6550"/>
            <path id="Trazado_165488" data-name="Trazado 165488" d="M110.651,86.083c.034-.21,1.505.387,3.575-.441a5.11,5.11,0,0,0,2.7-2.456,5.381,5.381,0,0,0,.088-4.385,4.774,4.774,0,0,0-.585-1c-.265-.279-.216-.267-.506-.224-.273.074-.715.282-1.074.422l-1.1.448c-1.434.58-2.734,1.088-3.831,1.5-2.195.82-3.584,1.251-3.65,1.1s1.208-.858,3.318-1.878c1.055-.509,2.319-1.1,3.73-1.733l1.086-.486a12.012,12.012,0,0,1,1.224-.5,1.573,1.573,0,0,1,1,.029,1.836,1.836,0,0,1,.739.585,5.749,5.749,0,0,1,.754,1.271,6.283,6.283,0,0,1-.206,5.363,5.732,5.732,0,0,1-3.4,2.751,5.407,5.407,0,0,1-2.905.113c-.667-.176-.978-.4-.953-.469" transform="translate(15.85 11.391)" fill="#263238"/>
            <path id="Trazado_165489" data-name="Trazado 165489" d="M77.907,258.32,47.156,163.906l-2.784-15.853S36,112.715,35.633,109.217c-.43-4.042-2.481-4.806-3.96-4.546-2.3.4-3.642,3.441-3.38,6.92.091,1.2,2.28,20.118,2.28,20.118a45.023,45.023,0,0,0-4.216-4.716c-3.183-3.242-9.975-4.559-16.7-3.615s-8.523,1.8-8.278,4.43a3.365,3.365,0,0,0,1.6,2.405,6.645,6.645,0,0,0,4.614,1.055c10.789-1.363,14.321,4.1,14.321,4.1l.364,2.074S15.2,133.458,10.184,136a6.382,6.382,0,0,0-1.948,1.512,8.506,8.506,0,0,0-5.97,13.4c.835,1.171,2.255,2.189,3.626,1.755a4.517,4.517,0,0,0,1.787-1.366,6.835,6.835,0,0,1,.885-.816l1.834,5.666s4.8,12.511,6.272,18.191l14.973,95.075a23.863,23.863,0,0,0,27.7,19.791h0A23.863,23.863,0,0,0,77.907,258.32" transform="translate(0.105 15.605)" fill="#b78876"/>
            <path id="Trazado_165490" data-name="Trazado 165490" d="M41.228,158.3c-1.926.756-4.116-.477-5.377-2.118s-1.927-3.661-3.066-5.388c-3.4-5.165-10.5-7.042-13.651-12.364-.439-.742-.748-1.8-.117-2.383.586-.544,1.523-.263,2.259.046l18.89,7.948" transform="translate(2.783 20.245)" fill="#b78876"/>
            <path id="Trazado_165491" data-name="Trazado 165491" d="M40.242,144.111a8.185,8.185,0,0,0-1.955-1.069c-1.288-.618-3.167-1.477-5.5-2.516l-8.213-3.591-2.38-1.023c-.779-.267-1.679-.961-3.028-.518a1.725,1.725,0,0,0-1.009,1.655,3.54,3.54,0,0,0,.472,1.609,13.44,13.44,0,0,0,1.815,2.416c2.814,2.941,6.216,4.613,8.77,6.705a15.416,15.416,0,0,1,3.214,3.318c.812,1.189,1.379,2.471,2.025,3.6a7.214,7.214,0,0,0,4.615,4,2.592,2.592,0,0,0,2.233-.324,6,6,0,0,1-2.121-.117,6.988,6.988,0,0,1-4-3.953c-.579-1.11-1.1-2.421-1.943-3.74a15.923,15.923,0,0,0-3.343-3.616c-2.63-2.214-6-3.937-8.594-6.667a12.48,12.48,0,0,1-1.649-2.176c-.423-.739-.462-1.531-.022-1.657.459-.213,1.327.152,2.133.5l2.4.986,8.31,3.36c2.372.941,4.3,1.684,5.642,2.173a8.208,8.208,0,0,0,2.131.649" transform="translate(2.708 20.173)" fill="#aa6550"/>
            <path id="Trazado_165492" data-name="Trazado 165492" d="M22.477,134.665a8.439,8.439,0,0,0-1.634-3.51,6.529,6.529,0,0,0-3.549-2.033,16.7,16.7,0,0,0-5.193-.187,26.636,26.636,0,0,1-5.394.109,8.588,8.588,0,0,1-4.189-1.557A3.352,3.352,0,0,1,1.151,124.8a1.981,1.981,0,0,1,.245-1.077c.072.013-.011.4.048,1.064a3.166,3.166,0,0,0,1.4,2.272,8.53,8.53,0,0,0,3.944,1.29,29.367,29.367,0,0,0,5.257-.17,16.226,16.226,0,0,1,5.419.264,6.852,6.852,0,0,1,3.793,2.368,6.085,6.085,0,0,1,1.22,2.75,2.107,2.107,0,0,1,0,1.1" transform="translate(0.171 18.454)" fill="#aa6550"/>
            <path id="Trazado_165493" data-name="Trazado 165493" d="M24.658,109.518a21.276,21.276,0,0,1,.46,3.758c.251,2.584.548,5.665.878,9.069.38,3.4.725,6.475,1.014,9.056a21.2,21.2,0,0,1,.325,3.772,16.983,16.983,0,0,1-.853-3.695c-.409-2.3-.864-5.5-1.236-9.055s-.584-6.774-.66-9.114a17.011,17.011,0,0,1,.072-3.791" transform="translate(3.661 16.335)" fill="#aa6550"/>
            <path id="Trazado_165494" data-name="Trazado 165494" d="M18.019,137.841a4.544,4.544,0,0,1-1.145-.308,3.514,3.514,0,0,0-2.923.174,1.88,1.88,0,0,0-.81,1.678,10.03,10.03,0,0,0,.44,2.428,4.237,4.237,0,0,1-.13,3.011,3.611,3.611,0,0,1-2.721,1.808,4.1,4.1,0,0,1-3.1-.964,5.128,5.128,0,0,1-1.682-2.482,16.649,16.649,0,0,1-.446-4.851,9.778,9.778,0,0,1,.626-3.219c.316-.723.646-1.028.671-1,.055.04-.179.391-.394,1.1a11.563,11.563,0,0,0-.37,3.134,17.82,17.82,0,0,0,.579,4.638,4.058,4.058,0,0,0,4.017,2.9,2.9,2.9,0,0,0,2.167-1.405,3.621,3.621,0,0,0,.106-2.512,9.963,9.963,0,0,1-.388-2.6,2.44,2.44,0,0,1,1.151-2.106,3.673,3.673,0,0,1,3.3,0,3.072,3.072,0,0,1,1.047.585" transform="translate(0.818 20.003)" fill="#aa6550"/>
            <path id="Trazado_165495" data-name="Trazado 165495" d="M8.7,145.156c.036-.01.183.38.01,1.08a3.3,3.3,0,0,1-1.988,2.179,4.394,4.394,0,0,1-4.282-.833A7.191,7.191,0,0,1,.051,142.8a8.7,8.7,0,0,1,1.074-5.227A8.3,8.3,0,0,1,4.21,134.5a7.858,7.858,0,0,1,2.752-.972,2.255,2.255,0,0,1,1.068-.009,13.677,13.677,0,0,0-3.543,1.436,8.213,8.213,0,0,0-2.756,2.954A8.282,8.282,0,0,0,.8,142.717a6.682,6.682,0,0,0,2.081,4.331,3.9,3.9,0,0,0,3.658.864,3.123,3.123,0,0,0,1.887-1.769c.239-.6.2-.987.269-.988" transform="translate(0 19.907)" fill="#aa6550"/>
            <path id="Trazado_165496" data-name="Trazado 165496" d="M20.093,154.576a3.092,3.092,0,0,1,1.811-.17,7.138,7.138,0,0,1,4.2,1.96l-.616.254a21.474,21.474,0,0,1,.147-2.567c.573-4.992,2.913-8.451,3.051-8.32.211.1-1.757,3.6-2.3,8.408-.1.865-.156,1.706-.174,2.483l-.02.858-.6-.6a7.481,7.481,0,0,0-3.757-2.025c-1.065-.224-1.733-.178-1.741-.278" transform="translate(2.997 21.736)" fill="#aa6550"/>
            <path id="Trazado_165497" data-name="Trazado 165497" d="M17.422,125.43c.187.069-.4,1.5-1.983,2.4s-3.111.67-3.074.473c0-.219,1.333-.334,2.7-1.13,1.385-.768,2.167-1.854,2.356-1.74" transform="translate(1.844 18.707)" fill="#aa6550"/>
            <path id="Trazado_165498" data-name="Trazado 165498" d="M93.058,125.422c.029.033-.421.459-1.191,1.342a13.751,13.751,0,0,0-2.666,4.279,5.619,5.619,0,0,0-.3,1.657,3.793,3.793,0,0,0,.438,1.739,6.125,6.125,0,0,0,3.314,2.461,32.776,32.776,0,0,0,10.51,1.485c1.982.038,4.114.113,6.3.241l3.345.392c1.139.124,2.272.429,3.441.642a34.83,34.83,0,0,1,13.815,6.136,25.433,25.433,0,0,1,5.706,5.985,20.607,20.607,0,0,1,1.084,1.864c.333.671.568,1.333.845,1.993a24.268,24.268,0,0,1,1.2,4.2,26.646,26.646,0,0,1-2.705,17.66,25.736,25.736,0,0,1-13.579,11.6,26.742,26.742,0,0,1-8.46,1.68,32.631,32.631,0,0,1-8.177-1,52.1,52.1,0,0,0-7.52-1.342,13.056,13.056,0,0,0-6.827,1.2,17.634,17.634,0,0,0-5.113,4.147c-1.432,1.61-2.651,3.3-3.857,4.9-2.386,3.2-4.909,6.026-7.854,7.507a9.637,9.637,0,0,1-4.379,1.145,9.822,9.822,0,0,1-3.734-.7,8.106,8.106,0,0,1-2.563-1.619,6.111,6.111,0,0,1-1.285-1.812,4.015,4.015,0,0,1-.4-1.764,17.339,17.339,0,0,0,.622,1.658,6.171,6.171,0,0,0,1.31,1.657,7.935,7.935,0,0,0,2.487,1.444,9.11,9.11,0,0,0,7.635-.606c2.763-1.457,5.161-4.207,7.487-7.419,1.176-1.608,2.389-3.338,3.844-5.009a18.412,18.412,0,0,1,5.356-4.422,14.034,14.034,0,0,1,7.341-1.37,52.563,52.563,0,0,1,7.689,1.315,31.66,31.66,0,0,0,7.908.931A25.679,25.679,0,0,0,122.2,188a24.656,24.656,0,0,0,12.943-11.073,25.575,25.575,0,0,0,2.6-16.866,23.22,23.22,0,0,0-1.131-4.016c-.268-.642-.5-1.308-.792-1.889a19.524,19.524,0,0,0-1.007-1.747,24.412,24.412,0,0,0-5.423-5.737,34.046,34.046,0,0,0-13.362-6.043c-1.142-.218-2.248-.53-3.365-.662l-3.283-.419c-2.165-.151-4.224-.251-6.239-.316A32.771,32.771,0,0,1,92.4,137.523a6.668,6.668,0,0,1-3.57-2.814,4.328,4.328,0,0,1-.454-2.017,6.066,6.066,0,0,1,.382-1.8,13.007,13.007,0,0,1,2.929-4.29,6.4,6.4,0,0,1,1.367-1.178" transform="translate(9.312 18.706)" fill="#fafafa"/>
            <path id="Trazado_165499" data-name="Trazado 165499" d="M165.242,196.533a8.522,8.522,0,0,1-.552-2.583,21.316,21.316,0,0,1,.478-7.207,27.747,27.747,0,0,1,4.461-9.749,32.071,32.071,0,0,1,9.652-8.9,40.7,40.7,0,0,1,12.269-4.633,53.184,53.184,0,0,1,10.623-1.093,59.823,59.823,0,0,1,7.172.362,10.382,10.382,0,0,1,2.6.453c-.017.211-3.745-.2-9.746.031a58.106,58.106,0,0,0-10.411,1.325,41.528,41.528,0,0,0-11.895,4.586,32.041,32.041,0,0,0-9.364,8.514,28.212,28.212,0,0,0-4.535,9.309,23.806,23.806,0,0,0-.834,6.971,16.125,16.125,0,0,1,.086,2.614" transform="translate(24.545 24.217)" fill="#fafafa"/>
            <path id="Trazado_165500" data-name="Trazado 165500" d="M226.891,209.482a8.3,8.3,0,0,1-1.351,2.02,33.142,33.142,0,0,1-4.628,4.748,37.657,37.657,0,0,1-8.285,5.335,37.069,37.069,0,0,1-23.67,2.857,37.6,37.6,0,0,1-9.316-3.212,33.133,33.133,0,0,1-5.623-3.511,8.2,8.2,0,0,1-1.793-1.641c.138-.191,2.766,2.1,7.779,4.387a38.587,38.587,0,0,0,40.374-4.872c4.325-3.414,6.333-6.265,6.513-6.112" transform="translate(25.687 31.243)" fill="#fafafa"/>
            <path id="Trazado_165501" data-name="Trazado 165501" d="M178.386,206.285a5.772,5.772,0,0,1-1.048.429,7.878,7.878,0,0,0-2.629,1.75,12.738,12.738,0,0,0-2.648,4.244,39.332,39.332,0,0,0-1.846,6.485,76.192,76.192,0,0,1-1.871,8.1,18.907,18.907,0,0,1-1.988,4.282,16.649,16.649,0,0,1-3.351,3.744,26.248,26.248,0,0,1-9.493,4.8c-3.539,1.048-7.29,1.625-11.053,2.362a46.413,46.413,0,0,0-19.646,8.184,32.11,32.11,0,0,0-6.547,6.6,29.049,29.049,0,0,0-3.736,7.188,24.9,24.9,0,0,0-1.214,11.631c.415,2.769,1.04,4.224.922,4.263a4.078,4.078,0,0,1-.487-1.032,10.429,10.429,0,0,1-.445-1.315,15.016,15.016,0,0,1-.449-1.84,24.22,24.22,0,0,1,.87-11.975,29.255,29.255,0,0,1,3.73-7.5,32.59,32.59,0,0,1,6.686-6.9c5.362-4.182,12.45-7.073,20.085-8.482,3.8-.743,7.51-1.31,10.954-2.313a25.454,25.454,0,0,0,9.12-4.523A15.721,15.721,0,0,0,165.475,231a18.2,18.2,0,0,0,1.929-4.024,80.66,80.66,0,0,0,1.983-7.964,37.982,37.982,0,0,1,2.057-6.565,12.732,12.732,0,0,1,2.943-4.32,7.37,7.37,0,0,1,2.868-1.64,3.227,3.227,0,0,1,1.13-.2" transform="translate(16.476 30.766)" fill="#fafafa"/>
            <path id="Trazado_165502" data-name="Trazado 165502" d="M145.286,203.045a4.809,4.809,0,0,1,.6,2.351,10.094,10.094,0,0,1-1.834,6.358,9.84,9.84,0,0,1-3.462,3.142,9.176,9.176,0,0,1-2.491.906,10.1,10.1,0,0,1-2.807.116,11,11,0,0,1-5.517-2.234,9.859,9.859,0,0,1-3.559-5.327,8.645,8.645,0,0,1,1.777-7.837,19.193,19.193,0,0,1,2.522-2.755,9.456,9.456,0,0,1,1.462-1.093,3.9,3.9,0,0,1,1.8-.63l.154,1.026-.569.143-.285-.989a9.769,9.769,0,0,1,6.333.344,10.373,10.373,0,0,1,4,2.764,8.668,8.668,0,0,1,1.635,2.645c.231.681.291,1.057.245,1.071a15.53,15.53,0,0,0-2.317-3.3,10.243,10.243,0,0,0-3.854-2.387,9.071,9.071,0,0,0-5.731-.152l-.285-.989.564-.155.154,1.026a5.227,5.227,0,0,0-2.566,1.5,18.615,18.615,0,0,0-2.336,2.622,7.553,7.553,0,0,0-1.541,6.856,8.784,8.784,0,0,0,3.12,4.693,10.009,10.009,0,0,0,4.916,2.06,9.148,9.148,0,0,0,2.493-.054,8.345,8.345,0,0,0,2.226-.752,9.167,9.167,0,0,0,3.234-2.756,10.2,10.2,0,0,0,2.056-5.854c.022-1.505-.241-2.333-.132-2.362" transform="translate(18.783 29.211)" fill="#fafafa"/>
            <path id="Trazado_165503" data-name="Trazado 165503" d="M78.663,169.449a1.187,1.187,0,0,1,.01.309c-.007.238-.017.534-.029.9-.041.839-.1,2-.17,3.466-.18,3.007-.36,7.364-.6,12.745-.45,10.764-.891,25.642-1.239,42.077s-.568,31.327-.722,42.1c-.082,5.352-.147,9.7-.194,12.758-.031,1.47-.056,2.632-.074,3.47-.014.368-.025.664-.033.9a1.188,1.188,0,0,1-.032.306,1.143,1.143,0,0,1-.03-.306c-.007-.238-.015-.536-.025-.9-.009-.839-.022-2-.038-3.469,0-3.062,0-7.409,0-12.762.046-10.777.193-25.664.546-42.109s.856-31.32,1.415-42.084c.294-5.381.539-9.736.789-12.741.121-1.466.215-2.622.283-3.459.036-.367.065-.662.088-.9a1.16,1.16,0,0,1,.051-.3" transform="translate(11.259 25.273)" fill="#263238"/>
            <g id="Grupo_114808" data-name="Grupo 114808" transform="translate(67.958 232.128)" opacity="0.2">
              <g id="Grupo_114807" data-name="Grupo 114807">
                <g id="Grupo_114806" data-name="Grupo 114806" clip-path="url(#clip-path-3)">
                  <path id="Trazado_165504" data-name="Trazado 165504" d="M59.137,271.444c6.41,3.066,14.794-2.825,18.069-9.13,0,0,1.711-13.9,1.473-21-.442-13.147.518-26.165.077-39.311a41.367,41.367,0,0,1-9.382,21.356c-1.408,1.664-3,3.315-3.526,5.431-.94,3.788,1.955,10.611,3.816,14.043,5.7,10.5-6.78,28.686-10.114,28.346" transform="translate(-59.137 -202)"/>
                </g>
              </g>
            </g>
            <g id="Grupo_114811" data-name="Grupo 114811" transform="translate(187.96 215.79)" opacity="0.2">
              <g id="Grupo_114810" data-name="Grupo 114810">
                <g id="Grupo_114809" data-name="Grupo 114809" clip-path="url(#clip-path-4)">
                  <path id="Trazado_165505" data-name="Trazado 165505" d="M163.564,187.782l6.3,78.606a23.151,23.151,0,0,0,1.38,7.283,7.841,7.841,0,0,0,5.291,4.823c3.726.758,7.336-2.445,8.388-6.1s.211-7.555-.7-11.244c-1.558-6.285-3.327-12.517-5.094-18.746q-7.691-27.109-15.384-54.219" transform="translate(-163.564 -187.782)"/>
                </g>
              </g>
            </g>
            <path id="Trazado_165506" data-name="Trazado 165506" d="M104.534,317.48a15.186,15.186,0,0,0,1.748-4.173c.652-2.834.244-7.224-1.955-11.98-1.085-2.373-2.612-4.839-4.152-7.559a32.905,32.905,0,0,1-3.891-9.285,22.109,22.109,0,0,1,.814-11.119c1.126-3.706,2.806-7.3,4.16-11.07a33.1,33.1,0,0,0,.573-21.977,32.307,32.307,0,0,0-4.355-8.72,33.811,33.811,0,0,0-5.81-6.233,34.378,34.378,0,0,0-10.791-6.018c-2.791-.935-4.421-1.187-4.4-1.3a4.528,4.528,0,0,1,1.193.106,24.773,24.773,0,0,1,3.347.748,32.75,32.75,0,0,1,11.182,5.8,33.882,33.882,0,0,1,6.082,6.31,32.847,32.847,0,0,1,4.6,8.958,33.8,33.8,0,0,1-.5,22.724c-1.382,3.839-3.059,7.414-4.166,11.009a21.144,21.144,0,0,0-.855,10.555,32.462,32.462,0,0,0,3.678,9.024c1.49,2.722,2.988,5.226,4.058,7.7,2.16,4.928,2.457,9.512,1.635,12.432a10.947,10.947,0,0,1-1.417,3.152,4.3,4.3,0,0,1-.785.911" transform="translate(11.406 32.519)" fill="#fafafa"/>
            <path id="Trazado_165507" data-name="Trazado 165507" d="M200.453,142.1a6.438,6.438,0,0,1-1.115,2.289,16.753,16.753,0,0,1-4.99,4.841,21.248,21.248,0,0,1-9.8,3.239,32.414,32.414,0,0,1-12.517-1.6,26.1,26.1,0,0,1-10.924-6.34,16.238,16.238,0,0,1-3.185-4.6,15.093,15.093,0,0,1-1.238-4.712,11.977,11.977,0,0,1,1.277-6.84,6.728,6.728,0,0,1,.583-.932,4.073,4.073,0,0,1,.5-.629c.3-.319.463-.47.494-.444.088.07-.51.758-1.157,2.21a12.292,12.292,0,0,0-.855,6.541,14.752,14.752,0,0,0,1.3,4.387,15.587,15.587,0,0,0,3.071,4.243,25.76,25.76,0,0,0,10.5,5.977,32.608,32.608,0,0,0,12.067,1.636,21.17,21.17,0,0,0,9.437-2.86,18.1,18.1,0,0,0,5.057-4.393c.984-1.263,1.4-2.063,1.493-2.017" transform="translate(23.361 18.849)" fill="#fafafa"/>
            <path id="Trazado_165508" data-name="Trazado 165508" d="M184.691,263.863a1.443,1.443,0,0,1-.122-.322c-.077-.248-.176-.565-.3-.964-.262-.889-.627-2.134-1.093-3.717-.935-3.277-2.268-7.949-3.912-13.7-3.258-11.624-7.738-27.614-12.689-45.278-2.452-8.847-4.789-17.277-6.916-24.948a86.2,86.2,0,0,1-2.448-11.055,33.926,33.926,0,0,1-.03-9.874,21.257,21.257,0,0,1,6.5-12.505,15.856,15.856,0,0,1,3.227-2.17c.384-.161.691-.292.931-.394a1.568,1.568,0,0,1,.325-.114,18.024,18.024,0,0,0-4.327,2.851,21.271,21.271,0,0,0-6.238,12.4,33.8,33.8,0,0,0,.1,9.739,86.98,86.98,0,0,0,2.488,10.976c2.141,7.667,4.492,16.092,6.96,24.935,4.884,17.682,9.306,33.688,12.52,45.324,1.565,5.778,2.836,10.466,3.728,13.756l.985,3.747c.1.4.179.726.241.98a1.456,1.456,0,0,1,.063.338" transform="translate(23.392 20.705)" fill="#263238"/>
            <path id="Trazado_165509" data-name="Trazado 165509" d="M147.448,27.707a12.162,12.162,0,0,0,.01-2.459,9.592,9.592,0,0,0-3.177-5.708,12.926,12.926,0,0,0-9.15-3.022c-3.76.031-7.756,1.268-11.888,2.659-2.077.684-4.122,1.336-6.153,1.785a31.821,31.821,0,0,1-5.943.723,32.263,32.263,0,0,1-10.011-1.316,31.084,31.084,0,0,1-6.266-2.657c-.7-.39-1.226-.732-1.574-.972a2.68,2.68,0,0,1-.517-.387c.033-.053.776.434,2.2,1.154a34.554,34.554,0,0,0,6.273,2.456,32.943,32.943,0,0,0,9.877,1.172,32.039,32.039,0,0,0,5.832-.743c1.995-.449,4.02-1.1,6.094-1.782,4.124-1.388,8.2-2.64,12.07-2.641,3.835-.071,7.353,1.189,9.443,3.261a9.612,9.612,0,0,1,3.121,5.993,5.591,5.591,0,0,1-.241,2.486" transform="translate(13.838 2.381)" fill="#455a64"/>
            <path id="Trazado_165510" data-name="Trazado 165510" d="M155.745,61.216a1.6,1.6,0,0,1-.268-.427c-.162-.287-.375-.724-.631-1.3a26.092,26.092,0,0,1-1.619-5.052,27.859,27.859,0,0,1-.524-7.857,69.754,69.754,0,0,1,1.813-9.44,18.49,18.49,0,0,0,.018-9.341,9.452,9.452,0,0,0-1.947-3.539,7.115,7.115,0,0,0-2.92-1.914,6.669,6.669,0,0,0-5.016.128,9.667,9.667,0,0,0-1.561,1.093,3.878,3.878,0,0,1,1.454-1.3,6.748,6.748,0,0,1,5.259-.322,7.442,7.442,0,0,1,3.151,1.982,9.82,9.82,0,0,1,2.106,3.707,18.715,18.715,0,0,1,.041,9.628,75.152,75.152,0,0,0-1.85,9.366,28.774,28.774,0,0,0,.39,7.728,30.46,30.46,0,0,0,1.419,5.046,18.854,18.854,0,0,1,.684,1.811" transform="translate(21.342 3.218)" fill="#455a64"/>
            <path id="Trazado_165511" data-name="Trazado 165511" d="M149.68,27.721a4.28,4.28,0,0,1,.008-.816c.023-.593.052-1.366.087-2.33a27.017,27.017,0,0,0-.939-8.441,14.892,14.892,0,0,0-2.715-5.126,10.492,10.492,0,0,0-5.448-3.6,13.767,13.767,0,0,0-7.273.3,33.634,33.634,0,0,0-7.273,3.3,60.039,60.039,0,0,1-7.211,3.711,22.054,22.054,0,0,1-7.433,1.492,23.421,23.421,0,0,1-6.806-.835,26.384,26.384,0,0,1-5.523-2.275,22.555,22.555,0,0,1-6.538-5.581A14.126,14.126,0,0,1,91.29,5.581a4.241,4.241,0,0,1-.393-.715,4.2,4.2,0,0,1,.5.65,17.78,17.78,0,0,0,1.4,1.85,23.392,23.392,0,0,0,6.564,5.357,26.316,26.316,0,0,0,5.445,2.166,23.235,23.235,0,0,0,6.663.764,21.7,21.7,0,0,0,7.23-1.486,61.042,61.042,0,0,0,7.135-3.688,33.826,33.826,0,0,1,7.406-3.339,14.26,14.26,0,0,1,7.575-.267,10.964,10.964,0,0,1,5.691,3.819,15.192,15.192,0,0,1,2.736,5.321,25.839,25.839,0,0,1,.766,8.57c-.06,1.015-.139,1.8-.2,2.33a4.04,4.04,0,0,1-.129.807" transform="translate(13.557 0.726)" fill="#455a64"/>
            <path id="Trazado_165512" data-name="Trazado 165512" d="M115.979,277.455l85.937-12.818-1.388-7.643h46.253l1.355,11.758a35.56,35.56,0,0,1-34.56,42.271L113.345,309.91Z" transform="translate(16.905 38.331)" fill="#b78876"/>
            <path id="Trazado_165513" data-name="Trazado 165513" d="M129.086,277.162c-.46.153-6.248-2.442-11.434-4.841a37.4,37.4,0,0,0-17.6-3.412l-23.893,1.215s1.476,3.943,4.009,5.344,17.388,1.7,17.388,1.7l-.761.783a17.186,17.186,0,0,1-11.893,5.2l-2.283.057a22.272,22.272,0,0,1-4.986-.976l-5.893-2.381c-1.783-.8-3.668-.673-4.443,1.123-.7,1.625-.187,3.862,4.677,6.313,2.72,1.37,12.8,4.856,12.8,4.856a24.355,24.355,0,0,0,.587,4.255c.44,1.467,4.4,2.935,4.4,2.935a52.251,52.251,0,0,0,3.522,6.31c.46.526,4.047,1.643,7.866,2.714a33.834,33.834,0,0,0,18.827-.142l9.106-2.718V277.768" transform="translate(9.999 40.101)" fill="#b78876"/>
            <path id="Trazado_165514" data-name="Trazado 165514" d="M94.157,292.268a19.445,19.445,0,0,1-6.212-.885A19.419,19.419,0,0,1,82.1,289.1c.068-.162,2.675.841,6,1.708s6.081,1.289,6.061,1.464" transform="translate(12.245 43.116)" fill="#aa6550"/>
            <path id="Trazado_165515" data-name="Trazado 165515" d="M92.689,296.951a6.13,6.13,0,0,1-3.36-.244,6.145,6.145,0,0,1-3.022-1.49,22.03,22.03,0,0,1,3.179.912,22.235,22.235,0,0,1,3.2.822" transform="translate(12.872 44.028)" fill="#aa6550"/>
            <path id="Trazado_165516" data-name="Trazado 165516" d="M213.131,283.742c-.109.04-.68-1.662-2.058-4.179a33.609,33.609,0,0,0-2.751-4.208,33.305,33.305,0,0,0-9.112-8.18,33.619,33.619,0,0,0-4.479-2.283c-2.651-1.1-4.4-1.482-4.376-1.6a5.077,5.077,0,0,1,1.243.206,12.042,12.042,0,0,1,1.431.373c.549.175,1.187.342,1.858.624a29.791,29.791,0,0,1,4.607,2.2,31.376,31.376,0,0,1,9.268,8.319,29.978,29.978,0,0,1,2.686,4.344c.352.637.588,1.253.82,1.78a12.474,12.474,0,0,1,.525,1.382,5.084,5.084,0,0,1,.338,1.215" transform="translate(28.391 39.269)" fill="#aa6550"/>
            <path id="Trazado_165517" data-name="Trazado 165517" d="M97.714,274.216a10.559,10.559,0,0,1-1.846,1.971,29.691,29.691,0,0,1-5.206,3.942,20.693,20.693,0,0,1-6.1,2.355,8.74,8.74,0,0,1-2.69.292c-.056-.218,4.142-.6,8.491-3.165a40.631,40.631,0,0,0,5.226-3.742,14.134,14.134,0,0,1,2.125-1.652" transform="translate(12.211 40.899)" fill="#aa6550"/>
          </g>
        </g>
      </g>
    </g>
    <path id="Trazado_166481" data-name="Trazado 166481" d="M31.469,15H29.125V3.625h2.344Zm4.1-8.453.07.977a2.951,2.951,0,0,1,2.43-1.133,2.453,2.453,0,0,1,2,.789,3.682,3.682,0,0,1,.672,2.359V15H38.484V9.581a1.47,1.47,0,0,0-.312-1.045,1.4,1.4,0,0,0-1.039-.325,1.553,1.553,0,0,0-1.43.814V15H33.445V6.547ZM42.1,10.711a5.094,5.094,0,0,1,.887-3.148,2.877,2.877,0,0,1,2.426-1.172,2.589,2.589,0,0,1,2.039.922V3h2.266V15H47.68l-.109-.9A2.657,2.657,0,0,1,45.4,15.156,2.869,2.869,0,0,1,43,13.98,5.258,5.258,0,0,1,42.1,10.711Zm2.258.161a3.355,3.355,0,0,0,.414,1.829,1.348,1.348,0,0,0,1.2.636,1.51,1.51,0,0,0,1.477-.887V9.1a1.489,1.489,0,0,0-1.461-.887Q44.359,8.211,44.359,10.872ZM53.852,15H51.586V6.547h2.266Zm-2.4-10.641a1.112,1.112,0,0,1,.34-.836,1.465,1.465,0,0,1,1.848,0,1.105,1.105,0,0,1,.344.836,1.108,1.108,0,0,1-.348.844,1.448,1.448,0,0,1-1.836,0A1.108,1.108,0,0,1,51.453,4.359Zm7.773,8.977a1.481,1.481,0,0,0,1.016-.344,1.2,1.2,0,0,0,.406-.914h2.117a2.9,2.9,0,0,1-.469,1.574,3.093,3.093,0,0,1-1.262,1.109,3.949,3.949,0,0,1-1.77.395A3.67,3.67,0,0,1,56.406,14a4.56,4.56,0,0,1-1.047-3.184v-.148A4.508,4.508,0,0,1,56.4,7.555,3.627,3.627,0,0,1,59.25,6.391a3.555,3.555,0,0,1,2.543.9,3.2,3.2,0,0,1,.973,2.4H60.648a1.551,1.551,0,0,0-.406-1.072,1.51,1.51,0,0,0-2.223.163,3.333,3.333,0,0,0-.4,1.866v.235a3.375,3.375,0,0,0,.4,1.878A1.377,1.377,0,0,0,59.227,13.336ZM68.953,15a2.507,2.507,0,0,1-.227-.758,2.732,2.732,0,0,1-2.133.914,3,3,0,0,1-2.059-.719,2.312,2.312,0,0,1-.816-1.812,2.389,2.389,0,0,1,1-2.062,4.915,4.915,0,0,1,2.879-.727h1.039V9.352a1.393,1.393,0,0,0-.3-.937,1.183,1.183,0,0,0-.949-.352,1.345,1.345,0,0,0-.895.273.929.929,0,0,0-.324.75H63.906a2.268,2.268,0,0,1,.453-1.359,3,3,0,0,1,1.281-.98A4.669,4.669,0,0,1,67.5,6.391a3.689,3.689,0,0,1,2.48.785A2.747,2.747,0,0,1,70.9,9.383v3.664a4.041,4.041,0,0,0,.336,1.82V15Zm-1.867-1.57a1.945,1.945,0,0,0,.922-.223,1.462,1.462,0,0,0,.625-.6V11.156h-.844q-1.7,0-1.8,1.172l-.008.133a.9.9,0,0,0,.3.7A1.153,1.153,0,0,0,67.086,13.43Zm5.2-2.719a5.094,5.094,0,0,1,.887-3.148,2.877,2.877,0,0,1,2.426-1.172,2.589,2.589,0,0,1,2.039.922V3H79.9V15H77.859l-.109-.9a2.657,2.657,0,0,1-2.172,1.055,2.869,2.869,0,0,1-2.395-1.176A5.258,5.258,0,0,1,72.281,10.711Zm2.258.161a3.355,3.355,0,0,0,.414,1.829,1.348,1.348,0,0,0,1.2.636,1.51,1.51,0,0,0,1.477-.887V9.1a1.489,1.489,0,0,0-1.461-.887Q74.539,8.211,74.539,10.872ZM81.3,10.7a5.013,5.013,0,0,1,.484-2.242A3.546,3.546,0,0,1,83.176,6.93a4.069,4.069,0,0,1,2.113-.539,3.849,3.849,0,0,1,2.793,1.047,4.2,4.2,0,0,1,1.207,2.844l.016.578a4.418,4.418,0,0,1-1.086,3.121,4.209,4.209,0,0,1-5.832,0A4.5,4.5,0,0,1,81.3,10.8Zm2.258.16a3.16,3.16,0,0,0,.453,1.843,1.628,1.628,0,0,0,2.578.008,3.457,3.457,0,0,0,.461-2.015,3.128,3.128,0,0,0-.461-1.831,1.5,1.5,0,0,0-1.3-.649,1.474,1.474,0,0,0-1.281.646A3.516,3.516,0,0,0,83.555,10.856ZM95.445,8.664a6.134,6.134,0,0,0-.812-.062,1.654,1.654,0,0,0-1.68.867V15H90.7V6.547h2.133l.063,1.008a2.092,2.092,0,0,1,1.883-1.164,2.366,2.366,0,0,1,.7.1ZM100.664,15V3.625h3.984a5.232,5.232,0,0,1,3.141.793,2.712,2.712,0,0,1,1.07,2.324,2.57,2.57,0,0,1-.43,1.473,2.482,2.482,0,0,1-1.2.934,2.4,2.4,0,0,1,1.379.883,2.61,2.61,0,0,1,.5,1.625,3,3,0,0,1-1.047,2.484,4.713,4.713,0,0,1-2.984.859Zm2.344-4.953v3.07h2.008a1.938,1.938,0,0,0,1.293-.395,1.353,1.353,0,0,0,.465-1.09,1.428,1.428,0,0,0-1.617-1.586Zm0-1.656h1.734q1.773-.031,1.773-1.414a1.307,1.307,0,0,0-.449-1.113,2.363,2.363,0,0,0-1.418-.34h-1.641ZM116.117,15h-2.258V6.285l-2.7.832V5.3l4.711-1.687h.242ZM31.469,39H29.125V27.625h2.344Zm4.1-8.453.07.977a2.951,2.951,0,0,1,2.43-1.133,2.453,2.453,0,0,1,2,.789,3.682,3.682,0,0,1,.672,2.359V39H38.484V33.581a1.47,1.47,0,0,0-.312-1.045,1.4,1.4,0,0,0-1.039-.325,1.553,1.553,0,0,0-1.43.814V39H33.445V30.547ZM42.1,34.711a5.094,5.094,0,0,1,.887-3.148,2.877,2.877,0,0,1,2.426-1.172,2.589,2.589,0,0,1,2.039.922V27h2.266V39H47.68l-.109-.9A2.657,2.657,0,0,1,45.4,39.156,2.869,2.869,0,0,1,43,37.98,5.258,5.258,0,0,1,42.1,34.711Zm2.258.161a3.355,3.355,0,0,0,.414,1.829,1.348,1.348,0,0,0,1.2.636,1.51,1.51,0,0,0,1.477-.887V33.1a1.489,1.489,0,0,0-1.461-.887Q44.359,32.211,44.359,34.872ZM53.852,39H51.586V30.547h2.266Zm-2.4-10.641a1.112,1.112,0,0,1,.34-.836,1.465,1.465,0,0,1,1.848,0,1.193,1.193,0,0,1,0,1.68,1.448,1.448,0,0,1-1.836,0A1.108,1.108,0,0,1,51.453,28.359Zm7.773,8.977a1.481,1.481,0,0,0,1.016-.344,1.2,1.2,0,0,0,.406-.914h2.117a2.9,2.9,0,0,1-.469,1.574,3.093,3.093,0,0,1-1.262,1.109,3.949,3.949,0,0,1-1.77.395A3.67,3.67,0,0,1,56.406,38a4.56,4.56,0,0,1-1.047-3.184v-.148A4.508,4.508,0,0,1,56.4,31.555a3.627,3.627,0,0,1,2.852-1.164,3.555,3.555,0,0,1,2.543.9,3.2,3.2,0,0,1,.973,2.4H60.648a1.551,1.551,0,0,0-.406-1.072,1.51,1.51,0,0,0-2.223.163,3.333,3.333,0,0,0-.4,1.866v.235a3.375,3.375,0,0,0,.4,1.878A1.377,1.377,0,0,0,59.227,37.336ZM68.953,39a2.507,2.507,0,0,1-.227-.758,2.732,2.732,0,0,1-2.133.914,3,3,0,0,1-2.059-.719,2.312,2.312,0,0,1-.816-1.812,2.389,2.389,0,0,1,1-2.062,4.915,4.915,0,0,1,2.879-.727h1.039v-.484a1.393,1.393,0,0,0-.3-.937,1.183,1.183,0,0,0-.949-.352,1.345,1.345,0,0,0-.895.273.929.929,0,0,0-.324.75H63.906a2.268,2.268,0,0,1,.453-1.359,3,3,0,0,1,1.281-.98,4.669,4.669,0,0,1,1.859-.355,3.689,3.689,0,0,1,2.48.785,2.747,2.747,0,0,1,.918,2.207v3.664a4.041,4.041,0,0,0,.336,1.82V39Zm-1.867-1.57a1.945,1.945,0,0,0,.922-.223,1.462,1.462,0,0,0,.625-.6V35.156h-.844q-1.7,0-1.8,1.172l-.008.133a.9.9,0,0,0,.3.7A1.153,1.153,0,0,0,67.086,37.43Zm5.2-2.719a5.094,5.094,0,0,1,.887-3.148,2.877,2.877,0,0,1,2.426-1.172,2.589,2.589,0,0,1,2.039.922V27H79.9V39H77.859l-.109-.9a2.657,2.657,0,0,1-2.172,1.055,2.869,2.869,0,0,1-2.395-1.176A5.258,5.258,0,0,1,72.281,34.711Zm2.258.161a3.355,3.355,0,0,0,.414,1.829,1.348,1.348,0,0,0,1.2.636,1.51,1.51,0,0,0,1.477-.887V33.1a1.489,1.489,0,0,0-1.461-.887Q74.539,32.211,74.539,34.872ZM81.3,34.7a5.013,5.013,0,0,1,.484-2.242,3.546,3.546,0,0,1,1.395-1.523,4.069,4.069,0,0,1,2.113-.539,3.849,3.849,0,0,1,2.793,1.047,4.2,4.2,0,0,1,1.207,2.844l.016.578a4.418,4.418,0,0,1-1.086,3.121,4.209,4.209,0,0,1-5.832,0A4.5,4.5,0,0,1,81.3,34.8Zm2.258.16a3.16,3.16,0,0,0,.453,1.843,1.628,1.628,0,0,0,2.578.008,3.457,3.457,0,0,0,.461-2.015,3.128,3.128,0,0,0-.461-1.831,1.5,1.5,0,0,0-1.3-.649,1.474,1.474,0,0,0-1.281.646A3.516,3.516,0,0,0,83.555,34.856Zm11.891-2.192a6.134,6.134,0,0,0-.812-.062,1.654,1.654,0,0,0-1.68.867V39H90.7V30.547h2.133l.063,1.008a2.092,2.092,0,0,1,1.883-1.164,2.366,2.366,0,0,1,.7.1ZM100.664,39V27.625h3.984a5.232,5.232,0,0,1,3.141.793,2.712,2.712,0,0,1,1.07,2.324,2.57,2.57,0,0,1-.43,1.473,2.482,2.482,0,0,1-1.2.934,2.4,2.4,0,0,1,1.379.883,2.61,2.61,0,0,1,.5,1.625,3,3,0,0,1-1.047,2.484,4.713,4.713,0,0,1-2.984.859Zm2.344-4.953v3.07h2.008a1.938,1.938,0,0,0,1.293-.395,1.353,1.353,0,0,0,.465-1.09,1.428,1.428,0,0,0-1.617-1.586Zm0-1.656h1.734q1.773-.031,1.773-1.414a1.307,1.307,0,0,0-.449-1.113,2.363,2.363,0,0,0-1.418-.34h-1.641ZM118.43,39h-7.8V37.453l3.68-3.922a9.078,9.078,0,0,0,1.121-1.445,2.322,2.322,0,0,0,.363-1.172,1.738,1.738,0,0,0-.383-1.191,1.382,1.382,0,0,0-1.094-.434,1.49,1.49,0,0,0-1.207.527,2.089,2.089,0,0,0-.441,1.387h-2.266a3.729,3.729,0,0,1,.5-1.9,3.5,3.5,0,0,1,1.4-1.348,4.262,4.262,0,0,1,2.055-.488,4.036,4.036,0,0,1,2.73.844,2.985,2.985,0,0,1,.973,2.383,3.825,3.825,0,0,1-.437,1.719,9.551,9.551,0,0,1-1.5,2.039l-2.586,2.727h4.891Z" transform="translate(853 1091.758)" fill="#fff"/>
    <path id="Trazado_166480" data-name="Trazado 166480" d="M31.592,11.642h-6.4V29H20.049V11.642H13.765V7.672H31.592ZM39.9,29.293a8.148,8.148,0,0,1-5.9-2.175,7.512,7.512,0,0,1-2.256-5.662v-.41a9.734,9.734,0,0,1,.9-4.292,6.592,6.592,0,0,1,2.629-2.878,7.938,7.938,0,0,1,4.1-1.018,6.861,6.861,0,0,1,5.273,2.073,8.145,8.145,0,0,1,1.934,5.779v1.919H36.763a3.558,3.558,0,0,0,1.157,2.095,3.443,3.443,0,0,0,2.314.762A4.437,4.437,0,0,0,43.9,23.844l2.256,2.666a6.306,6.306,0,0,1-2.615,2.029A8.836,8.836,0,0,1,39.9,29.293Zm-.557-12.627q-2.168,0-2.578,2.871h4.98v-.381a2.445,2.445,0,0,0-.6-1.838A2.39,2.39,0,0,0,39.341,16.666ZM53.228,13.15l.161,1.86a5.45,5.45,0,0,1,4.526-2.153,4.012,4.012,0,0,1,4.058,2.388,5.275,5.275,0,0,1,4.658-2.388q4.819,0,4.951,5.83V29H66.631V19a3.022,3.022,0,0,0-.41-1.772,1.746,1.746,0,0,0-1.494-.557,2.339,2.339,0,0,0-2.183,1.3l.015.205V29H57.608V19.024a3.176,3.176,0,0,0-.4-1.8,1.741,1.741,0,0,0-1.509-.557,2.367,2.367,0,0,0-2.168,1.3V29H48.6V13.15ZM83.331,29a5.574,5.574,0,0,1-.469-1.421,4.59,4.59,0,0,1-3.809,1.714,5.623,5.623,0,0,1-3.809-1.355,4.313,4.313,0,0,1-1.567-3.406,4.433,4.433,0,0,1,1.9-3.9,9.7,9.7,0,0,1,5.537-1.318h1.523v-.839q0-2.193-1.89-2.193a1.545,1.545,0,0,0-1.758,1.737H74.058a4.425,4.425,0,0,1,1.956-3.731A8.218,8.218,0,0,1,81,12.857a7.205,7.205,0,0,1,4.79,1.479,5.144,5.144,0,0,1,1.8,4.058v7.017a7.186,7.186,0,0,0,.674,3.34V29ZM80.24,25.777a2.754,2.754,0,0,0,1.531-.4,2.479,2.479,0,0,0,.872-.894V21.954H81.207q-2.578,0-2.578,2.314a1.413,1.413,0,0,0,.454,1.091A1.643,1.643,0,0,0,80.24,25.777ZM98.023,29V7.672h7.661a10.849,10.849,0,0,1,6.262,1.509,5.02,5.02,0,0,1,2.146,4.38,5.075,5.075,0,0,1-.762,2.827,4.439,4.439,0,0,1-2.241,1.729,4.5,4.5,0,0,1,2.563,1.641,4.77,4.77,0,0,1,.894,2.93,5.647,5.647,0,0,1-1.985,4.709A9.446,9.446,0,0,1,106.68,29Zm5.142-9.067v5.112h3.369a3.2,3.2,0,0,0,2.139-.637,2.23,2.23,0,0,0,.747-1.794,2.364,2.364,0,0,0-2.651-2.681Zm0-3.369h2.681a3.808,3.808,0,0,0,2.4-.617,2.189,2.189,0,0,0,.718-1.778,2.3,2.3,0,0,0-.776-1.947,4.156,4.156,0,0,0-2.5-.595h-2.52Z" transform="translate(862 1052.758)" fill="#fcf300"/>
  </g>
</svg>
