<svg id="Grupo_114844" data-name="Grupo 114844" xmlns="http://www.w3.org/2000/svg" xmlns:xlink="http://www.w3.org/1999/xlink" width="96.146" height="120" viewBox="0 0 96.146 120">
  <defs>
    <clipPath id="clip-path">
      <rect id="Rectángulo_37655" data-name="Rectángulo 37655" width="96.146" height="120" fill="#014136"/>
    </clipPath>
  </defs>
  <g id="Grupo_114843" data-name="Grupo 114843" clip-path="url(#clip-path)">
    <path id="Trazado_165582" data-name="Trazado 165582" d="M46.432,120c-5.348-2.288-9.724-6.108-14.51-9.274a176.622,176.622,0,0,1-14.7-10.207C6.2,91.5.372,79.751.139,65.541-.124,49.46.065,33.371.078,17.286c0-3.687,2.523-6.107,6.3-6.248,10.752-.4,21.241-2.123,31.229-6.311a50.758,50.758,0,0,0,7.159-3.691A5.736,5.736,0,0,1,51.179.928c7.172,4.423,15.042,6.911,23.253,8.463a101.173,101.173,0,0,0,15.462,1.647,6.027,6.027,0,0,1,6.182,6.36c.009,15.851.179,31.7-.048,47.552-.228,15.894-7,28.558-20,37.742-7.516,5.309-15.2,10.384-22.784,15.593A16.662,16.662,0,0,1,49.478,120ZM92.084,43.062q0-12.708,0-25.415c0-1.757-.68-2.552-2.29-2.6a102.6,102.6,0,0,1-14.428-1.431C66.235,12.043,57.458,9.443,49.5,4.547a2.427,2.427,0,0,0-2.915.054,41.089,41.089,0,0,1-5.45,2.936C30.321,12.481,18.866,14.5,7.085,15.012c-2.495.108-3.025.593-3.025,3.063q0,22.6.006,45.208c0,1.482.034,2.968.153,4.444C5.235,80.28,10.615,90.6,20.7,98.11c7.879,5.864,16.171,11.174,24.283,16.724,2.292,1.568,3.913,1.554,6.24-.032,7.284-4.965,14.584-9.908,21.845-14.907,12.6-8.675,18.9-20.713,19.006-35.986.049-6.949.008-13.9.008-20.847" transform="translate(0 0)"/>
    <path id="Trazado_165583" data-name="Trazado 165583" d="M100.987,52.025c0,6.949.041,13.9-.008,20.848-.108,15.273-6.405,27.31-19.006,35.985-7.261,5-14.561,9.942-21.845,14.908-2.327,1.586-3.949,1.6-6.24.032-8.112-5.55-16.4-10.86-24.283-16.725C19.518,99.565,14.138,89.243,13.123,76.69c-.119-1.476-.152-2.962-.153-4.444q-.016-22.6-.006-45.208c0-2.47.53-2.955,3.025-3.063a97.16,97.16,0,0,0,26.9-4.65A73.191,73.191,0,0,0,50.033,16.5a41.094,41.094,0,0,0,5.451-2.936A2.427,2.427,0,0,1,58.4,13.51c7.962,4.9,16.739,7.5,25.867,9.07a102.69,102.69,0,0,0,14.428,1.431c1.61.048,2.289.842,2.291,2.6q.008,12.708,0,25.415M18.995,39.019v3.92c-1.6.417-2.029.958-2.03,2.643-.006,6.091-.027,12.181.006,18.271.023,4.176-.194,8.357.137,12.526C18,87.7,22.862,97.023,31.92,103.813c7.2,5.4,14.821,10.246,22.26,15.331,2.173,1.485,3.487,1.465,5.675-.028,4.383-2.989,8.788-5.946,13.143-8.976,3.681-2.56,7.594-4.812,10.948-7.812a37.51,37.51,0,0,0,13.021-28.84c.085-13.7.02-27.406.02-41.11,0-.078,0-.156,0-.234a4.108,4.108,0,0,0-4.114-4.44c-3.069-.277-6.129-.625-9.169-1.137a77.43,77.43,0,0,1-23.931-7.682,5.034,5.034,0,0,0-5.6.036,14.419,14.419,0,0,1-1.663.853c-9.98,4.8-20.616,7-31.568,7.941a4.064,4.064,0,0,0-3.972,4.213c-.033,1.522-.018,3.045,0,4.567.015,1.574.478,2.134,2.029,2.523" transform="translate(-8.903 -8.963)" fill="#014136"/>
    <path id="Trazado_165584" data-name="Trazado 165584" d="M32.227,63.016V59.1c1.538-.383,1.922-.863,1.946-2.435q.029-1.932.051-3.864c.006-.66.191-1.016.985-1.089,2.326-.212,4.647-.507,6.96-.835a83.325,83.325,0,0,0,27.023-8.3,1.945,1.945,0,0,1,2.05,0,73.647,73.647,0,0,0,15.581,5.973A97.918,97.918,0,0,0,104.532,51.6c1.71.131,1.708.152,1.708,1.812q0,19.562-.015,39.125a40.931,40.931,0,0,1-.378,5.948,32.963,32.963,0,0,1-13.743,22.8c-6.942,4.98-14.1,9.665-21.126,14.521-.742.512-1.182.226-1.752-.163q-9.9-6.773-19.819-13.531a34.451,34.451,0,0,1-11.99-13.934C34.871,102.8,34.127,97.1,34.16,91.224c.047-8.551.014-17.1.01-25.653,0-1.689-.368-2.156-1.943-2.555m38.086,56.031a31.992,31.992,0,1,0-32.086-32.07,31.847,31.847,0,0,0,32.086,32.07" transform="translate(-22.134 -29.04)" fill="#fffb8b"/>
    <path id="Trazado_165585" data-name="Trazado 165585" d="M27.681,53.912c1.575.4,1.942.866,1.943,2.555,0,8.551.038,17.1-.01,25.653-.033,5.878.711,11.574,3.258,16.958a34.451,34.451,0,0,0,11.99,13.934q9.911,6.764,19.819,13.531c.57.39,1.01.676,1.752.163,7.031-4.856,14.185-9.541,21.126-14.521a32.962,32.962,0,0,0,13.743-22.8,40.932,40.932,0,0,0,.378-5.948q.044-19.562.015-39.124c0-1.661,0-1.681-1.708-1.812a97.891,97.891,0,0,1-17.711-3.055A73.654,73.654,0,0,1,66.695,33.47a1.945,1.945,0,0,0-2.05,0,83.317,83.317,0,0,1-27.023,8.3c-2.313.328-4.634.623-6.96.835-.794.073-.979.429-.985,1.089q-.019,1.932-.051,3.864c-.023,1.572-.408,2.051-1.946,2.435-1.551-.389-2.014-.949-2.029-2.523-.014-1.522-.029-3.046,0-4.567a4.064,4.064,0,0,1,3.973-4.213c10.952-.939,21.588-3.139,31.568-7.941a14.394,14.394,0,0,0,1.663-.853,5.034,5.034,0,0,1,5.6-.036A77.437,77.437,0,0,0,92.389,37.54c3.04.512,6.1.859,9.169,1.137a4.108,4.108,0,0,1,4.115,4.44c0,.078,0,.156,0,.234,0,13.7.064,27.407-.02,41.11A37.509,37.509,0,0,1,92.632,113.3c-3.354,3-7.268,5.252-10.948,7.812-4.355,3.029-8.76,5.986-13.143,8.976-2.188,1.492-3.5,1.513-5.675.028-7.439-5.084-15.057-9.931-22.26-15.331C31.547,108,26.69,98.672,25.792,87.353c-.33-4.17-.114-8.351-.137-12.527-.033-6.09-.012-12.18-.006-18.271,0-1.685.431-2.226,2.03-2.643" transform="translate(-17.588 -19.936)"/>
    <path id="Trazado_165586" data-name="Trazado 165586" d="M83.476,147.085a31.992,31.992,0,1,1,31.871-31.922,31.9,31.9,0,0,1-31.871,31.922m26.3-41c-.459.685-.825,1.191-1.147,1.721a6.233,6.233,0,0,1-6.041,3.259,4.851,4.851,0,0,0-1.744.124,1.946,1.946,0,0,0-1.472,2.009,1.9,1.9,0,0,0,1.8,1.832c.426.048.859.037,1.282.094a3.933,3.933,0,0,1,3.217,5.782q-2.694,5.583-5.552,11.087a5.67,5.67,0,0,1-10.713-2.671c-.026-1.991-.007-3.982-.007-5.973,0-2.223,0-2.223-2.251-2.275a7.981,7.981,0,0,1,.016-15.957c.78-.018,1.566.038,2.341-.036a2,2,0,0,0,1.836-2.061,1.909,1.909,0,0,0-1.97-1.892c-.545-.029-1.093,0-1.639-.012-3.563-.048-5.414-3.153-3.7-6.257q1.779-3.228,3.658-6.4c.421-.707.36-1.013-.485-1.1a43.539,43.539,0,0,0-4.787-.271c-.909.009-1.131.367-1.089,1.2.058,1.129.03,2.264.01,3.4a3.92,3.92,0,0,1-2.959,4.126c-.955.339-1.926.632-2.879.975a4.152,4.152,0,0,1-4.7-1.116q-1.48-1.5-2.98-2.983c-.2-.2-.373-.582-.76-.3a23.627,23.627,0,0,0-5.03,4.732c1.235,0,2.239.005,3.242,0A3.773,3.773,0,0,1,68.9,99.253a3.874,3.874,0,0,1-.379,4.3c-.665.915-1.338,1.826-2.038,2.715a5.3,5.3,0,0,0-1.146,3.124,5.844,5.844,0,0,1-5.745,5.651,25.63,25.63,0,0,1-3.043,0c-.981-.079-1.17.329-1.13,1.211a27.167,27.167,0,0,0,1.145,6.785c.683,2.224.685,2.221,2.305.619,2.44-2.414,5.325-3.277,8.57-2.069,2.918,1.087,5.76,2.387,8.6,3.682a5.173,5.173,0,0,1,3.15,4.1c.408,3.07.477,6.148-.831,9.079a11.156,11.156,0,0,0-.9,2.765c-.151.925.075,1.283,1.047,1.441a29.9,29.9,0,0,0,9.546.024,27.977,27.977,0,0,0,23.153-30.543,22.717,22.717,0,0,0-1.42-6.048M93.4,125.236h.005c0,1.367.006,2.734,0,4.1a1.586,1.586,0,0,0,1.323,1.692c1.071.247,1.651-.424,2.084-1.293q2.3-4.608,4.61-9.209c.667-1.332.665-1.334-.872-1.527a5.948,5.948,0,0,1-2.764-10.689,6.113,6.113,0,0,1,4.292-1.229,3.273,3.273,0,0,0,3.526-1.9,24.778,24.778,0,0,1,1.811-2.73,1.268,1.268,0,0,0,.046-1.6A28.224,28.224,0,0,0,93.193,88.9c-.83-.32-1.174-.063-1.552.63-1.063,1.953-2.18,3.877-3.292,5.8-1.021,1.766-1.03,1.76,1.024,1.8a5.952,5.952,0,0,1,5.933,5.1,6.043,6.043,0,0,1-4.707,6.715,17.6,17.6,0,0,1-3.381.165,3.982,3.982,0,0,0-1.1,7.768,8.931,8.931,0,0,0,2.9.2A4.1,4.1,0,0,1,93.4,121.37c.03,1.288.005,2.577.005,3.866M75.385,132.7c0-.813,0-1.359,0-1.905a2.051,2.051,0,0,0-1.289-2.041c-2.68-1.16-5.355-2.332-8.06-3.429a3.686,3.686,0,0,0-4.01.845c-.844.749-1.6,1.6-2.418,2.377a.741.741,0,0,0-.116,1.105A28.216,28.216,0,0,0,72.8,140.981c.484.2.684.144.731-.432a8.354,8.354,0,0,1,.813-2.909,9.389,9.389,0,0,0,1.038-4.939M62.138,101.128a12.622,12.622,0,0,1-1.749-.015,1.633,1.633,0,0,0-1.867,1.134,30.593,30.593,0,0,0-2.268,5.983c-.724,2.815-.7,2.822,2.155,2.82.233,0,.467,0,.7,0,1.531-.038,2.16-.657,2.253-2.2a8.1,8.1,0,0,1,1.68-4.637c.5-.643,1-1.291,1.461-1.966.2-.3.693-.568.478-.97-.17-.317-.64-.128-.975-.14-.622-.023-1.245-.006-1.868-.006M77.327,89.9a8.444,8.444,0,0,1,.007-1.05c.106-.845-.162-1.135-1.014-.822-.91.334-1.856.571-2.765.908-2.746,1.018-2.7.985-.754,3.065a2.04,2.04,0,0,0,2.622.624c2.287-.926,1.844-.219,1.9-2.724" transform="translate(-35.297 -57.078)"/>
    <path id="Trazado_165587" data-name="Trazado 165587" d="M118.594,114.846a22.716,22.716,0,0,1,1.419,6.048,27.976,27.976,0,0,1-23.152,30.543,29.9,29.9,0,0,1-9.546-.024c-.972-.158-1.2-.516-1.047-1.441a11.143,11.143,0,0,1,.9-2.765c1.308-2.931,1.239-6.009.831-9.079a5.173,5.173,0,0,0-3.15-4.1c-2.835-1.295-5.677-2.6-8.6-3.682-3.245-1.208-6.13-.345-8.57,2.069-1.62,1.6-1.622,1.6-2.3-.619a27.167,27.167,0,0,1-1.145-6.785c-.04-.882.15-1.29,1.13-1.211a25.636,25.636,0,0,0,3.044,0,5.845,5.845,0,0,0,5.745-5.651,5.294,5.294,0,0,1,1.146-3.124c.7-.889,1.373-1.8,2.038-2.715a3.874,3.874,0,0,0,.378-4.3,3.772,3.772,0,0,0-3.627-2.128c-1,.006-2.007,0-3.242,0a23.627,23.627,0,0,1,5.03-4.732c.387-.286.561.1.76.3q1.5,1.479,2.98,2.983a4.152,4.152,0,0,0,4.7,1.116c.953-.344,1.924-.637,2.878-.975a3.92,3.92,0,0,0,2.96-4.126c.019-1.132.049-2.267-.01-3.4-.043-.83.18-1.188,1.089-1.2a43.54,43.54,0,0,1,4.788.271c.844.085.906.391.484,1.1q-1.885,3.166-3.658,6.4c-1.71,3.1.14,6.21,3.7,6.257.547.007,1.094-.017,1.64.012a1.908,1.908,0,0,1,1.97,1.892,2,2,0,0,1-1.836,2.061c-.774.074-1.56.018-2.341.036a7.981,7.981,0,0,0-.016,15.957c2.25.052,2.25.052,2.25,2.275,0,1.991-.018,3.983.008,5.973a5.67,5.67,0,0,0,10.713,2.671q2.861-5.5,5.552-11.087a3.933,3.933,0,0,0-3.217-5.782c-.424-.057-.857-.046-1.282-.094a1.9,1.9,0,0,1-1.8-1.832,1.947,1.947,0,0,1,1.472-2.009,4.849,4.849,0,0,1,1.743-.124,6.233,6.233,0,0,0,6.04-3.259c.323-.53.689-1.036,1.148-1.721" transform="translate(-44.116 -65.835)" fill="#04d9b5"/>
    <path id="Trazado_165588" data-name="Trazado 165588" d="M163.525,137.663c0-1.289.025-2.578-.005-3.866a4.1,4.1,0,0,0-4.379-4.286,8.92,8.92,0,0,1-2.9-.2,3.982,3.982,0,0,1,1.1-7.768,17.628,17.628,0,0,0,3.381-.165,6.043,6.043,0,0,0,4.707-6.715,5.952,5.952,0,0,0-5.933-5.1c-2.054-.04-2.044-.034-1.024-1.8,1.112-1.925,2.229-3.849,3.292-5.8.378-.693.722-.95,1.552-.63a28.224,28.224,0,0,1,14.27,11.948,1.268,1.268,0,0,1-.046,1.6,24.751,24.751,0,0,0-1.811,2.73,3.274,3.274,0,0,1-3.526,1.9,6.109,6.109,0,0,0-4.292,1.229,5.948,5.948,0,0,0,2.764,10.689c1.537.193,1.539.194.872,1.527q-2.3,4.6-4.61,9.209c-.433.869-1.013,1.54-2.084,1.293a1.587,1.587,0,0,1-1.323-1.692c.008-1.367,0-2.733,0-4.1Z" transform="translate(-105.418 -69.505)" fill="#007a64"/>
    <path id="Trazado_165589" data-name="Trazado 165589" d="M92.731,224.709a9.387,9.387,0,0,1-1.038,4.938,8.364,8.364,0,0,0-.813,2.909c-.046.576-.247.636-.731.432a28.216,28.216,0,0,1-13.312-11.327.741.741,0,0,1,.116-1.105c.822-.776,1.574-1.628,2.418-2.377a3.685,3.685,0,0,1,4.01-.845c2.705,1.1,5.381,2.269,8.06,3.429a2.052,2.052,0,0,1,1.29,2.041c0,.546,0,1.092,0,1.905" transform="translate(-52.643 -149.085)" fill="#007a64"/>
    <path id="Trazado_165590" data-name="Trazado 165590" d="M71.936,140.581c.623,0,1.246-.016,1.868.007.335.012.8-.177.975.14.215.4-.274.669-.478.97-.458.675-.957,1.323-1.461,1.966a8.1,8.1,0,0,0-1.68,4.637c-.093,1.544-.722,2.163-2.253,2.2-.233.006-.467,0-.7,0-2.85,0-2.879,0-2.155-2.82A30.594,30.594,0,0,1,68.32,141.7a1.633,1.633,0,0,1,1.867-1.133,12.669,12.669,0,0,0,1.749.015" transform="translate(-45.095 -96.53)" fill="#007a64"/>
    <path id="Trazado_165591" data-name="Trazado 165591" d="M121.24,100.425c-.06,2.5.383,1.8-1.9,2.724a2.04,2.04,0,0,1-2.622-.624c-1.941-2.08-1.992-2.047.754-3.065.909-.337,1.855-.574,2.765-.908.852-.312,1.12-.023,1.014.822a8.443,8.443,0,0,0-.007,1.05" transform="translate(-79.209 -67.607)" fill="#007a64"/>
  </g>
</svg>
