<svg xmlns="http://www.w3.org/2000/svg" xmlns:xlink="http://www.w3.org/1999/xlink" width="101" height="101" viewBox="0 0 101 101">
  <defs>
    <clipPath id="clip-path">
      <rect id="Rectángulo_37662" data-name="Rectángulo 37662" width="60.575" height="56.437" fill="none"/>
    </clipPath>
  </defs>
  <g id="Grupo_114859" data-name="Grupo 114859" transform="translate(-750 -2917)">
    <g id="Elipse_4068" data-name="Elipse 4068" transform="translate(750 2917)" fill="#fff" stroke="#009e83" stroke-width="2">
      <circle cx="50.5" cy="50.5" r="50.5" stroke="none"/>
      <circle cx="50.5" cy="50.5" r="49.5" fill="none"/>
    </g>
    <g id="Grupo_114858" data-name="Grupo 114858" transform="translate(770.213 2939.223)">
      <g id="Grupo_114857" data-name="Grupo 114857" clip-path="url(#clip-path)">
        <path id="Trazado_165668" data-name="Trazado 165668" d="M51.329,55.489c-.333.866-.43.929-1.438.929q-23.414,0-46.828.019C1.711,56.44.627,56.182,0,54.884v-1.3a3.967,3.967,0,0,1,1.172-1.262c.163-.084.092-.286.092-.436q0-6.072,0-12.144c0-.153.056-.343-.093-.443A3.993,3.993,0,0,1,0,37.734v-1.3a3.672,3.672,0,0,1,1.158-1.58c.154-.1.107-.283.107-.437q0-6.2,0-12.406c0-.154.051-.34-.1-.44A3.8,3.8,0,0,1,0,19.992v-1.3a3.879,3.879,0,0,1,1.168-1.573c.151-.1.1-.288.1-.442q0-6.083,0-12.167c0-.172.049-.37-.153-.471A2.972,2.972,0,0,1,0,2.723V1.54C.216,1.408.226,1.146.361.96A2.139,2.139,0,0,1,2.16.005Q4.52-.006,6.88,0c.673,0,.911.215,1.076.916A.974.974,0,0,1,6.834,1.8c-1.5-.017-3,0-4.494-.006-.259,0-.5.054-.524.349-.022.271.2.334.431.38.642.126.822.573.821,1.176q-.012,6.83,0,13.659a1.08,1.08,0,0,1-.7,1.167.881.881,0,0,0,0,1.646,1.073,1.073,0,0,1,.7,1.163q-.012,6.889,0,13.777a1.044,1.044,0,0,1-.675,1.121.887.887,0,0,0,0,1.673,1.01,1.01,0,0,1,.671,1.063q-.007,6.918,0,13.836a.968.968,0,0,1-.845,1.1c-.238.043-.442.126-.4.4.037.256.251.328.489.327.158,0,.315,0,.473,0H34.592c.216,0,.433-.014.649-.021q1.388.012,2.776.024c.238,0,.445-.068.5-.32s-.129-.344-.325-.422a.973.973,0,0,1-.609-1.037q.011-7.006,0-14.011a1.144,1.144,0,0,1,.493-1.006.853.853,0,0,0,.027-1.51,1.18,1.18,0,0,1-.52-1.05q.01-7.065,0-14.129a1.179,1.179,0,0,1,.518-1.052.84.84,0,0,0,.024-1.472,1.226,1.226,0,0,1-.543-1.1q.012-6.976,0-13.952a.976.976,0,0,1,.606-1.039c.2-.081.371-.191.326-.424-.049-.253-.259-.318-.5-.315q-1.625.018-3.249.029c-.236-.009-.472-.026-.707-.026l-21.991,0c-.835,0-1.028-.14-1.238-.873C11.01.181,11.238,0,12.032,0Q25.1,0,38.164,0a2.041,2.041,0,0,1,1.982,1.318A1.977,1.977,0,0,1,39.7,3.654a1.034,1.034,0,0,0-.329.818c.012,2.779.019,5.557,0,8.336,0,.46.112.576.574.575,6.188-.017,12.376,0,18.565-.019a1.886,1.886,0,0,1,1.869,1.08,1.732,1.732,0,0,1-.35,2.069.755.755,0,0,0-.184.588q0,4.523-.005,9.045a1.053,1.053,0,0,0,.247.687,2.165,2.165,0,0,1,0,2.732,1.137,1.137,0,0,0-.246.749q.01,4.582,0,9.164a1.145,1.145,0,0,0,.247.748,2.148,2.148,0,0,1-.008,2.729,1.118,1.118,0,0,0-.238.75q.007,4.464,0,8.927a1.029,1.029,0,0,0,.264.737,1.7,1.7,0,0,1,.271,1.979,1.781,1.781,0,0,1-1.7,1.07c-1.123,0-2.247,0-3.37,0-.778,0-1-.177-1.21-.921.232-.733.41-.867,1.184-.869,1.113,0,2.226,0,3.338,0a1.476,1.476,0,0,1-.59-1.419q.02-5.055,0-10.11a1.2,1.2,0,0,1,.482-1.131c.3-.2.351-.516.036-.73A1.294,1.294,0,0,1,58.033,40q.013-5.144,0-10.287a1.188,1.188,0,0,1,.484-1.13c.307-.205.343-.523.033-.73a1.333,1.333,0,0,1-.517-1.294q.011-4.966,0-9.933a1.336,1.336,0,0,1,.759-1.455h-.685l-17.5-.009c-1.226,0-1.215,0-1.231,1.218a2.029,2.029,0,0,0,.452,1.444,2.521,2.521,0,0,1-.156,3.26,1.076,1.076,0,0,0-.3.785c.014,1.557.025,3.114-.005,4.67-.009.465.117.58.58.579,4.868-.018,9.736-.011,14.6-.011.918,0,1.384.316,1.373.927s-.435.877-1.346.877c-4.868,0-9.736.008-14.6-.012-.5,0-.615.142-.607.622.03,1.655.019,3.311.005,4.966a1.15,1.15,0,0,0,.3.843,2.451,2.451,0,0,1,.2,3.156,2.883,2.883,0,0,0-.507,1.963c-.01.34.1.437.435.43,1-.019,2.01-.011,3.015-.005.714,0,1.1.306,1.116.857.019.573-.4.93-1.11.936-.966.007-1.932.023-2.9-.008-.42-.013-.569.068-.564.535.025,2.936.016,5.873.008,8.809a.82.82,0,0,0,.292.715,1.767,1.767,0,0,1,.648,1.4c-.008.427.132.51.532.508,3.074-.017,6.149,0,9.224-.02.67-.005,1.1.2,1.26.873" transform="translate(0 0)" fill="#020202"/>
        <path id="Trazado_165669" data-name="Trazado 165669" d="M24.219,7.747c.21.734.4.873,1.238.873l21.991,0c.236,0,.472.017.707.025.079,4.152-.073,8.3.108,12.458.15,3.439,0,6.885.105,10.33.133,4.425,0,8.857.147,13.284.08,2.457-.008,4.915.089,7.376.122,3.108.027,6.224.025,9.337-.216.007-.433.021-.649.021H16.168c-.158,0-.315,0-.473,0-.238,0-.453-.071-.489-.327-.039-.274.164-.357.4-.4a.968.968,0,0,0,.845-1.1q-.006-6.918,0-13.836a1.01,1.01,0,0,0-.671-1.063.887.887,0,0,1,0-1.673,1.044,1.044,0,0,0,.675-1.121q-.009-6.889,0-13.777a1.073,1.073,0,0,0-.7-1.163.881.881,0,0,1,0-1.646,1.08,1.08,0,0,0,.7-1.168q-.013-6.83,0-13.659c0-.6-.179-1.05-.821-1.176-.234-.046-.452-.109-.431-.38.024-.3.266-.35.524-.349,1.5,0,3-.011,4.494.006a.974.974,0,0,0,1.122-.877l2.875,0m21.09,27.012a1.027,1.027,0,0,0,.747-1.278,12.627,12.627,0,0,0-2.529-6.148c-.11-.145-.307-.25-.277-.508,1.069,0,2.13,0,3.191,0,.72,0,1.14-.343,1.129-.908-.011-.548-.414-.872-1.1-.873-1.576,0-3.153-.011-4.729.006a1.474,1.474,0,0,1-.92-.3,12.527,12.527,0,0,0-14.546.021,1.389,1.389,0,0,1-.868.277c-1.616-.014-3.232-.011-4.848,0-.632,0-1.021.358-1.016.9s.4.873,1.034.882c.473.007.946,0,1.419,0h1.9c-3.95,5.515-3.951,10.939.005,16.421-1.076,0-2.112,0-3.149,0-.8,0-1.207.3-1.212.881s.412.907,1.191.908c1.557,0,3.114.008,4.67-.005a1.388,1.388,0,0,1,.87.269,12.536,12.536,0,0,0,14.548.025,1.477,1.477,0,0,1,.922-.3c1.616.016,3.232.014,4.848,0a.894.894,0,1,0,.025-1.782c-.453-.014-.906,0-1.36,0H43.132a13.977,13.977,0,0,0,1.562-2.314,12.344,12.344,0,0,0,.994-2.519c.215-.8.122-1.037-.6-1.433a10.373,10.373,0,0,0,.222-2.221" transform="translate(-13.388 -6.829)" fill="#009e83"/>
        <path id="Trazado_165670" data-name="Trazado 165670" d="M343.991,168.227c-.158-.67-.59-.879-1.26-.873-3.074.024-6.149,0-9.223.02-.4,0-.54-.081-.532-.508a1.767,1.767,0,0,0-.648-1.4.82.82,0,0,1-.292-.715c.007-2.937.017-5.873-.008-8.809,0-.468.145-.549.564-.535.965.03,1.931.015,2.9.008.714-.005,1.129-.363,1.11-.936-.019-.552-.4-.853-1.116-.858-1.005-.006-2.011-.014-3.015.005-.332.006-.445-.09-.435-.43a2.883,2.883,0,0,1,.507-1.963,2.45,2.45,0,0,0-.2-3.156,1.15,1.15,0,0,1-.3-.843c.014-1.655.025-3.311-.005-4.966-.009-.481.1-.624.607-.622,4.868.02,9.736.012,14.6.012.911,0,1.335-.278,1.346-.877s-.455-.927-1.373-.927c-4.868,0-9.736-.007-14.6.011-.462,0-.589-.114-.58-.578.031-1.556.019-3.114.005-4.671a1.075,1.075,0,0,1,.3-.785,2.521,2.521,0,0,0,.156-3.26,2.029,2.029,0,0,1-.452-1.444c.016-1.218.005-1.219,1.231-1.218l17.5.009h.685a1.336,1.336,0,0,0-.759,1.455q.021,4.966,0,9.933a1.333,1.333,0,0,0,.517,1.294c.311.207.274.525-.033.73a1.188,1.188,0,0,0-.484,1.13q.011,5.144,0,10.288a1.294,1.294,0,0,0,.519,1.233c.315.214.267.526-.036.73a1.2,1.2,0,0,0-.482,1.131q.011,5.055,0,10.11a1.477,1.477,0,0,0,.59,1.419c-1.113,0-2.225,0-3.338,0-.774,0-.952.136-1.184.869l-2.769-.007m-.424-12.817c1.34,0,2.679.01,4.018,0a.927.927,0,0,0,1-.934.913.913,0,0,0-1.009-.855q-4.048-.012-8.1,0a.853.853,0,0,0-.953.892.894.894,0,0,0,.962.9c.118.007.236,0,.355,0h3.723" transform="translate(-292.662 -112.738)" fill="#ff8628"/>
        <path id="Trazado_165671" data-name="Trazado 165671" d="M293.712,67.91c0-3.113.1-6.229-.025-9.337-.1-2.461-.009-4.918-.089-7.376-.143-4.428-.015-8.859-.147-13.284-.1-3.445.045-6.89-.1-10.33-.181-4.153-.029-8.306-.108-12.458q1.625-.014,3.249-.029c.239,0,.449.062.5.315.045.232-.126.343-.326.424a.977.977,0,0,0-.606,1.039q.012,6.976,0,13.952a1.225,1.225,0,0,0,.543,1.1.84.84,0,0,1-.023,1.472,1.18,1.18,0,0,0-.518,1.052q.01,7.065,0,14.129a1.18,1.18,0,0,0,.52,1.05.853.853,0,0,1-.027,1.51,1.144,1.144,0,0,0-.493,1.006q.009,7.006,0,14.011a.973.973,0,0,0,.609,1.037c.2.078.375.184.325.423s-.259.322-.5.32q-1.388-.014-2.776-.024" transform="translate(-258.471 -13.307)" fill="#009e83"/>
        <path id="Trazado_165672" data-name="Trazado 165672" d="M101.468,157.3a10.365,10.365,0,0,1-.222,2.221c-.762.061-.916.2-1.17,1.072a10.811,10.811,0,1,1,.346-4.337c.087.709.308.93,1.045,1.044m-17.079-.566c-.67,0-1.341-.011-2.011,0a1.21,1.21,0,0,0-1.325,1.428,8.61,8.61,0,0,0,3.786,6.639c.869.61,1.5.456,2.048-.475.635-1.088,1.268-2.176,1.886-3.273.15-.267.3-.439.636-.355a1.1,1.1,0,0,0,.528,0c.415-.112.593.113.771.431.606,1.081,1.228,2.153,1.852,3.224a1.216,1.216,0,0,0,2.008.458,8.629,8.629,0,0,0,3.8-6.509,1.259,1.259,0,0,0-1.409-1.573c-1.045-.008-2.092-.04-3.134.011-.736.036-1.3-.035-1.606-.849a.8.8,0,0,1,.011-.831c.638-1.062,1.249-2.141,1.864-3.217a1.244,1.244,0,0,0-.657-2.036,8.553,8.553,0,0,0-7.529.038,1.221,1.221,0,0,0-.586,1.975c.635,1.11,1.283,2.213,1.916,3.324.088.154.24.282.111.529-.55,1.049-.538,1.055-1.774,1.055H84.389" transform="translate(-69.547 -129.373)" fill="#fcf300"/>
        <path id="Trazado_165673" data-name="Trazado 165673" d="M77.651,143.934c-.737-.114-.958-.335-1.045-1.044a10.8,10.8,0,1,0-.347,4.337c.254-.871.408-1.011,1.17-1.072.723.4.816.629.6,1.433a12.343,12.343,0,0,1-.994,2.519,13.977,13.977,0,0,1-1.562,2.314H77.6c.453,0,.907-.01,1.36,0a.894.894,0,1,1-.025,1.782c-1.616.011-3.232.013-4.848,0a1.477,1.477,0,0,0-.922.3,12.536,12.536,0,0,1-14.548-.025,1.388,1.388,0,0,0-.87-.269c-1.557.013-3.114.007-4.67.005-.78,0-1.2-.321-1.191-.908s.413-.879,1.212-.881c1.036,0,2.073,0,3.149,0-3.956-5.482-3.955-10.906-.005-16.421h-1.9c-.473,0-.946.005-1.419,0-.637-.009-1.028-.347-1.033-.882s.383-.9,1.016-.9c1.616-.007,3.232-.01,4.848,0a1.389,1.389,0,0,0,.868-.277,12.527,12.527,0,0,1,14.546-.021,1.474,1.474,0,0,0,.92.3c1.576-.017,3.153-.01,4.729-.006.69,0,1.093.326,1.1.873.011.565-.409.906-1.129.908-1.061,0-2.122,0-3.191,0-.03.258.168.363.277.508a12.627,12.627,0,0,1,2.529,6.148,1.027,1.027,0,0,1-.747,1.278" transform="translate(-45.73 -116.004)" fill="#020202"/>
        <path id="Trazado_165674" data-name="Trazado 165674" d="M391.886,346.527h-3.723c-.118,0-.237.005-.354,0a.894.894,0,0,1-.962-.9.853.853,0,0,1,.953-.892q4.048-.017,8.1,0a.913.913,0,0,1,1.009.856.927.927,0,0,1-1,.934c-1.339.015-2.679,0-4.018,0" transform="translate(-340.981 -303.854)" fill="#020202"/>
        <path id="Trazado_165675" data-name="Trazado 165675" d="M100.327,173h1.183c1.236,0,1.225-.006,1.774-1.055.129-.247-.023-.375-.111-.529-.633-1.111-1.28-2.214-1.916-3.324a1.221,1.221,0,0,1,.586-1.975,8.552,8.552,0,0,1,7.529-.038,1.244,1.244,0,0,1,.657,2.036c-.615,1.076-1.226,2.155-1.864,3.217a.8.8,0,0,0-.011.831c.31.814.87.886,1.606.849,1.042-.051,2.089-.019,3.134-.011a1.259,1.259,0,0,1,1.409,1.573,8.629,8.629,0,0,1-3.8,6.509,1.216,1.216,0,0,1-2.008-.458c-.624-1.071-1.246-2.143-1.852-3.224-.178-.318-.356-.543-.771-.431a1.1,1.1,0,0,1-.528,0c-.34-.084-.486.088-.635.355-.618,1.1-1.252,2.185-1.886,3.273-.543.931-1.179,1.085-2.047.475a8.609,8.609,0,0,1-3.786-6.639A1.21,1.21,0,0,1,98.316,173c.67-.013,1.34,0,2.011,0m5.147-2.193c.481-.057.835.114,1.068-.333.454-.87.959-1.714,1.471-2.551.191-.312.054-.4-.207-.485a6.809,6.809,0,0,0-4.335.006c-.3.1-.335.226-.169.5.45.738.9,1.48,1.293,2.246.232.449.477.761.879.619m-6.561,4.075a6.847,6.847,0,0,0,2.194,4.109c.264.246.4.205.562-.092.429-.772.883-1.529,1.317-2.3.112-.2.361-.4.271-.617a6.774,6.774,0,0,0-.623-1.057c-.029-.044-.146-.044-.222-.044-1.156,0-2.312,0-3.5,0m13.465,0c-.912,0-1.759.042-2.6-.013-.742-.048-1.311.036-1.6.859a.672.672,0,0,0,.008.67c.483.808.971,1.616,1.405,2.451.231.444.4.339.679.071a6.784,6.784,0,0,0,2.1-4.039m-7.929-.963a1.233,1.233,0,0,0,1.169,1.232,1.329,1.329,0,0,0,1.237-1.263,1.227,1.227,0,0,0-1.17-1.229,1.313,1.313,0,0,0-1.236,1.26" transform="translate(-85.485 -145.637)" fill="#020202"/>
        <path id="Trazado_165676" data-name="Trazado 165676" d="M151.716,184.644c-.4.142-.646-.171-.879-.619-.4-.766-.843-1.509-1.293-2.246-.166-.272-.13-.4.169-.5a6.811,6.811,0,0,1,4.335-.006c.261.085.4.172.207.485-.512.837-1.017,1.682-1.471,2.551-.233.447-.587.276-1.068.333" transform="translate(-131.727 -159.473)" fill="#014136"/>
        <path id="Trazado_165677" data-name="Trazado 165677" d="M113.257,246.673c1.188,0,2.344,0,3.5,0,.076,0,.193,0,.222.044a6.785,6.785,0,0,1,.623,1.057c.09.218-.159.419-.271.617-.434.769-.889,1.526-1.317,2.3-.165.3-.3.338-.562.092a6.848,6.848,0,0,1-2.194-4.109" transform="translate(-99.829 -217.427)" fill="#014136"/>
        <path id="Trazado_165678" data-name="Trazado 165678" d="M194.983,246.493a6.784,6.784,0,0,1-2.1,4.039c-.278.268-.448.373-.679-.071-.434-.835-.922-1.642-1.405-2.451a.671.671,0,0,1-.007-.67c.287-.823.856-.908,1.6-.859.84.055,1.686.013,2.6.013" transform="translate(-168.091 -217.248)" fill="#014136"/>
        <path id="Trazado_165679" data-name="Trazado 165679" d="M159.943,229.174a1.313,1.313,0,0,1,1.236-1.26,1.227,1.227,0,0,1,1.17,1.229,1.329,1.329,0,0,1-1.237,1.263,1.233,1.233,0,0,1-1.169-1.232" transform="translate(-140.979 -200.891)" fill="#014136"/>
      </g>
    </g>
  </g>
</svg>
