<svg xmlns="http://www.w3.org/2000/svg" xmlns:xlink="http://www.w3.org/1999/xlink" width="101" height="101" viewBox="0 0 101 101">
  <defs>
    <clipPath id="clip-path">
      <rect id="Rectángulo_37664" data-name="Rectángulo 37664" width="61.33" height="61.334" fill="none"/>
    </clipPath>
  </defs>
  <g id="Grupo_114909" data-name="Grupo 114909" transform="translate(-750 -3112)">
    <g id="Elipse_4070" data-name="Elipse 4070" transform="translate(750 3112)" fill="#fff" stroke="#009e83" stroke-width="2">
      <circle cx="50.5" cy="50.5" r="50.5" stroke="none"/>
      <circle cx="50.5" cy="50.5" r="49.5" fill="none"/>
    </g>
    <g id="Grupo_114864" data-name="Grupo 114864" transform="translate(769.835 3131.428)">
      <g id="Grupo_114863" data-name="Grupo 114863" clip-path="url(#clip-path)">
        <path id="Trazado_165718" data-name="Trazado 165718" d="M48.995,61.333h-.838a2.794,2.794,0,0,1-.96-1.087A3.262,3.262,0,0,0,42.869,58.8a30.843,30.843,0,0,1-7.72,2.211,9.554,9.554,0,0,0-2.082.325H28.4c-.023-.093-.093-.113-.177-.12a31.589,31.589,0,0,1-8.2-1.831.668.668,0,0,0-.656.106,12.405,12.405,0,0,1-3.4,1.434c-.6.154-1.215.274-1.822.41H11.15c-.14-.228-.393-.157-.588-.194a12.736,12.736,0,0,1-8.7-19.152.8.8,0,0,0,.064-.771,30.063,30.063,0,0,1,.57-22.566c.129-.307.12-.456-.175-.669A5.315,5.315,0,0,1,2.2,9.291a.668.668,0,0,0,.3-.582,5.3,5.3,0,0,1,5.193-5.4.783.783,0,0,0,.693-.432,6.138,6.138,0,0,1,9.772-.827.732.732,0,0,0,.989.231A30.069,30.069,0,0,1,41.1,1.878a1.033,1.033,0,0,0,.987-.079A12.74,12.74,0,0,1,61,9.915a4.618,4.618,0,0,0,.326,1.354v3.114c-.128.031-.116.139-.13.234a12.535,12.535,0,0,1-1.773,4.826.708.708,0,0,0,.011.722A30.747,30.747,0,0,1,61,26.265a8.3,8.3,0,0,0,.326,2.012v4.791c-.148.059-.109.194-.119.3a30.365,30.365,0,0,1-2.148,8.83c-.493,1.2-.467,1.287.866,1.485a1.629,1.629,0,0,1,1.4,1V45.4c-.222.27-.439.544-.667.808a3.558,3.558,0,0,0,0,4.676,7.048,7.048,0,0,1,.67.864v.838a2.4,2.4,0,0,1-1.594.881,3.443,3.443,0,0,0-2.8,2.757,5.389,5.389,0,0,0-.025,1.486,1.269,1.269,0,0,1-1.854,1.262c-.183-.077-.356-.177-.537-.257a3.573,3.573,0,0,0-4.591,1.51,3.262,3.262,0,0,1-.931,1.1m8.338-39.292a12.7,12.7,0,0,1-6.051,3.208c-.328.072-.391.291-.485.528a12.219,12.219,0,0,1-3.071,4.513,9.322,9.322,0,0,1-7.619,2.758q-1.7-.18-3.387-.4a5.307,5.307,0,0,0-4.444,1.219,6.55,6.55,0,0,1-5.935,1.467,6.26,6.26,0,0,1-4.78-6.849,6.149,6.149,0,0,1,2.246-3.575c.772-.693,1.59-1.334,2.358-2.031.732-.664.766-.963.237-1.812a14.691,14.691,0,0,0-3.243-3.413.356.356,0,0,0-.519-.013,7.474,7.474,0,0,1-4.678,1.349c-4.111-.029-8.223-.008-12.334-.013-.292,0-.513,0-.662.34A27.916,27.916,0,0,0,2.612,29.392c-.018.419.106.446.477.359a15.229,15.229,0,0,1,3.976-.4,7,7,0,0,1,6.968,6.092c.059.369.251.438.552.482a12.512,12.512,0,0,1,8.484,5.089c.282.379.433.368.771.1a9.5,9.5,0,0,1,3.517-1.859,3.566,3.566,0,0,1,4.391,1.967,7.045,7.045,0,0,1,.6,1.684,19,19,0,0,1-.092,8.307A8.881,8.881,0,0,1,29.4,56.4a7.252,7.252,0,0,0-1.4,1.779c-.224.355-.154.467.252.5a28.466,28.466,0,0,0,11.611-1.444.493.493,0,0,0,.376-.619,3.563,3.563,0,0,0-2.96-3.175c-.626-.1-1.192-.255-1.414-.917a1.484,1.484,0,0,1,.509-1.551,3.523,3.523,0,0,0-.043-4.879,1.331,1.331,0,0,1,.832-2.4,3.563,3.563,0,0,0,3.062-4.034,1.394,1.394,0,0,1,.519-1.43,1.375,1.375,0,0,1,1.521-.007,3.586,3.586,0,0,0,5.079-1.6,1.33,1.33,0,0,1,2.431-.006,5.66,5.66,0,0,0,.562.844,3.484,3.484,0,0,0,4.453.775,1.359,1.359,0,0,1,2.12,1.452,3.431,3.431,0,0,0-.008.762,26.808,26.808,0,0,0,.438-18.41M19.613,4.877a1.108,1.108,0,0,0,.628.272,7.024,7.024,0,0,1,4.914,9.177c-.149.422-.609.837-.429,1.242.168.379.662.609,1,.918a13.258,13.258,0,0,1,3.2,3.909,3.232,3.232,0,0,1-.589,3.911c-.406.437-.861.829-1.308,1.227-.64.57-1.327,1.092-1.932,1.7a2.99,2.99,0,0,0-.078,4.463,4.065,4.065,0,0,0,5.8.108,6.631,6.631,0,0,1,4.632-1.761,23.448,23.448,0,0,1,2.8.219,11.129,11.129,0,0,0,4.4.095,9.185,9.185,0,0,0,5.308-4.469c.2-.321.019-.355-.253-.369a11.19,11.19,0,0,1-2.067-.305A12.7,12.7,0,0,1,36.328,9.155c.115-.393.08-.558-.334-.684-.915-.28-1.832-.546-2.763-.765a6.14,6.14,0,0,1-4.813-4.634c-.093-.336-.213-.385-.531-.355a27.04,27.04,0,0,0-5.212,1.019,18.638,18.638,0,0,0-3.063,1.142M38.338,12.77A10.222,10.222,0,1,0,48.6,2.558,10.223,10.223,0,0,0,38.338,12.77M12.046,16.428v0c2.194,0,4.388.015,6.581,0a4.353,4.353,0,0,0,4.059-2.833,4.306,4.306,0,0,0-1.017-4.795,4.377,4.377,0,0,0-3-1.3c-.987-.065-1.364-.472-1.414-1.421a3.823,3.823,0,0,0-.188-.995A3.642,3.642,0,0,0,10.2,4.908c-.373.921-.834,1.208-1.676,1.043a2.772,2.772,0,0,0-3.387,3.4,1.324,1.324,0,0,1-.823,1.653,2.82,2.82,0,0,0,1.268,5.42q3.231.005,6.462,0m.708,21.91A10.223,10.223,0,1,0,23,48.677,10.242,10.242,0,0,0,12.754,38.339m31.076,2.9a1.785,1.785,0,0,1-.358-.024c-.545-.147-.776.032-.924.609a5.768,5.768,0,0,1-2.869,3.663c-.328.186-.456.313-.284.718a5.835,5.835,0,0,1,0,4.707c-.149.354-.1.5.238.687a5.96,5.96,0,0,1,3,3.918c.084.337.183.461.552.41a6.02,6.02,0,0,1,5.072,1.582c.214.193.331.242.576.02a6.009,6.009,0,0,1,5.123-1.6c.331.049.453-.06.526-.369a5.95,5.95,0,0,1,3.064-4c.3-.165.323-.3.2-.6a5.947,5.947,0,0,1,0-4.82c.126-.3.109-.436-.192-.6a5.947,5.947,0,0,1-3.07-4c-.084-.362-.232-.4-.572-.356a6.053,6.053,0,0,1-5.023-1.571c-.285-.262-.42-.2-.672.026a6.038,6.038,0,0,1-4.379,1.594M30.2,46.79a12.9,12.9,0,0,0-.268-2.976,7.15,7.15,0,0,0-.363-1.2c-.378-.934-.828-1.136-1.793-.822a9.845,9.845,0,0,0-2.721,1.6.645.645,0,0,0-.261.9,10.383,10.383,0,0,1,.712,3.2,12.577,12.577,0,0,1-3.2,9.543c-.232.263-.29.394.122.493.755.182,1.509.375,2.249.607.369.116.521.02.669-.324a9.657,9.657,0,0,1,2.54-3.51,4.883,4.883,0,0,0,1.356-1.938A15.421,15.421,0,0,0,30.2,46.79M3.982,39.309a12.784,12.784,0,0,1,7.212-3.419c.373-.047.317-.26.249-.512A4.308,4.308,0,0,0,8.29,32.108a10.38,10.38,0,0,0-5.361.309c-.313.079-.277.285-.25.5.118.928.205,1.861.369,2.781a19.92,19.92,0,0,0,.934,3.608M39.321,3.959A27.68,27.68,0,0,0,31.31,2.591c-.4-.008-.29.218-.2.428A3.413,3.413,0,0,0,33.471,5.13c1.252.328,2.514.619,3.73,1.07a.385.385,0,0,0,.547-.177,14.171,14.171,0,0,1,1.573-2.064" transform="translate(0 0)"/>
        <path id="Trazado_165719" data-name="Trazado 165719" d="M71.029,114.079a26.809,26.809,0,0,1-.438,18.41,3.441,3.441,0,0,1,.008-.762,1.359,1.359,0,0,0-2.12-1.452,3.484,3.484,0,0,1-4.453-.775,5.648,5.648,0,0,1-.562-.844,1.331,1.331,0,0,0-2.431.006,3.586,3.586,0,0,1-5.079,1.6,1.375,1.375,0,0,0-1.521.007,1.394,1.394,0,0,0-.519,1.43,3.562,3.562,0,0,1-3.062,4.034,1.331,1.331,0,0,0-.832,2.4,3.524,3.524,0,0,1,.043,4.879,1.484,1.484,0,0,0-.509,1.551c.222.662.788.819,1.414.917a3.563,3.563,0,0,1,2.96,3.175.493.493,0,0,1-.376.619,28.467,28.467,0,0,1-11.611,1.444c-.405-.032-.476-.145-.252-.5a7.253,7.253,0,0,1,1.4-1.779,8.881,8.881,0,0,0,2.862-5.188,19,19,0,0,0,.092-8.307,7.031,7.031,0,0,0-.6-1.684,3.566,3.566,0,0,0-4.391-1.967,9.5,9.5,0,0,0-3.517,1.859c-.339.268-.489.279-.771-.1a12.512,12.512,0,0,0-8.484-5.089c-.3-.045-.492-.113-.552-.482a7,7,0,0,0-6.968-6.092,15.23,15.23,0,0,0-3.976.4c-.371.087-.5.059-.477-.359a27.916,27.916,0,0,1,2.357-10.072c.149-.339.37-.34.662-.34,4.111.006,8.223-.016,12.334.013a7.474,7.474,0,0,0,4.678-1.349.356.356,0,0,1,.519.013,14.691,14.691,0,0,1,3.242,3.413c.529.849.495,1.148-.237,1.812-.768.7-1.587,1.338-2.358,2.031a6.151,6.151,0,0,0-2.247,3.575,6.261,6.261,0,0,0,4.781,6.849,6.55,6.55,0,0,0,5.935-1.467,5.307,5.307,0,0,1,4.445-1.219q1.691.216,3.387.4a9.322,9.322,0,0,0,7.619-2.758,12.221,12.221,0,0,0,3.071-4.513c.093-.237.156-.456.485-.528a12.7,12.7,0,0,0,6.051-3.208m-39.44-1.572a1.147,1.147,0,0,0-1.087.618c-.472.9-.936,1.8-1.354,2.73a1.258,1.258,0,0,0,2.238,1.132c.5-.908.973-1.832,1.381-2.783a1.228,1.228,0,0,0-1.179-1.7m-10.245,0a1.116,1.116,0,0,0-1.041.59c-.486.914-.965,1.834-1.387,2.778a1.257,1.257,0,0,0,2.228,1.137,27.947,27.947,0,0,0,1.41-2.831,1.224,1.224,0,0,0-1.21-1.673m5.108,0a1.165,1.165,0,0,0-1.074.641c-.463.881-.922,1.767-1.333,2.672a1.262,1.262,0,0,0,2.244,1.143c.489-.889.958-1.794,1.359-2.725a1.233,1.233,0,0,0-1.2-1.731" transform="translate(-13.696 -92.038)" fill="#04d9d1"/>
        <path id="Trazado_165720" data-name="Trazado 165720" d="M122.536,19.093a18.638,18.638,0,0,1,3.063-1.142,27.028,27.028,0,0,1,5.212-1.019c.318-.03.438.019.531.355a6.14,6.14,0,0,0,4.813,4.634c.931.22,1.848.486,2.763.765.414.127.449.292.334.684a12.7,12.7,0,0,0,9.312,16.056,11.19,11.19,0,0,0,2.067.305c.272.013.451.048.253.369a9.185,9.185,0,0,1-5.308,4.469,11.132,11.132,0,0,1-4.4-.095,23.447,23.447,0,0,0-2.8-.219,6.631,6.631,0,0,0-4.632,1.761,4.065,4.065,0,0,1-5.8-.108,2.99,2.99,0,0,1,.078-4.463c.605-.6,1.292-1.127,1.932-1.7.446-.4.9-.79,1.308-1.227a3.232,3.232,0,0,0,.589-3.911,13.258,13.258,0,0,0-3.2-3.909c-.338-.309-.832-.539-1-.918-.18-.4.279-.819.429-1.242a7.024,7.024,0,0,0-4.914-9.177,1.109,1.109,0,0,1-.628-.272" transform="translate(-102.923 -14.215)" fill="#009e83"/>
        <path id="Trazado_165721" data-name="Trazado 165721" d="M239.52,26.195a10.222,10.222,0,1,1,10.293,10.233A10.246,10.246,0,0,1,239.52,26.195m15.95,2.043a5.234,5.234,0,0,0-.459-2.146,30.463,30.463,0,0,0-4.228-6.981,1.277,1.277,0,0,0-2.141.052,35.754,35.754,0,0,0-3.712,5.844,7.343,7.343,0,0,0-.939,3.123,5.74,5.74,0,0,0,11.48.108" transform="translate(-201.182 -13.425)" fill="#fcf300"/>
        <path id="Trazado_165722" data-name="Trazado 165722" d="M25.528,29.866q-3.231,0-6.462,0a2.819,2.819,0,0,1-1.268-5.42,1.324,1.324,0,0,0,.823-1.653,2.772,2.772,0,0,1,3.387-3.4c.841.165,1.3-.122,1.676-1.043a3.642,3.642,0,0,1,6.868.173,3.825,3.825,0,0,1,.188.995c.05.949.427,1.356,1.414,1.421a4.377,4.377,0,0,1,3,1.3,4.306,4.306,0,0,1,1.017,4.795,4.353,4.353,0,0,1-4.059,2.833c-2.194.02-4.388,0-6.581,0Z" transform="translate(-13.482 -13.438)" fill="#8effec"/>
        <path id="Trazado_165723" data-name="Trazado 165723" d="M26.191,239.527A10.223,10.223,0,1,1,16,249.747a10.224,10.224,0,0,1,10.193-10.22m-1.3,3.222-.23-.207a1.279,1.279,0,0,0-1.91-.089,1.3,1.3,0,0,0,.125,1.911,16.36,16.36,0,0,0,1.362,1.346,1.9,1.9,0,0,1,.725,1.763c-.061,1-.015,1.008-1.014,1-.526,0-1.039.082-1.465-.426a19.408,19.408,0,0,0-1.774-1.779,1.264,1.264,0,0,0-1.738.016,1.3,1.3,0,0,0-.093,1.741c.1.129.323.193.249.424-1.269.08-1.769.4-1.838,1.185a1.273,1.273,0,0,0,.239.845c.4.588,1.043.53,1.7.57-.1.126-.147.187-.2.244a1.29,1.29,0,1,0,1.852,1.764c.472-.46.967-.9,1.389-1.4a1.733,1.733,0,0,1,1.556-.65c1.117.054,1.08.017,1.134,1.127a1.748,1.748,0,0,1-.643,1.559,19.818,19.818,0,0,0-1.527,1.52,1.277,1.277,0,0,0-.042,1.826,1.3,1.3,0,0,0,1.786.03c.115-.092.181-.27.375-.248.115,1.309.447,1.808,1.234,1.861a1.285,1.285,0,0,0,.841-.256c.569-.4.5-1.027.52-1.678.138.093.2.129.258.175a1.315,1.315,0,0,0,1.916.078,1.334,1.334,0,0,0-.183-1.96,18.783,18.783,0,0,0-1.362-1.346,1.73,1.73,0,0,1-.656-1.554c.05-1.118.016-1.078,1.138-1.135a1.748,1.748,0,0,1,1.557.64,20.325,20.325,0,0,0,1.52,1.526,1.265,1.265,0,0,0,1.78.031,1.3,1.3,0,0,0,.061-1.788c-.088-.114-.281-.171-.234-.373,1.28-.067,1.777-.384,1.842-1.172a1.292,1.292,0,0,0-.244-.9c-.4-.559-1.033-.474-1.671-.513.1-.136.14-.2.188-.258a1.288,1.288,0,1,0-1.865-1.753c-.514.5-1.041.994-1.517,1.53a1.468,1.468,0,0,1-1.254.514c-1.288-.034-1.261-.012-1.3-1.28a1.521,1.521,0,0,1,.544-1.3c.579-.518,1.124-1.078,1.65-1.651a1.26,1.26,0,0,0-.013-1.781,1.289,1.289,0,0,0-1.741-.057c-.118.089-.183.271-.379.244-.163-1.386-.48-1.833-1.3-1.842-.837-.009-1.175.458-1.351,1.928" transform="translate(-13.437 -201.188)" fill="#04d9b5"/>
        <path id="Trazado_165724" data-name="Trazado 165724" d="M250.141,248.274a6.04,6.04,0,0,0,4.379-1.595c.252-.227.388-.288.672-.026a6.054,6.054,0,0,0,5.023,1.57c.34-.04.488-.005.572.356a5.948,5.948,0,0,0,3.071,4c.3.166.317.307.192.6a5.947,5.947,0,0,0,0,4.82c.126.3.105.431-.2.6a5.95,5.95,0,0,0-3.064,4c-.073.309-.195.418-.526.369a6.009,6.009,0,0,0-5.123,1.6c-.245.222-.362.173-.576-.02a6.021,6.021,0,0,0-5.072-1.582c-.369.052-.467-.073-.552-.41a5.96,5.96,0,0,0-3-3.918c-.335-.186-.387-.333-.238-.687a5.835,5.835,0,0,0,0-4.707c-.172-.405-.044-.531.284-.718a5.767,5.767,0,0,0,2.869-3.663c.148-.577.379-.756.924-.609a1.843,1.843,0,0,0,.358.025m-1.66,7.3a6.388,6.388,0,1,0,6.356-6.369,6.407,6.407,0,0,0-6.356,6.369" transform="translate(-206.311 -207.03)" fill="#ff8628"/>
        <path id="Trazado_165725" data-name="Trazado 165725" d="M146.344,265.38a15.418,15.418,0,0,1-.955,5.568,4.881,4.881,0,0,1-1.356,1.938,9.657,9.657,0,0,0-2.54,3.51c-.147.344-.3.44-.669.324-.74-.232-1.494-.426-2.249-.607-.412-.1-.353-.23-.122-.493a12.578,12.578,0,0,0,3.2-9.543,10.378,10.378,0,0,0-.712-3.2.645.645,0,0,1,.261-.9,9.846,9.846,0,0,1,2.721-1.6c.964-.314,1.415-.112,1.793.822a7.152,7.152,0,0,1,.363,1.2,12.879,12.879,0,0,1,.268,2.976" transform="translate(-116.14 -218.59)" fill="#009e83"/>
        <path id="Trazado_165726" data-name="Trazado 165726" d="M17.954,206.546a19.92,19.92,0,0,1-.934-3.608c-.164-.92-.251-1.853-.369-2.781-.028-.218-.063-.425.25-.5a10.381,10.381,0,0,1,5.361-.309,4.308,4.308,0,0,1,3.154,3.271c.067.251.123.464-.249.512a12.783,12.783,0,0,0-7.212,3.419" transform="translate(-13.971 -167.236)" fill="#009e83"/>
        <path id="Trazado_165727" data-name="Trazado 165727" d="M202.123,17.557a14.17,14.17,0,0,0-1.573,2.064A.385.385,0,0,1,200,19.8c-1.216-.45-2.478-.742-3.73-1.07a3.413,3.413,0,0,1-2.364-2.111c-.087-.21-.2-.436.2-.428a27.68,27.68,0,0,1,8.011,1.368" transform="translate(-162.801 -13.598)" fill="#04d9d1"/>
        <path id="Trazado_165728" data-name="Trazado 165728" d="M98.4,127.889a1.227,1.227,0,0,1,1.178,1.7c-.408.95-.883,1.875-1.381,2.783a1.258,1.258,0,0,1-2.239-1.132c.418-.925.882-1.831,1.354-2.73a1.146,1.146,0,0,1,1.087-.618" transform="translate(-80.51 -107.419)"/>
        <path id="Trazado_165729" data-name="Trazado 165729" d="M34.511,127.89a1.223,1.223,0,0,1,1.21,1.673,27.979,27.979,0,0,1-1.41,2.831,1.257,1.257,0,0,1-2.228-1.136c.422-.944.9-1.865,1.387-2.779a1.115,1.115,0,0,1,1.041-.589" transform="translate(-26.862 -107.42)"/>
        <path id="Trazado_165730" data-name="Trazado 165730" d="M66.458,127.89a1.233,1.233,0,0,1,1.2,1.731c-.4.931-.869,1.836-1.359,2.725A1.262,1.262,0,0,1,64.05,131.2c.412-.906.871-1.791,1.333-2.672a1.165,1.165,0,0,1,1.074-.641" transform="translate(-53.702 -107.42)"/>
        <path id="Trazado_165731" data-name="Trazado 165731" d="M278.928,41.734a5.74,5.74,0,0,1-11.48-.108,7.342,7.342,0,0,1,.939-3.123,35.765,35.765,0,0,1,3.712-5.844,1.277,1.277,0,0,1,2.141-.052,30.459,30.459,0,0,1,4.228,6.981,5.232,5.232,0,0,1,.459,2.146m-5.692-6.2a21.924,21.924,0,0,0-3.086,5.349,3.022,3.022,0,0,0,1.178,3.321,3.207,3.207,0,0,0,3.7.028,2.972,2.972,0,0,0,1.229-3.3,23.514,23.514,0,0,0-3.017-5.4" transform="translate(-224.64 -26.921)"/>
        <path id="Trazado_165732" data-name="Trazado 165732" d="M31.642,249.538c.176-1.47.514-1.937,1.351-1.928.819.009,1.135.456,1.3,1.842.2.027.261-.155.379-.244a1.289,1.289,0,0,1,1.741.057,1.26,1.26,0,0,1,.013,1.781c-.526.573-1.07,1.134-1.65,1.651a1.521,1.521,0,0,0-.544,1.3c.04,1.268.013,1.246,1.3,1.28a1.468,1.468,0,0,0,1.254-.514c.476-.537,1-1.028,1.517-1.53a1.288,1.288,0,1,1,1.865,1.753c-.048.058-.089.122-.188.258.638.04,1.266-.045,1.671.513a1.292,1.292,0,0,1,.244.9c-.066.788-.563,1.106-1.842,1.172-.046.2.146.259.234.373a1.3,1.3,0,0,1-.061,1.788,1.265,1.265,0,0,1-1.78-.031,20.321,20.321,0,0,1-1.52-1.526,1.748,1.748,0,0,0-1.557-.64c-1.122.057-1.087.017-1.138,1.135a1.73,1.73,0,0,0,.656,1.554,18.777,18.777,0,0,1,1.362,1.346,1.334,1.334,0,0,1,.183,1.96,1.315,1.315,0,0,1-1.916-.078c-.056-.047-.121-.083-.258-.175-.023.652.049,1.281-.52,1.678a1.285,1.285,0,0,1-.841.256c-.787-.053-1.119-.552-1.234-1.861-.194-.023-.26.156-.375.248a1.3,1.3,0,0,1-1.786-.03A1.277,1.277,0,0,1,29.543,262a19.823,19.823,0,0,1,1.527-1.52,1.748,1.748,0,0,0,.643-1.559c-.054-1.11-.017-1.073-1.134-1.127a1.733,1.733,0,0,0-1.556.65c-.422.5-.917.945-1.389,1.4a1.29,1.29,0,1,1-1.852-1.764c.05-.057.1-.118.2-.244-.656-.04-1.3.018-1.7-.57a1.273,1.273,0,0,1-.239-.845c.069-.782.569-1.106,1.838-1.185.073-.232-.153-.3-.249-.424a1.3,1.3,0,0,1,.093-1.741,1.264,1.264,0,0,1,1.738-.016,19.406,19.406,0,0,1,1.774,1.779c.426.508.939.424,1.465.426,1,0,.953,0,1.014-1a1.9,1.9,0,0,0-.725-1.763,16.36,16.36,0,0,1-1.362-1.346,1.3,1.3,0,0,1-.125-1.911,1.279,1.279,0,0,1,1.91.089l.23.207" transform="translate(-20.188 -207.977)"/>
        <path id="Trazado_165733" data-name="Trazado 165733" d="M263.462,269.841a6.388,6.388,0,1,1,6.382,6.408,6.4,6.4,0,0,1-6.382-6.408m10.2.005a3.827,3.827,0,0,0-3.844-3.829,3.872,3.872,0,0,0-3.812,3.819,3.828,3.828,0,1,0,7.656.01" transform="translate(-221.292 -221.3)"/>
        <path id="Trazado_165734" data-name="Trazado 165734" d="M286.753,53.838a23.514,23.514,0,0,1,3.017,5.4,2.972,2.972,0,0,1-1.229,3.3,3.207,3.207,0,0,1-3.7-.028,3.022,3.022,0,0,1-1.178-3.321,21.922,21.922,0,0,1,3.086-5.349" transform="translate(-238.157 -45.221)" fill="#04d9d1"/>
        <path id="Trazado_165735" data-name="Trazado 165735" d="M287.03,283.2a3.828,3.828,0,1,1-7.657-.01,3.872,3.872,0,0,1,3.812-3.819,3.827,3.827,0,0,1,3.844,3.829" transform="translate(-234.657 -234.655)" fill="#fcf300"/>
      </g>
    </g>
  </g>
</svg>
