<svg xmlns="http://www.w3.org/2000/svg" xmlns:xlink="http://www.w3.org/1999/xlink" width="539.409" height="391.997" viewBox="0 0 539.409 391.997">
  <defs>
    <clipPath id="clip-path">
      <rect id="Rectángulo_37621" data-name="Rectángulo 37621" width="213.823" height="350.001" fill="none"/>
    </clipPath>
    <clipPath id="clip-path-3">
      <rect id="Rectángulo_37603" data-name="Rectángulo 37603" width="111.601" height="39.606" fill="none"/>
    </clipPath>
    <clipPath id="clip-path-4">
      <rect id="Rectángulo_37604" data-name="Rectángulo 37604" width="27.772" height="23.068" fill="none"/>
    </clipPath>
    <clipPath id="clip-path-5">
      <rect id="Rectángulo_37605" data-name="Rectángulo 37605" width="15.392" height="56.008" fill="none"/>
    </clipPath>
    <clipPath id="clip-path-6">
      <rect id="Rectángulo_37606" data-name="Rectángulo 37606" width="12.994" height="10.452" fill="none"/>
    </clipPath>
    <clipPath id="clip-path-7">
      <rect id="Rectángulo_37607" data-name="Rectángulo 37607" width="7.993" height="13.667" fill="none"/>
    </clipPath>
    <clipPath id="clip-path-8">
      <rect id="Rectángulo_37608" data-name="Rectángulo 37608" width="8.631" height="12.247" fill="none"/>
    </clipPath>
    <clipPath id="clip-path-9">
      <rect id="Rectángulo_37609" data-name="Rectángulo 37609" width="14.622" height="12.49" fill="none"/>
    </clipPath>
    <clipPath id="clip-path-10">
      <rect id="Rectángulo_37610" data-name="Rectángulo 37610" width="12.694" height="4.531" fill="none"/>
    </clipPath>
    <clipPath id="clip-path-11">
      <rect id="Rectángulo_37611" data-name="Rectángulo 37611" width="11.412" height="9.489" fill="none"/>
    </clipPath>
    <clipPath id="clip-path-12">
      <rect id="Rectángulo_37612" data-name="Rectángulo 37612" width="16.314" height="4.318" fill="none"/>
    </clipPath>
    <clipPath id="clip-path-13">
      <rect id="Rectángulo_37613" data-name="Rectángulo 37613" width="6.229" height="19.991" fill="none"/>
    </clipPath>
    <clipPath id="clip-path-14">
      <rect id="Rectángulo_37614" data-name="Rectángulo 37614" width="1.277" height="17.438" fill="none"/>
    </clipPath>
    <clipPath id="clip-path-15">
      <rect id="Rectángulo_37615" data-name="Rectángulo 37615" width="9.947" height="14.345" fill="none"/>
    </clipPath>
    <clipPath id="clip-path-16">
      <rect id="Rectángulo_37616" data-name="Rectángulo 37616" width="2.319" height="12.248" fill="none"/>
    </clipPath>
    <clipPath id="clip-path-17">
      <rect id="Rectángulo_37617" data-name="Rectángulo 37617" width="9.101" height="15.89" fill="none"/>
    </clipPath>
    <clipPath id="clip-path-18">
      <rect id="Rectángulo_37618" data-name="Rectángulo 37618" width="14.369" height="18.755" fill="none"/>
    </clipPath>
    <clipPath id="clip-path-19">
      <rect id="Rectángulo_37619" data-name="Rectángulo 37619" width="17.812" height="2.855" fill="none"/>
    </clipPath>
  </defs>
  <g id="Grupo_114912" data-name="Grupo 114912" transform="translate(-272.13 -885)">
    <g id="Grupo_114816" data-name="Grupo 114816">
      <path id="Trazado_165520" data-name="Trazado 165520" d="M197.693,485.7c-32.71,15.534-77.587,11.92-98.216-17.841C82.141,442.847,86.966,409.069,94.57,379.6s17.254-60.764,7.485-89.584c-12.92-38.121-54.586-57.755-79.027-89.735C-7.737,160.042-7.154,99.819,21.652,58.153S104.169-5.267,154.417,1.09,250.036,40.22,275.151,84.2s30.572,97.982,18.46,147.165c-6.99,28.389-19.506,55.32-24.706,84.094-5.843,32.306,12.819,70.445,3.137,99.573-9.191,27.651-49.252,58.741-74.349,70.661" transform="matrix(-0.035, 0.999, -0.999, -0.035, 777.018, 925.229)" fill="#009e83"/>
      <path id="Trazado_165521" data-name="Trazado 165521" d="M26.907,468.8C4.329,448.336-3.36,415.007,1.3,384.893s20.083-57.517,37.773-82.331c8.891-12.467,18.461-24.539,25.7-38.035,19.774-36.866,19.77-84.233-2.152-119.867-6.706-10.9-15.275-20.676-20.841-32.2-9.129-18.893-9.362-41.318-3.368-61.427,4.168-13.966,11.53-27.42,23.146-36.222,7.51-5.693,16.474-9.209,25.615-11.5,32.817-8.231,68.891-.75,96.683,18.533s47.206,49.782,54.539,82.806c16.7,75.19-24.785,147.274-34.519,220.392a212.286,212.286,0,0,0-.458,55.191c2.266,17.749,9.7,39.026,3.7,56.754-7.947,23.476-39.615,27.6-59.711,36.443C108.84,490.4,61.672,500.325,26.907,468.8Z" transform="translate(751.378 922.004) rotate(76)" fill="none" stroke="#fcf300" stroke-miterlimit="10" stroke-width="2.5"/>
      <path id="Trazado_166479" data-name="Trazado 166479" d="M31.191,15H28.848V3.625h2.344Zm4.1-8.453.07.977a2.951,2.951,0,0,1,2.43-1.133,2.453,2.453,0,0,1,2,.789,3.682,3.682,0,0,1,.672,2.359V15H38.207V9.581a1.47,1.47,0,0,0-.312-1.045,1.4,1.4,0,0,0-1.039-.325,1.553,1.553,0,0,0-1.43.814V15H33.168V6.547Zm6.531,4.164a5.094,5.094,0,0,1,.887-3.148,2.877,2.877,0,0,1,2.426-1.172,2.589,2.589,0,0,1,2.039.922V3h2.266V15H47.4l-.109-.9a2.657,2.657,0,0,1-2.172,1.055,2.869,2.869,0,0,1-2.395-1.176A5.258,5.258,0,0,1,41.824,10.711Zm2.258.161A3.355,3.355,0,0,0,44.5,12.7a1.348,1.348,0,0,0,1.2.636,1.51,1.51,0,0,0,1.477-.887V9.1a1.489,1.489,0,0,0-1.461-.887Q44.082,8.211,44.082,10.872ZM53.574,15H51.309V6.547h2.266Zm-2.4-10.641a1.112,1.112,0,0,1,.34-.836,1.465,1.465,0,0,1,1.848,0,1.105,1.105,0,0,1,.344.836,1.108,1.108,0,0,1-.348.844,1.448,1.448,0,0,1-1.836,0A1.108,1.108,0,0,1,51.176,4.359Zm7.773,8.977a1.481,1.481,0,0,0,1.016-.344,1.2,1.2,0,0,0,.406-.914h2.117a2.9,2.9,0,0,1-.469,1.574,3.093,3.093,0,0,1-1.262,1.109,3.949,3.949,0,0,1-1.77.395A3.67,3.67,0,0,1,56.129,14a4.56,4.56,0,0,1-1.047-3.184v-.148a4.508,4.508,0,0,1,1.039-3.117,3.627,3.627,0,0,1,2.852-1.164,3.555,3.555,0,0,1,2.543.9,3.2,3.2,0,0,1,.973,2.4H60.371a1.551,1.551,0,0,0-.406-1.072,1.51,1.51,0,0,0-2.223.163,3.333,3.333,0,0,0-.4,1.866v.235a3.375,3.375,0,0,0,.4,1.878A1.377,1.377,0,0,0,58.949,13.336ZM68.676,15a2.507,2.507,0,0,1-.227-.758,2.732,2.732,0,0,1-2.133.914,3,3,0,0,1-2.059-.719,2.312,2.312,0,0,1-.816-1.812,2.389,2.389,0,0,1,1-2.062,4.915,4.915,0,0,1,2.879-.727h1.039V9.352a1.393,1.393,0,0,0-.3-.937,1.183,1.183,0,0,0-.949-.352,1.345,1.345,0,0,0-.895.273.929.929,0,0,0-.324.75H63.629a2.268,2.268,0,0,1,.453-1.359,3,3,0,0,1,1.281-.98,4.669,4.669,0,0,1,1.859-.355,3.689,3.689,0,0,1,2.48.785,2.747,2.747,0,0,1,.918,2.207v3.664a4.041,4.041,0,0,0,.336,1.82V15Zm-1.867-1.57a1.945,1.945,0,0,0,.922-.223,1.462,1.462,0,0,0,.625-.6V11.156h-.844q-1.7,0-1.8,1.172l-.008.133a.9.9,0,0,0,.3.7A1.153,1.153,0,0,0,66.809,13.43ZM72,10.711a5.094,5.094,0,0,1,.887-3.148,2.877,2.877,0,0,1,2.426-1.172,2.589,2.589,0,0,1,2.039.922V3h2.266V15H77.582l-.109-.9A2.657,2.657,0,0,1,75.3,15.156a2.869,2.869,0,0,1-2.395-1.176A5.258,5.258,0,0,1,72,10.711Zm2.258.161a3.355,3.355,0,0,0,.414,1.829,1.348,1.348,0,0,0,1.2.636,1.51,1.51,0,0,0,1.477-.887V9.1a1.489,1.489,0,0,0-1.461-.887Q74.262,8.211,74.262,10.872ZM81.02,10.7A5.013,5.013,0,0,1,81.5,8.453,3.546,3.546,0,0,1,82.9,6.93a4.069,4.069,0,0,1,2.113-.539A3.849,3.849,0,0,1,87.8,7.438a4.2,4.2,0,0,1,1.207,2.844l.016.578a4.418,4.418,0,0,1-1.086,3.121,4.209,4.209,0,0,1-5.832,0A4.5,4.5,0,0,1,81.02,10.8Zm2.258.16A3.16,3.16,0,0,0,83.73,12.7a1.628,1.628,0,0,0,2.578.008,3.457,3.457,0,0,0,.461-2.015,3.128,3.128,0,0,0-.461-1.831,1.5,1.5,0,0,0-1.3-.649,1.474,1.474,0,0,0-1.281.646A3.516,3.516,0,0,0,83.277,10.856ZM95.168,8.664a6.134,6.134,0,0,0-.812-.062,1.654,1.654,0,0,0-1.68.867V15H90.418V6.547h2.133l.063,1.008A2.092,2.092,0,0,1,94.5,6.391a2.366,2.366,0,0,1,.7.1Zm11.641,3.992H102.7L101.918,15H99.426L103.66,3.625h2.172L110.09,15H107.6Zm-3.477-1.9h2.844L104.746,6.5ZM116.395,15h-2.258V6.285l-2.7.832V5.3l4.711-1.687h.242Zm-85.2,24H28.848V27.625h2.344Zm4.1-8.453.07.977a2.951,2.951,0,0,1,2.43-1.133,2.453,2.453,0,0,1,2,.789,3.682,3.682,0,0,1,.672,2.359V39H38.207V33.581a1.47,1.47,0,0,0-.312-1.045,1.4,1.4,0,0,0-1.039-.325,1.553,1.553,0,0,0-1.43.814V39H33.168V30.547Zm6.531,4.164a5.094,5.094,0,0,1,.887-3.148,2.877,2.877,0,0,1,2.426-1.172,2.589,2.589,0,0,1,2.039.922V27h2.266V39H47.4l-.109-.9a2.657,2.657,0,0,1-2.172,1.055,2.869,2.869,0,0,1-2.395-1.176A5.258,5.258,0,0,1,41.824,34.711Zm2.258.161A3.355,3.355,0,0,0,44.5,36.7a1.348,1.348,0,0,0,1.2.636,1.51,1.51,0,0,0,1.477-.887V33.1a1.489,1.489,0,0,0-1.461-.887Q44.082,32.211,44.082,34.872ZM53.574,39H51.309V30.547h2.266Zm-2.4-10.641a1.112,1.112,0,0,1,.34-.836,1.465,1.465,0,0,1,1.848,0,1.193,1.193,0,0,1,0,1.68,1.448,1.448,0,0,1-1.836,0A1.108,1.108,0,0,1,51.176,28.359Zm7.773,8.977a1.481,1.481,0,0,0,1.016-.344,1.2,1.2,0,0,0,.406-.914h2.117a2.9,2.9,0,0,1-.469,1.574,3.093,3.093,0,0,1-1.262,1.109,3.949,3.949,0,0,1-1.77.395A3.67,3.67,0,0,1,56.129,38a4.56,4.56,0,0,1-1.047-3.184v-.148a4.508,4.508,0,0,1,1.039-3.117,3.627,3.627,0,0,1,2.852-1.164,3.555,3.555,0,0,1,2.543.9,3.2,3.2,0,0,1,.973,2.4H60.371a1.551,1.551,0,0,0-.406-1.072,1.51,1.51,0,0,0-2.223.163,3.333,3.333,0,0,0-.4,1.866v.235a3.375,3.375,0,0,0,.4,1.878A1.377,1.377,0,0,0,58.949,37.336ZM68.676,39a2.507,2.507,0,0,1-.227-.758,2.732,2.732,0,0,1-2.133.914,3,3,0,0,1-2.059-.719,2.312,2.312,0,0,1-.816-1.812,2.389,2.389,0,0,1,1-2.062,4.915,4.915,0,0,1,2.879-.727h1.039v-.484a1.393,1.393,0,0,0-.3-.937,1.183,1.183,0,0,0-.949-.352,1.345,1.345,0,0,0-.895.273.929.929,0,0,0-.324.75H63.629a2.268,2.268,0,0,1,.453-1.359,3,3,0,0,1,1.281-.98,4.669,4.669,0,0,1,1.859-.355,3.689,3.689,0,0,1,2.48.785,2.747,2.747,0,0,1,.918,2.207v3.664a4.041,4.041,0,0,0,.336,1.82V39Zm-1.867-1.57a1.945,1.945,0,0,0,.922-.223,1.462,1.462,0,0,0,.625-.6V35.156h-.844q-1.7,0-1.8,1.172l-.008.133a.9.9,0,0,0,.3.7A1.153,1.153,0,0,0,66.809,37.43ZM72,34.711a5.094,5.094,0,0,1,.887-3.148,2.877,2.877,0,0,1,2.426-1.172,2.589,2.589,0,0,1,2.039.922V27h2.266V39H77.582l-.109-.9A2.657,2.657,0,0,1,75.3,39.156a2.869,2.869,0,0,1-2.395-1.176A5.258,5.258,0,0,1,72,34.711Zm2.258.161a3.355,3.355,0,0,0,.414,1.829,1.348,1.348,0,0,0,1.2.636,1.51,1.51,0,0,0,1.477-.887V33.1a1.489,1.489,0,0,0-1.461-.887Q74.262,32.211,74.262,34.872ZM81.02,34.7a5.013,5.013,0,0,1,.484-2.242A3.546,3.546,0,0,1,82.9,30.93a4.069,4.069,0,0,1,2.113-.539A3.849,3.849,0,0,1,87.8,31.438a4.2,4.2,0,0,1,1.207,2.844l.016.578a4.418,4.418,0,0,1-1.086,3.121,4.209,4.209,0,0,1-5.832,0A4.5,4.5,0,0,1,81.02,34.8Zm2.258.16A3.16,3.16,0,0,0,83.73,36.7a1.628,1.628,0,0,0,2.578.008,3.457,3.457,0,0,0,.461-2.015,3.128,3.128,0,0,0-.461-1.831,1.5,1.5,0,0,0-1.3-.649,1.474,1.474,0,0,0-1.281.646A3.516,3.516,0,0,0,83.277,34.856Zm11.891-2.192a6.134,6.134,0,0,0-.812-.062,1.654,1.654,0,0,0-1.68.867V39H90.418V30.547h2.133l.063,1.008A2.092,2.092,0,0,1,94.5,30.391a2.366,2.366,0,0,1,.7.1Zm11.641,3.992H102.7L101.918,39H99.426l4.234-11.375h2.172L110.09,39H107.6Zm-3.477-1.9h2.844l-1.43-4.258ZM118.707,39h-7.8V37.453l3.68-3.922a9.078,9.078,0,0,0,1.121-1.445,2.322,2.322,0,0,0,.363-1.172,1.738,1.738,0,0,0-.383-1.191,1.382,1.382,0,0,0-1.094-.434,1.49,1.49,0,0,0-1.207.527,2.089,2.089,0,0,0-.441,1.387h-2.266a3.729,3.729,0,0,1,.5-1.9,3.5,3.5,0,0,1,1.4-1.348,4.262,4.262,0,0,1,2.055-.488,4.036,4.036,0,0,1,2.73.844,2.985,2.985,0,0,1,.973,2.383,3.825,3.825,0,0,1-.437,1.719,9.551,9.551,0,0,1-1.5,2.039l-2.586,2.727h4.891ZM31.191,63H28.848V51.625h2.344Zm4.1-8.453.07.977a2.951,2.951,0,0,1,2.43-1.133,2.453,2.453,0,0,1,2,.789,3.682,3.682,0,0,1,.672,2.359V63H38.207V57.581a1.47,1.47,0,0,0-.312-1.045,1.4,1.4,0,0,0-1.039-.325,1.553,1.553,0,0,0-1.43.814V63H33.168V54.547Zm6.531,4.164a5.094,5.094,0,0,1,.887-3.148,2.877,2.877,0,0,1,2.426-1.172,2.589,2.589,0,0,1,2.039.922V51h2.266V63H47.4l-.109-.9a2.657,2.657,0,0,1-2.172,1.055,2.869,2.869,0,0,1-2.395-1.176A5.258,5.258,0,0,1,41.824,58.711Zm2.258.161A3.355,3.355,0,0,0,44.5,60.7a1.348,1.348,0,0,0,1.2.636,1.51,1.51,0,0,0,1.477-.887V57.1a1.489,1.489,0,0,0-1.461-.887Q44.082,56.211,44.082,58.872ZM53.574,63H51.309V54.547h2.266Zm-2.4-10.641a1.112,1.112,0,0,1,.34-.836,1.465,1.465,0,0,1,1.848,0,1.193,1.193,0,0,1,0,1.68,1.448,1.448,0,0,1-1.836,0A1.108,1.108,0,0,1,51.176,52.359Zm7.773,8.977a1.481,1.481,0,0,0,1.016-.344,1.2,1.2,0,0,0,.406-.914h2.117a2.9,2.9,0,0,1-.469,1.574,3.093,3.093,0,0,1-1.262,1.109,3.949,3.949,0,0,1-1.77.395A3.67,3.67,0,0,1,56.129,62a4.56,4.56,0,0,1-1.047-3.184v-.148a4.508,4.508,0,0,1,1.039-3.117,3.627,3.627,0,0,1,2.852-1.164,3.555,3.555,0,0,1,2.543.9,3.2,3.2,0,0,1,.973,2.4H60.371a1.551,1.551,0,0,0-.406-1.072,1.51,1.51,0,0,0-2.223.163,3.333,3.333,0,0,0-.4,1.866v.235a3.375,3.375,0,0,0,.4,1.878A1.377,1.377,0,0,0,58.949,61.336ZM68.676,63a2.507,2.507,0,0,1-.227-.758,2.732,2.732,0,0,1-2.133.914,3,3,0,0,1-2.059-.719,2.312,2.312,0,0,1-.816-1.812,2.389,2.389,0,0,1,1-2.062,4.915,4.915,0,0,1,2.879-.727h1.039v-.484a1.393,1.393,0,0,0-.3-.937,1.183,1.183,0,0,0-.949-.352,1.345,1.345,0,0,0-.895.273.929.929,0,0,0-.324.75H63.629a2.268,2.268,0,0,1,.453-1.359,3,3,0,0,1,1.281-.98,4.669,4.669,0,0,1,1.859-.355,3.689,3.689,0,0,1,2.48.785,2.747,2.747,0,0,1,.918,2.207v3.664a4.041,4.041,0,0,0,.336,1.82V63Zm-1.867-1.57a1.945,1.945,0,0,0,.922-.223,1.462,1.462,0,0,0,.625-.6V59.156h-.844q-1.7,0-1.8,1.172l-.008.133a.9.9,0,0,0,.3.7A1.153,1.153,0,0,0,66.809,61.43ZM72,58.711a5.094,5.094,0,0,1,.887-3.148,2.877,2.877,0,0,1,2.426-1.172,2.589,2.589,0,0,1,2.039.922V51h2.266V63H77.582l-.109-.9A2.657,2.657,0,0,1,75.3,63.156a2.869,2.869,0,0,1-2.395-1.176A5.258,5.258,0,0,1,72,58.711Zm2.258.161a3.355,3.355,0,0,0,.414,1.829,1.348,1.348,0,0,0,1.2.636,1.51,1.51,0,0,0,1.477-.887V57.1a1.489,1.489,0,0,0-1.461-.887Q74.262,56.211,74.262,58.872ZM81.02,58.7a5.013,5.013,0,0,1,.484-2.242A3.546,3.546,0,0,1,82.9,54.93a4.069,4.069,0,0,1,2.113-.539A3.849,3.849,0,0,1,87.8,55.438a4.2,4.2,0,0,1,1.207,2.844l.016.578a4.418,4.418,0,0,1-1.086,3.121,4.209,4.209,0,0,1-5.832,0A4.5,4.5,0,0,1,81.02,58.8Zm2.258.16A3.16,3.16,0,0,0,83.73,60.7a1.628,1.628,0,0,0,2.578.008,3.457,3.457,0,0,0,.461-2.015,3.128,3.128,0,0,0-.461-1.831,1.5,1.5,0,0,0-1.3-.649,1.474,1.474,0,0,0-1.281.646A3.516,3.516,0,0,0,83.277,58.856Zm11.891-2.192a6.134,6.134,0,0,0-.812-.062,1.654,1.654,0,0,0-1.68.867V63H90.418V54.547h2.133l.063,1.008A2.092,2.092,0,0,1,94.5,54.391a2.366,2.366,0,0,1,.7.1Zm11.641,3.992H102.7L101.918,63H99.426l4.234-11.375h2.172L110.09,63H107.6Zm-3.477-1.9h2.844l-1.43-4.258Zm9.875-2.445h1.2a1.7,1.7,0,0,0,1.273-.43,1.575,1.575,0,0,0,.414-1.141,1.392,1.392,0,0,0-.41-1.07,1.59,1.59,0,0,0-1.129-.383,1.666,1.666,0,0,0-1.086.355,1.137,1.137,0,0,0-.437.926h-2.258a2.777,2.777,0,0,1,.48-1.6,3.2,3.2,0,0,1,1.344-1.105,4.485,4.485,0,0,1,1.9-.4,4.253,4.253,0,0,1,2.828.863,2.945,2.945,0,0,1,1.023,2.379,2.394,2.394,0,0,1-.477,1.438,3.1,3.1,0,0,1-1.25,1.008,2.826,2.826,0,0,1,1.434,1.031,2.8,2.8,0,0,1,.473,1.625,2.994,2.994,0,0,1-1.105,2.43,4.445,4.445,0,0,1-2.926.914,4.214,4.214,0,0,1-2.785-.9,2.934,2.934,0,0,1-1.082-2.375h2.258a1.308,1.308,0,0,0,.48,1.047,2,2,0,0,0,2.445-.02,1.47,1.47,0,0,0,.457-1.129q0-1.7-1.875-1.7h-1.2Z" transform="translate(568.977 1091.758)" fill="#fff"/>
      <path id="Trazado_166478" data-name="Trazado 166478" d="M31.05,11.642h-6.4V29H19.507V11.642H13.223V7.672H31.05Zm8.306,17.651a8.148,8.148,0,0,1-5.9-2.175A7.512,7.512,0,0,1,31.2,21.456v-.41a9.734,9.734,0,0,1,.9-4.292,6.592,6.592,0,0,1,2.629-2.878,7.938,7.938,0,0,1,4.1-1.018A6.861,6.861,0,0,1,44.1,14.93a8.145,8.145,0,0,1,1.934,5.779v1.919H36.221a3.558,3.558,0,0,0,1.157,2.095,3.443,3.443,0,0,0,2.314.762,4.437,4.437,0,0,0,3.662-1.641l2.256,2.666A6.306,6.306,0,0,1,43,28.539,8.836,8.836,0,0,1,39.356,29.293ZM38.8,16.666q-2.168,0-2.578,2.871H41.2v-.381a2.445,2.445,0,0,0-.6-1.838A2.39,2.39,0,0,0,38.8,16.666ZM52.686,13.15l.161,1.86a5.45,5.45,0,0,1,4.526-2.153,4.012,4.012,0,0,1,4.058,2.388,5.275,5.275,0,0,1,4.658-2.388q4.819,0,4.951,5.83V29H66.089V19a3.022,3.022,0,0,0-.41-1.772,1.746,1.746,0,0,0-1.494-.557A2.339,2.339,0,0,0,62,17.97l.015.205V29H57.066V19.024a3.176,3.176,0,0,0-.4-1.8,1.741,1.741,0,0,0-1.509-.557,2.367,2.367,0,0,0-2.168,1.3V29H48.057V13.15ZM82.789,29a5.574,5.574,0,0,1-.469-1.421,4.59,4.59,0,0,1-3.809,1.714A5.623,5.623,0,0,1,74.7,27.938a4.313,4.313,0,0,1-1.567-3.406,4.433,4.433,0,0,1,1.9-3.9,9.7,9.7,0,0,1,5.537-1.318H82.1v-.839q0-2.193-1.89-2.193a1.545,1.545,0,0,0-1.758,1.737H73.516a4.425,4.425,0,0,1,1.956-3.731,8.218,8.218,0,0,1,4.988-1.434,7.205,7.205,0,0,1,4.79,1.479,5.144,5.144,0,0,1,1.8,4.058v7.017a7.186,7.186,0,0,0,.674,3.34V29ZM79.7,25.777a2.754,2.754,0,0,0,1.531-.4,2.479,2.479,0,0,0,.872-.894V21.954H80.665q-2.578,0-2.578,2.314a1.413,1.413,0,0,0,.454,1.091A1.643,1.643,0,0,0,79.7,25.777Zm29.9-.762h-7.046L101.319,29H95.826l7.822-21.328h4.834L116.363,29H110.84Zm-5.815-3.97h4.585l-2.3-7.4Z" transform="translate(577.977 1052.758)" fill="#fcf300"/>
      <g id="Grupo_114805" data-name="Grupo 114805" transform="translate(285 885)">
        <g id="Grupo_114804" data-name="Grupo 114804" clip-path="url(#clip-path)">
          <g id="Grupo_114803" data-name="Grupo 114803">
            <g id="Grupo_114802" data-name="Grupo 114802" clip-path="url(#clip-path)">
              <path id="Trazado_165378" data-name="Trazado 165378" d="M53.468,263.236c2.126,0-16.243,49.344-20.971,61.948-.522,1.4-.89,2.625-.89,2.625l128.587.222-1.516-119.642a2.2,2.2,0,0,0-.017-.236L147.907,122.57a2.1,2.1,0,0,0-1.536-1.773c-5.091-1.381-23.439-6.116-37.474-6.635-16.456-.609-40.252,2.655-40.252,2.655s-21.353,2.2-33.1,6.441a2.11,2.11,0,0,0-1.379,2.283Z" transform="translate(6.087 21.97)" fill="#ff8628"/>
              <path id="Trazado_165379" data-name="Trazado 165379" d="M105.208,194.682a8.568,8.568,0,0,1-.644,1.554,15.135,15.135,0,0,1-.9,1.754,24.953,24.953,0,0,1-1.364,2.234,27.794,27.794,0,0,1-1.878,2.56c-.687.916-1.537,1.792-2.41,2.736a38.572,38.572,0,0,1-13.889,9.1c-1.214.423-2.358.853-3.472,1.117a28.2,28.2,0,0,1-3.1.7,25.151,25.151,0,0,1-2.594.357,15.047,15.047,0,0,1-1.969.128,8.605,8.605,0,0,1-1.682-.031c-.007-.136,2.4-.122,6.161-.885a29.965,29.965,0,0,0,3.04-.763c1.094-.281,2.215-.724,3.406-1.154a44.084,44.084,0,0,0,7.307-3.778,44.1,44.1,0,0,0,6.381-5.188c.871-.919,1.724-1.77,2.419-2.659a30,30,0,0,0,1.915-2.482c2.2-3.145,3.151-5.355,3.274-5.294" transform="translate(13.732 37.491)" fill="#263238"/>
              <g id="Grupo_114753" data-name="Grupo 114753" transform="translate(42.06 301.08)" opacity="0.2">
                <g id="Grupo_114752" data-name="Grupo 114752">
                  <g id="Grupo_114751" data-name="Grupo 114751" clip-path="url(#clip-path-3)">
                    <path id="Trazado_165380" data-name="Trazado 165380" d="M35.268,289.21A37.845,37.845,0,0,0,72.159,284.6c4.637-3.367,8.528-7.767,13.531-10.56,6.938-3.871,15.211-4.238,23.136-4.8,10.609-.757,21.3-2.058,31.273-5.753a12.512,12.512,0,0,0,5.468-3.306c1.381-1.655,1.844-4.266.5-5.947-1.377-1.719-3.913-1.815-6.114-1.75-33.254.98-63.638,3.647-96.006,11.337" transform="translate(-35.268 -252.462)"/>
                  </g>
                </g>
              </g>
              <path id="Trazado_165381" data-name="Trazado 165381" d="M65.319,13.041C75.6,2.577,91.817-3.6,105.254,2.279c9.034,3.953,15.162,12.431,23.092,18.293,5.774,4.269,12.91,7.569,15.936,14.082,2.668,5.742,1.381,12.424.737,18.723s-.193,13.563,4.686,17.6c2.562,2.12,5.929,2.958,8.814,4.61,5.807,3.326,9.257,9.8,10.5,16.378s.572,13.345-.1,20l-27.677,5.274-4.546-7.647-1.585,12.022L99.787,124.8Z" transform="translate(12.579 0)" fill="#12263f"/>
              <path id="Trazado_165382" data-name="Trazado 165382" d="M61.854,21.023l-.061,7.7L59.614,144.171c-.19,13.382,12.615,24.776,26.944,24.87,14.473.093,20.376-10.778,20.79-24.294.436-14.184,1.153-29.111,1.153-29.111s18.359-2.529,22.8-26.27c2.21-11.805,2.151-31.265,1.589-47.184a25.189,25.189,0,0,0-27.126-24.239Z" transform="translate(11.48 3.44)" fill="#ffbe9d"/>
              <path id="Trazado_165383" data-name="Trazado 165383" d="M116.772,51.574a3.061,3.061,0,0,1-3.034,3,2.924,2.924,0,0,1-3.076-2.844,3.059,3.059,0,0,1,3.03-3.005,2.927,2.927,0,0,1,3.079,2.845" transform="translate(21.311 9.384)" fill="#263238"/>
              <path id="Trazado_165384" data-name="Trazado 165384" d="M119.24,47.184c-.39.388-2.659-1.391-5.951-1.472-3.286-.129-5.747,1.5-6.093,1.084-.171-.184.235-.893,1.308-1.629a8.4,8.4,0,0,1,4.892-1.362,8.056,8.056,0,0,1,4.721,1.671c.991.8,1.314,1.534,1.122,1.708" transform="translate(20.636 8.435)" fill="#263238"/>
              <path id="Trazado_165385" data-name="Trazado 165385" d="M89.592,51.574a3.06,3.06,0,0,1-3.034,3,2.925,2.925,0,0,1-3.076-2.844,3.059,3.059,0,0,1,3.03-3.005,2.927,2.927,0,0,1,3.079,2.845" transform="translate(16.077 9.384)" fill="#263238"/>
              <path id="Trazado_165386" data-name="Trazado 165386" d="M92.1,46.951c-.391.388-2.663-1.389-5.951-1.472-3.286-.129-5.748,1.5-6.094,1.084-.169-.184.233-.892,1.309-1.629a8.387,8.387,0,0,1,4.891-1.362,8.068,8.068,0,0,1,4.723,1.67c.987.8,1.313,1.536,1.122,1.709" transform="translate(15.41 8.39)" fill="#263238"/>
              <path id="Trazado_165387" data-name="Trazado 165387" d="M99.728,71.578c-.011-.187,2.045-.484,5.371-.817.843-.063,1.642-.209,1.8-.778a4.278,4.278,0,0,0-.491-2.507q-1.1-3.082-2.309-6.466c-3.2-9.205-5.491-16.765-5.12-16.89s3.268,7.233,6.467,16.438q1.152,3.4,2.2,6.5a4.869,4.869,0,0,1,.345,3.311,2.109,2.109,0,0,1-1.416,1.19,5.709,5.709,0,0,1-1.432.159c-3.34.088-5.411.045-5.418-.142" transform="translate(19.053 8.496)" fill="#263238"/>
              <path id="Trazado_165388" data-name="Trazado 165388" d="M105.726,101.367a60.683,60.683,0,0,1-31.7-9.4s7.295,16.595,31.222,15.02Z" transform="translate(14.256 17.711)" fill="#eb996e"/>
              <path id="Trazado_165389" data-name="Trazado 165389" d="M99.846,74.144A5.93,5.93,0,0,0,94.591,71.8,5.406,5.406,0,0,0,90.8,73.7a3.432,3.432,0,0,0-.37,3.915,3.982,3.982,0,0,0,4.284,1.209,12.455,12.455,0,0,0,4.275-2.395,3.638,3.638,0,0,0,.967-.947,1.1,1.1,0,0,0,.029-1.225" transform="translate(17.326 13.822)" fill="#eb996e"/>
              <path id="Trazado_165390" data-name="Trazado 165390" d="M91.522,68.829c.535-.017.445,3.555,3.432,6.175s6.8,2.331,6.814,2.832c.043.224-.867.669-2.476.669A8.892,8.892,0,0,1,93.6,76.344a7.749,7.749,0,0,1-2.649-5.171c-.1-1.5.328-2.371.571-2.343" transform="translate(17.512 13.255)" fill="#263238"/>
              <path id="Trazado_165391" data-name="Trazado 165391" d="M93.461,38.807c-.351.886-3.623.371-7.5.73-3.881.281-7.025,1.325-7.517.508-.217-.39.348-1.216,1.633-2.048a13.084,13.084,0,0,1,11.434-.945c1.4.611,2.1,1.333,1.946,1.754" transform="translate(15.098 6.963)" fill="#263238"/>
              <path id="Trazado_165392" data-name="Trazado 165392" d="M119.591,41.646c-.725.727-3.463-.124-6.78-.252-3.312-.224-6.141.333-6.767-.466-.272-.388.19-1.125,1.438-1.8a10.928,10.928,0,0,1,5.547-1.073,10.739,10.739,0,0,1,5.367,1.652c1.152.8,1.516,1.58,1.195,1.937" transform="translate(20.407 7.326)" fill="#263238"/>
              <path id="Trazado_165393" data-name="Trazado 165393" d="M48.724,119.945s-38.352,9-45.79,45.368C-.483,182.025-5.272,277.982,17.08,292.888c28.852,19.24,65.527,1.732,65.527,1.732L77.9,248.205H54.085l-3.213-50.847c.9,3.9-2.148-77.414-2.148-77.414" transform="translate(0 23.098)" fill="#ff8628"/>
              <path id="Trazado_165394" data-name="Trazado 165394" d="M160.321,279.669a29.659,29.659,0,0,0,26.6-30.788L171.262,182.31s-5.775-32.48-22.544-50.84c-5.262-5.763-11.836-10.175-19.738-11.443l10.945,87.1-1.045,18.354s.5,12.143,1.733,34.892Z" transform="translate(24.838 23.114)" fill="#ff8628"/>
              <path id="Trazado_165395" data-name="Trazado 165395" d="M162.771,218.985a40.622,40.622,0,0,0-5.783.634,23.489,23.489,0,0,0-18.429,18.814,40.628,40.628,0,0,0-.515,5.794,6.4,6.4,0,0,1-.182-1.568,20.869,20.869,0,0,1,.266-4.3A23.089,23.089,0,0,1,156.9,219.189a20.916,20.916,0,0,1,4.3-.354,6.45,6.45,0,0,1,1.572.15" transform="translate(26.544 42.14)" fill="#263238"/>
              <path id="Trazado_165396" data-name="Trazado 165396" d="M87.148,8.971c4.319,5.8,6.372,10.254,8.961,20.565,1.268,5.051-2.838,8.618-6.917,11.7a3.29,3.29,0,0,1-5.2-1.9s1.417,15.8-4.3,22.887c-2.679,3.32-2.792,7.582-2.156,11.171a18.936,18.936,0,0,0,5.1,9.663c6.624,6.963,8.464,18.325,3.894,26.866-1.17,2.187-2.7,4.188-3.631,6.485a9.8,9.8,0,0,0-.761,4.194,3.323,3.323,0,0,1-2.817,3.529,260.818,260.818,0,0,1-59.273,1.782,3.251,3.251,0,0,1-2.9-2.458c-1.547-6.547,1.033-13.686,4.342-19.716C25.191,97,29.9,90.542,31.168,82.968c1.2-7.128-.749-14.814,2.116-21.451,3.515-8.143,13.068-12,17.85-19.468C55.647,35,55.286,25.759,59.329,18.43,64.519,9.019,77.3,4.675,87.148,8.971" transform="translate(3.215 1.408)" fill="#12263f"/>
              <path id="Trazado_165397" data-name="Trazado 165397" d="M76.842,17.552c7.5,3.856,10.965,13.028,18.251,17.274,6.635,3.868,14.916,2.847,22.51,1.705q-.422-2.526-.846-5.054a13.622,13.622,0,0,0,2.814,4.092,4.625,4.625,0,0,0,4.616,1.092c2.547-1.026,2.886-4.532,2.231-7.2a24.711,24.711,0,0,0-6.63-11.23,33.63,33.63,0,0,0-43.868-3.506" transform="translate(14.621 1.58)" fill="#12263f"/>
              <path id="Trazado_165398" data-name="Trazado 165398" d="M135.68,158.392a5.3,5.3,0,0,1,.07.937c.021.673.049,1.566.082,2.686.047,2.333.165,5.708.342,9.876.342,8.336,1.121,19.836,2.06,32.537s1.651,24.222,1.881,32.57c.122,4.174.172,7.554.143,9.889-.014,1.12-.025,2.014-.033,2.688a5.354,5.354,0,0,1-.055.937,5.3,5.3,0,0,1-.07-.937c-.021-.673-.049-1.566-.082-2.686-.047-2.333-.163-5.708-.341-9.875-.342-8.336-1.122-19.839-2.061-32.543s-1.649-24.216-1.879-32.566c-.122-4.173-.173-7.553-.144-9.888q.021-1.682.035-2.689a5.305,5.305,0,0,1,.054-.937" transform="translate(26.11 30.502)" fill="#263238"/>
              <path id="Trazado_165399" data-name="Trazado 165399" d="M46.041,238.1a2.769,2.769,0,0,1-.086-.667c-.032-.507-.074-1.14-.124-1.914-.1-1.751-.23-4.135-.392-7.042-.339-5.946-.861-14.157-1.48-23.223-.628-9.029-1.2-17.2-1.615-23.219-.191-2.906-.348-5.29-.463-7.039-.039-.775-.073-1.41-.1-1.916a2.762,2.762,0,0,1,.007-.671,2.676,2.676,0,0,1,.118.661c.057.5.128,1.135.215,1.907.163,1.746.388,4.124.659,7.025.522,5.934,1.178,14.139,1.8,23.211s1.073,17.289,1.3,23.243c.1,2.978.184,5.388.2,7.054,0,.778,0,1.412.007,1.92a2.721,2.721,0,0,1-.039.67" transform="translate(8.044 33.202)" fill="#263238"/>
              <path id="Trazado_165400" data-name="Trazado 165400" d="M47.457,227.5c.011.111-1.245.166-3.122.8a13.88,13.88,0,0,0-9.409,11.165c-.306,1.957-.148,3.2-.259,3.212a2.229,2.229,0,0,1-.185-.863,11.38,11.38,0,0,1,.008-2.405A13.377,13.377,0,0,1,44.2,227.882a11.474,11.474,0,0,1,2.37-.415,2.213,2.213,0,0,1,.883.036" transform="translate(6.629 43.802)" fill="#263238"/>
              <path id="Trazado_165401" data-name="Trazado 165401" d="M74.325,273.957a3.214,3.214,0,0,1-.138-.735c-.072-.55-.162-1.251-.273-2.117-.221-1.921-.522-4.566-.891-7.8-.7-6.663-1.653-15.734-2.7-25.756-.349-3.484-.689-6.851-1-9.977l.3.268-19.073-.11L45,227.645l-1.479-.049a1.969,1.969,0,0,1-.512-.052,1.967,1.967,0,0,1,.512-.052L45,227.442l5.538-.087,19.073-.11.27,0,.027.271c.321,3.125.667,6.491,1.024,9.973.981,10.03,1.87,19.107,2.523,25.774.289,3.243.524,5.894.694,7.82.064.872.117,1.577.157,2.13a3.385,3.385,0,0,1,.014.747" transform="translate(8.283 43.761)" fill="#263238"/>
              <path id="Trazado_165402" data-name="Trazado 165402" d="M81.773,270.408a5.562,5.562,0,0,1-.9.333l-2.617.835c-2.279.7-5.582,1.713-9.708,2.814a122.128,122.128,0,0,1-14.688,3.051,50.777,50.777,0,0,1-18.324-.868,77.905,77.905,0,0,1-9.174-2.586c-1.451-.516-2.867-1.049-4.235-1.618-.682-.29-1.362-.553-2.013-.905l-.978-.494-.909-.586a22.384,22.384,0,0,1-5.752-5.64A39.175,39.175,0,0,1,8.934,258.7a71.151,71.151,0,0,1-3.608-9.451c-.347-1.142-.609-2.031-.769-2.639a5.543,5.543,0,0,1-.221-.934,5.624,5.624,0,0,1,.34.9c.219.649.513,1.513.88,2.6a80.344,80.344,0,0,0,3.772,9.334,39.715,39.715,0,0,0,3.562,5.934A22.013,22.013,0,0,0,18.54,269.9l.883.563.947.471c.623.334,1.306.6,1.983.881,1.361.559,2.768,1.083,4.21,1.592a78.854,78.854,0,0,0,9.1,2.552,50.927,50.927,0,0,0,18.118.909,129.154,129.154,0,0,0,14.654-2.909c4.13-1.044,7.45-1.987,9.748-2.621l2.65-.723a5.668,5.668,0,0,1,.936-.212" transform="translate(0.834 47.311)" fill="#263238"/>
              <path id="Trazado_165403" data-name="Trazado 165403" d="M56.963,35.817a15.244,15.244,0,0,0-3.486-16.679A17.155,17.155,0,0,0,36.591,15.48,13.008,13.008,0,0,0,30,19.989c-2.924,4.038-2.354,9.977.669,13.942s8.059,6.059,13.037,6.335,9.92-1.09,14.523-3.005" transform="translate(5.408 2.821)" fill="#12263f"/>
              <path id="Trazado_165404" data-name="Trazado 165404" d="M85.813,192.266c8.341,6.882,27.969,23.172,27.969,23.172l10.991-1.957-33.3-28.01a4.423,4.423,0,1,0-5.665,6.8" transform="translate(16.216 35.517)" fill="#455a64"/>
              <path id="Trazado_165405" data-name="Trazado 165405" d="M85.625,189.225l-4.323-3.9a2.112,2.112,0,1,1,2.842-3.125l4.157,3.81Z" transform="translate(15.522 34.98)" fill="#455a64"/>
              <path id="Trazado_165406" data-name="Trazado 165406" d="M96.54,189.761c.125.118-1.075,1.587-2.679,3.281s-3.005,2.972-3.131,2.854,1.076-1.586,2.68-3.281,3.005-2.972,3.129-2.854" transform="translate(17.471 36.542)" fill="#263238"/>
              <path id="Trazado_165407" data-name="Trazado 165407" d="M98.272,204.4a21.279,21.279,0,0,1-3.323-2.172c-1.988-1.432-4.669-3.507-7.491-5.966a12.4,12.4,0,0,1-3.5-4.036,5.779,5.779,0,0,1-.112-4.382,5.489,5.489,0,0,1,1.763-2.371,2.236,2.236,0,0,1,.948-.516c.025.044-.3.241-.791.7A5.765,5.765,0,0,0,84.255,188a5.455,5.455,0,0,0,.221,4,12.427,12.427,0,0,0,3.392,3.8c2.809,2.447,5.433,4.568,7.347,6.086a30.213,30.213,0,0,1,3.058,2.521" transform="translate(16.073 35.618)" fill="#263238"/>
              <path id="Trazado_165408" data-name="Trazado 165408" d="M65.636,234.878c7.908-2.657,16.311-.868,24.219-3.524,2.652-.891,5.382-1.827,7.474-3.685,2.512-2.231,3.789-5.51,5.792-8.207,5.986-8.061,17.168-9.731,27.156-10.755a20.209,20.209,0,0,1,6.993.1,6.852,6.852,0,0,1,5.083,4.384c.638,2.256-.818,5.071-3.151,5.306,2.188.1,3.721,2.318,4.123,4.472s.044,4.383.334,6.554c.407,3.051,2.075,5.906,1.978,8.981-.132,4.211-3.622,7.677-7.51,9.3s-8.191,1.831-12.361,2.417c-20.478,2.881-36.055,14.509-55.8,23.292" transform="translate(12.64 40.142)" fill="#ffbe9d"/>
              <path id="Trazado_165409" data-name="Trazado 165409" d="M132.308,225.233a2.824,2.824,0,0,0,4.032.83,4.318,4.318,0,0,0,1.548-4.168,9.7,9.7,0,0,0-1.975-4.193,53.994,53.994,0,0,0-5.729-6.329l-6.345,5.312Z" transform="translate(23.849 40.705)" fill="#ffbe9d"/>
              <path id="Trazado_165410" data-name="Trazado 165410" d="M131.718,217.241c-.012.2-3.887-.123-8.578.6-4.7.693-8.306,2.139-8.374,1.957a8.376,8.376,0,0,1,2.315-1.069,31.864,31.864,0,0,1,12.111-1.828,8.328,8.328,0,0,1,2.527.336" transform="translate(22.101 41.764)" fill="#eb996e"/>
              <path id="Trazado_165411" data-name="Trazado 165411" d="M133.669,227.759c-.037.188-3.262-.473-7.279-.359-4.019.085-7.207.905-7.253.719-.056-.141,3.125-1.251,7.238-1.339,4.112-.116,7.344.836,7.295.979" transform="translate(22.943 43.67)" fill="#eb996e"/>
              <path id="Trazado_165412" data-name="Trazado 165412" d="M131.257,226.991c-.1-.011,0-.933-.174-2.389a12.272,12.272,0,0,0-2.736-6.4l-.179-.222.2-.2a5.739,5.739,0,0,0,1.649-4.2c-.03-1.184-.357-1.866-.266-1.9a3.142,3.142,0,0,1,.667,1.876,5.789,5.789,0,0,1-1.622,4.659l.019-.416a11.4,11.4,0,0,1,2.707,6.761,5.314,5.314,0,0,1-.264,2.426" transform="translate(24.682 40.765)" fill="#eb996e"/>
              <path id="Trazado_165413" data-name="Trazado 165413" d="M130.954,222.426l10.4,9.762,1.33,5.8-9.621-2.171c-1.377-4.9-2.395-9.561-2.113-13.389" transform="translate(25.209 42.834)" fill="#455a64"/>
              <path id="Trazado_165414" data-name="Trazado 165414" d="M128.2,233.284c-.212.382-56.137,27.954-56.137,27.954v5.931l57.069-29.686,70.812-2.673v-4.2Z" transform="translate(13.878 44.41)" fill="#f5f5f5"/>
              <path id="Trazado_165415" data-name="Trazado 165415" d="M72.065,267.343c.391-.266,61.746-5.8,61.746-5.8l66.134-27.413-70.81,2.673L72.065,266.49Z" transform="translate(13.878 45.088)" fill="#263238"/>
              <path id="Trazado_165416" data-name="Trazado 165416" d="M121.333,251.969c-.5-3.213,2.581-5.966,5.716-6.825s6.491-.519,9.661-1.24a43.9,43.9,0,0,0,5.895-2.1c9.78-3.753,20.511-3.947,30.986-4.094a6.65,6.65,0,0,1-2.376,8.129,10.948,10.948,0,0,1-.324,7.854,24.519,24.519,0,0,1-4.37,6.712,15.245,15.245,0,0,1-5.17,4.334,17.228,17.228,0,0,1-6.634,1.018c-7.027.149-14.565.154-20.376-3.8-4.516-3.071-7.65-8.338-12.885-9.895l1.241.049" transform="translate(23.355 45.777)" fill="#ffbe9d"/>
              <path id="Trazado_165417" data-name="Trazado 165417" d="M165.384,247.324a5.67,5.67,0,0,1-1.345.128l-3.67.117c-3.1.072-7.378.128-12.106.151l-6.672,0a9.193,9.193,0,0,1-2.948-.452,4.522,4.522,0,0,1-2.131-1.553,2.83,2.83,0,0,1-.557-2.112,2.65,2.65,0,0,1,.739-1.467c.688-.645,1.283-.54,1.258-.524a2.683,2.683,0,0,0-1.082.688,2.446,2.446,0,0,0-.007,3.152,4.145,4.145,0,0,0,1.949,1.329,8.91,8.91,0,0,0,2.787.366l6.661-.051c4.727-.024,9.009-.01,12.107.031l3.671.08a5.68,5.68,0,0,1,1.346.115" transform="translate(26.175 46.526)" fill="#eb996e"/>
              <path id="Trazado_165418" data-name="Trazado 165418" d="M164.6,251.766a9.042,9.042,0,0,1-1.689.33c-1.094.168-2.68.395-4.653.584a45.127,45.127,0,0,1-6.972.167,51.372,51.372,0,0,1-8.418-1.416,65.542,65.542,0,0,0-15.233-1.87c-1.969-.008-3.563.069-4.665.13a10.365,10.365,0,0,1-1.718.051,8.291,8.291,0,0,1,1.7-.292c1.1-.135,2.7-.28,4.683-.328a59.33,59.33,0,0,1,15.372,1.7,54.633,54.633,0,0,0,8.322,1.45,49.738,49.738,0,0,0,6.9-.033c1.967-.132,3.557-.292,4.658-.386a9.329,9.329,0,0,1,1.718-.091" transform="translate(23.351 47.971)" fill="#eb996e"/>
              <path id="Trazado_165419" data-name="Trazado 165419" d="M158.011,257.527a5.577,5.577,0,0,1-1.317.246c-.852.112-2.086.264-3.618.395a43.527,43.527,0,0,1-12.022-.389c-4.708-.9-8.37-3.3-11.176-4.413a28.477,28.477,0,0,0-4.709-1.447,4.1,4.1,0,0,1,1.34.07,17.019,17.019,0,0,1,3.531.968c2.913,1.044,6.562,3.345,11.136,4.212a49.257,49.257,0,0,0,11.87.559l3.627-.2a5.577,5.577,0,0,1,1.338,0" transform="translate(24.104 48.509)" fill="#eb996e"/>
              <g id="Grupo_114756" data-name="Grupo 114756" transform="translate(166.255 250.954)" opacity="0.2">
                <g id="Grupo_114755" data-name="Grupo 114755">
                  <g id="Grupo_114754" data-name="Grupo 114754" clip-path="url(#clip-path-4)">
                    <path id="Trazado_165420" data-name="Trazado 165420" d="M139.408,233.5a40.2,40.2,0,0,1,3.486-12.605,19.459,19.459,0,0,1,9.005-9.213,12.942,12.942,0,0,1,12.534.769,6.51,6.51,0,0,1,2.5,2.983,3.655,3.655,0,0,1-.6,3.705c-1.319,1.4-3.543,1.176-5.464,1.091A23,23,0,0,0,139.6,233.039" transform="translate(-139.408 -210.43)"/>
                  </g>
                </g>
              </g>
              <g id="Grupo_114759" data-name="Grupo 114759" transform="translate(50.208 215.271)" opacity="0.2">
                <g id="Grupo_114758" data-name="Grupo 114758">
                  <g id="Grupo_114757" data-name="Grupo 114757" clip-path="url(#clip-path-5)">
                    <path id="Trazado_165421" data-name="Trazado 165421" d="M54.585,235.629c4.738-8.546,3.059-19.267-.577-28.338s-9.07-17.413-11.845-26.782a165.4,165.4,0,0,0,8.167,56.008" transform="translate(-42.101 -180.509)"/>
                  </g>
                </g>
              </g>
              <path id="Trazado_165422" data-name="Trazado 165422" d="M61.743,117.75s5.784,13.634,26.649,12.767,21.54-17.059,21.54-17.059L123.891,128.3l-13.26,27.334-17.813,13.3-24.27-9.974L48.554,143.444Z" transform="translate(9.35 21.849)" fill="#ff8628"/>
              <g id="Grupo_114762" data-name="Grupo 114762" transform="translate(9.243 197.846)" opacity="0.5">
                <g id="Grupo_114761" data-name="Grupo 114761">
                  <g id="Grupo_114760" data-name="Grupo 114760" clip-path="url(#clip-path-6)">
                    <path id="Trazado_165423" data-name="Trazado 165423" d="M20.732,165.921c.215.267-2.515,2.814-6.1,5.687s-6.659,4.986-6.874,4.719,2.515-2.813,6.1-5.689,6.659-4.985,6.874-4.718" transform="translate(-7.75 -165.898)" fill="#fafafa"/>
                  </g>
                </g>
              </g>
              <path id="Trazado_165424" data-name="Trazado 165424" d="M28.876,154.842c-.107.31-3.4-.62-6.967-2.819-3.575-2.184-5.9-4.7-5.668-4.937.24-.267,2.856,1.766,6.318,3.878,3.448,2.13,6.446,3.544,6.317,3.878" transform="translate(3.125 28.321)" fill="#fafafa"/>
              <path id="Trazado_165425" data-name="Trazado 165425" d="M43.635,154.925c.281.217-2.353,4.049-5.355,8.915s-5.268,8.925-5.588,8.77c-.3-.14,1.478-4.5,4.533-9.424,3.04-4.929,6.151-8.466,6.41-8.261" transform="translate(6.289 29.833)" fill="#fafafa"/>
              <path id="Trazado_165426" data-name="Trazado 165426" d="M30.417,192.066c-.244.217-3-2.589-5.406-6.76-2.428-4.162-3.5-7.943-3.19-8.048.336-.126,1.9,3.371,4.263,7.424,2.346,4.063,4.609,7.154,4.333,7.383" transform="translate(4.192 34.135)" fill="#fafafa"/>
              <path id="Trazado_165427" data-name="Trazado 165427" d="M15.934,208.706c-.34.047-1.034-2.989-1.549-6.779s-.659-6.9-.32-6.947,1.034,2.989,1.55,6.78.658,6.9.318,6.946" transform="translate(2.673 37.548)" fill="#fafafa"/>
              <g id="Grupo_114765" data-name="Grupo 114765" transform="translate(33.641 238.058)" opacity="0.5">
                <g id="Grupo_114764" data-name="Grupo 114764">
                  <g id="Grupo_114763" data-name="Grupo 114763" clip-path="url(#clip-path-7)">
                    <path id="Trazado_165428" data-name="Trazado 165428" d="M28.246,213.276c-.3-.172,1.236-3.368,3.423-7.138s4.2-6.687,4.5-6.515-1.236,3.368-3.423,7.139-4.2,6.686-4.5,6.514" transform="translate(-28.209 -199.617)" fill="#fafafa"/>
                  </g>
                </g>
              </g>
              <path id="Trazado_165429" data-name="Trazado 165429" d="M15.059,230.662c-.247.222-2.907-2.384-5.488-6.157s-4.065-7.186-3.77-7.337C6.114,217,8.049,220.1,10.6,223.8s4.731,6.627,4.464,6.86" transform="translate(1.11 41.82)" fill="#fafafa"/>
              <path id="Trazado_165430" data-name="Trazado 165430" d="M35.627,225.611c.243.241-2.494,3.4-6.113,7.053s-6.754,6.42-7,6.179,2.494-3.4,6.116-7.053,6.752-6.42,7-6.179" transform="translate(4.333 43.444)" fill="#fafafa"/>
              <g id="Grupo_114768" data-name="Grupo 114768" transform="translate(17.825 299.68)" opacity="0.5">
                <g id="Grupo_114767" data-name="Grupo 114767">
                  <g id="Grupo_114766" data-name="Grupo 114766" clip-path="url(#clip-path-8)">
                    <path id="Trazado_165431" data-name="Trazado 165431" d="M23.557,263.518c-.225.239-2.865-1.965-5.272-5.418-2.423-3.443-3.593-6.675-3.292-6.806.323-.151,1.957,2.756,4.309,6.094,2.334,3.349,4.509,5.878,4.255,6.13" transform="translate(-14.947 -251.288)" fill="#fafafa"/>
                  </g>
                </g>
              </g>
              <path id="Trazado_165432" data-name="Trazado 165432" d="M50.124,254.275c.171.3-2.762,2.29-6.547,4.448s-6.993,3.668-7.164,3.371,2.761-2.29,6.548-4.449,6.992-3.668,7.163-3.37" transform="translate(7.011 48.96)" fill="#fafafa"/>
              <path id="Trazado_165433" data-name="Trazado 165433" d="M59.392,247.962c-.211.248-3-1.875-5.52-5.342-2.537-3.456-3.709-6.76-3.407-6.885.326-.151,1.958,2.816,4.411,6.152,2.43,3.35,4.76,5.809,4.516,6.074" transform="translate(9.709 45.396)" fill="#fafafa"/>
              <path id="Trazado_165434" data-name="Trazado 165434" d="M78.035,188.4c.205.274-2.952,2.986-7.052,6.056s-7.592,5.337-7.8,5.061,2.952-2.985,7.053-6.056,7.591-5.336,7.8-5.061" transform="translate(12.166 36.278)" fill="#fafafa"/>
              <path id="Trazado_165435" data-name="Trazado 165435" d="M57.024,189.535c-.341-.035-.286-3.3.124-7.3s1.018-7.207,1.36-7.172.285,3.3-.124,7.3-1.018,7.206-1.36,7.171" transform="translate(10.938 33.713)" fill="#fafafa"/>
              <g id="Grupo_114771" data-name="Grupo 114771" transform="translate(73.856 182.841)" opacity="0.5">
                <g id="Grupo_114770" data-name="Grupo 114770">
                  <g id="Grupo_114769" data-name="Grupo 114769" clip-path="url(#clip-path-9)">
                    <path id="Trazado_165436" data-name="Trazado 165436" d="M76.543,165.783c-.191.273-3.887-2-7.944-5.47s-6.894-6.75-6.655-6.983,3.443,2.618,7.461,6.037,7.343,6.129,7.138,6.416" transform="translate(-61.93 -153.316)" fill="#fafafa"/>
                  </g>
                </g>
              </g>
              <path id="Trazado_165437" data-name="Trazado 165437" d="M63.309,134.555c.261.222-2.347,3.727-5.826,7.828s-6.511,7.246-6.774,7.024,2.347-3.726,5.827-7.828,6.511-7.246,6.773-7.024" transform="translate(9.762 25.91)" fill="#fafafa"/>
              <g id="Grupo_114774" data-name="Grupo 114774" transform="translate(42.746 152.244)" opacity="0.5">
                <g id="Grupo_114773" data-name="Grupo 114773">
                  <g id="Grupo_114772" data-name="Grupo 114772" clip-path="url(#clip-path-10)">
                    <path id="Trazado_165438" data-name="Trazado 165438" d="M48.527,132.148c-.188.306-2.854-1.065-6.316-2.225-3.456-1.185-6.4-1.717-6.368-2.075.018-.326,3.151-.337,6.767.9,3.622,1.216,6.1,3.133,5.918,3.4" transform="translate(-35.844 -127.66)" fill="#fafafa"/>
                  </g>
                </g>
              </g>
              <path id="Trazado_165439" data-name="Trazado 165439" d="M84.088,146.93c-.329-.1.235-3,1.258-6.482s2.122-6.23,2.451-6.132-.235,3-1.259,6.482-2.12,6.229-2.45,6.132" transform="translate(16.175 25.866)" fill="#fafafa"/>
              <path id="Trazado_165440" data-name="Trazado 165440" d="M93.115,169.947c-.342-.019-.458-2.86-.258-6.343s.64-6.291.983-6.272.458,2.86.258,6.343-.64,6.291-.983,6.272" transform="translate(17.863 30.298)" fill="#fafafa"/>
              <path id="Trazado_165441" data-name="Trazado 165441" d="M109.592,186.6c-.215.267-2.825-1.474-5.831-3.89s-5.268-4.591-5.053-4.859,2.825,1.474,5.832,3.89,5.266,4.591,5.052,4.859" transform="translate(19.006 34.244)" fill="#fafafa"/>
              <path id="Trazado_165442" data-name="Trazado 165442" d="M125.388,161.068c.227.258-2.1,2.683-5.2,5.419s-5.8,4.744-6.025,4.486,2.1-2.682,5.2-5.419,5.8-4.744,6.025-4.486" transform="translate(21.981 31.013)" fill="#fafafa"/>
              <g id="Grupo_114777" data-name="Grupo 114777" transform="translate(127.34 169.045)" opacity="0.5">
                <g id="Grupo_114776" data-name="Grupo 114776">
                  <g id="Grupo_114775" data-name="Grupo 114775" clip-path="url(#clip-path-11)">
                    <path id="Trazado_165443" data-name="Trazado 165443" d="M118.178,151.206c-.182.28-3.133-1.337-6.308-3.976s-5.317-5.232-5.076-5.463,2.743,1.924,5.869,4.507,5.709,4.64,5.514,4.932" transform="translate(-106.777 -141.748)" fill="#fafafa"/>
                  </g>
                </g>
              </g>
              <path id="Trazado_165444" data-name="Trazado 165444" d="M135.977,129.384c.271.188-1.173,2.657-3.726,5.046s-5.1,3.689-5.268,3.406c-.193-.3,1.971-2,4.417-4.311s4.29-4.352,4.576-4.141" transform="translate(24.452 24.913)" fill="#fafafa"/>
              <g id="Grupo_114780" data-name="Grupo 114780" transform="translate(129.202 147.842)" opacity="0.5">
                <g id="Grupo_114779" data-name="Grupo 114779">
                  <g id="Grupo_114778" data-name="Grupo 114778" clip-path="url(#clip-path-12)">
                    <path id="Trazado_165445" data-name="Trazado 165445" d="M124.652,128.157c-.045.33-3.853.058-8.4-1.1s-8.028-2.715-7.912-3.027c.119-.332,3.736.7,8.216,1.822s8.148,1.953,8.1,2.3" transform="translate(-108.339 -123.969)" fill="#fafafa"/>
                  </g>
                </g>
              </g>
              <g id="Grupo_114783" data-name="Grupo 114783" transform="translate(173.139 170.581)" opacity="0.5">
                <g id="Grupo_114782" data-name="Grupo 114782">
                  <g id="Grupo_114781" data-name="Grupo 114781" clip-path="url(#clip-path-13)">
                    <path id="Trazado_165446" data-name="Trazado 165446" d="M145.256,163.026c-.327-.07.417-4.73,2.119-10.279s3.677-9.833,3.987-9.709c.328.128-1.125,4.57-2.8,10.071s-2.964,9.993-3.307,9.916" transform="translate(-145.181 -143.036)" fill="#fafafa"/>
                  </g>
                </g>
              </g>
              <path id="Trazado_165447" data-name="Trazado 165447" d="M152.369,183.953c-.249.235-3.194-2.479-6.576-6.063s-5.923-6.681-5.673-6.916,3.193,2.478,6.576,6.063,5.922,6.681,5.673,6.916" transform="translate(26.98 32.923)" fill="#fafafa"/>
              <g id="Grupo_114786" data-name="Grupo 114786" transform="translate(188.364 214.343)" opacity="0.5">
                <g id="Grupo_114785" data-name="Grupo 114785">
                  <g id="Grupo_114784" data-name="Grupo 114784" clip-path="url(#clip-path-14)">
                    <path id="Trazado_165448" data-name="Trazado 165448" d="M158.437,197.169c-.343-.006-.555-3.915-.472-8.73s.427-8.714.769-8.708.555,3.914.472,8.73-.427,8.714-.769,8.708" transform="translate(-157.947 -179.731)" fill="#fafafa"/>
                  </g>
                </g>
              </g>
              <path id="Trazado_165449" data-name="Trazado 165449" d="M151.643,217.452c-.268.194-2.828-2.933-5.184-7.3s-3.59-8.212-3.281-8.33c.329-.132,2.042,3.451,4.373,7.739,2.316,4.294,4.383,7.687,4.092,7.891" transform="translate(27.563 38.865)" fill="#fafafa"/>
              <path id="Trazado_165450" data-name="Trazado 165450" d="M172.262,218.689c.24.246-1.414,2.249-3.695,4.476S164.244,227,164,226.753s1.414-2.249,3.695-4.477,4.323-3.833,4.563-3.587" transform="translate(31.579 42.109)" fill="#fafafa"/>
              <g id="Grupo_114789" data-name="Grupo 114789" transform="translate(143.822 218.489)" opacity="0.5">
                <g id="Grupo_114788" data-name="Grupo 114788">
                  <g id="Grupo_114787" data-name="Grupo 114787" clip-path="url(#clip-path-15)">
                    <path id="Trazado_165451" data-name="Trazado 165451" d="M120.647,197.549c-.306-.093.789-4.006,3.616-8.075,2.8-4.088,6.073-6.5,6.267-6.248.246.273-2.547,3.014-5.244,6.953-2.726,3.918-4.3,7.5-4.639,7.37" transform="translate(-120.598 -183.208)" fill="#fafafa"/>
                  </g>
                </g>
              </g>
              <path id="Trazado_165452" data-name="Trazado 165452" d="M62.341,225.184c-.333-.082.254-3.63,1.311-7.925s2.185-7.71,2.518-7.628-.254,3.629-1.311,7.925-2.185,7.71-2.518,7.628" transform="translate(11.987 40.37)" fill="#fafafa"/>
              <path id="Trazado_165453" data-name="Trazado 165453" d="M88.924,226.446c-.187.287-3.157-1.317-6.632-3.581s-6.142-4.336-5.955-4.624,3.157,1.317,6.633,3.583,6.141,4.335,5.953,4.622" transform="translate(14.699 42.021)" fill="#fafafa"/>
              <path id="Trazado_165454" data-name="Trazado 165454" d="M86.506,208.656c-.285.191-1.682-1.4-3.117-3.547s-2.371-4.048-2.086-4.238,1.682,1.4,3.119,3.548,2.37,4.046,2.085,4.237" transform="translate(15.647 38.68)" fill="#fafafa"/>
              <path id="Trazado_165455" data-name="Trazado 165455" d="M97.514,211.443c.2.28-1.058,1.5-2.8,2.726s-3.319,1.992-3.517,1.71,1.058-1.5,2.8-2.726,3.319-1.99,3.516-1.71" transform="translate(17.558 40.708)" fill="#fafafa"/>
              <g id="Grupo_114792" data-name="Grupo 114792" transform="translate(81.239 325.644)" opacity="0.5">
                <g id="Grupo_114791" data-name="Grupo 114791">
                  <g id="Grupo_114790" data-name="Grupo 114790" clip-path="url(#clip-path-16)">
                    <path id="Trazado_165456" data-name="Trazado 165456" d="M68.225,285.305c-.339-.1.212-2.811.7-6.154s.768-6.092,1.121-6.092c.333-.006.627,2.826.107,6.275s-1.616,6.073-1.932,5.97" transform="translate(-68.121 -273.059)" fill="#fafafa"/>
                  </g>
                </g>
              </g>
              <g id="Grupo_114795" data-name="Grupo 114795" transform="translate(101.996 312.329)" opacity="0.5">
                <g id="Grupo_114794" data-name="Grupo 114794">
                  <g id="Grupo_114793" data-name="Grupo 114793" clip-path="url(#clip-path-17)">
                    <path id="Trazado_165457" data-name="Trazado 165457" d="M94.594,277.779c-.3.169-2.564-3.247-5.059-7.631s-4.275-8.077-3.977-8.247,2.562,3.247,5.058,7.632,4.277,8.076,3.978,8.245" transform="translate(-85.526 -261.895)" fill="#fafafa"/>
                  </g>
                </g>
              </g>
              <g id="Grupo_114798" data-name="Grupo 114798" transform="translate(128.238 314.908)" opacity="0.5">
                <g id="Grupo_114797" data-name="Grupo 114797">
                  <g id="Grupo_114796" data-name="Grupo 114796" clip-path="url(#clip-path-18)">
                    <path id="Trazado_165458" data-name="Trazado 165458" d="M121.883,264.065c.273.209-2.715,4.572-6.674,9.747s-7.388,9.2-7.661,8.993,2.715-4.572,6.675-9.748,7.388-9.2,7.66-8.992" transform="translate(-107.53 -264.057)" fill="#fafafa"/>
                  </g>
                </g>
              </g>
              <g id="Grupo_114801" data-name="Grupo 114801" transform="translate(133.66 340.097)" opacity="0.5">
                <g id="Grupo_114800" data-name="Grupo 114800">
                  <g id="Grupo_114799" data-name="Grupo 114799" clip-path="url(#clip-path-19)">
                    <path id="Trazado_165459" data-name="Trazado 165459" d="M129.888,285.318c.049.34-3.9,1.191-8.816,1.9s-8.947,1.014-9,.674,3.9-1.191,8.817-1.9,8.946-1.014,8.994-.674" transform="translate(-112.077 -285.179)" fill="#fafafa"/>
                  </g>
                </g>
              </g>
              <path id="Trazado_165460" data-name="Trazado 165460" d="M128.184,276.452c-.346-.079-.035-2.622.093-5.748.144-3.126.055-5.687.407-5.735.327-.054.983,2.533.834,5.789s-1.012,5.776-1.333,5.695" transform="translate(24.655 51.026)" fill="#fafafa"/>
              <path id="Trazado_165461" data-name="Trazado 165461" d="M94.386,288.44c-.119.3-3.342-.767-6.7-3.2-3.375-2.413-5.417-5.126-5.167-5.336.265-.243,2.64,2,5.893,4.327,3.237,2.342,6.126,3.877,5.98,4.206" transform="translate(15.886 53.9)" fill="#fafafa"/>
              <path id="Trazado_165462" data-name="Trazado 165462" d="M50.076,287.395c-.333-.083.066-2.809.891-6.085s1.763-5.866,2.1-5.783-.066,2.807-.891,6.086-1.763,5.865-2.1,5.782" transform="translate(9.621 53.059)" fill="#fafafa"/>
              <path id="Trazado_165463" data-name="Trazado 165463" d="M45.449,32.542c.078-.1,1.432,1.069,3.928,2.439a28.789,28.789,0,0,0,4.57,1.994A31.836,31.836,0,0,0,59.9,38.3a31.839,31.839,0,0,0,6.1.06,28.722,28.722,0,0,0,4.9-.9c2.743-.768,4.327-1.6,4.38-1.482a4.848,4.848,0,0,1-1.084.63,10.617,10.617,0,0,1-1.338.608,17.424,17.424,0,0,1-1.833.665,26.006,26.006,0,0,1-4.969,1.052A27.637,27.637,0,0,1,53.76,37.516a25.961,25.961,0,0,1-4.6-2.154A17.509,17.509,0,0,1,47.527,34.3a10.472,10.472,0,0,1-1.165-.9,4.832,4.832,0,0,1-.912-.859" transform="translate(8.752 6.266)" fill="#455a64"/>
              <path id="Trazado_165464" data-name="Trazado 165464" d="M76.15,45.533a5.543,5.543,0,0,1-1.3.4c-.847.216-2.081.495-3.624.763a33.03,33.03,0,0,1-12.216.073,19.007,19.007,0,0,1-10.554-6.018,12.928,12.928,0,0,1-2-3.145,4.607,4.607,0,0,1-.436-1.293,21.272,21.272,0,0,0,2.766,4.149,19.485,19.485,0,0,0,10.352,5.7,35.8,35.8,0,0,0,12.022.1c1.54-.212,2.782-.425,3.642-.566a5.977,5.977,0,0,1,1.349-.166" transform="translate(8.861 6.993)" fill="#455a64"/>
              <path id="Trazado_165465" data-name="Trazado 165465" d="M35.945,116.694c-.008.007-.061-.049-.157-.165a6.05,6.05,0,0,1-.405-.532,6.9,6.9,0,0,1-.95-2.388,10.943,10.943,0,0,1,2.621-8.86,22.48,22.48,0,0,1,4.989-4.209C44,99.251,46.2,98.064,48.35,96.613A19.228,19.228,0,0,0,54.1,91a10.169,10.169,0,0,0,1.429-3.941,12.3,12.3,0,0,0-.23-4.337,53.88,53.88,0,0,0-3.02-8.225,22.782,22.782,0,0,1-2.017-8.027,21.415,21.415,0,0,1,4.091-13.22,20.048,20.048,0,0,1,7.034-6.2l1.336-.639,1.024-.359A4.606,4.606,0,0,1,64.6,45.8a4.964,4.964,0,0,1-.811.372l-.992.41-1.3.683A20.478,20.478,0,0,0,54.707,53.5,21.167,21.167,0,0,0,50.83,66.444a22.431,22.431,0,0,0,2.008,7.824A53.117,53.117,0,0,1,55.9,82.591a12.849,12.849,0,0,1,.236,4.557,10.763,10.763,0,0,1-1.521,4.172,19.664,19.664,0,0,1-5.945,5.767c-2.2,1.463-4.4,2.628-6.349,3.888a22.311,22.311,0,0,0-4.935,4.062,10.811,10.811,0,0,0-2.717,8.529,8.235,8.235,0,0,0,1.275,3.128" transform="translate(6.6 8.819)" fill="#455a64"/>
              <path id="Trazado_165466" data-name="Trazado 165466" d="M63.672,116.651a3.722,3.722,0,0,1-.691-.389,5.628,5.628,0,0,1-1.538-1.676,8.006,8.006,0,0,1-1.073-3.436,13,13,0,0,1,.52-4.742c.968-3.5,3.895-6.687,6.092-10.685a13.377,13.377,0,0,0,1.792-6.8,18.241,18.241,0,0,0-1.915-7.361c-2.266-4.8-5.748-8.608-8.154-12.6a25.953,25.953,0,0,1-2.814-6,14.489,14.489,0,0,1-.584-5.749,11.373,11.373,0,0,1,3.473-7.457,8,8,0,0,1,1.912-1.227,3.721,3.721,0,0,1,.745-.266,12.158,12.158,0,0,0-2.495,1.672,11.343,11.343,0,0,0-3.2,7.319,14.186,14.186,0,0,0,.64,5.556,25.772,25.772,0,0,0,2.809,5.846c1.218,1.951,2.664,3.9,4.133,5.947a42.305,42.305,0,0,1,4.1,6.688,18.688,18.688,0,0,1,1.962,7.617A13.885,13.885,0,0,1,67.485,96c-2.283,4.07-5.2,7.192-6.175,10.541a12.91,12.91,0,0,0-.594,4.587,7.967,7.967,0,0,0,.936,3.342,7.071,7.071,0,0,0,2.02,2.186" transform="translate(10.637 9.296)" fill="#455a64"/>
              <path id="Trazado_165467" data-name="Trazado 165467" d="M107.182,35.313a1.44,1.44,0,0,1-.451-.19,9.241,9.241,0,0,1-1.181-.753,14.427,14.427,0,0,1-3.43-3.826,42.593,42.593,0,0,1-3.3-6.848c-.549-1.312-1.134-2.681-1.854-4.036a25,25,0,0,0-2.633-3.932A26.981,26.981,0,0,0,80.548,6.845a37.335,37.335,0,0,0-6.859-.983,10.153,10.153,0,0,1,1.877-.1,24.758,24.758,0,0,1,5.09.663,26.452,26.452,0,0,1,14.157,8.917,24.873,24.873,0,0,1,2.688,4.04c.73,1.388,1.311,2.78,1.847,4.1a45.924,45.924,0,0,0,3.145,6.833,15.491,15.491,0,0,0,3.208,3.869c.916.768,1.51,1.082,1.481,1.132" transform="translate(14.191 1.109)" fill="#455a64"/>
              <path id="Trazado_165468" data-name="Trazado 165468" d="M123.746,35.426a2.428,2.428,0,0,1-.642-.067,9.925,9.925,0,0,1-1.791-.464,15.523,15.523,0,0,1-5.685-3.695,34.276,34.276,0,0,1-5.9-8.152c-1.868-3.276-3.68-7.047-6.485-10.327A20.358,20.358,0,0,0,93.124,6.408a39.479,39.479,0,0,0-9.846-1.314c-2.844-.063-5.152.056-6.746.118l-1.837.07a2.505,2.505,0,0,1-.644-.016,2.485,2.485,0,0,1,.634-.109c.417-.05,1.034-.122,1.831-.186,1.592-.137,3.9-.323,6.767-.317a38.288,38.288,0,0,1,10,1.2,20.684,20.684,0,0,1,10.433,6.457c2.879,3.371,4.681,7.179,6.515,10.455a35.124,35.124,0,0,0,5.71,8.118,16.078,16.078,0,0,0,5.461,3.78c1.473.581,2.361.689,2.347.757" transform="translate(14.26 0.896)" fill="#455a64"/>
              <path id="Trazado_165469" data-name="Trazado 165469" d="M142.512,104.593c-.069-.026.305-.847.7-2.408a22.573,22.573,0,0,0-5.228-21.2c-1.38-1.535-2.96-2.992-4.558-4.519a41.513,41.513,0,0,1-4.42-4.743,29.416,29.416,0,0,1-3.181-5.15,30.217,30.217,0,0,1-2.819-9.8,27.851,27.851,0,0,1,.068-6.874,16.868,16.868,0,0,1,.328-1.84,2.632,2.632,0,0,1,.173-.63c.064.012-.119.891-.261,2.5a30.529,30.529,0,0,0,.129,6.8,28.907,28.907,0,0,0,.956,4.591,28.577,28.577,0,0,0,1.94,5.012,29.467,29.467,0,0,0,3.146,5.026,42.028,42.028,0,0,0,4.37,4.669c1.592,1.522,3.182,2.992,4.582,4.56a23.024,23.024,0,0,1,3.466,4.969,22.666,22.666,0,0,1,2.465,9.886,21.487,21.487,0,0,1-.923,6.814,14.1,14.1,0,0,1-.646,1.757,2.538,2.538,0,0,1-.287.586" transform="translate(23.654 9.134)" fill="#455a64"/>
              <path id="Trazado_165470" data-name="Trazado 165470" d="M29.788,31.422a3.574,3.574,0,0,1,.151-1.169,11.446,11.446,0,0,1,1.172-3,12.743,12.743,0,0,1,18.527-4.432,11.439,11.439,0,0,1,2.4,2.145,3.551,3.551,0,0,1,.664.973,21.494,21.494,0,0,0-3.3-2.75,13.281,13.281,0,0,0-9.877-1.709,13.272,13.272,0,0,0-8.032,5.993,21.428,21.428,0,0,0-1.7,3.949" transform="translate(5.734 3.957)" fill="#455a64"/>
              <path id="Trazado_165471" data-name="Trazado 165471" d="M39.48,35.584a9.767,9.767,0,0,1,.333-2.707A11.933,11.933,0,0,1,42.632,26.9a6.316,6.316,0,0,1,6.321-1.6,3.7,3.7,0,0,1,1.69,1.157c.3.382.391.637.364.652a5.567,5.567,0,0,0-2.187-1.391,6.127,6.127,0,0,0-5.743,1.616,12.873,12.873,0,0,0-2.836,5.648,15.274,15.274,0,0,1-.76,2.6" transform="translate(7.598 4.817)" fill="#455a64"/>
              <path id="Trazado_165472" data-name="Trazado 165472" d="M52.961,19.23c.161.112-1.831,2.727-3.133,6.5-1.34,3.757-1.423,7.042-1.618,7.029-.147.024-.346-3.361,1.033-7.235,1.346-3.883,3.619-6.4,3.718-6.29" transform="translate(9.264 3.702)" fill="#04d9b5"/>
            </g>
          </g>
        </g>
      </g>
    </g>
  </g>
</svg>
