<svg id="Grupo_114739" data-name="Grupo 114739" xmlns="http://www.w3.org/2000/svg" xmlns:xlink="http://www.w3.org/1999/xlink" width="129.945" height="130" viewBox="0 0 129.945 130">
  <defs>
    <clipPath id="clip-path">
      <rect id="Rectángulo_37498" data-name="Rectángulo 37498" width="129.945" height="130" fill="none"/>
    </clipPath>
  </defs>
  <g id="Grupo_114738" data-name="Grupo 114738" clip-path="url(#clip-path)">
    <path id="Trazado_165214" data-name="Trazado 165214" d="M129.928,64.054V70.4c-.276.064-.241.3-.271.5a26.321,26.321,0,0,1-23.322,22.388c-.713.06-.785.4-.778.988.025,2.072.069,4.147-.017,6.215-.04.972.25,1.164,1.179,1.158,7.736-.04,15.472-.023,23.209-.023v16.5c-.271.068-.226.3-.276.5-1.862,7.306-7.156,11.43-14.685,11.431q-50.034,0-100.069.006A16.2,16.2,0,0,1,11,129.669c-6.728-1.654-11-7.227-11-14.384Q0,57.684,0,.082H105.567q0,19.794-.015,39.587c0,.79.092,1.179,1.031,1.278A26.252,26.252,0,0,1,128.92,59.964c.371,1.354.674,2.726,1.009,4.089m-24.11,61.94c-3.718-3.708-4.453-8.064-4.345-12.79.137-6,.033-12.014.033-18.021,0-1.73,0-1.722-1.773-1.971-.626-.088-1.251-.207-1.868-.349C84.347,89.761,75.8,77.6,77.369,63.707c1.321-11.719,11.308-21.644,22.958-22.749,1.013-.1,1.2-.463,1.2-1.39q-.045-17.007.008-34.013c0-1.137-.258-1.44-1.423-1.439q-47.323.053-94.646,0c-1.151,0-1.43.282-1.429,1.431q.049,54.7.027,109.4c0,6.846,4.207,11.043,11.07,11.043h90.686m-2.2-81.232a22.338,22.338,0,1,0,22.248,22.417,22.343,22.343,0,0,0-22.248-22.417m12.15,60.925c-3.082,0-6.165.03-9.247-.02-.8-.013-.984.224-.973.992.045,3.167-.029,6.336.037,9.5a10.155,10.155,0,0,0,9.319,9.806,10,10,0,0,0,10.718-8.206c.623-3.8.128-7.671.245-11.508.025-.823-.586-.556-.98-.558-3.04-.018-6.08-.01-9.12-.01" transform="translate(0 -0.061)" fill="#010101"/>
    <path id="Trazado_165215" data-name="Trazado 165215" d="M498.208,28.452c-1.305-.019-3.065.468-3.8-.19-.834-.75-.25-2.54-.253-3.875-.022-8.122-.011-16.245-.011-24.367,1.1,0,2.2.044,3.3-.017.639-.035.781.144.779.778-.025,7.827-.017,15.654-.017,23.482Z" transform="translate(-368.279 0)"/>
    <path id="Trazado_165216" data-name="Trazado 165216" d="M466.832.082c0,6.388-.023,12.775.024,19.163.007.945-.213,1.191-1.167,1.172-2.916-.059-2.917-.013-2.917-2.948q0-8.693,0-17.386Z" transform="translate(-345.025 -0.061)"/>
    <path id="Trazado_165217" data-name="Trazado 165217" d="M434.917.082c0,3.722-.026,7.445.02,11.167.01.826-.205,1.045-1.036,1.04-3.044-.019-3.044.014-3.044-3.071q0-4.568,0-9.136Z" transform="translate(-321.23 -0.061)"/>
    <path id="Trazado_165218" data-name="Trazado 165218" d="M117.64,137.814H26.954c-6.863,0-11.07-4.2-11.07-11.043q0-54.7-.027-109.4c0-1.15.278-1.432,1.429-1.431q47.323.051,94.646,0c1.165,0,1.428.3,1.423,1.438q-.067,17.007-.007,34.014c0,.926-.185,1.294-1.2,1.39-11.65,1.1-21.638,11.03-22.959,22.749-1.566,13.9,6.977,26.054,20.5,29.156.617.142,1.241.261,1.868.349,1.772.25,1.773.241,1.773,1.971,0,6.007.1,12.017-.033,18.021-.108,4.725.627,9.081,4.346,12.789M48.408,53.255c.635-.606,1.288-1.2,1.9-1.823,1.776-1.814,1.8-1.293.024-3.105-1.4-1.424-1.41-1.415-2.7.087-7.476.014-14.952.051-22.428.017-1.015,0-1.228.282-1.223,1.249q.061,11.029,0,22.059c0,.884.208,1.115,1.1,1.111q11.088-.059,22.177.007c1.038.008,1.123-.364,1.121-1.223-.019-6.126.011-12.253.026-18.379M30.119,28.129q0,4.081,0,8.162a22.358,22.358,0,0,1-.046,2.659c-.158,1.208.341,1.409,1.444,1.407q31.82-.049,63.641-.034c1.293,0,3.072.567,3.746-.24.648-.775.17-2.49.187-3.793V28.129a22.361,22.361,0,0,1,.046-2.659c.158-1.208-.341-1.409-1.444-1.407q-31.82.049-63.641.034c-1.293,0-3.072-.567-3.746.24-.648.775-.17,2.49-.188,3.793m5.936,101.562c3.762,0,7.524-.025,11.285.02.824.01,1.048-.206,1.044-1.039q-.05-11.163,0-22.326c0-.824-.206-1.048-1.038-1.044q-11.159.05-22.318,0c-.823,0-1.048.206-1.044,1.039q.05,11.163,0,22.326c0,.824.2,1.056,1.038,1.045,3.677-.047,7.355-.02,11.032-.02m.029-28.432c3.72,0,7.44-.025,11.159.019.833.01,1.151-.123,1.146-1.068q-.065-11.163,0-22.326c0-.878-.291-1.014-1.071-1.011q-11.159.04-22.318-.006c-.878,0-1.014.291-1.011,1.071q.04,11.163-.006,22.326c0,.879.291,1.02,1.071,1.012,3.677-.037,7.355-.017,11.032-.017M70.7,54.55H59.413c-2.945,0-2.9,0-2.955,2.918-.019.962.243,1.171,1.18,1.167,8.071-.04,16.142-.023,24.213-.023,3.1,0,3.063,0,3.077-3.045,0-.838-.232-1.043-1.049-1.036-4.394.04-8.789.019-13.184.019m0,32.494H81.981c2.943,0,2.9,0,2.952-2.921.019-.967-.252-1.168-1.183-1.164-8.071.04-16.142.023-24.213.023-3.1,0-3.06,0-3.075,3.048,0,.843.24,1.04,1.052,1.032,4.394-.039,8.789-.019,13.184-.019m-.132,28.432H81.975c2.947,0,2.9,0,2.957-2.915.018-.956-.235-1.175-1.177-1.17-8.113.041-16.226.024-24.339.024-2.972,0-2.939,0-2.953,3.043,0,.833.223,1.046,1.046,1.038,4.352-.041,8.7-.019,13.057-.019M66.64,95.167h7.1c3.092,0,3.057,0,3.072-3.049,0-.845-.242-1.036-1.053-1.031-5.407.035-10.814.018-16.222.018-3.141,0-3.115,0-3.069,3.176.011.727.22.909.924.9,3.083-.036,6.167-.016,9.251-.016m-.12,28.432h7.224c3.088,0,3.051,0,3.067-3.055,0-.856-.261-1.029-1.06-1.024-5.407.034-10.814.018-16.221.018-3.138,0-3.111,0-3.063,3.183.011.737.236.9.93.894,3.041-.035,6.083-.015,9.124-.015m.035-56.864h7.351c2.9,0,2.867,0,2.9-2.964.011-.87-.185-1.129-1.094-1.121-5.407.047-10.814.023-16.222.023-3.062,0-3.034,0-3.028,3.091,0,.758.157,1.006.965.992,3.041-.053,6.083-.021,9.124-.021" transform="translate(-11.822 -11.881)" fill="#ffbb86"/>
    <path id="Trazado_165219" data-name="Trazado 165219" d="M341.57,175.683a22.338,22.338,0,1,1-22.413,22.25,22.341,22.341,0,0,1,22.413-22.25m1.283,6.1c-1.516,0-2.658-.032-3.8.006a8.185,8.185,0,0,0-7.7,7.4c-.2,2.739-.2,2.739,2.506,2.737a7.283,7.283,0,0,1,.76,0c.622.065.826-.226.782-.813a11.517,11.517,0,0,1,0-1.268,4.006,4.006,0,0,1,3.932-4q3.167-.079,6.337,0a4.041,4.041,0,0,1,3.928,3.881c.031.633.014,1.268.008,1.9a4.059,4.059,0,0,1-4.233,4.358,6.111,6.111,0,0,0-5.913,6.077c-.016,1.014,0,2.029,0,3.043,0,3.234,0,3.212,3.214,3.081.668-.027.874-.228.859-.882-.037-1.605-.021-3.212-.009-4.818.013-1.679.678-2.356,2.365-2.447a8.129,8.129,0,0,0,7.78-8.112c.01-.761.014-1.522,0-2.282a8.16,8.16,0,0,0-6.136-7.633,23.309,23.309,0,0,0-4.672-.237m.665,32.467c-.035-2.32.28-1.989-1.578-2.007-2.482-.024-2.482-.007-2.483,1.6,0,2.453,0,2.453,1.641,2.453,2.421,0,2.421,0,2.421-2.051" transform="translate(-237.951 -130.982)" fill="#009e83"/>
    <path id="Trazado_165220" data-name="Trazado 165220" d="M425.048,415.042c3.04,0,6.08-.008,9.12.01.393,0,1-.264.98.558-.117,3.837.378,7.7-.245,11.508a10,10,0,0,1-10.719,8.206,10.156,10.156,0,0,1-9.319-9.806c-.066-3.167.008-6.336-.037-9.5-.011-.768.175-1.005.973-.992,3.081.05,6.164.02,9.246.02m6.039,8.243c0-1.015-.052-2.034.016-3.045.057-.858-.173-1.211-1.1-1.157-1.349.078-2.706.02-4.059.02-3.054,0-3.054,0-2.976,3.053a2.158,2.158,0,0,1,0,.254c-.048.518.13.772.7.765,1.053-.012,2.425-.359,3.077.165.769.618.072,2.08.3,3.128.372,1.674,1.729.455,2.6.709.448.131,1.461.524,1.44-.717-.018-1.057,0-2.115,0-3.173" transform="translate(-309.28 -309.417)" fill="#ffbb86"/>
    <path id="Trazado_165221" data-name="Trazado 165221" d="M71.913,72.021V63.859c2.366.006,4.733.019,7.1.018q30.937-.007,61.873-.018v8.162c-.507-.007-1.014-.019-1.521-.019l-67.452.018" transform="translate(-53.615 -47.611)" fill="#fe8965"/>
    <path id="Trazado_165222" data-name="Trazado 165222" d="M59.87,391.551c-3.677,0-7.355-.027-11.032.02-.834.01-1.042-.222-1.038-1.045q.048-11.163,0-22.326c0-.833.221-1.042,1.044-1.039q11.158.048,22.318,0c.832,0,1.042.221,1.038,1.044q-.048,11.163,0,22.326c0,.833-.22,1.049-1.044,1.039-3.761-.044-7.524-.019-11.285-.019M60,371.242c-2.407,0-4.815.028-7.22-.017-.725-.013-.918.2-.913.92q.045,7.223,0,14.446c0,.724.2.918.919.913q7.22-.046,14.44,0c.724,0,.918-.2.913-.919q-.046-7.223,0-14.446c0-.725-.2-.927-.919-.914-2.406.043-4.813.016-7.22.016" transform="translate(-35.637 -273.741)"/>
    <path id="Trazado_165223" data-name="Trazado 165223" d="M72.214,148.41c-.015,6.126-.045,12.253-.026,18.379,0,.859-.082,1.231-1.121,1.223q-11.088-.083-22.177-.007c-.9,0-1.107-.227-1.1-1.111q.057-11.029,0-22.059c-.005-.967.208-1.254,1.223-1.249,7.476.034,14.952,0,22.428-.018.581-.037.771.2.751.808-.043,1.342.011,2.688.026,4.033m-4.147,4.313c.015-1.386-.026-2.775.063-4.156.055-.859-.285-1.02-1-.85-4.82-.014-9.639-.014-14.458-.059-.721-.007-.813.282-.81.892q.029,7.233-.005,14.467c0,.718.19.925.915.92,4.82-.031,9.641-.024,14.461-.006.6,0,.907-.078.9-.806-.051-3.467-.045-6.935-.059-10.4" transform="translate(-35.628 -107.037)"/>
    <path id="Trazado_165224" data-name="Trazado 165224" d="M59.891,279.8c-3.677,0-7.355-.021-11.032.016-.78.008-1.075-.133-1.071-1.012q.058-11.163.006-22.326c0-.78.133-1.076,1.011-1.071q11.159.058,22.318.006c.78,0,1.076.133,1.071,1.011q-.058,11.162,0,22.326c.005.944-.313,1.078-1.146,1.068-3.719-.044-7.439-.019-11.159-.019m-8.02-12.316c0,2.45.026,4.9-.016,7.35-.012.715.185.926.912.921q7.22-.047,14.441,0c.714,0,.925-.185.921-.912q-.047-7.223,0-14.446c0-.714-.184-.926-.911-.921q-7.22.047-14.441,0c-.714,0-.935.184-.921.912.045,2.364.017,4.73.017,7.1" transform="translate(-35.629 -190.422)"/>
    <path id="Trazado_165225" data-name="Trazado 165225" d="M140.435,51.476q-30.937.01-61.873.018c-2.367,0-4.733-.012-7.1-.019.017-1.3-.46-3.018.188-3.792.675-.807,2.453-.239,3.746-.24q31.82-.02,63.641-.034c1.1,0,1.6.2,1.444,1.407a22.308,22.308,0,0,0-.046,2.659" transform="translate(-53.165 -35.228)"/>
    <path id="Trazado_165226" data-name="Trazado 165226" d="M71.694,95.883l67.452-.018c.507,0,1.014.012,1.521.019-.017,1.3.46,3.018-.188,3.792-.674.807-2.453.239-3.746.24q-31.82.02-63.641.034c-1.1,0-1.6-.2-1.444-1.407a22.3,22.3,0,0,0,.046-2.659" transform="translate(-53.396 -71.473)"/>
    <path id="Trazado_165227" data-name="Trazado 165227" d="M189.667,167.641c4.395,0,8.789.021,13.184-.019.818-.008,1.053.2,1.049,1.035-.014,3.045.02,3.045-3.077,3.045-8.071,0-16.142-.017-24.213.023-.937,0-1.2-.205-1.18-1.167.056-2.917.01-2.918,2.955-2.918h11.282" transform="translate(-130.793 -124.972)"/>
    <path id="Trazado_165228" data-name="Trazado 165228" d="M189.683,283.434c-4.395,0-8.789-.021-13.184.019-.813.007-1.057-.189-1.053-1.032.015-3.048-.02-3.048,3.075-3.048,8.071,0,16.142.017,24.213-.023.932,0,1.2.2,1.183,1.164-.057,2.92-.01,2.921-2.953,2.921H189.683" transform="translate(-130.806 -208.272)"/>
    <path id="Trazado_165229" data-name="Trazado 165229" d="M189.553,395.175c-4.352,0-8.7-.022-13.057.019-.823.008-1.05-.205-1.046-1.038.014-3.042-.019-3.043,2.953-3.043,8.113,0,16.226.018,24.339-.024.942,0,1.2.214,1.177,1.17-.056,2.915-.01,2.915-2.957,2.915H189.553" transform="translate(-130.808 -291.581)"/>
    <path id="Trazado_165230" data-name="Trazado 165230" d="M185.6,315.374c-3.084,0-6.168-.021-9.251.016-.7.008-.913-.174-.923-.9-.046-3.177-.072-3.176,3.069-3.176,5.407,0,10.814.017,16.221-.018.811-.005,1.057.186,1.053,1.031-.015,3.049.02,3.049-3.072,3.049h-7.1" transform="translate(-130.785 -232.088)"/>
    <path id="Trazado_165231" data-name="Trazado 165231" d="M185.479,427.119c-3.042,0-6.083-.02-9.124.015-.694.008-.919-.157-.93-.894-.047-3.183-.075-3.182,3.063-3.182,5.407,0,10.814.016,16.222-.018.8-.005,1.065.167,1.06,1.024-.016,3.055.021,3.055-3.067,3.055h-7.224" transform="translate(-130.782 -315.402)"/>
    <path id="Trazado_165232" data-name="Trazado 165232" d="M185.546,203.616c-3.042,0-6.084-.032-9.124.021-.809.014-.964-.234-.965-.992-.006-3.091-.034-3.091,3.028-3.091,5.407,0,10.815.024,16.222-.023.909-.008,1.105.251,1.094,1.121-.036,2.963,0,2.964-2.9,2.964h-7.351" transform="translate(-130.813 -148.763)"/>
    <path id="Trazado_165234" data-name="Trazado 165234" d="M378.369,199.616a23.324,23.324,0,0,1,4.672.237,8.16,8.16,0,0,1,6.136,7.633c.019.76.015,1.522.005,2.282a8.13,8.13,0,0,1-7.78,8.113c-1.687.091-2.351.768-2.365,2.447-.013,1.606-.028,3.213.009,4.818.015.653-.191.854-.859.882-3.214.131-3.214.152-3.213-3.081,0-1.014-.013-2.029,0-3.043a6.111,6.111,0,0,1,5.913-6.077,4.059,4.059,0,0,0,4.233-4.358c.006-.634.024-1.269-.008-1.9a4.041,4.041,0,0,0-3.928-3.881q-3.167-.077-6.337,0a4.006,4.006,0,0,0-3.932,4,11.509,11.509,0,0,0,0,1.268c.045.586-.159.878-.782.813a7.221,7.221,0,0,0-.76,0c-2.709,0-2.709,0-2.506-2.737a8.185,8.185,0,0,1,7.7-7.4c1.139-.038,2.281-.006,3.8-.006" transform="translate(-273.467 -148.816)" fill="#fefefe"/>
    <path id="Trazado_165235" data-name="Trazado 165235" d="M403,321.353c0,2.052,0,2.052-2.42,2.051-1.642,0-1.642,0-1.641-2.453,0-1.611,0-1.628,2.483-1.6,1.858.018,1.543-.313,1.578,2.007" transform="translate(-297.434 -238.087)" fill="#fefefe"/>
    <path id="Trazado_165236" data-name="Trazado 165236" d="M454.875,435.2c0,1.058-.015,2.116,0,3.173.021,1.241-.993.848-1.44.717-.869-.253-2.226.965-2.6-.709-.233-1.048.464-2.51-.3-3.128-.652-.524-2.024-.177-3.077-.165-.574.007-.753-.247-.7-.765a2.158,2.158,0,0,0,0-.254c-.078-3.053-.078-3.053,2.976-3.053,1.353,0,2.71.058,4.059-.02.93-.054,1.159.3,1.1,1.157-.067,1.011-.016,2.03-.016,3.045" transform="translate(-333.067 -321.329)" fill="#fefefe"/>
    <path id="Trazado_165237" data-name="Trazado 165237" d="M71.9,383.15c2.407,0,4.814.026,7.22-.016.717-.013.924.189.919.914q-.047,7.223,0,14.446c0,.716-.189.924-.913.919q-7.22-.047-14.44,0c-.717,0-.924-.189-.919-.913q.047-7.223,0-14.446c0-.716.188-.933.913-.92,2.406.044,4.814.017,7.22.017" transform="translate(-47.544 -285.649)" fill="#007a64"/>
    <path id="Trazado_165238" data-name="Trazado 165238" d="M79.984,164.717c.014,3.467.008,6.936.059,10.4.011.728-.293.808-.9.806-4.82-.019-9.641-.025-14.461.006-.725,0-.919-.2-.915-.92q.046-7.233.005-14.467c0-.61.09-.9.81-.892,4.819.045,9.639.045,14.458.059-2.194,2.224-4.4,4.434-6.571,6.681-.522.541-.806.294-1.224-.1-2.075-1.966-2.083-1.957-4.082.117a1.8,1.8,0,0,1-.179.179c-.54.419-.445.782.017,1.229,1.4,1.352,2.791,2.708,4.114,4.13.611.657.966.628,1.585,0,2.394-2.441,4.849-4.822,7.281-7.226" transform="translate(-47.545 -119.031)" fill="#007a64"/>
    <path id="Trazado_165240" data-name="Trazado 165240" d="M63.782,279.4c0-2.366.028-4.732-.017-7.1-.014-.728.207-.916.921-.912q7.22.045,14.441,0c.727,0,.916.207.911.921q-.045,7.223,0,14.446c0,.727-.207.916-.921.912q-7.22-.045-14.441,0c-.727,0-.924-.206-.912-.921.042-2.449.016-4.9.016-7.349" transform="translate(-47.54 -202.341)" fill="#007a64"/>
    <path id="Trazado_165233" data-name="Trazado 165233" d="M135.89,148.74c-.015-1.344.723-1.067.766-2.41.02-.609.32-1.959-.261-1.922.808-.939,4.487-4.259,4.487-4.259s2.034-.534,2.559,0c1.781,1.812,1.752,1.291-.024,3.105-.614.627-6.007,6.216-6.037,6.159" transform="translate(-104.929 -103.704)" fill="#fefefe"/>
    <path id="Trazado_165239" data-name="Trazado 165239" d="M88.331,164.715c-2.432,2.4-4.887,4.785-7.281,7.226-.619.631-.974.659-1.585,0-1.323-1.422-2.719-2.777-4.114-4.13-.462-.448-.556-.81-.017-1.229a1.8,1.8,0,0,0,.179-.179c2-2.074,2.008-2.083,4.082-.117.418.4.7.643,1.224.1,2.17-2.246,4.377-4.457,6.571-6.681.718-.17,1.059-.01,1,.85-.089,1.381-.049,2.77-.063,4.156" transform="translate(-55.891 -119.028)" fill="#fefefe"/>
  </g>
</svg>
