<svg xmlns="http://www.w3.org/2000/svg" width="400" height="260" viewBox="0 0 400 260">
  <g id="Grupo_114914" data-name="Grupo 114914" transform="translate(-600 -1374)">
    <rect id="Rectángulo_37644" data-name="Rectángulo 37644" width="400" height="260" rx="30" transform="translate(600 1374)" fill="#fffb8b"/>
    <g id="Grupo_114834" data-name="Grupo 114834" transform="translate(825.207 1624.711) rotate(-155)" opacity="0.2">
      <path id="Trazado_100523" data-name="Trazado 100523" d="M88.351,30.35a15.867,15.867,0,0,1-9.2-4.481c-2.217-2.137-.375-5.621,2.185-6.235a12.4,12.4,0,0,1,11.513,3.429c1.866,1.8.757,4.824-1.212,5.908-3.293,1.81-9.122,2.831-11.832-.526-3.054-3.8.415-8.707,4.282-10.007,3.851-1.292,8.755.837,8.276,5.478-.431,4.2-5.916,6.809-8.874,3.245-3.126-3.771,2.631-8.747,5.765-4.975-1.092-1.308-4.489-1.22-4.441.949l.622,1.842a1.814,1.814,0,0,0,.981.6c.351-.024.383-.016.1.032-.263.064-.247.056.056-.016a.641.641,0,0,0-.415.215.286.286,0,0,0,.1-.247,2.674,2.674,0,0,0-1.722-2.647,4.712,4.712,0,0,1,.973.1,5.782,5.782,0,0,0,2.8-.877c-.407,1.969-.805,3.939-1.212,5.908a4.774,4.774,0,0,0-2.1-1.045,4.87,4.87,0,0,0-2.272.128c.726-2.081,1.459-4.154,2.185-6.227a7.6,7.6,0,0,0,4.1,1.874,3.805,3.805,0,0,1-.654,7.583" transform="translate(22.267 125.986)" fill="#d5ce26"/>
      <path id="Trazado_100524" data-name="Trazado 100524" d="M84.8,18.154c5.781-.941,7.2,7.83,1.547,9.026-3.779.805-8.8-2.3-9.3-6.227-.63-4.936,4.537-7.463,8.659-5.749,3.827,1.587,6.227,5.581,7.1,9.48.6,2.623-1.722,4.433-4.058,4.481a12.3,12.3,0,0,1-11.5-8.013c-.662-1.953-.279-4.082,1.754-5.079a8.006,8.006,0,0,1,10.453,3.3c1.084,1.746-.04,4.25-1.754,5.079A3.884,3.884,0,0,1,82.617,22.7l.1.191c.215.167.215.167,0,.016-.008.008-.04-.1-.351-.128.478.048-.128.128-.175.048.1.175,1.045-.351.144.088.582-1.7,1.172-3.389,1.754-5.087a4.938,4.938,0,0,0,5.3,3.755c-1.355,1.5-2.711,2.99-4.066,4.489a6.755,6.755,0,0,0-.933-2.264,6.363,6.363,0,0,0-.957-1.156c.008.016-1.013-.662-.5-.367-.885-.51-.048.167.112-.112.981-.263,1.475-1.076,1.483-2.432a1.662,1.662,0,0,0-.159-.486c-.311,0,.494.311.622.391-.2-.144-.1-.12.3.072a2.458,2.458,0,0,0-.957.1c-.494.423-.981.853-1.475,1.268.064,1.116.12,2.225.175,3.333.534.359,1.06.726,1.595,1.092l-.2-.08,1.985.167-.231.032c-4.824.781-6.235-6.69-1.387-7.479" transform="translate(32.784 102.289)" fill="#d5ce26"/>
      <path id="Trazado_100525" data-name="Trazado 100525" d="M89.827,16.17c2.209,2.807.837,6.331-2.28,7.694a8.677,8.677,0,0,1-8.029-1.18,6.386,6.386,0,0,1-2.376-7.495,6.488,6.488,0,0,1,6.339-3.771,6.214,6.214,0,0,1,5.852,4.84,7.2,7.2,0,0,1-3.612,7.567C80.211,26.99,74,20.994,75.268,15.317c.869-3.867,4.752-5.374,8.324-4.21a14.581,14.581,0,0,1,7.28,5.541,3.922,3.922,0,0,1-.4,5.366c-1.419,1.228-4.194,1.308-5.366-.391a9.864,9.864,0,0,0-1.754-2.057,8.021,8.021,0,0,0-1.308-.885,5.146,5.146,0,0,1-1.029-.415c.263.327,1.7-1.4,1.666-1.4-.072-.311-.056-.223.04.247l-.032-.167c.351.8-.08-.367-.423.136-.032.048-.215.008-.271.064-.4.407.08,1.22.375,1.491a1.631,1.631,0,0,0,.8.351.674.674,0,0,0,.463-.151q-.658.359.048-.167a1.061,1.061,0,0,0,.494-.606,1.114,1.114,0,0,0-.056-1.2c.04-.765-.678-.247.032-.247-.191,0,.558.128.55.12.271,0,.3.016.1.048a1.707,1.707,0,0,0-1.188,1.124c-.056.662-.112,1.324-.159,1.985l-.048-.287.861,1.794-.2-.263c-3.022-3.851,2.727-8.834,5.757-4.975" transform="translate(48.711 74.781)" fill="#d5ce26"/>
      <path id="Trazado_100526" data-name="Trazado 100526" d="M84.5,19.1a8.935,8.935,0,0,1-10.278-6.993A3.859,3.859,0,0,1,77.27,7.676,15.088,15.088,0,0,1,94.62,18.432a3.793,3.793,0,0,1-2.073,4.114c-6.674,2.7-15.245-1.611-15.771-9.2-.152-2.209,1.379-4.983,4.066-4.489A7.947,7.947,0,0,1,87.707,17c.032,2.057-2.217,3.628-4.114,3.468a3.9,3.9,0,0,1-3.468-4.122c.008.478-.2.048.072.1Q82.23,14.2,84.263,11.95c.152,2.312,2.456,4.768,4.951,3.755-.694,1.371-1.379,2.743-2.073,4.114-1.044-3.508-5.087-5.374-8.484-4.664,1.021-1.475,2.033-2.958,3.054-4.433a1.157,1.157,0,0,0,1.4.9c4.824-.8,6.227,6.682,1.387,7.479" transform="translate(53.359 51.396)" fill="#d5ce26"/>
      <path id="Trazado_100527" data-name="Trazado 100527" d="M94.3,18.865a18.343,18.343,0,0,1-4.114,7.144,5.922,5.922,0,0,1-7.559.478,7.162,7.162,0,0,1-2.87-6.65c.375-2.743,2.129-4.8,3.939-6.761,1.69-1.818,4.967-.813,5.916,1.22a12.319,12.319,0,0,1,.343,9.839,3.806,3.806,0,0,1-7.16-2.583,4.585,4.585,0,0,0-.032-3.931q2.954.61,5.908,1.212a17.639,17.639,0,0,0-1.3,1.762c-.558.853.16.3-.088.056-.143-.367-.12-.343.08.072a.544.544,0,0,0-.2-.311.819.819,0,0,0-.335-.231,1.758,1.758,0,0,0-1.93.4c-.016-.024.853-1.244.893-1.308a15.456,15.456,0,0,0,1.348-2.982c1.619-4.625,8.779-2.057,7.16,2.575" transform="translate(9.278 84.572)" fill="#d5ce26"/>
      <path id="Trazado_100528" data-name="Trazado 100528" d="M92.265,26.224c-2.575-.383-5.151-.757-7.726-1.14A3.86,3.86,0,0,1,81.277,20c1.5-4.282,6.969-6.506,10.916-4.027A7.385,7.385,0,0,1,95.558,21.2a7.824,7.824,0,0,1-2.233,6.57c-1.4,1.507-4.138,1.037-5.382-.391-1.459-1.706-1-3.851.407-5.374-.279.3-.207.287-.351.654.024-.407.04-.478.056-.215.04.263.024.191-.032-.215.319.614-.159-.3.024.056a.563.563,0,0,0,.287.255c-.335-.231-.4-.279-.175-.128.662.375.112-.024.08.12.391-.016.439-.008.159.04-.271.064-.231.04.152-.056l-.311.151c.335-.231.335-.215-.008.064.215-.128.47-.893.207-.144-1.084-1.7-2.169-3.389-3.261-5.087,2.591.383,5.167.757,7.742,1.14a3.89,3.89,0,0,1,3.468,4.114,3.838,3.838,0,0,1-4.122,3.468" transform="translate(-3.43 104.21)" fill="#d5ce26"/>
      <path id="Trazado_100529" data-name="Trazado 100529" d="M89.792,17.064a6.077,6.077,0,0,1-4.082,3.492,6.334,6.334,0,0,1-3.987-.327A5.9,5.9,0,0,1,79.3,11.315a6.214,6.214,0,0,1,9.48-.9,6.706,6.706,0,0,1,.686,8.492,3.807,3.807,0,0,1-6.275-4.314c.415-.55-.279.893-.016.072.08-.287.048-.128-.112.47.024-.407.04-.271.056.407a1.972,1.972,0,0,0-.04-.3c-.064-.3,0-.136.183.478a3.046,3.046,0,0,0-.167-.367c.112.159.215.319.327.478a2.33,2.33,0,0,0-.255-.3c.486.407.574.5.255.279.167.088.335.183.5.271.63.1.741.128.343.08.622-.056.781-.064.478-.008-.3.072-.144.016.454-.151-.351.191-.263.12.263-.2-.231.207-.223.183.008-.064.415-.861-.55,1.236.175-.319l-.072.207a1.866,1.866,0,0,0,.1-1.14c.072.311.056.287-.048-.08a1.518,1.518,0,0,0-.439-.805c.263.287.151.191-.327-.271.239.151.2.136-.12-.04q-.49-.227-.1-.072c-.662-.12-.8-.151-.415-.088.67.024-.957.175-.271.032s-.837.415-.271.1q-.837.61-.383.239a2.094,2.094,0,0,0-.67,1,4.176,4.176,0,0,1,1.914-2.137,3.923,3.923,0,0,1,2.958-.159c1.73.71,3.229,2.966,2.288,4.872" transform="translate(25.364 60.15)" fill="#d5ce26"/>
      <path id="Trazado_100530" data-name="Trazado 100530" d="M98.57,20.807a8.536,8.536,0,0,1-13.116,5.765,3.865,3.865,0,0,1-.981-5.294c1.858-2.631,4.808-4.951,8.189-3.588,3.014,1.212,4.72,5.183,2.567,7.926a3.9,3.9,0,0,1-5.294.981,3.844,3.844,0,0,1-.981-5.286,2.422,2.422,0,0,0,.534,3.261,2.242,2.242,0,0,0,1.762.231c.12.1-.391.622-.5.789-.327-1.762-.654-3.532-.981-5.294.51.351-.151.1.175.1.207.072.215.072,0,.016-.207-.04-.2-.048.016-.016.279.008.223.024-.175.048l.335-.048c.112-.016.223-.04.335-.064-.367.144-.423.159-.159.056.064-.016.71-.327.351-.128-.4.223.319-.263.4-.335-.375.343.008.167,0-.04-.144.327-.167.375-.064.12.088-.255.088-.207.008.144a3.915,3.915,0,0,1,4.114-3.46c1.89.159,3.859,2.081,3.469,4.114" transform="translate(-27.683 116.304)" fill="#d5ce26"/>
      <path id="Trazado_100531" data-name="Trazado 100531" d="M92.364,22.256c-.805-.375.71-.183-.231-.064-.558.064-1.116.12-1.682.136a6.185,6.185,0,0,1-4.042-1.1,5.871,5.871,0,0,1-1.73-6.961,6.743,6.743,0,0,1,6.243-4.226,11.158,11.158,0,0,1,6.793,2.719,3.975,3.975,0,0,1,1.427,4.425,12.126,12.126,0,0,1-2.328,4.664,3.913,3.913,0,0,1-5.294.981,6.706,6.706,0,0,1-1.977-9.193,3.805,3.805,0,1,1,6.275,4.306,1.165,1.165,0,0,0,.175-1.029c-.1-.287-.805-.773-.167-.359l-5.286.981a6.106,6.106,0,0,0,1.443-2.926c.478,1.475.957,2.942,1.427,4.417a6.239,6.239,0,0,0-2.472-1.443c.287.072.207.088-.247.016a.675.675,0,0,0,.55-.064.918.918,0,0,0,.486-.4c-.239.383-.239.383-.008.016a2.393,2.393,0,0,0-1.268-2.3.578.578,0,0,0-.486-.048c.255-.032.518-.056.781-.1a7.9,7.9,0,0,1,4.194.4,3.932,3.932,0,0,1,2.3,4.88c-.646,1.786-3.006,3.173-4.872,2.28" transform="translate(-31.462 70.022)" fill="#d5ce26"/>
      <path id="Trazado_100532" data-name="Trazado 100532" d="M93.451,19.591c-2.695,2.009-6.482,2.6-9.4.622a6.985,6.985,0,0,1-2.217-8.986,6.056,6.056,0,0,1,8.787-2.384c2.735,1.85,3.947,5.892,1.81,8.659A3.805,3.805,0,0,1,86.156,13.2c.191-.271.2-.255.032.032a1.521,1.521,0,0,0-.247.742l.024.558c-.08-.311-.064-.3.024.04.12.327.1.343-.032.04.088.144.175.287.263.423-.431-.606.6.415-.008.016a1.786,1.786,0,0,0,1.2.311c.271-.024,1.044-.423.5-.1.128-.08.941-.893.542-.383.072-.136.136-.263.2-.4-.1.327-.12.335-.048.032.239-.51-.151.191,0,.327L88.6,14.36c.08.343.072.351-.016.032-.112-.311-.1-.311.048.008l-.223-.383c-.335-.271-.4-.319-.175-.159s.151.12-.223-.1c.694.151-.407-.1.024.048s.55-.032.032.064c.383-.072.829-.343.2.016.191-.112.917-.582.207-.056a3.881,3.881,0,0,1,5.366.391c1.2,1.515,1.316,4.1-.391,5.366" transform="translate(-1.676 54.511)" fill="#d5ce26"/>
      <path id="Trazado_100533" data-name="Trazado 100533" d="M89.666,13.941c-2.631,2.153-6.514,3.548-9.632,1.5C76.662,13.216,76.7,8.368,79.6,5.769A5.726,5.726,0,0,1,88.63,7.626c1.4,2.926.263,7.009-2.854,8.292a3.8,3.8,0,0,1-3.333-6.841c.287-.136.271-.112-.032.072a1.508,1.508,0,0,0-.606.6c.407-.59-.311.821-.08.128l-.12.55c.024-.407.048-.279.056.383-.016-.167-.183-.789.024-.144a1.582,1.582,0,0,0,.263.5c-.112-.136.6.478.845.566a2.081,2.081,0,0,0,1.563-.072c.431-.327.542-.4.319-.207-.207.183-.136.1.223-.271-.454.534.239-.686.008.032.032-.167.072-.327.112-.478-.064-.582-.072-.718-.024-.423q.1.443-.12-.407c-.255-.3-.5-.6-.757-.893.351.231.3.207-.16-.072-.143-.032-.295-.064-.447-.1.662.136-.59.215.08-.016.9-.3-.718.415.152-.048.271-.151.542-.279.805-.431-.542.319-.136.072.144-.159a3.8,3.8,0,1,1,4.975,5.757" transform="translate(30.661 29.967)" fill="#d5ce26"/>
      <path id="Trazado_100534" data-name="Trazado 100534" d="M84.886,2.518c1.332,1.77,2.559,3.883,2.185,6.2a4.741,4.741,0,0,1-2.543,3.732,6.653,6.653,0,0,1-3.373.638c-4.25-.319-7.583-4.832-5.757-8.914C77.056.445,82.063-1.421,85.452,1.274c3.15,2.52,3.54,8.045.064,10.533a3.89,3.89,0,0,1-5.366-.4c-1.18-1.491-1.332-4.122.391-5.366.805-.574-.223.462.088-.032-.08.159-.167.327-.255.486.128-.375.12-.263-.032.351a3.922,3.922,0,0,0,.048-.431c.016.2.032.391.04.582a2.584,2.584,0,0,0-.064-.423q.347.933.12.359c-.327-.606.6.638.08.112.478.4.558.478.239.247l.47.239c-.383-.12-.279-.1.319.064-.415-.016-.287-.024.367-.024-.686.08.765-.415.12-.048-.71.4.734-.534.072-.048-.287.271-.223.2.2-.239-.167.263-.175.247-.008-.056.144-.3.16-.319.04-.032q.167-.921.1-.311a1.263,1.263,0,0,0-.112-.805c-.128-.327-.128-.343,0-.04-.343-.478-.391-.558-.136-.239-.415-.335-.5-.415-.279-.239.718.542-.558-.128.1.056-.534-.1-.662-.12-.375-.088a2.713,2.713,0,0,0,.359.024c-.3-.319-1.619.558-.63-.032L79.5,7.605c.128-.319.159-.335.08-.024a1.4,1.4,0,0,0-.008.7c-.088-.686.271.407.04.024-.128-.2-.239-.454-.343-.662.279.558.1.159-.136-.151a3.874,3.874,0,0,1,.391-5.366,3.859,3.859,0,0,1,5.366.391" transform="translate(54.196 0)" fill="#d5ce26"/>
      <path id="Trazado_100535" data-name="Trazado 100535" d="M83.757,13.161a8.27,8.27,0,0,1-4.05.558c-1.914-.3-3.819-1.14-4.473-3.126a4.408,4.408,0,0,1,1.4-4.76,4.305,4.305,0,0,1,6,.439,3.831,3.831,0,0,1-.391,5.366,3.884,3.884,0,0,1-5.366-.391l-.072-.08c.239.215.478.431.726.646l-.088-.048.869.439-.1-.024.965.215-.1-.008,1.021-.048-.1.016c.327-.1.646-.207.973-.319a.717.717,0,0,0-.191.1c.271-.183.55-.359.821-.542a.9.9,0,0,0-.159.144c.215-.239.431-.486.646-.726a.907.907,0,0,0-.12.183c.152-.287.3-.582.447-.869l-.04.1.215-.957a.306.306,0,0,0-.016.191c-.024-.343-.04-.686-.056-1.021l.024.088-.311-.973.048.088c-.175-.271-.359-.55-.542-.821l.08.072c-.526-.367-1.06-.726-1.587-1.092a4.955,4.955,0,0,0,.893.319L80.169,6.1a4.967,4.967,0,0,0,1.14.088l-1.021.048a4.185,4.185,0,0,0,.933-.175c-.327.112-.646.215-.973.319l.183-.056a4.142,4.142,0,0,1,2.95-.159,3.787,3.787,0,0,1,2.288,4.864,3.645,3.645,0,0,1-1.914,2.137" transform="translate(55.237 33.601)" fill="#d5ce26"/>
      <path id="Trazado_100536" data-name="Trazado 100536" d="M98.75,17.669c3.6,2.631,4.138,8.6.311,11.37a7.166,7.166,0,0,1-11.1-4.377c-.989-5,4.337-9.249,9-7.846a6.735,6.735,0,0,1,2.759,10.931c-4.226,4.226-11.8-.757-9.823-6.3a3.8,3.8,0,0,1,7.16,2.575,2.178,2.178,0,0,0-.032-1.316c-.056-.136-.47-.813-.295-.606.287.343-.718-.566-.056-.1a1.806,1.806,0,0,0-.893-.319c.526.056-.112.016-.287.048a1.976,1.976,0,0,0-1.092.614c-.088.1-.447.765-.335.494.191-.47-.271.877-.048.893l-.088-.494.136.486c-.143-.3-.136-.3.024-.032.159.71-.032-.5.159.144.247.2.239.2-.032.008l.407.215c.223.08.662.12.167.04l.462-.024c-.343.08-.367.08-.064-.008.7-.327-.478.3.143-.064.447-.263-.375.534.2-.239-.024.032-.3.462-.311.462.151.032.255-.694.271-.773-.151.837-.1-.51-.024-.04.04.375-.191-.407-.207-.478-.191-.247-.159-.239.048.04-.088-.088-.191-.183-.3-.271.343.048.2.12-.136-.008.183.072.757.136.343.144-.622.008.51-.223-.159-.032q-.49.036.048-.048l-.438.12c-.255.12-.47.4-.159.064-.1.112-.606.925-.439.582.1-.2.064-.582.088-.167-.056.263-.08.287-.048.08q.024-.443.048.335a2.344,2.344,0,0,0-.1-.534c.1.04.223.789.016.215.3.407.335.5.159.287-.191-.207-.12-.136.215.2a3.8,3.8,0,0,1,4.3-6.267" transform="translate(-62.835 115.376)" fill="#d5ce26"/>
      <path id="Trazado_100537" data-name="Trazado 100537" d="M97.572,14.856a11.93,11.93,0,0,1-8.348,6.937A3.83,3.83,0,0,1,85.1,19.712c-.989-2.663-1.754-5.629-.646-8.4a7.334,7.334,0,0,1,6.458-4.68,6.215,6.215,0,0,1,6.275,5.2c.478,2.695-.646,5.4-1.961,7.678a3.805,3.805,0,0,1-6.275-4.306c.1-.183.255-.454.08-.1.136-.287.263-.582.375-.877.088-.239.167-.478.239-.726.167-.574-.032.462.016-.112.048-.614-.167-.439.048-.167-.024-.1-.048-.207-.064-.311l.088.383a1.919,1.919,0,0,0,.965.861c.159.048,1.052-.064.638.032-.542.128.638-.112.088-.016-.191.1-.191.1,0-.016.191-.128.2-.12.032.024s-.167.144-.016-.008c.183-.2.159-.151-.064.151a.623.623,0,0,0,.183-.439c-.016.271-.072.542-.064.813-.008-.415.024.088.056.223a12.013,12.013,0,0,0,.4,1.467C90.579,15.694,89.2,15,87.828,14.306a3.877,3.877,0,0,0,1.483-.718c.128-.1.893-.933.566-.51.112-.144.741-1.26.534-.8a3.9,3.9,0,0,1,4.864-2.3,3.84,3.84,0,0,1,2.3,4.872" transform="translate(-27.62 46.25)" fill="#d5ce26"/>
      <path id="Trazado_100538" data-name="Trazado 100538" d="M94.258,25.139a7.116,7.116,0,0,1-3.62,5.151,6.793,6.793,0,0,1-5.685.375,3.961,3.961,0,0,1-2.5-3.907,7.737,7.737,0,0,1,4.194-6.506,3.827,3.827,0,0,1,5.406,2.727c.3,2.209-.247,4.537-2.424,5.613a4.435,4.435,0,0,1-5.956-1.953,4.17,4.17,0,0,1,3-5.781,4.109,4.109,0,0,1,4.9,4.314,3.845,3.845,0,0,1-4.122,3.468,3.893,3.893,0,0,1-3.461-4.122V24.4c.3.933.606,1.874.909,2.815l-.056-.088,1.595,1.092c1.06-.2,2.129-.407,3.189-.606.367-.526.726-1.06,1.092-1.587l-.056.1.167-1.985c-.08-.223-.151-.454-.223-.678-.423-.494-.845-.981-1.268-1.475-1.22.04-2.432.08-3.652.112-.359.534-.726,1.06-1.092,1.595.175-.423.2-.3.064.351-.016.686-.048.789-.088.319l5.406,2.727c-.726.391.534-.534-.04.056.319-.375.391-.454.215-.231a2.361,2.361,0,0,0-.223.327c.072-.136.136-.271.207-.4a3.3,3.3,0,0,0-.175.494c.032-.152.064-.3.1-.454a2.91,2.91,0,0,0-.024.526c-.837-1.3-1.674-2.607-2.512-3.907.51.207-.223-.064-.335-.016-.008.008.965.024.144.056-.638.024-.12,0,.024-.048.447-.159-.981.343-.247.056.518-.2-.247.064-.263.191l.335-.287-.367.391c.167-.255.167-.231.008.064-.136.279-.159.327-.088.144.1-.279.08-.128-.064.439.391-1.946,1.914-3.755,4.114-3.468,1.858.239,3.891,2.025,3.468,4.114" transform="translate(-12.446 138.473)" fill="#d5ce26"/>
      <path id="Trazado_100539" data-name="Trazado 100539" d="M100.277,25.359c.494,4.417-2.966,8.627-7.623,8.141a7.111,7.111,0,0,1-5.693-9.425c1.627-4.114,7.479-5.757,10.589-2.264,2.87,3.213,1.164,9.161-3.309,9.759a3.807,3.807,0,0,1-1.387-7.487c.447-.088.335,0-.343.247A1.392,1.392,0,0,0,91.6,25c-.207.486-.263.6-.159.327s.072-.144-.064.367c.1-.6.024.263.112.518a1.854,1.854,0,0,0,.75.973,1.825,1.825,0,0,0,1.284.255c-.949.072.853-.088-.08.04l.359-.231c-.255.239-.279.255-.064.048a1,1,0,0,0,.319-.518q.1-.694.048-.263c-.016.494-.04-.757.016-.008-.159-.454-.183-.55-.064-.287.136.247.08.183-.144-.2.518.518-.59-.207.144.136-.159-.072-.989-.239-.606-.231.407.016-.494.128-.638.175.981-.3-.71.263.215-.136-.263.311-.311.351-.152.136.152-.231.12-.167-.088.183.263-.59-.032.144.008.462a3.875,3.875,0,0,1,3.046-4.433c1.922-.271,4.194.925,4.433,3.046" transform="translate(-50.888 138.829)" fill="#d5ce26"/>
      <path id="Trazado_100540" data-name="Trazado 100540" d="M100.4,19.965c-2.759,1.786-6.706,2.392-9.576.478a7.082,7.082,0,0,1-2.687-8.268A5.533,5.533,0,0,1,96.6,9.751c2.759,1.977,3.612,6.379.694,8.643a3.8,3.8,0,1,1-4.975-5.757c.335-.287.263-.144-.215.423a1.754,1.754,0,0,0-.542,1.164c0,.215.008.431.008.646.231.614.271.773.136.5-.183-.4.55.7.1.223.447.367.55.462.311.3s-.112-.1.4.2a2.269,2.269,0,0,0,2.512-.789c.223-.494.279-.606.183-.343s-.064.144.08-.375c-.128.662-.088-.6-.008-.159s-.415-.845-.04-.12c.319.622-.351-.423-.056-.072.319.367-.542-.558-.048-.064-.391-.191-.446-.239-.167-.136.263.08.215.072-.143-.032.734-.04-.295.151.159.024.279-.072.574-.1.845-.175-.781.231.239-.159.335-.207a9.352,9.352,0,0,0,.909-.534c1.674-1.076,4.338.032,5.087,1.762a3.932,3.932,0,0,1-1.762,5.087" transform="translate(-62.513 60.456)" fill="#d5ce26"/>
      <path id="Trazado_100541" data-name="Trazado 100541" d="M99.637,20.3c-.231,5.4-6.953,8.771-11.434,5.757s-3.787-10.971,1.451-12.845a3.972,3.972,0,0,1,4.545.933,10.3,10.3,0,0,1,1.81,10.525,3.8,3.8,0,0,1-7.16-2.575,2.454,2.454,0,0,0-.407-2.974l4.545.933a4.32,4.32,0,0,0-.566.239c.072.144.8-.718.478-.375-.359.391.287-.526,0-.08-.056.1-.207.71-.112.255.1-.518,0,.319,0,.431,0-.3.064-.566.064-.112,0-.287-.247-.55.008-.136-.072-.128-.662-.726-.343-.494.287.223-.319-.12-.423-.159-.279-.1.159-.144-.136.008-.4.207.152-.064.351-.1-.255.04-.606.136-.136,0,.439-.12.1-.183-.088.064.327-.439-.008-.04-.032.1.183-.885-.064.518.032-.016s-.072.917-.032-.032a3.805,3.805,0,0,1,7.583.646" transform="translate(-40.024 89.917)" fill="#d5ce26"/>
      <path id="Trazado_100542" data-name="Trazado 100542" d="M99.185,34.866A12.063,12.063,0,0,1,85.5,28.551a3.84,3.84,0,0,1,2.727-5.406,11.362,11.362,0,0,1,11.825,6.012,3.758,3.758,0,0,1-.287,3.819A6.952,6.952,0,0,1,93.1,35.918,3.879,3.879,0,0,1,89.633,31.8a8.869,8.869,0,0,1,3.11-6.028c3.732-3.181,8.7,2.575,4.975,5.757-.431.375-.447.351-.5.917l-3.468-4.114c.973.159.056-.08-.247.327-.1,1.276-.191,2.551-.287,3.819a3.525,3.525,0,0,0-3.588-1.858q1.363-2.7,2.727-5.4A4.51,4.51,0,0,0,97.8,27.387c1.977-.55,4.082,1.148,4.433,3.046a3.88,3.88,0,0,1-3.046,4.433" transform="translate(-41.821 160.543)" fill="#d5ce26"/>
      <path id="Trazado_100543" data-name="Trazado 100543" d="M100.109,23.419c-4.042,2.456-10.166-.614-10.533-5.366a3.969,3.969,0,0,1,2.073-4.114c5-2.456,10.756.606,12.183,5.773.59,2.153-1.228,3.867-3.046,4.433a9.085,9.085,0,0,1-10.549-4.975,3.851,3.851,0,0,1,2.727-5.406,9.072,9.072,0,0,1,10.445,6.777,3.82,3.82,0,0,1-3.046,4.433,3.9,3.9,0,0,1-4.433-3.046c.1.351.144.351-.024.008-.151-.319-.223-.311.008-.032a5.469,5.469,0,0,0-.454-.51c.391.375.024.072-.215-.08-.447-.3.47.151-.048-.016-.08-.024-.734-.191-.327-.12s-.287,0-.359,0c-.51-.064.781-.128-.16.064l2.727-5.406c.1.207.183.415.295.606-.359-.614.048-.024.175.1.367.391-.415-.271.048,0,.167.1.773.351.167.128.207.072.415.159.638.223-.359-.1-.319-.064.024-.032.694.056-.223.136.151.008.255-.1.558-.128.821-.207Q97.868,18.89,96.353,21.1c.215.789.04.151-.08-.048-.136-.239-.1-.183.112.175L96.178,21c0,.207.455.335-.1-.064-.247-.183-.694-.231-.1-.088a5.3,5.3,0,0,1-.6-.207c.726.263.1-.024-.12.032-.439.112.67-.056-.064.016-.773.08.55-.271-.207.1q1.028-2.069,2.073-4.122c.072.885.1.391-.271-.144.287.311.255.311-.1-.008a3.44,3.44,0,0,0,.5.335c-.415-.215-.423-.247-.032-.088q-.706-.144-.072-.072c-.646.016-1.084.359-.3-.112a3.823,3.823,0,0,1,5.087,1.754,3.915,3.915,0,0,1-1.762,5.087" transform="translate(-78.771 91.198)" fill="#d5ce26"/>
      <path id="Trazado_100544" data-name="Trazado 100544" d="M99.6,27.919a6.737,6.737,0,0,1,1.866,4.019,3.939,3.939,0,0,1-2.081,4.122c-5.159,2.256-11.49-3.03-9.3-8.587,2.137-5.4,10.118-4.959,12.454.024a5.929,5.929,0,0,1-2.7,7.814,6.137,6.137,0,0,1-7.726-2.639,6.69,6.69,0,0,1,1.746-8.045,8.639,8.639,0,0,1,8.707-1.029c4.569,1.73,2.017,8.9-2.583,7.16-.136-.056-1.427-.47-1.363-.263.064.191.391-.662.4-.734a1.82,1.82,0,0,0-1.164-1.515c-.59-.167-.869.112-1.371.447-1.045.7-.957,1.013-.789,2.137.271.327.311.383.128.167q-.263-.3.143.12l.3.128c-.359-.12-.407-.151-.136-.1.271.04.215.032-.16-.016l.375-.032c-.1.016-.207.032-.311.056a1.057,1.057,0,0,0,.534-.215,1.77,1.77,0,0,0,.718-1.22.826.826,0,0,0-.112-.534c-.12-.271-.1-.223.064.136-.056-.08-.112-.167-.175-.247.271.287.3.343.12.159-.152-.128-.144-.128.032,0,.231.151.183.128-.12-.064a2.082,2.082,0,0,0-1.037.04c-.694,1.371-1.387,2.751-2.073,4.122-.072-.8.415.151-.144-.439A3.8,3.8,0,0,1,99.6,27.919" transform="translate(-80.481 159.637)" fill="#d5ce26"/>
      <path id="Trazado_100545" data-name="Trazado 100545" d="M104.69,28.925A7.936,7.936,0,0,1,93.742,30.7a7.728,7.728,0,0,1-1.268-10.756,7.535,7.535,0,0,1,11.354-.183,7.193,7.193,0,0,1,1.778,5.669,7.841,7.841,0,0,1-3.915,5.709c-1.73,1.1-4.258-.064-5.079-1.762-.989-2.025.016-3.979,1.754-5.087-.367.231-.415.47-.191.016-.223.447-.024.566-.112.12.04.359.04.4-.008.12-.064-.3-.048-.239.04.167.231.311.255.359.08.144-.183-.2-.144-.167.112.088-.327-.2-.375-.239-.144-.112s.167.1-.183-.04c.359.064.407.08.136.056s-.215-.032.191-.048c-.383.088-.431.088-.159.008a.712.712,0,0,0,.439-.255c-.279.247-.327.279-.136.072s.159-.167-.064.136c.056-.1.112-.2.16-.3-.128.415-.144.407-.04-.04l-.04.319c-.016.447-.016.431-.016-.056l.056.311c-.167-.462-.159-.486.016-.08l-.191-.3c.287.311.287.319.008.008l-.279-.128q.622.2,0,.048l.335.032c-.407.048-.462.056-.183.016a2.578,2.578,0,0,0,.494-.1c-.383.136-.439.144-.183.032.247-.128.2-.1-.12.1.319-.287.335-.287.032,0a3.893,3.893,0,0,1,5.294-.981,3.842,3.842,0,0,1,.981,5.286" transform="translate(-90.86 120.415)" fill="#d5ce26"/>
    </g>
  </g>
</svg>
