<svg id="Grupo_114826" data-name="Grupo 114826" xmlns="http://www.w3.org/2000/svg" xmlns:xlink="http://www.w3.org/1999/xlink" width="100" height="97.239" viewBox="0 0 100 97.239">
  <defs>
    <clipPath id="clip-path">
      <rect id="Rectángulo_37638" data-name="Rectángulo 37638" width="100" height="97.239" fill="#04d9b5"/>
    </clipPath>
  </defs>
  <g id="Grupo_114825" data-name="Grupo 114825" clip-path="url(#clip-path)">
    <path id="Trazado_165522" data-name="Trazado 165522" d="M0,101.02c.517-.517.489-1.285.913-1.871A6.761,6.761,0,0,1,9.607,96.86c1.845.863,3.624,1.871,5.433,2.812.276.144.558.276,1.05.518a16.352,16.352,0,0,1-1.705-3.66,6.785,6.785,0,0,1,3.5-7.444A6.632,6.632,0,0,1,26.226,90.8,69.37,69.37,0,0,1,31.2,98.928c.837,1.524,1.789,2.155,3.493,1.865.969-.165.988-.056,3.409-1.635a14.292,14.292,0,0,0-2.142-1.44c-2.44-1.642-4.781-3.384-6.292-6-1.659-2.866-.506-6.332,2.378-7.068a11.112,11.112,0,0,1,4.36-.124c5.812.839,11.089,3.244,16.369,5.627,3.008,1.357,5.922,2.911,8.834,4.464a2.6,2.6,0,0,0,1.279.357c5.3-.007,10.608-.011,15.912.02.667,0,.911-.145.869-.848-.061-1.037-.039-2.083,0-3.123a1.808,1.808,0,0,1,1.981-1.918q8.2-.017,16.4,0a1.8,1.8,0,0,1,1.947,1.953q.014,15.62,0,31.24a1.81,1.81,0,0,1-1.966,1.945q-8.2.025-16.4,0a1.809,1.809,0,0,1-1.959-1.949c-.035-1.659-.044-3.32,0-4.978.018-.676-.221-.732-.793-.624a183.909,183.909,0,0,1-19.856,2.709,90.332,90.332,0,0,1-14.229.152,26.684,26.684,0,0,1-7.3-1.521,22.624,22.624,0,0,0-4.882-.8c-4.273-.6-8.555-1.147-12.833-1.714a11.537,11.537,0,0,0-1.544-.2,11.025,11.025,0,0,1-5.446-1.833c-2.462-1.37-4.917-2.762-7.448-4C2.782,108.256.741,106.633,0,103.753Zm45.754-2.25c-2.825,1.776-5.55,3.475-8.257,5.2a3.141,3.141,0,0,1-1.727.528q-9.174.118-18.349.285a2.735,2.735,0,0,1-1.386-.355c-2.319-1.234-4.646-2.45-6.971-3.671A8.448,8.448,0,0,0,7.3,99.951a3.09,3.09,0,0,0-3.136,1.079,2.85,2.85,0,0,0,.023,3.122,3.8,3.8,0,0,0,1.543,1.3q5.229,2.8,10.456,5.614a3.127,3.127,0,0,0,1.094.362q8.6,1.133,17.188,2.286a15.112,15.112,0,0,1,3.645.555,24.68,24.68,0,0,0,7.194,1.552A93.3,93.3,0,0,0,64,115.2c4.936-.548,9.84-1.337,14.726-2.236.7-.129.968-.319.96-1.086q-.064-6.1,0-12.2c.007-.759-.18-.981-.962-.977-5.5.025-11-.012-16.5,0a3.764,3.764,0,0,1-1.845-.468c-2.832-1.508-5.658-3.025-8.57-4.379A76.238,76.238,0,0,0,37.354,88.47a12.764,12.764,0,0,0-3.668-.411c-.937.052-1.276.582-.935,1.442a4.753,4.753,0,0,0,.553,1.017,15.335,15.335,0,0,0,3.571,3.289,56.949,56.949,0,0,0,8.878,4.962m50.532,7.959c0-4.324-.014-8.649.014-12.973,0-.7-.136-.965-.9-.956q-5.56.06-11.12,0c-.775-.008-.9.274-.9.961q.032,12.924-.005,25.849c0,.814.279.959,1.006.953,3.641-.031,7.284-.043,10.925.006.858.012,1-.294,1-1.062-.034-4.259-.016-8.519-.016-12.778m-68.447-5.71.145-.322c-1.514-2.475-2.973-4.986-4.562-7.411a2.921,2.921,0,0,0-4.055-.782,3,3,0,0,0-1.039,4.008c.749,1.4,1.618,2.726,2.412,4.1a.766.766,0,0,0,.778.416c2.106-.016,4.214-.007,6.32-.007" transform="translate(0 -27.023)" fill="#090909"/>
    <path id="Trazado_165523" data-name="Trazado 165523" d="M16.072.008A49.485,49.485,0,0,1,45.827,9.529c3.443,2.526,6.633,5.32,8.8,9.118,4.515,7.9,2.752,18.911-4.216,24.757-1.457,1.222-1.717,2.238-1.079,3.878.726,1.863,1.253,3.8,1.889,5.7a1.686,1.686,0,0,1-.462,1.782,1.772,1.772,0,0,1-1.888.454A2.013,2.013,0,0,1,47.6,53.856,61.861,61.861,0,0,1,45.522,47.5c-.13-.483-.245-.618-.762-.417-8.235,3.189-15.648,1.811-22.159-4.138a19.892,19.892,0,0,1-4.433-7.034,121.855,121.855,0,0,1-6.249-20.07C10.88,11.592,10.051,7.3,9.219,3.011,8.858,1.15,9.619.222,11.491.166c.78-.024,1.557-.124,2.336-.152.747-.027,1.5-.005,2.244-.005M37.889,25.361c-.417-.557-.78-.974-1.068-1.438a4.541,4.541,0,0,0-4.615-2.307,52.415,52.415,0,0,1-7.511-.131,1.842,1.842,0,0,1-1.843-1.664A1.876,1.876,0,0,1,24.5,17.869a5.6,5.6,0,0,1,1.261-.025c1.6.005,3.2,0,4.921,0a62.312,62.312,0,0,0-8.415-5.959c-.75-.45-1.533-.856-2.234-1.374a1.607,1.607,0,0,1-.579-1.99A1.775,1.775,0,0,1,21.158,7.3a2.6,2.6,0,0,1,1.36.458,72.95,72.95,0,0,1,7.764,5.014c1.565,1.146,3.033,2.412,4.589,3.692.186-.629.334-1.154.5-1.676a16.4,16.4,0,0,1,.515-1.562,1.807,1.807,0,0,1,2.37-1.12,1.871,1.871,0,0,1,1.091,2.313,25.663,25.663,0,0,1-.98,3.248,2.418,2.418,0,0,0,.647,3.147,19.8,19.8,0,0,1,2.081,2.559c.6-1.448,1.142-2.766,1.7-4.074a2.036,2.036,0,0,1,1.3-1.353,1.824,1.824,0,0,1,2.237,2.458q-1.321,3.184-2.638,6.369c-.123.3-.306.566-.163.915.493,1.2.973,2.41,1.5,3.711.87-1.427,1.679-2.756,2.49-4.083a2.21,2.21,0,0,1,1.353-1.181,1.786,1.786,0,0,1,1.92.643,1.743,1.743,0,0,1,.1,2.092,32.182,32.182,0,0,1-2.5,4.053,6.474,6.474,0,0,0-1.006,7.16c.381.9.536.7,1.027.23a16.728,16.728,0,0,0,2.774-20.151A25.262,25.262,0,0,0,44.244,13C35.3,6.223,25.109,3.431,13.981,3.7c-.859.021-.778.449-.669.988.307,1.523.611,3.047.943,4.564A162.808,162.808,0,0,0,20.3,31.226a28.427,28.427,0,0,0,3.828,7.822A16.52,16.52,0,0,0,43.784,43.49c.457-.22.615-.424.457-.959-.412-1.4-.773-2.807-1.1-4.225a1.083,1.083,0,0,0-1.079-.979c-2.453-.254-4.9-.543-7.353-.831-2.61-.306-5.224-.593-7.827-.954A1.815,1.815,0,0,1,25.2,33.536a1.887,1.887,0,0,1,2.2-1.584c3.355.36,6.706.769,10.059,1.153,1.413.162,2.827.313,4.357.481-.464-1.263-.9-2.41-1.305-3.567a.824.824,0,0,0-.777-.59c-1.923-.288-3.838-.629-5.758-.933-2.241-.355-4.486-.679-6.726-1.041a2.479,2.479,0,0,1-1.275-.44,1.706,1.706,0,0,1-.652-2.06,1.74,1.74,0,0,1,2.085-1.19c3.431.49,6.853,1.039,10.481,1.6" transform="translate(-2.925 0)" fill="#070a08"/>
    <path id="Trazado_165524" data-name="Trazado 165524" d="M47.5,100.5a56.918,56.918,0,0,1-8.878-4.962,15.322,15.322,0,0,1-3.571-3.289,4.724,4.724,0,0,1-.553-1.017c-.342-.86,0-1.389.935-1.442A12.764,12.764,0,0,1,39.1,90.2a76.284,76.284,0,0,1,14.454,5.375c2.912,1.354,5.738,2.871,8.57,4.379a3.764,3.764,0,0,0,1.845.468c5.5-.013,11,.024,16.5,0,.782,0,.969.218.962.977q-.056,6.1,0,12.2c.008.767-.258.957-.96,1.086-4.887.9-9.79,1.688-14.726,2.236a93.3,93.3,0,0,1-18.691.628A24.68,24.68,0,0,1,39.861,116a15.117,15.117,0,0,0-3.645-.555q-8.593-1.148-17.188-2.286a3.122,3.122,0,0,1-1.094-.362q-5.224-2.814-10.456-5.614a3.8,3.8,0,0,1-1.542-1.3,2.849,2.849,0,0,1-.023-3.122,3.09,3.09,0,0,1,3.136-1.079,8.448,8.448,0,0,1,1.763.809c2.325,1.221,4.653,2.437,6.971,3.671a2.735,2.735,0,0,0,1.386.355q9.174-.162,18.349-.285a3.139,3.139,0,0,0,1.726-.528c2.707-1.727,5.432-3.426,8.257-5.2" transform="translate(-1.749 -28.753)" fill="#ffd381"/>
    <path id="Trazado_165525" data-name="Trazado 165525" d="M135.57,110.7c0,4.26-.018,8.519.016,12.778.006.769-.138,1.074-1,1.062-3.641-.05-7.283-.038-10.925-.007-.727.007-1.009-.139-1.006-.952q.047-12.924.006-25.849c0-.688.123-.97.9-.962q5.56.06,11.12,0c.767-.008.907.261.9.955-.029,4.325-.014,8.65-.014,12.973" transform="translate(-39.284 -30.992)" fill="#ff8628"/>
    <path id="Trazado_165526" data-name="Trazado 165526" d="M36.3,104.616c-2.106,0-4.214-.008-6.32.007a.766.766,0,0,1-.778-.416c-.794-1.372-1.663-2.7-2.412-4.1A3,3,0,0,1,27.826,96.1a2.921,2.921,0,0,1,4.055.782c1.589,2.425,3.049,4.936,4.562,7.411l-.145.322" transform="translate(-8.458 -30.621)" fill="#ffd381"/>
    <path id="Trazado_165527" data-name="Trazado 165527" d="M39.828,27.1c-3.628-.557-7.051-1.106-10.481-1.6a1.74,1.74,0,0,0-2.085,1.19,1.706,1.706,0,0,0,.652,2.06,2.479,2.479,0,0,0,1.275.44c2.24.362,4.485.687,6.726,1.041,1.92.3,3.835.645,5.758.933a.824.824,0,0,1,.777.59c.406,1.157.841,2.3,1.305,3.567-1.53-.169-2.944-.319-4.357-.481-3.353-.385-6.7-.793-10.059-1.153a1.887,1.887,0,0,0-2.2,1.584,1.815,1.815,0,0,0,1.686,2.006c2.6.36,5.217.648,7.827.954,2.45.288,4.9.577,7.353.831a1.083,1.083,0,0,1,1.079.979c.324,1.418.685,2.83,1.1,4.225.158.535,0,.739-.457.959a16.52,16.52,0,0,1-19.659-4.442,28.427,28.427,0,0,1-3.828-7.822,162.809,162.809,0,0,1-6.041-21.97c-.332-1.517-.637-3.042-.943-4.564-.109-.539-.19-.967.669-.988,11.128-.273,21.315,2.52,30.263,9.294A25.262,25.262,0,0,1,53.121,21.9a16.728,16.728,0,0,1-2.774,20.151c-.491.469-.646.669-1.027-.23a6.474,6.474,0,0,1,1.006-7.16,32.182,32.182,0,0,0,2.5-4.053,1.743,1.743,0,0,0-.1-2.092,1.786,1.786,0,0,0-1.92-.643,2.21,2.21,0,0,0-1.353,1.181c-.811,1.327-1.62,2.656-2.49,4.083-.524-1.3-1-2.508-1.5-3.711-.143-.349.04-.619.163-.915q1.323-3.182,2.638-6.369a1.824,1.824,0,0,0-2.237-2.458,2.036,2.036,0,0,0-1.3,1.353c-.558,1.308-1.1,2.626-1.7,4.074a19.8,19.8,0,0,0-2.081-2.559,2.418,2.418,0,0,1-.647-3.147,25.663,25.663,0,0,0,.98-3.248,1.871,1.871,0,0,0-1.091-2.313,1.807,1.807,0,0,0-2.37,1.12,16.4,16.4,0,0,0-.515,1.562c-.162.521-.31,1.046-.5,1.676-1.556-1.28-3.023-2.546-4.589-3.692A72.95,72.95,0,0,0,24.456,9.5a2.6,2.6,0,0,0-1.36-.458,1.775,1.775,0,0,0-1.706,1.219,1.607,1.607,0,0,0,.579,1.99c.7.517,1.484.924,2.234,1.374a62.312,62.312,0,0,1,8.415,5.959c-1.719,0-3.32,0-4.921,0a5.6,5.6,0,0,0-1.261.025,1.876,1.876,0,0,0-1.645,1.952,1.842,1.842,0,0,0,1.843,1.664,52.415,52.415,0,0,0,7.511.131,4.541,4.541,0,0,1,4.615,2.307c.288.464.651.881,1.068,1.438" transform="translate(-4.863 -1.736)" fill="#04d9b5"/>
  </g>
</svg>
