<svg id="Grupo_114833" data-name="Grupo 114833" xmlns="http://www.w3.org/2000/svg" xmlns:xlink="http://www.w3.org/1999/xlink" width="99.416" height="99.999" viewBox="0 0 99.416 99.999">
  <defs>
    <clipPath id="clip-path">
      <rect id="Rectángulo_37639" data-name="Rectángulo 37639" width="99.416" height="99.999" fill="none"/>
    </clipPath>
  </defs>
  <g id="Grupo_114827" data-name="Grupo 114827" clip-path="url(#clip-path)">
    <path id="Trazado_165528" data-name="Trazado 165528" d="M197.37,150.415q-5.587,0-11.174,0c-1.647,0-2.2-.549-2.2-2.174,0-4.177.008-8.354-.008-12.531a1.712,1.712,0,0,1,1.245-1.923c.664-.173.422-.627.423-.979q.022-7.153.009-14.306a15.013,15.013,0,0,1,7.876-13.763q6.958-4.1,13.945-8.152a2.084,2.084,0,0,0,1-1.23q3.561-10.334,7.164-20.654a6.828,6.828,0,0,1,7.584-4.663,6.7,6.7,0,0,1,5.452,6.793,1.13,1.13,0,0,0,.5,1.033,6.484,6.484,0,0,1,2.582,7.36c-2.369,8.961-4.8,17.907-7.19,26.863a8.826,8.826,0,0,1-2.819,4.408c-3.443,3.041-6.835,6.141-10.319,9.135a5.99,5.99,0,0,0-2.382,5.27c.032.415.01.835,0,1.253-.013.8-.2,1.617.964,1.917.533.138.708.808.708,1.4,0,4.386.011,8.772-.009,13.157-.006,1.18-.691,1.776-1.964,1.779-3.794.01-7.588,0-11.382,0m5.172-38.843a2.586,2.586,0,0,1,1.264-1.315c2.919-1.666,5.826-3.353,8.736-5.034a3.239,3.239,0,0,0,1.927-2.636,3.062,3.062,0,0,0-1.414-3.237,3.176,3.176,0,0,0-3.552-.085c-5.014,2.923-10.057,5.8-15.008,8.824a10.9,10.9,0,0,0-5.442,9.34c-.156,5.181-.033,10.369-.061,15.555,0,.621.217.734.777.732q7.621-.028,15.243,0c.531,0,.746-.12.713-.69-.047-.833,0-1.67-.015-2.5a8.8,8.8,0,0,1,3.239-7.143c3.515-3.063,6.969-6.2,10.468-9.278a6.464,6.464,0,0,0,2.041-3.307c2.324-8.76,4.686-17.509,7.024-26.265.562-2.1-.333-3.883-2.182-4.421a3.521,3.521,0,0,0-4.2,2.516c-1.653,5.084-3.282,10.177-4.948,15.257a1.73,1.73,0,0,0,.084,1.382,6.562,6.562,0,0,1-2.641,8.605c-3.045,1.814-6.124,3.571-9.2,5.331-1.632.934-2.757.277-2.849-1.625m-5.208,35.5c3.06,0,6.119-.008,9.179.007.542,0,.9,0,.888-.744-.043-2.85-.034-5.7,0-8.552.006-.616-.213-.747-.782-.745q-9.231.026-18.462,0c-.617,0-.844.133-.835.8q.057,4.223,0,8.448c-.009.671.222.805.837.8,3.059-.028,6.119-.013,9.179-.013m24.816-73.743a3.487,3.487,0,0,0-3.354,2.492q-1.427,4.08-2.837,8.166c-1.205,3.477-2.38,6.964-3.633,10.424-.3.839-.21,1.05.69,1.36,1.126.386,1.35,0,1.643-.935,1.373-4.408,2.81-8.8,4.235-13.188a6.7,6.7,0,0,1,5.847-4.939c.62-.083.653-.321.546-.805a3.3,3.3,0,0,0-3.137-2.575" transform="translate(-132.627 -50.418)"/>
    <path id="Trazado_165529" data-name="Trazado 165529" d="M34.607,150.459q-5.587,0-11.173,0c-1.573,0-2.143-.566-2.145-2.129,0-4.142.013-8.284-.012-12.426-.006-1.011.258-1.8,1.3-2.1.289-.085.412-.194.382-.487a1.752,1.752,0,0,1,0-.417c.493-3.535-.776-6.171-3.634-8.383-3.157-2.444-6-5.29-9.015-7.924A9.535,9.535,0,0,1,7.306,111.7Q3.849,98.665.339,85.643c-.868-3.211-.1-5.83,2.6-7.817a.937.937,0,0,0,.392-.874c.07-3.63,2.362-6.445,5.585-6.884a6.945,6.945,0,0,1,7.58,5c2.339,6.865,4.741,13.708,7.106,20.563a1.591,1.591,0,0,0,.784.9q7.023,4.094,14.029,8.215a15.06,15.06,0,0,1,7.937,13.835c0,4.769.008,9.537-.011,14.306,0,.535.064.863.664,1.045a1.475,1.475,0,0,1,1.013,1.546c.005,4.42.018,8.841-.008,13.262-.007,1.151-.718,1.718-2.021,1.72q-5.691.01-11.382,0M17.544,102.63a3.131,3.131,0,0,0,1.842,2.575q4.324,2.49,8.647,4.982a2.768,2.768,0,0,1,1.439,1.429c-.093,1.9-1.226,2.558-2.85,1.626-3.074-1.764-6.158-3.513-9.2-5.334a6.556,6.556,0,0,1-2.644-8.6,1.683,1.683,0,0,0,.087-1.382c-.539-1.539-1.015-3.1-1.515-4.655-1.14-3.535-2.272-7.073-3.423-10.6a3.546,3.546,0,0,0-3.5-2.605,3.247,3.247,0,0,0-3.006,2.461,4.179,4.179,0,0,0,.129,2.258q3.509,13.026,7,26.055a6.463,6.463,0,0,0,2.038,3.308c3.552,3.126,7.071,6.291,10.62,9.421a8.525,8.525,0,0,1,3.027,5.65,24.431,24.431,0,0,1,.039,3.65c-.037.756.219.908.931.9q7.412-.047,14.825,0c.746.005,1-.131.992-.949-.044-4.906.023-9.814-.036-14.72a11.309,11.309,0,0,0-5.654-10.079c-4.87-2.959-9.817-5.791-14.737-8.669a3.247,3.247,0,0,0-3.646.041,3.074,3.074,0,0,0-1.414,3.24m17.1,44.486c3.06,0,6.119-.02,9.179.016.688.008.877-.2.868-.875-.036-2.781-.031-5.563,0-8.344.006-.615-.13-.839-.8-.836q-9.231.039-18.462,0c-.648,0-.823.182-.815.821.033,2.781.044,5.563,0,8.344-.014.782.282.895.962.887,3.024-.032,6.049-.014,9.074-.014M9.835,73.372a3.258,3.258,0,0,0-3.056,2.4c-.183.605-.169.883.62,1a6.715,6.715,0,0,1,5.7,4.848c1.412,4.285,2.785,8.583,4.173,12.877.53,1.639.519,1.609,2.146,1.189.6-.155.553-.411.394-.867C17.6,88.464,15.4,82.1,13.183,75.742a3.5,3.5,0,0,0-3.349-2.37" transform="translate(0 -50.461)"/>
    <path id="Trazado_165530" data-name="Trazado 165530" d="M75.793,16.158A15.964,15.964,0,0,1,85.55,1.66C91.993-1.27,98.1-.275,103.543,4.286c.637.533.934.568,1.563,0a16.666,16.666,0,0,1,27.687,13.682,16.424,16.424,0,0,1-4.871,10.669Q116.906,39.7,105.847,50.719c-1.126,1.125-1.9,1.125-3.023.005Q91.779,39.689,80.747,28.643c-3.246-3.256-4.862-7.218-4.954-12.485m16.774-12.7a13.147,13.147,0,0,0-12.714,9.172c-1.581,4.838-.739,9.423,2.8,13.089,6.908,7.164,14.037,14.115,21.06,21.17.483.485.765.469,1.244-.013C111.9,39.89,118.9,32.958,125.816,25.947a12.568,12.568,0,0,0,3.486-11.33,13.32,13.32,0,0,0-20.859-8.733,20.349,20.349,0,0,0-2.653,2.348c-1.056,1.047-1.871,1.034-2.949-.025-.3-.293-.588-.593-.888-.883a13.073,13.073,0,0,0-9.386-3.869" transform="translate(-54.636 0)"/>
    <path id="Trazado_165531" data-name="Trazado 165531" d="M215.422,137.512c.092,1.9,1.216,2.559,2.849,1.625,3.077-1.76,6.156-3.517,9.2-5.331a6.562,6.562,0,0,0,2.641-8.605,1.729,1.729,0,0,1-.084-1.382c1.666-5.08,3.295-10.172,4.948-15.257a3.521,3.521,0,0,1,4.2-2.516c1.85.538,2.744,2.317,2.182,4.421-2.339,8.756-4.7,17.505-7.024,26.265a6.465,6.465,0,0,1-2.041,3.307c-3.5,3.082-6.953,6.215-10.468,9.277a8.8,8.8,0,0,0-3.239,7.144c.018.835-.032,1.672.014,2.5.032.569-.183.691-.713.689q-7.621-.026-15.243,0c-.561,0-.78-.111-.777-.732.028-5.185-.094-10.374.061-15.554a10.9,10.9,0,0,1,5.442-9.34c4.951-3.027,9.994-5.9,15.008-8.824a3.177,3.177,0,0,1,3.552.084,3.062,3.062,0,0,1,1.414,3.237,48.659,48.659,0,0,1-5.2,3.016c-2.2,1.252-4.438,2.427-6.646,3.661a1.317,1.317,0,0,0-.076,2.308" transform="translate(-145.508 -76.358)" fill="#fdbbaa"/>
    <path id="Trazado_165532" data-name="Trazado 165532" d="M205.943,320.341c-3.06,0-6.119-.015-9.179.013-.615.006-.846-.129-.837-.8q.057-4.223,0-8.448c-.009-.668.218-.8.835-.8q9.231.031,18.461,0c.569,0,.788.13.782.745-.03,2.851-.039,5.7,0,8.552.011.741-.347.746-.888.744-3.059-.015-6.119-.007-9.179-.007" transform="translate(-141.237 -223.687)" fill="#fcf300"/>
    <path id="Trazado_165533" data-name="Trazado 165533" d="M294.938,82.077a3.3,3.3,0,0,1,3.137,2.575c.107.484.074.722-.546.805a6.7,6.7,0,0,0-5.847,4.939c-1.425,4.392-2.862,8.78-4.234,13.188-.292.939-.517,1.322-1.643.935-.9-.309-.994-.521-.69-1.36,1.253-3.46,2.428-6.947,3.633-10.424q1.416-4.084,2.837-8.166a3.487,3.487,0,0,1,3.354-2.492" transform="translate(-205.416 -59.166)" fill="#f9a893"/>
    <path id="Trazado_165534" data-name="Trazado 165534" d="M248.8,195.877a1.317,1.317,0,0,1,.076-2.308c2.208-1.234,4.449-2.409,6.646-3.661a48.661,48.661,0,0,0,5.2-3.016,3.239,3.239,0,0,1-1.927,2.636c-2.91,1.681-5.817,3.368-8.736,5.033a2.586,2.586,0,0,0-1.264,1.316" transform="translate(-178.885 -134.723)" fill="#f9a893"/>
    <path id="Trazado_165535" data-name="Trazado 165535" d="M26.116,128.6a3.074,3.074,0,0,1,1.414-3.24,3.247,3.247,0,0,1,3.646-.041c4.92,2.877,9.866,5.71,14.737,8.669a11.308,11.308,0,0,1,5.654,10.078c.059,4.906-.008,9.814.036,14.721.007.818-.247.954-.992.949q-7.412-.05-14.825,0c-.712,0-.967-.147-.931-.9a24.431,24.431,0,0,0-.039-3.65,8.526,8.526,0,0,0-3.027-5.651c-3.549-3.13-7.068-6.295-10.62-9.421a6.459,6.459,0,0,1-2.038-3.307q-3.472-13.036-7-26.055A4.182,4.182,0,0,1,12,108.486,3.247,3.247,0,0,1,15,106.025a3.547,3.547,0,0,1,3.5,2.605c1.151,3.532,2.283,7.069,3.423,10.605.5,1.553.976,3.115,1.515,4.655a1.683,1.683,0,0,1-.087,1.382,6.556,6.556,0,0,0,2.644,8.6c3.04,1.821,6.124,3.569,9.2,5.334,1.624.932,2.756.275,2.85-1.626a1.324,1.324,0,0,0-.165-2.359c-2.307-1.27-4.647-2.482-6.926-3.8a42.67,42.67,0,0,1-4.836-2.825" transform="translate(-8.572 -76.429)" fill="#fdbbaa"/>
    <path id="Trazado_165536" data-name="Trazado 165536" d="M98.206,320.334c-3.025,0-6.05-.018-9.074.014-.681.007-.976-.105-.962-.888.049-2.78.038-5.563,0-8.344-.008-.639.167-.823.815-.821q9.231.036,18.462,0c.67,0,.806.221.8.836-.029,2.781-.033,5.563,0,8.344.009.679-.181.882-.868.874-3.059-.035-6.119-.015-9.179-.015" transform="translate(-63.558 -223.68)" fill="#fcf300"/>
    <path id="Trazado_165537" data-name="Trazado 165537" d="M27.093,82.077a3.5,3.5,0,0,1,3.349,2.37c2.221,6.356,4.416,12.722,6.632,19.08.159.456.207.712-.394.867-1.627.419-1.616.45-2.146-1.189-1.387-4.294-2.76-8.592-4.173-12.877a6.715,6.715,0,0,0-5.7-4.848c-.789-.12-.8-.4-.62-1a3.258,3.258,0,0,1,3.056-2.4" transform="translate(-17.258 -59.166)" fill="#f9a893"/>
    <path id="Trazado_165538" data-name="Trazado 165538" d="M62.851,186.891a42.667,42.667,0,0,0,4.836,2.825c2.279,1.319,4.619,2.532,6.926,3.8a1.324,1.324,0,0,1,.165,2.359,2.768,2.768,0,0,0-1.439-1.429q-4.326-2.487-8.646-4.982a3.132,3.132,0,0,1-1.842-2.575" transform="translate(-45.307 -134.723)" fill="#f9a893"/>
    <path id="Trazado_165539" data-name="Trazado 165539" d="M101.076,12.319a13.074,13.074,0,0,1,9.387,3.869c.3.29.59.591.888.883,1.078,1.059,1.893,1.072,2.949.025a20.333,20.333,0,0,1,2.653-2.348,13.32,13.32,0,0,1,20.859,8.733,12.568,12.568,0,0,1-3.486,11.33c-6.918,7.01-13.916,13.943-20.863,20.925-.48.482-.761.5-1.244.013-7.023-7.055-14.151-14.006-21.06-21.17-3.535-3.665-4.377-8.25-2.8-13.089a13.147,13.147,0,0,1,12.714-9.172M112.843,20.3c-1.009,0-2.018-.008-3.027,0-1.377.014-1.975.6-1.988,1.964-.013,1.322-.03,2.645.009,3.966.018.6-.2.778-.778.762-1.321-.035-2.644-.021-3.966-.008s-1.936.609-1.946,1.9q-.025,3.131,0,6.262a1.671,1.671,0,0,0,1.881,1.859c1.287.018,2.576.041,3.861-.01.706-.028.989.148.952.911-.062,1.284-.029,2.574-.013,3.861a1.692,1.692,0,0,0,1.924,1.922q3.079.023,6.158,0a1.694,1.694,0,0,0,1.937-1.91c.017-1.322.038-2.645-.01-3.966-.024-.657.2-.837.834-.816,1.286.043,2.574.021,3.861.01,1.383-.011,1.99-.6,2-1.954q.021-3.079,0-6.158c-.01-1.3-.627-1.895-1.937-1.909-1.287-.014-2.576-.035-3.861.01-.661.023-.924-.149-.9-.86.053-1.355.037-2.713.007-4.07a1.636,1.636,0,0,0-1.766-1.76c-1.078-.027-2.157-.006-3.235-.007" transform="translate(-63.146 -8.864)" fill="#04d9b5"/>
    <path id="Trazado_165540" data-name="Trazado 165540" d="M147.8,40.959c1.078,0,2.157-.021,3.235.006a1.636,1.636,0,0,1,1.766,1.76c.029,1.356.046,2.715-.007,4.07-.028.711.235.883.9.86,1.286-.045,2.574-.024,3.861-.009,1.311.014,1.927.614,1.937,1.909q.024,3.079,0,6.158c-.009,1.357-.617,1.943-2,1.955-1.287.011-2.575.032-3.861-.01-.631-.021-.857.159-.833.816.048,1.32.027,2.644.01,3.966a1.694,1.694,0,0,1-1.937,1.91q-3.079.021-6.158,0a1.692,1.692,0,0,1-1.924-1.922c-.015-1.287-.048-2.577.013-3.861.037-.763-.246-.939-.952-.911-1.285.051-2.574.028-3.861.01a1.671,1.671,0,0,1-1.881-1.859q-.029-3.131,0-6.262c.01-1.289.63-1.885,1.946-1.9s2.645-.027,3.966.008c.583.015.8-.16.779-.762-.039-1.321-.021-2.644-.009-3.966.013-1.363.611-1.95,1.987-1.964,1.009-.01,2.018,0,3.027,0m-1.668,17.207v.313c0,2.672,0,2.655,2.707,2.539.512-.022.64-.172.63-.658-.029-1.391-.026-2.784-.005-4.176a1.686,1.686,0,0,1,1.882-1.862c.765-.016,1.531,0,2.3,0,2.541,0,2.52,0,2.515-2.522,0-.612-.107-.853-.787-.823-1.355.06-2.714.035-4.071.012a1.671,1.671,0,0,1-1.836-1.8c-.023-.765-.005-1.531-.005-2.3,0-2.678,0-2.658-2.653-2.594-.559.014-.7.178-.685.709.033,1.356.025,2.714.007,4.071a1.711,1.711,0,0,1-1.937,1.917c-.73.013-1.462,0-2.192,0-2.613,0-2.579,0-2.571,2.576,0,.708.269.777.847.762,1.356-.035,2.715-.031,4.072,0a1.655,1.655,0,0,1,1.779,1.751c.027.7.005,1.392.007,2.088" transform="translate(-98.103 -29.521)"/>
    <path id="Trazado_165541" data-name="Trazado 165541" d="M154.745,66.75c0-.7.021-1.393-.006-2.088a1.655,1.655,0,0,0-1.78-1.751c-1.357-.027-2.715-.031-4.072,0-.579.015-.845-.054-.847-.762-.008-2.576-.041-2.576,2.571-2.576.731,0,1.462.01,2.193,0a1.711,1.711,0,0,0,1.937-1.917c.017-1.357.027-2.715-.007-4.071-.013-.531.126-.7.685-.709,2.653-.064,2.653-.084,2.653,2.594,0,.766-.018,1.532.005,2.3a1.671,1.671,0,0,0,1.836,1.8c1.357.023,2.716.048,4.071-.012.68-.03.786.211.787.823,0,2.522.026,2.522-2.515,2.522-.766,0-1.531-.013-2.3,0a1.686,1.686,0,0,0-1.882,1.862c-.021,1.392-.024,2.784.005,4.176.01.486-.118.636-.629.658-2.708.116-2.708.134-2.708-2.539,0-.1,0-.209,0-.313" transform="translate(-106.716 -38.104)" fill="#fefefe"/>
  </g>
</svg>
