<svg id="Grupo_114837" data-name="Grupo 114837" xmlns="http://www.w3.org/2000/svg" xmlns:xlink="http://www.w3.org/1999/xlink" width="71.878" height="80" viewBox="0 0 71.878 80">
  <defs>
    <clipPath id="clip-path">
      <rect id="Rectángulo_37499" data-name="Rectángulo 37499" width="71.878" height="80" fill="none"/>
    </clipPath>
  </defs>
  <g id="Grupo_114740" data-name="Grupo 114740" clip-path="url(#clip-path)">
    <path id="Trazado_165241" data-name="Trazado 165241" d="M335.866,233.7a1.221,1.221,0,0,1-1.085-1.383c.057-.658.563-1.065,1.4-1.071q3.906-.026,7.813,0c1.06.008,1.449.451,1.451,1.579q.01,6.72,0,13.439,0,10.47.011,20.94a1.793,1.793,0,0,1-.84,1.775h-9.064a1.821,1.821,0,0,1-.806-1.713q.028-14.386.013-28.772c0-1.188.193-1.452,1.239-1.736,1.012.295,1.237.625,1.239,1.847q.022,13.511.024,27.022c0,.7.187.878.866.851,1.352-.055,2.708-.053,4.06,0,.669.026.806-.2.8-.833-.024-6.066-.014-12.132-.014-18.2q0-6.482,0-12.965c0-.453.014-.791-.632-.781-2.159.032-4.32,0-6.48,0" transform="translate(-273.577 -188.979)"/>
    <path id="Trazado_165242" data-name="Trazado 165242" d="M250.822,337.629a1.827,1.827,0,0,1-.819-1.786c.019-6.274.01-12.548.011-18.821,0-1.452.335-1.787,1.789-1.789q3.631,0,7.263,0c1.246,0,1.63.388,1.63,1.632,0,6.352-.007,12.7.013,19.056a1.771,1.771,0,0,1-.824,1.706Zm1.721-4.493a5.978,5.978,0,0,0-.08,1.384c-.052.468.115.634.6.624,1.481-.03,2.964-.037,4.445,0,.574.015.756-.13.749-.729-.032-2.885-.014-5.771-.014-8.657q0-3.7,0-7.409c0-.294.1-.684-.407-.664a7.824,7.824,0,0,0-1.857.076c-.93-.153-1.868,0-2.8-.07-.549-.039-.7.15-.7.695.022,3.694.008,7.389.014,11.083,0,1.221.029,2.442.045,3.663" transform="translate(-204.32 -257.629)"/>
    <path id="Trazado_165243" data-name="Trazado 165243" d="M166.083,368.459a1.75,1.75,0,0,1-.834-1.7c.023-4.031.009-8.063.012-12.094,0-1.351.359-1.708,1.707-1.71q3.628-.005,7.256,0c1.351,0,1.721.366,1.721,1.7,0,4.031-.013,8.063.014,12.094a1.793,1.793,0,0,1-.812,1.711Zm1.693-4.523a8.392,8.392,0,0,0-.068,1.547c-.031.381.143.489.5.486q2.374-.02,4.749,0c.365,0,.5-.118.5-.491q-.015-4.749,0-9.5c0-.331-.055-.554-.46-.535-.723.033-1.448.042-2.172.061a21.676,21.676,0,0,0-2.645-.071c-.342-.018-.45.133-.448.461q.03,4.02.044,8.041" transform="translate(-135.054 -288.459)"/>
    <path id="Trazado_165244" data-name="Trazado 165244" d="M81.162,394.45a2.407,2.407,0,0,1-.7-2.034c.033-2,0-4.01.013-6.015.006-1.238.411-1.64,1.636-1.642q3.711-.006,7.422,0c1.228,0,1.634.41,1.636,1.642,0,2.083-.023,4.167.014,6.25a1.873,1.873,0,0,1-.8,1.8Zm1.823-4.518c-.018.518-.022,1.037-.057,1.554-.027.4.173.475.518.473q2.381-.016,4.762,0c.313,0,.48-.075.476-.432q-.02-1.912,0-3.825c0-.337-.121-.464-.456-.452-.779.027-1.558.033-2.337.048-.829-.015-1.659-.023-2.487-.049-.317-.01-.482.075-.467.431.031.751.035,1.5.05,2.253" transform="translate(-65.761 -314.45)"/>
    <path id="Trazado_165245" data-name="Trazado 165245" d="M50.255,25.2A25.127,25.127,0,1,1,25.125,0a25.195,25.195,0,0,1,25.13,25.2M32.423,7.753c.831.008,1.663.02,2.494.024,1.357.007,1.642.257,1.783,1.581a1.549,1.549,0,0,1-1.5.922c-.989-.011-1.977-.022-2.965-.05a10.846,10.846,0,0,1-4.04-.735,9.474,9.474,0,0,1-5.649-6.258c-.128-.434-.263-.612-.8-.529a22.754,22.754,0,0,0-7.969,2.809A19.113,19.113,0,0,0,9.376,8.9c1.4,0,2.644-.01,3.884,0a13.193,13.193,0,0,1,1.554.108,5.713,5.713,0,0,1-.02,11.321c-1.4.192-2.808.048-4.211.108a2.613,2.613,0,0,0-.245,5.208,14.658,14.658,0,0,1,1.851.239,5.387,5.387,0,0,1,4.146,5.813,5.456,5.456,0,0,1-4.852,4.915A1.442,1.442,0,0,1,9.7,35.765c-.008-1.074.315-1.439,1.387-1.566a3.023,3.023,0,0,0-.3-6.036,6.034,6.034,0,0,1-2.413-.547,5.09,5.09,0,0,1,2.216-9.649c1.118-.042,2.24,0,3.359-.016a3.276,3.276,0,1,0,.059-6.552c-2.135-.035-4.271,0-6.407-.018a.844.844,0,0,0-.78.391,24.214,24.214,0,0,0-1.843,2.987A22.346,22.346,0,0,0,2.787,28.929,19.1,19.1,0,0,0,5.2,35.8a18.907,18.907,0,0,0,2.62,3.939,1.033,1.033,0,0,0,.92.429c1.974-.018,3.948-.022,5.922,0a15.344,15.344,0,0,1,9.164,2.989c.923.678,1,1.213.325,2.157a1.555,1.555,0,0,1-1.867-.219,12.634,12.634,0,0,0-4.952-2.181,31.617,31.617,0,0,0-5.911-.259c-.148,0-.363-.121-.464.148A22.277,22.277,0,0,0,22.6,47.632a7.952,7.952,0,0,0,3.774-.08,1.286,1.286,0,0,0,.763.076,19.012,19.012,0,0,0,4.43-.827,20.964,20.964,0,0,0,6.014-2.842c-.34,0-.488,0-.635,0a4.593,4.593,0,0,1-3.66-1.422,4.7,4.7,0,0,1-1.024-5.4,4.771,4.771,0,0,1,4.66-2.932,2.509,2.509,0,1,0-.068-5c-1.353-.006-2.707.026-4.06-.009a6.229,6.229,0,0,1-6.229-6.116,6.128,6.128,0,0,1,5.983-6.235c3.013-.123,6.034-.083,9.052-.086,1.093,0,1.461.44,1.5,1.628a1.854,1.854,0,0,1-1.905.85,3.951,3.951,0,0,0-1.455.062,64.509,64.509,0,0,0-7.081-.014,3.7,3.7,0,0,0-3.636,3.8,3.786,3.786,0,0,0,4.054,3.633c1.273.008,2.546-.007,3.818,0a5.378,5.378,0,0,1,3.34,1.09,4.944,4.944,0,0,1,1.867,3.624c.139,2.669-1.581,4.63-4.518,5.218-.285.01-.57.026-.855.03a2.285,2.285,0,0,0-2.218,1.422,2.19,2.19,0,0,0,.406,2.52,2.03,2.03,0,0,0,1.7.788c1.222,0,2.444-.011,3.665.014a1.184,1.184,0,0,0,.945-.428,22.278,22.278,0,0,0,6.346-18.8,10.893,10.893,0,0,0-.93-3.812,20.874,20.874,0,0,0-5.372-9.035c-.239-.551-.762-.826-1.182-1.2a22.328,22.328,0,0,0-14.4-5.689c-.725-.025-.914.158-.527.8a7.283,7.283,0,0,0,7.262,4.484" transform="translate(0 -0.001)"/>
    <path id="Trazado_165246" data-name="Trazado 165246" d="M340.881,244.737c2.16.005,4.321.033,6.48,0,.646-.01.633.328.632.781q-.01,6.483,0,12.965c0,6.066-.01,12.132.014,18.2,0,.632-.135.859-.8.833-1.352-.052-2.708-.054-4.06,0-.679.028-.867-.147-.866-.851q.02-13.511-.024-27.022c0-1.222-.227-1.553-1.239-1.847a13.35,13.35,0,0,0-.13-3.059" transform="translate(-278.592 -200.017)" fill="#007a64"/>
    <path id="Trazado_165247" data-name="Trazado 165247" d="M162.033,103.779c-.181.184-.352.38-.545.551a1.115,1.115,0,0,1-1.554.092,1.149,1.149,0,0,1-.3-1.6,3.822,3.822,0,0,1,.312-.448q2.154-2.826,4.311-5.648c.89-1.159,1.657-1.16,2.547,0,1.457,1.9,2.9,3.812,4.359,5.71a1.375,1.375,0,0,1,.321,1.571,1.413,1.413,0,0,1-1.451.7c-.885-.006-1.773.031-2.656-.014-.514-.026-.648.153-.675.644a33.622,33.622,0,0,1-2.26,10.555,34.66,34.66,0,0,1-14.37,17.154,34.088,34.088,0,0,1-17.38,5.072,2.6,2.6,0,0,1-1-.1,1.117,1.117,0,0,1-.776-1.285,1.158,1.158,0,0,1,1.234-1.066c1.38-.04,2.755-.119,4.125-.3a32.328,32.328,0,0,0,25.263-18.935,29.887,29.887,0,0,0,2.713-12.633c.187-1.3.507-1.574,1.828-1.577.558,0,1.115,0,1.822,0-.77-1.012-1.446-1.89-2.11-2.777-.205-.274-.359-.217-.536.021q-1.6,2.153-3.213,4.3" transform="translate(-106.975 -78.343)"/>
    <path id="Trazado_165248" data-name="Trazado 165248" d="M301.313,119.06q1.607-2.15,3.213-4.3c.177-.238.331-.3.536-.021.664.887,1.34,1.765,2.11,2.777-.707,0-1.265,0-1.822,0-1.322,0-1.641.279-1.828,1.577l-2.209-.032" transform="translate(-246.255 -93.623)" fill="#ff8628"/>
    <path id="Trazado_165249" data-name="Trazado 165249" d="M263.638,344.137c-.016-1.221-.043-2.442-.045-3.663-.006-3.695.009-7.389-.014-11.083,0-.545.149-.734.7-.695.93.066,1.868-.083,2.8.069q0,5.848,0,11.7c0,2.889-.593,3.523-3.435,3.676" transform="translate(-215.416 -268.629)" fill="#ff8628"/>
    <path id="Trazado_165250" data-name="Trazado 165250" d="M263.5,344.047c2.841-.152,3.435-.787,3.435-3.676q0-5.849,0-11.7a7.848,7.848,0,0,1,1.858-.075c.5-.02.407.37.407.663q.007,3.7,0,7.409c0,2.886-.017,5.772.014,8.657.007.6-.176.744-.749.729-1.481-.04-2.964-.033-4.445,0-.489.01-.657-.156-.6-.624a5.979,5.979,0,0,1,.08-1.384" transform="translate(-215.282 -268.54)" fill="#ff8628"/>
    <path id="Trazado_165251" data-name="Trazado 165251" d="M181.806,366.642c.724-.019,1.448-.029,2.172-.061.406-.018.461.2.46.535q-.009,4.749,0,9.5c0,.373-.134.494-.5.491q-2.374-.02-4.749,0c-.36,0-.534-.1-.5-.486a8.432,8.432,0,0,1,.068-1.548,2.652,2.652,0,0,0,3.026-2.967c-.1-1.815.007-3.641.024-5.462" transform="translate(-146.035 -299.595)" fill="#fcf300"/>
    <path id="Trazado_165252" data-name="Trazado 165252" d="M181.929,366.571c-.016,1.821-.12,3.647-.024,5.462A2.652,2.652,0,0,1,178.879,375c-.013-2.68-.023-5.36-.044-8.041,0-.327.105-.478.448-.461a21.671,21.671,0,0,1,2.645.071" transform="translate(-146.157 -299.524)" fill="#fcf300"/>
    <path id="Trazado_165253" data-name="Trazado 165253" d="M96.9,398.444c.779-.015,1.558-.021,2.337-.048.335-.012.46.115.456.452q-.018,1.912,0,3.825c0,.357-.163.434-.476.432q-2.381-.013-4.762,0c-.345,0-.545-.074-.518-.473.035-.517.04-1.036.057-1.554a2.579,2.579,0,0,0,2.905-2.635" transform="translate(-76.768 -325.597)" fill="#009e83"/>
    <path id="Trazado_165254" data-name="Trazado 165254" d="M96.936,398.438a2.579,2.579,0,0,1-2.905,2.635c-.015-.751-.019-1.5-.05-2.253-.015-.357.151-.441.467-.431.829.026,1.658.034,2.487.049" transform="translate(-76.807 -325.591)" fill="#009e83"/>
    <path id="Trazado_165255" data-name="Trazado 165255" d="M32.971,47.783a1.442,1.442,0,0,0,1.783.856,5.456,5.456,0,0,0,4.852-4.915,5.387,5.387,0,0,0-4.146-5.813,14.667,14.667,0,0,0-1.851-.239,2.613,2.613,0,0,1,.245-5.208c1.4-.06,2.809.084,4.211-.108a5.713,5.713,0,0,0,.02-11.321,13.158,13.158,0,0,0-1.554-.108c-1.24-.015-2.481,0-3.884,0a19.109,19.109,0,0,1,4.4-3.387,22.756,22.756,0,0,1,7.969-2.809c.535-.083.67.1.8.529a9.474,9.474,0,0,0,5.649,6.258,10.847,10.847,0,0,0,4.04.735c.988.028,1.977.039,2.965.05a1.549,1.549,0,0,0,1.5-.921h4.573a20.873,20.873,0,0,1,5.372,9.035H66.377c-.04-1.188-.408-1.629-1.5-1.628-3.017,0-6.038-.037-9.052.086A6.128,6.128,0,0,0,49.842,35.1a6.229,6.229,0,0,0,6.229,6.116c1.352.035,2.706,0,4.06.009a2.509,2.509,0,1,1,.068,5,4.771,4.771,0,0,0-4.66,2.932,4.7,4.7,0,0,0,1.023,5.4,4.593,4.593,0,0,0,3.66,1.422c.147,0,.295,0,.635,0a20.961,20.961,0,0,1-6.014,2.842,19,19,0,0,1-4.43.827,1.292,1.292,0,0,1-.763-.076,20.934,20.934,0,0,0-2.225-2.242c.676-.944.6-1.48-.324-2.157a15.344,15.344,0,0,0-9.164-2.989q-2.961-.027-5.922,0a1.034,1.034,0,0,1-.92-.429,18.9,18.9,0,0,1-2.62-3.94l4.5-.035" transform="translate(-23.271 -12.019)" fill="#33cce8"/>
    <path id="Trazado_165256" data-name="Trazado 165256" d="M20.686,86.663l-4.5.035a19.092,19.092,0,0,1-2.417-6.871,22.346,22.346,0,0,1,2.189-14.171A24.193,24.193,0,0,1,17.8,62.67a.844.844,0,0,1,.78-.391c2.136.015,4.272-.016,6.407.018a3.276,3.276,0,1,1-.059,6.552c-1.12.02-2.241-.025-3.36.016a5.09,5.09,0,0,0-2.216,9.649,6.036,6.036,0,0,0,2.413.547,3.023,3.023,0,0,1,.3,6.036c-1.072.127-1.4.492-1.387,1.566" transform="translate(-10.986 -50.899)" fill="#009e83"/>
    <path id="Trazado_165257" data-name="Trazado 165257" d="M199.307,100.651h3.539a10.891,10.891,0,0,1,.93,3.812,22.278,22.278,0,0,1-6.346,18.8,1.186,1.186,0,0,1-.945.428c-1.221-.026-2.443-.01-3.665-.014a2.029,2.029,0,0,1-1.7-.788,10.6,10.6,0,0,0,2.666-3.972c2.937-.588,4.657-2.549,4.518-5.218a4.945,4.945,0,0,0-1.866-3.624,8.872,8.872,0,0,0,.292-3.028,33.929,33.929,0,0,0-.788-5.485,3.951,3.951,0,0,1,1.455-.062,1.855,1.855,0,0,0,1.905-.85" transform="translate(-156.2 -82.258)" fill="#009e83"/>
    <path id="Trazado_165258" data-name="Trazado 165258" d="M169.571,105.183a33.908,33.908,0,0,1,.787,5.485,8.868,8.868,0,0,1-.292,3.028,5.379,5.379,0,0,0-3.34-1.09c-1.273-.011-2.546,0-3.818,0a3.786,3.786,0,0,1-4.054-3.633,3.7,3.7,0,0,1,3.636-3.8,64.512,64.512,0,0,1,7.081.014" transform="translate(-129.824 -85.878)" fill="#009e83"/>
    <path id="Trazado_165259" data-name="Trazado 165259" d="M152.926,20.4h-4.573c-.141-1.324-.426-1.575-1.783-1.581-.832,0-1.663-.016-2.495-.024-.02-.329-.277-.491-.5-.656a30.1,30.1,0,0,0-3.858-2.6,9.945,9.945,0,0,0-2.9-1.231c-.387-.639-.2-.822.527-.8a22.328,22.328,0,0,1,14.4,5.689c.42.37.943.645,1.182,1.2" transform="translate(-111.652 -11.044)" fill="#009e83"/>
    <path id="Trazado_165260" data-name="Trazado 165260" d="M73.17,235.945a20.933,20.933,0,0,1,2.225,2.242,7.962,7.962,0,0,1-3.774.079,22.278,22.278,0,0,1-11.644-4.832c.1-.269.316-.151.464-.148a31.632,31.632,0,0,1,5.911.259,12.636,12.636,0,0,1,4.953,2.181,1.554,1.554,0,0,0,1.867.219" transform="translate(-49.017 -190.635)" fill="#009e83"/>
    <path id="Trazado_165261" data-name="Trazado 165261" d="M137.691,17.885a9.942,9.942,0,0,1,2.9,1.231,30.089,30.089,0,0,1,3.858,2.6c.223.165.479.327.5.656a7.283,7.283,0,0,1-7.262-4.484" transform="translate(-112.531 -14.617)" fill="#009e83"/>
    <path id="Trazado_165262" data-name="Trazado 165262" d="M190.957,200.629a10.6,10.6,0,0,1-2.666,3.972,2.19,2.19,0,0,1-.406-2.52,2.285,2.285,0,0,1,2.218-1.422c.285,0,.57-.02.855-.03" transform="translate(-153.367 -163.968)" fill="#009e83"/>
  </g>
</svg>
