<svg xmlns="http://www.w3.org/2000/svg" xmlns:xlink="http://www.w3.org/1999/xlink" width="101" height="101" viewBox="0 0 101 101">
  <defs>
    <clipPath id="clip-path">
      <rect id="Rectángulo_37679" data-name="Rectángulo 37679" width="59.674" height="63.186" fill="none"/>
    </clipPath>
  </defs>
  <g id="Grupo_114913" data-name="Grupo 114913" transform="translate(-749.994 -1342)">
    <g id="Elipse_1146" data-name="Elipse 1146" transform="translate(749.994 1342)" fill="#fff" stroke="#009e83" stroke-width="2">
      <circle cx="50.5" cy="50.5" r="50.5" stroke="none"/>
      <circle cx="50.5" cy="50.5" r="49.5" fill="none"/>
    </g>
    <g id="Grupo_114883" data-name="Grupo 114883" transform="translate(770.657 1360.85)">
      <g id="Grupo_114882" data-name="Grupo 114882" clip-path="url(#clip-path)">
        <path id="Trazado_166253" data-name="Trazado 166253" d="M102.973,0c2.08.734,2.781,2.555,3.438,4.4.319.9.342.939,1.171.5A10.162,10.162,0,0,1,110.4,3.874c2.692-.517,4.292,1.117,3.732,3.8a11.448,11.448,0,0,1-1.227,3.138c-.216.4-.208.57.311.705a8.45,8.45,0,0,1,3.753,1.89,2.649,2.649,0,0,1,.037,4.194,5.584,5.584,0,0,1-1.083.809,11.477,11.477,0,0,1-2.6,1.1c-.7.209-.693.214-.349.847a8.669,8.669,0,0,1,1.236,3.829,2.741,2.741,0,0,1-3.414,3.038,10.186,10.186,0,0,1-3.51-1.262c-.405-.226-.646-.325-.791.309a9.113,9.113,0,0,1-1.2,2.818,3.315,3.315,0,0,1-1.132,1.281c-.685.354-.748.862-.747,1.544q.03,14.927.013,29.855a2.079,2.079,0,0,1-.073.792.861.861,0,0,1-.959.606.846.846,0,0,1-.8-.8,6.024,6.024,0,0,1-.015-.678q0-15.113.006-30.225a.819.819,0,0,0-.465-.876,4.057,4.057,0,0,1-1.492-1.606,11.884,11.884,0,0,1-1.108-2.594c-.213-.673-.282-.7-.893-.372a10.159,10.159,0,0,1-3.406,1.19,2.813,2.813,0,0,1-3.423-3.429,9.766,9.766,0,0,1,1.274-3.5c.269-.46.216-.641-.324-.773a8.5,8.5,0,0,1-3.516-1.694,2.744,2.744,0,0,1,.013-4.609A9.366,9.366,0,0,1,91.6,11.552c.738-.223.752-.284.376-.968a9.564,9.564,0,0,1-1.13-3.168C90.45,4.859,92,3.37,94.557,3.866A10.779,10.779,0,0,1,97.6,5c.582.312.708.257.926-.374.066-.194.118-.393.188-.585A6.449,6.449,0,0,1,101.862,0Zm9.4,6.884c.017-.99-.223-1.241-1.043-1.228a6.465,6.465,0,0,0-2.8.84,9.739,9.739,0,0,1-1.487.734,1.359,1.359,0,0,1-1.9-.852c-.183-.41-.3-.849-.445-1.275a7.553,7.553,0,0,0-1.409-2.778c-.56-.618-.976-.619-1.548-.012a5.426,5.426,0,0,0-1.091,1.844c-.231.613-.407,1.247-.628,1.864A1.579,1.579,0,0,1,97.6,7.066c-.374-.166-.731-.372-1.1-.555a7.022,7.022,0,0,0-2.553-.846c-1.134-.092-1.475.276-1.306,1.4A8.532,8.532,0,0,0,93.68,9.876a4.658,4.658,0,0,1,.579,1.351,1.3,1.3,0,0,1-.69,1.55,7.439,7.439,0,0,1-1.5.556,7.85,7.85,0,0,0-2.589,1.252c-.827.657-.835,1.162-.023,1.838a7.749,7.749,0,0,0,2.816,1.337c2.113.639,2.459,1.446,1.421,3.384a8.785,8.785,0,0,0-1.057,2.872c-.156,1.068.288,1.514,1.352,1.366A8.25,8.25,0,0,0,96.76,24.4a5.149,5.149,0,0,1,1.4-.614,1.312,1.312,0,0,1,1.636.74,9.152,9.152,0,0,1,.574,1.556,7.088,7.088,0,0,0,1.334,2.611c.577.639,1.023.637,1.594,0a6.689,6.689,0,0,0,1.284-2.432c.13-.389.235-.786.371-1.173a1.648,1.648,0,0,1,2.512-1.1c.337.149.658.335.986.5a7.458,7.458,0,0,0,2.728.9c.9.081,1.209-.22,1.189-1.118a5.42,5.42,0,0,0-.566-2.127c-.3-.652-.666-1.274-.937-1.936a1.48,1.48,0,0,1,.839-2.082c.445-.2.926-.327,1.391-.486a6.946,6.946,0,0,0,2.643-1.4c.567-.535.562-.91,0-1.458a5.028,5.028,0,0,0-1.781-1.075c-.631-.24-1.285-.422-1.923-.645a1.619,1.619,0,0,1-1.073-2.508c.17-.373.376-.729.557-1.1a6.838,6.838,0,0,0,.848-2.581" transform="translate(-72.646)" fill="#030404"/>
        <path id="Trazado_166254" data-name="Trazado 166254" d="M20.379,179.8a22.082,22.082,0,0,0-3.29-5.462c-.7-.888-1.478-1.71-2.186-2.59-.3-.368-.468-.316-.82-.044a11.417,11.417,0,0,1-11.725,1.6A3.174,3.174,0,0,1,0,170.493c-.066-1.443.888-2.313,2.009-3.02a7.035,7.035,0,0,1,2.077-.906c.546-.133.473-.293.2-.661a7.65,7.65,0,0,1-1.306-2.762A2.886,2.886,0,0,1,6.475,159.4a9.788,9.788,0,0,1,3.247,1.216,11.852,11.852,0,0,1,.724-2.641,5.043,5.043,0,0,1,1.174-1.714,2.569,2.569,0,0,1,3.332-.248,4.923,4.923,0,0,1,1.8,2.294c1.606,3.9,1.6,7.707-.765,11.345-.112.172-.262.3-.054.52.575.609,1.131,1.235,1.74,1.906a6.926,6.926,0,0,1,3.368-4.746,6.02,6.02,0,0,1,3.113-.831c.913.008,1.209.211,1.487,1.063a6.7,6.7,0,0,1-4.427,8.417c-.548.161-.553.273-.289.732a26.179,26.179,0,0,1,3.229,10.756c.145,1.515.212,3.034.22,4.556a.921.921,0,0,1-.742,1,.851.851,0,0,1-1.014-.511,1.7,1.7,0,0,1-.092-.661c-.038-1.438-.07-2.876-.241-4.358a10.333,10.333,0,0,1-3.2,1.055,10.745,10.745,0,0,1-2.461.033c-.669-.062-.907-.389-.956-1.192a1.181,1.181,0,0,1,1.325-.639,7.433,7.433,0,0,0,4.5-.962.524.524,0,0,0,.3-.726c-1.4-4.459-7.462-6.69-11.379-4.184a.455.455,0,0,0-.238.638,7.576,7.576,0,0,0,2.837,3.775c.658.478.727.735.436,1.457a.991.991,0,0,1-1.476.082,9.324,9.324,0,0,1-3.73-5.334,1.385,1.385,0,0,1,.717-1.872,9.437,9.437,0,0,1,8.929-.942,12.565,12.565,0,0,1,2.372,1.281c.041.06.1.151.164.083a.17.17,0,0,0-.045-.248M6.806,172.32a8.743,8.743,0,0,0,8.4-5.019,9.833,9.833,0,0,0,.491-6.389,6.65,6.65,0,0,0-1.393-3.044c-.609-.685-1.184-.646-1.727.088a4.568,4.568,0,0,0-.627,1.263,9.983,9.983,0,0,0-.476,2.907,1,1,0,0,1-.506.978,1.042,1.042,0,0,1-1.141-.192,16.082,16.082,0,0,0-1.509-.949,5.277,5.277,0,0,0-2.574-.747c-.761.01-1.086.379-1.01,1.135a4.648,4.648,0,0,0,.593,1.735,12.263,12.263,0,0,0,1.695,2.262.9.9,0,0,1-.505,1.551c-.179.044-.363.068-.545.1a8.291,8.291,0,0,0-3.158,1.149c-1.322.869-1.272,1.723.146,2.419a8.322,8.322,0,0,0,3.849.753m12.632.828c.028.285.052.571.084.856.037.323.181.429.534.372a4.926,4.926,0,0,0,4.008-5.488c-.073-.488-.267-.557-.684-.474a4.953,4.953,0,0,0-3.942,4.735" transform="translate(0 -129.872)" fill="#030404"/>
        <path id="Trazado_166255" data-name="Trazado 166255" d="M220.218,172.878c-.5.642-.778.714-1.53.382a9.972,9.972,0,0,1-2.6-1.633c-.188-.166-.317-.271-.545-.023A30.126,30.126,0,0,0,210,179.549a3.645,3.645,0,0,0-.118.356c.3.128.44-.113.606-.217a9.514,9.514,0,0,1,11.094.125,1.284,1.284,0,0,1,.527,1.507,9.752,9.752,0,0,1-9.869,7.325,9.61,9.61,0,0,1-4.218-1.145,39.06,39.06,0,0,0-.242,4.449.991.991,0,0,1-.6,1.043.925.925,0,0,1-1.255-.98,44.235,44.235,0,0,1,.392-6.026,25.457,25.457,0,0,1,3.359-9.8l-.568-.167a6.726,6.726,0,0,1-4.457-8.413c.294-.877.573-1.084,1.473-1.088a6.672,6.672,0,0,1,6.427,5.289c.017.07.026.143.054.3.632-.7,1.2-1.334,1.787-1.962.192-.206.022-.32-.075-.468-2.322-3.548-2.359-7.283-.882-11.127a5.53,5.53,0,0,1,1.651-2.342,2.621,2.621,0,0,1,3.718.191,6.8,6.8,0,0,1,1.647,3.581c.034.16.057.323.091.484a.566.566,0,0,0,.08.131,9.686,9.686,0,0,1,3.137-1.171,4.054,4.054,0,0,1,1.772.091,2.814,2.814,0,0,1,1.793,3.574,7.574,7.574,0,0,1-1.322,2.823c-.272.372-.328.518.207.661a7.082,7.082,0,0,1,2.733,1.366,2.892,2.892,0,0,1,1.25,3.168,3.107,3.107,0,0,1-1.4,1.742,9.5,9.5,0,0,1-5.42,1.328c-.537,0-.783-.382-.868-.877.162-.717.41-.948,1.127-.955a10.1,10.1,0,0,0,2.318-.281,4.71,4.71,0,0,0,2.1-.967.853.853,0,0,0,.083-1.388,3.972,3.972,0,0,0-1.3-.922,11.614,11.614,0,0,0-3-.878.91.91,0,0,1-.531-1.607,13.618,13.618,0,0,0,1.275-1.58,5.42,5.42,0,0,0,.977-2.365c.082-.753-.247-1.121-1.009-1.132a3.6,3.6,0,0,0-.672.063,8.123,8.123,0,0,0-3.362,1.59,1.063,1.063,0,0,1-1.188.229c-.429-.216-.488-.606-.507-1.04a8.588,8.588,0,0,0-.684-3.355c-.268-.569-.505-1.262-1.248-1.3s-1.067.609-1.392,1.151a9.729,9.729,0,0,0-1.155,3.921,8.671,8.671,0,0,0,5.071,9.072c.616.276.926.644.8,1.323m-7.665,13.917a8.013,8.013,0,0,0,7.5-5.032c.2-.525.068-.757-.392-1a7.438,7.438,0,0,0-5.009-.782,7.787,7.787,0,0,0-6.107,4.971c-.186.465-.072.687.348.91a7.508,7.508,0,0,0,3.657.93m-1.715-13.585a4.935,4.935,0,0,0-3.929-4.794c-.431-.083-.608.014-.68.487a4.86,4.86,0,0,0,3.248,5.264c1.245.392,1.3.531,1.361-.957m-.9,6.983a.916.916,0,0,0,.046-.188c0-.024-.05-.073-.066-.069a.725.725,0,0,0-.146.073l.166.184" transform="translate(-170.636 -129.878)" fill="#030404"/>
        <path id="Trazado_166256" data-name="Trazado 166256" d="M270.574,182.405c.127-.679-.182-1.047-.8-1.323a8.671,8.671,0,0,1-5.071-9.072,9.731,9.731,0,0,1,1.155-3.921c.325-.542.652-1.192,1.392-1.151s.98.734,1.248,1.3a8.591,8.591,0,0,1,.684,3.355c.018.434.077.823.507,1.04a1.063,1.063,0,0,0,1.188-.229,8.125,8.125,0,0,1,3.362-1.59,3.614,3.614,0,0,1,.672-.063c.762.011,1.091.378,1.009,1.132a5.422,5.422,0,0,1-.977,2.365,13.672,13.672,0,0,1-1.275,1.58.91.91,0,0,0,.531,1.607,11.617,11.617,0,0,1,3,.877,3.973,3.973,0,0,1,1.3.922.853.853,0,0,1-.083,1.388,4.71,4.71,0,0,1-2.1.967,10.1,10.1,0,0,1-2.318.281c-.717.007-.965.237-1.128.955l-2.292-.423" transform="translate(-220.992 -139.405)" fill="#04d9b5"/>
        <path id="Trazado_166257" data-name="Trazado 166257" d="M64.726,309.886c.291-.723.222-.98-.436-1.457a7.575,7.575,0,0,1-2.837-3.775.455.455,0,0,1,.238-.638c3.917-2.505,9.975-.275,11.379,4.184a.524.524,0,0,1-.3.727,7.433,7.433,0,0,1-4.5.962,1.181,1.181,0,0,0-1.325.639,4.107,4.107,0,0,1-1.64-.465,1.44,1.44,0,0,0-.581-.176" transform="translate(-51.278 -253.003)" fill="#007a64"/>
        <path id="Trazado_166258" data-name="Trazado 166258" d="M121.813,16.294a6.838,6.838,0,0,1-.848,2.581c-.182.368-.387.724-.557,1.1a1.619,1.619,0,0,0,1.073,2.508c.638.223,1.292.4,1.923.645a5.034,5.034,0,0,1,1.781,1.075c.557.548.562.923,0,1.458a6.943,6.943,0,0,1-2.643,1.4c-.465.158-.946.283-1.391.486a1.48,1.48,0,0,0-.839,2.082c.27.662.639,1.284.937,1.937a5.42,5.42,0,0,1,.566,2.127c.02.9-.285,1.2-1.189,1.118a7.454,7.454,0,0,1-2.728-.9c-.329-.169-.649-.355-.986-.5a1.649,1.649,0,0,0-2.512,1.1c-.136.387-.242.784-.371,1.173a6.688,6.688,0,0,1-1.284,2.432c-.571.637-1.017.638-1.594,0a7.087,7.087,0,0,1-1.334-2.611,9.141,9.141,0,0,0-.574-1.556,1.312,1.312,0,0,0-1.636-.74,5.154,5.154,0,0,0-1.4.614,8.247,8.247,0,0,1-2.768.982c-1.064.148-1.507-.3-1.352-1.366a8.785,8.785,0,0,1,1.057-2.872c1.038-1.937.692-2.745-1.421-3.384A7.743,7.743,0,0,1,98.9,25.833c-.812-.676-.8-1.18.023-1.837a7.849,7.849,0,0,1,2.589-1.252,7.432,7.432,0,0,0,1.5-.556,1.3,1.3,0,0,0,.69-1.55,4.656,4.656,0,0,0-.579-1.351,8.534,8.534,0,0,1-1.033-2.815c-.169-1.12.172-1.488,1.306-1.4a7.026,7.026,0,0,1,2.553.846c.367.183.723.39,1.1.555a1.579,1.579,0,0,0,2.416-1.047c.221-.617.4-1.251.628-1.864a5.425,5.425,0,0,1,1.091-1.844c.571-.606.988-.605,1.548.012a7.553,7.553,0,0,1,1.409,2.779c.144.427.262.866.445,1.275a1.359,1.359,0,0,0,1.9.852,9.709,9.709,0,0,0,1.487-.734,6.462,6.462,0,0,1,2.8-.84c.82-.013,1.06.239,1.043,1.228M110.782,30.339a6.208,6.208,0,0,0,2.317-.077,1,1,0,0,0,1.532.478,6.393,6.393,0,1,0-5.435-.03,1.053,1.053,0,0,0,1.586-.37" transform="translate(-82.085 -9.411)" fill="#ff8628"/>
        <path id="Trazado_166259" data-name="Trazado 166259" d="M16.193,181.728a8.323,8.323,0,0,1-3.849-.753c-1.418-.7-1.468-1.55-.146-2.419a8.292,8.292,0,0,1,3.158-1.149c.182-.033.366-.057.545-.1a.9.9,0,0,0,.505-1.551,12.263,12.263,0,0,1-1.695-2.262,4.648,4.648,0,0,1-.594-1.735c-.077-.756.248-1.125,1.01-1.135a5.277,5.277,0,0,1,2.574.747,16.08,16.08,0,0,1,1.509.949,1.042,1.042,0,0,0,1.141.192,1,1,0,0,0,.506-.978,9.983,9.983,0,0,1,.476-2.907,4.573,4.573,0,0,1,.627-1.263c.542-.734,1.118-.773,1.727-.088a6.65,6.65,0,0,1,1.393,3.044,9.831,9.831,0,0,1-.491,6.389,8.742,8.742,0,0,1-8.4,5.019" transform="translate(-9.388 -139.28)" fill="#04d9b5"/>
        <path id="Trazado_166260" data-name="Trazado 166260" d="M117.857,238.284a4.953,4.953,0,0,1,3.942-4.735c.418-.083.612-.014.684.474a4.926,4.926,0,0,1-4.008,5.488c-.353.057-.5-.049-.534-.372-.032-.285-.057-.571-.084-.856" transform="translate(-98.42 -195.008)" fill="#007a64"/>
        <path id="Trazado_166261" data-name="Trazado 166261" d="M122.963,302.762a.17.17,0,0,1,.045.248c-.065.068-.123-.023-.164-.083l.119-.165" transform="translate(-102.584 -252.83)" fill="#fdfdfd"/>
        <path id="Trazado_166262" data-name="Trazado 166262" d="M233.453,309.909a7.5,7.5,0,0,1-3.657-.929c-.42-.223-.534-.445-.348-.91a7.787,7.787,0,0,1,6.107-4.971,7.438,7.438,0,0,1,5.009.782c.46.24.589.472.392,1a8.011,8.011,0,0,1-7.5,5.032" transform="translate(-191.535 -252.993)" fill="#007a64"/>
        <path id="Trazado_166263" data-name="Trazado 166263" d="M220.171,238.333c-.066,1.488-.116,1.348-1.361.957a4.86,4.86,0,0,1-3.248-5.264c.072-.473.249-.57.68-.487a4.935,4.935,0,0,1,3.929,4.794" transform="translate(-179.969 -195.001)" fill="#007a64"/>
        <path id="Trazado_166264" data-name="Trazado 166264" d="M237.448,303.785l-.166-.184a.729.729,0,0,1,.146-.073c.016,0,.067.045.066.069a.915.915,0,0,1-.047.188" transform="translate(-198.149 -253.47)" fill="#fdfdfd"/>
        <path id="Trazado_166265" data-name="Trazado 166265" d="M159.162,76.431a6.216,6.216,0,0,1-2.317.077c.133-.69-.221-1.04-.812-1.326a4.535,4.535,0,0,1,2.908-8.524,4.529,4.529,0,0,1,1,8.541c-.537.261-.886.588-.777,1.231" transform="translate(-128.149 -55.58)" fill="#fcf300"/>
        <path id="Trazado_166266" data-name="Trazado 166266" d="M149.848,67.075c-.109-.643.24-.97.777-1.231a4.539,4.539,0,1,0-3.906-.017c.591.286.945.636.812,1.326a1.053,1.053,0,0,1-1.586.37,6.39,6.39,0,1,1,5.435.03,1,1,0,0,1-1.532-.477" transform="translate(-118.834 -46.224)" fill="#030404"/>
      </g>
    </g>
  </g>
</svg>
