<svg id="Grupo_114848" data-name="Grupo 114848" xmlns="http://www.w3.org/2000/svg" xmlns:xlink="http://www.w3.org/1999/xlink" width="120" height="110.86" viewBox="0 0 120 110.86">
  <defs>
    <clipPath id="clip-path">
      <rect id="Rectángulo_37657" data-name="Rectángulo 37657" width="120" height="110.86" fill="none"/>
    </clipPath>
  </defs>
  <g id="Grupo_114847" data-name="Grupo 114847" clip-path="url(#clip-path)">
    <path id="Trazado_165601" data-name="Trazado 165601" d="M0,27.912a2.768,2.768,0,0,1,2.932-1.635c.673.089.843-.173.832-.829-.039-2.264-.025-4.529-.012-6.794A2.38,2.38,0,0,1,6.4,15.963c1.093-.013,2.187-.022,3.28.006.536.013.789-.1.929-.712a7.9,7.9,0,0,1,2.273-3.88c2.912-2.885,5.794-5.8,8.7-8.691C25.2-.9,30.02-.895,33.637,2.7c2.1,2.086,4.171,4.2,6.438,6.484.072-.787.118-1.337.174-1.885A8.02,8.02,0,0,1,48.09.04q6.677-.075,13.354,0a8.048,8.048,0,0,1,7.9,7.836c.062,2.419.04,4.842,0,7.262-.01.663.176.927.839.826a4.985,4.985,0,0,1,.585-.005c5-.155,5.3.212,5.167,5.22-.039,1.444.026,2.89-.021,4.333-.02.624.173.766.781.776,2.29.039,2.981.774,2.983,3.045,0,1.91,0,3.82,0,5.838a11.812,11.812,0,0,1,3.723-.249,9.2,9.2,0,0,1,5.219,2.4c2.423,2.149,4.6,2.128,7.042-.039A9.3,9.3,0,0,1,107.871,37a2.942,2.942,0,0,1,1.116,3.29c-.968,3.812-1.834,7.65-2.773,11.469a3.232,3.232,0,0,0,.245,2.327c3.86,7.989,7.833,15.928,11.485,24.012a22.928,22.928,0,0,1-18.478,32.274,61.551,61.551,0,0,1-18.54-.442,19.34,19.34,0,0,1-6.739-2.85,1.1,1.1,0,0,0-1.505.079,16.656,16.656,0,0,1-10.223,3.459q-22.726.037-45.452,0A17.3,17.3,0,0,1,.427,97.13c-.1-.422,0-.939-.427-1.261Zm31.681.691c-.4,1.779-1.1,2.353-2.917,2.354-7.693,0-15.386.016-23.079-.019-.831,0-1.03.214-1.018,1.028.049,3.357.021,6.716.021,10.074q0,25.479.005,50.958c.007,7.178,5.391,12.886,12.375,12.918,15.23.07,30.46.031,45.69.01a12.139,12.139,0,0,0,6.308-1.9c.544-.328.7-.566.188-1.113a20.419,20.419,0,0,1-3.928-6.053c-.284-.669-.5-.722-1.153-.36a7.466,7.466,0,0,1-11.2-6.617c-.026-2.577-.005-5.154-.005-7.731q0-18.1,0-36.2a7.386,7.386,0,0,1,3.094-6.366,7.487,7.487,0,0,1,11.894,6.028c.042,8.4.015,16.791.016,25.186v1.522c.251-.419.334-.536.4-.664q3.19-6.634,6.383-13.266A3.227,3.227,0,0,0,75,56.921c0-8.278-.017-16.557.018-24.835,0-.9-.2-1.156-1.134-1.151-7.654.042-15.308.026-22.962.022-1.815,0-2.51-.572-2.919-2.353.374-1.766,1.079-2.342,2.91-2.342,6.439,0,12.878-.017,19.316.019.809,0,1.083-.171,1.026-1.011a23.6,23.6,0,0,1,0-3.509c.078-.956-.274-1.122-1.153-1.12q-17.092.044-34.184.019c-8.819,0-17.639.011-26.458-.019-.8,0-1.088.157-1.031,1a27.366,27.366,0,0,1,0,3.626c-.056.844.224,1.013,1.028,1.008,6.438-.035,12.877-.022,19.316-.018,1.834,0,2.54.577,2.908,2.342M91.658,55.582c-3.123,0-6.245.019-9.367-.015a1.315,1.315,0,0,0-1.439.837Q75.41,67.844,69.9,79.252a18.482,18.482,0,0,0,16.564,26.69c3.4.021,6.791.015,10.187,0a18.447,18.447,0,0,0,16.811-26.428c-3.615-7.762-7.394-15.447-11.078-23.177a1.161,1.161,0,0,0-1.241-.773c-3.161.037-6.323.017-9.484.017M63.275,67.888q0-2.988,0-5.975c0-5.35.01-10.7-.006-16.05A2.757,2.757,0,0,0,60.3,42.852c-1.645.078-2.648,1.279-2.648,3.221q-.007,19.389,0,38.779c0,1.679,0,3.358,0,5.038a2.765,2.765,0,0,0,1.514,2.587c1.97,1.065,4.1-.374,4.1-2.8q.019-10.9,0-21.791M54.843,15.961c2.965,0,5.93-.028,8.895.019.78.013.974-.221.956-.974-.05-2.144-.012-4.291-.019-6.436-.009-2.471-1.367-3.848-3.821-3.854q-6.027-.015-12.055,0c-2.57,0-3.9,1.3-3.933,3.869-.028,2.145.029,4.292-.025,6.436-.02.79.241.969.991.959,3-.041,6.007-.017,9.011-.017M91.649,50.894c3.041,0,6.083-.01,9.124.009.563,0,.887-.054,1.038-.732.7-3.113,1.457-6.211,2.22-9.308.157-.636-.059-.927-.661-1.092a4.529,4.529,0,0,0-4.567.99,9.772,9.772,0,0,1-3.186,2.126,9.146,9.146,0,0,1-10.051-2.012A4.614,4.614,0,0,0,80.81,39.8c-.582.174-.881.38-.738,1.14.568,3.022,1.045,6.061,1.529,9.1.1.642.327.894,1.042.882,3-.05,6-.021,9.007-.021m-51.844-35A3.828,3.828,0,0,0,38.78,14.5q-4.222-4.224-8.449-8.444c-1.819-1.807-3.666-1.8-5.5.028q-4.237,4.209-8.447,8.445a3.062,3.062,0,0,0-.95,1.363Z" transform="translate(0 0)" fill="#010101"/>
    <path id="Trazado_165602" data-name="Trazado 165602" d="M58.234,91.335c.409,1.782,1.1,2.353,2.919,2.353,7.654,0,15.308.02,22.962-.022.933-.005,1.137.252,1.134,1.151-.035,8.278-.022,16.556-.019,24.835a3.22,3.22,0,0,1-.255,1.474q-3.206,6.625-6.383,13.265c-.061.128-.145.246-.4.664v-1.523c0-8.4.026-16.791-.016-25.186a7.487,7.487,0,0,0-11.894-6.028,7.386,7.386,0,0,0-3.094,6.365q.014,18.1,0,36.2c0,2.577-.021,5.155.005,7.731a7.466,7.466,0,0,0,11.2,6.617c.656-.362.869-.308,1.153.36a20.418,20.418,0,0,0,3.927,6.053c.515.548.356.785-.187,1.113a12.135,12.135,0,0,1-6.308,1.9c-15.23.021-30.46.06-45.69-.01-6.983-.032-12.368-5.74-12.375-12.918q-.025-25.479-.005-50.958c0-3.358.028-6.717-.021-10.074-.012-.815.187-1.033,1.018-1.029,7.693.035,15.386.023,23.079.019,1.816,0,2.515-.575,2.917-2.354h5.774c.371,1.594,1.19,2.379,2.446,2.346,1.217-.032,1.973-.795,2.327-2.346h5.774M42.576,130.6c0,7.415-.028,14.83.012,22.246A7.485,7.485,0,0,0,57.4,154.31a8.462,8.462,0,0,0,.178-1.858q0-21.894,0-43.788a7.355,7.355,0,0,0-3.487-6.619,7.49,7.49,0,0,0-11.5,6.308c-.036,7.415-.012,14.83-.011,22.245m-20.623.01c0,7.415-.032,14.83.013,22.245a7.484,7.484,0,0,0,14.966.056q.056-22.362-.005-44.724a7.048,7.048,0,0,0-3.969-6.449,7.469,7.469,0,0,0-10.995,6.627c-.046,7.415-.011,14.83-.01,22.245" transform="translate(-10.234 -62.732)" fill="#afafaf"/>
    <path id="Trazado_165603" data-name="Trazado 165603" d="M240.752,177.445c3.161,0,6.323.02,9.484-.017a1.161,1.161,0,0,1,1.241.773c3.684,7.73,7.463,15.415,11.078,23.177a18.446,18.446,0,0,1-16.81,26.428c-3.4.014-6.791.02-10.187,0a18.482,18.482,0,0,1-16.564-26.69q5.484-11.42,10.952-22.848a1.316,1.316,0,0,1,1.439-.837c3.122.033,6.245.014,9.367.014" transform="translate(-149.094 -121.864)" fill="#014136"/>
    <path id="Trazado_165604" data-name="Trazado 165604" d="M66.47,73.87H60.7c-.324-1.539-1.088-2.308-2.326-2.339-1.284-.033-2.105.753-2.446,2.339H50.15c-.368-1.765-1.074-2.341-2.908-2.342-6.439,0-12.878-.017-19.316.018-.8,0-1.084-.165-1.028-1.008a27.313,27.313,0,0,0,0-3.626c-.057-.848.232-1.007,1.031-1,8.819.03,17.639.019,26.458.019q17.092,0,34.184-.019c.879,0,1.231.164,1.153,1.12a23.6,23.6,0,0,0,0,3.508c.057.84-.217,1.016-1.026,1.011-6.439-.036-12.877-.022-19.316-.018-1.831,0-2.536.576-2.91,2.342" transform="translate(-18.47 -45.267)" fill="#e8e8e8"/>
    <path id="Trazado_165605" data-name="Trazado 165605" d="M189.714,161.862q0,10.9-.005,21.791c0,2.424-2.13,3.863-4.1,2.8a2.765,2.765,0,0,1-1.514-2.587c-.007-1.679,0-3.359,0-5.038q0-19.389,0-38.779c0-1.943,1-3.144,2.648-3.221a2.757,2.757,0,0,1,2.967,3.011c.015,5.35.006,10.7.006,16.051q0,2.987,0,5.975" transform="translate(-126.439 -93.973)" fill="#636363"/>
    <path id="Trazado_165606" data-name="Trazado 165606" d="M153.185,26.287c-3,0-6.008-.024-9.012.017-.75.01-1.012-.169-.992-.959.054-2.144,0-4.291.025-6.436.034-2.57,1.363-3.864,3.933-3.869q6.028-.009,12.055,0c2.454.006,3.813,1.383,3.822,3.854.008,2.146-.031,4.292.019,6.436.018.753-.176.986-.956.974-2.964-.047-5.93-.019-8.894-.019" transform="translate(-98.341 -10.327)" fill="#04d9b5"/>
    <path id="Trazado_165607" data-name="Trazado 165607" d="M267.184,137.633c-3,0-6.005-.029-9.007.021-.715.012-.94-.24-1.042-.882-.484-3.037-.961-6.076-1.528-9.1-.143-.761.155-.966.738-1.14a4.615,4.615,0,0,1,4.757,1.082,9.146,9.146,0,0,0,10.051,2.012,9.772,9.772,0,0,0,3.186-2.126,4.529,4.529,0,0,1,4.567-.99c.6.165.818.455.661,1.092-.763,3.1-1.525,6.2-2.22,9.308-.152.678-.476.736-1.038.732-3.041-.02-6.083-.009-9.124-.009" transform="translate(-175.535 -86.739)" fill="#014136"/>
    <path id="Trazado_165608" data-name="Trazado 165608" d="M73.644,26.22H49.267a3.062,3.062,0,0,1,.95-1.363q4.219-4.227,8.447-8.445c1.839-1.827,3.686-1.835,5.5-.028q4.237,4.21,8.449,8.444a3.829,3.829,0,0,1,1.026,1.392" transform="translate(-33.838 -10.327)" fill="#ff8628"/>
    <path id="Trazado_165609" data-name="Trazado 165609" d="M103.254,151.389c0-7.415-.024-14.83.011-22.245a7.49,7.49,0,0,1,11.5-6.308,7.355,7.355,0,0,1,3.487,6.619q-.011,21.894,0,43.788a8.444,8.444,0,0,1-.178,1.858,7.485,7.485,0,0,1-14.808-1.466c-.04-7.415-.012-14.83-.012-22.245m10.31-.118v-9.021c0-4.3.013-8.592-.007-12.887a2.753,2.753,0,0,0-2.99-2.986c-1.638.086-2.625,1.289-2.625,3.241q-.006,20.561,0,41.123c0,.937-.027,1.876.012,2.812a2.852,2.852,0,0,0,2.288,2.746c1.794.361,3.316-1.048,3.319-3.118q.015-10.955,0-21.909" transform="translate(-70.912 -83.522)" fill="#010101"/>
    <path id="Trazado_165610" data-name="Trazado 165610" d="M37.391,151.439c0-7.415-.036-14.83.011-22.245A7.469,7.469,0,0,1,48.4,122.567a7.048,7.048,0,0,1,3.969,6.449q.064,22.362.005,44.724a7.484,7.484,0,0,1-14.966-.056c-.044-7.415-.013-14.83-.013-22.245m10.31-.129v-9.49c0-4.14.013-8.28-.007-12.419a2.755,2.755,0,0,0-2.991-2.985c-1.642.087-2.623,1.284-2.623,3.241q-.005,20.269,0,40.538c0,1.133-.028,2.266.012,3.4a2.843,2.843,0,0,0,2.286,2.746c1.795.359,3.317-1.049,3.32-3.119q.015-10.955,0-21.909" transform="translate(-25.672 -83.562)" fill="#010101"/>
    <path id="Trazado_165611" data-name="Trazado 165611" d="M119.6,86.2c.341-1.586,1.163-2.371,2.446-2.339,1.238.031,2,.8,2.326,2.339-.353,1.552-1.109,2.314-2.327,2.347-1.256.033-2.075-.753-2.446-2.346" transform="translate(-82.144 -57.601)" fill="#010101"/>
    <path id="Trazado_165612" data-name="Trazado 165612" d="M123.842,161.723q0,10.955,0,21.909c0,2.07-1.525,3.479-3.319,3.118A2.852,2.852,0,0,1,118.231,184c-.039-.936-.012-1.874-.012-2.812q0-20.561,0-41.123c0-1.952.987-3.155,2.625-3.241a2.753,2.753,0,0,1,2.99,2.986c.019,4.3.007,8.592.007,12.887q0,4.511,0,9.021" transform="translate(-81.19 -93.975)" fill="#636363"/>
    <path id="Trazado_165613" data-name="Trazado 165613" d="M57.988,161.722q0,10.955,0,21.909c0,2.069-1.525,3.478-3.32,3.119A2.843,2.843,0,0,1,52.378,184c-.041-1.131-.013-2.265-.013-3.4q0-20.269,0-40.538c0-1.958.982-3.155,2.623-3.241a2.755,2.755,0,0,1,2.991,2.985c.02,4.14.007,8.279.007,12.419q0,4.745,0,9.49" transform="translate(-35.96 -93.974)" fill="#636363"/>
  </g>
</svg>
