<svg id="Grupo_114888" data-name="Grupo 114888" xmlns="http://www.w3.org/2000/svg" xmlns:xlink="http://www.w3.org/1999/xlink" width="79.986" height="80" viewBox="0 0 79.986 80">
  <defs>
    <clipPath id="clip-path">
      <rect id="Rectángulo_37682" data-name="Rectángulo 37682" width="79.986" height="80" fill="none"/>
    </clipPath>
  </defs>
  <g id="Grupo_114888-2" data-name="Grupo 114888" clip-path="url(#clip-path)">
    <path id="Trazado_166294" data-name="Trazado 166294" d="M76.578,69.878a1.366,1.366,0,0,1,1.913.315,5.342,5.342,0,0,1,1.494,1.981v.937a6.219,6.219,0,0,1-1.228,1.58c-1.483,1.462-2.945,2.947-4.424,4.413a2.17,2.17,0,0,1-3.515,0Q63.248,71.54,55.684,63.97c-1.093-1.094-1.193-1.9-.352-3.17.18-.272.113-.39-.074-.575-1.2-1.192-2.412-2.376-3.584-3.6-.394-.41-.59-.062-.827.119a31.437,31.437,0,0,1-10.063,5.167,22.614,22.614,0,0,1-3.023.741c-.436.069-.586.245-.58.711.028,2.291.015,4.582.012,6.873,0,1-.395,1.515-1.153,1.522s-1.188-.531-1.19-1.5c0-2.187-.017-4.374.01-6.561.006-.484-.1-.611-.6-.566-1.644.149-1.646.129-1.646,1.761q0,5.311,0,10.623a3.746,3.746,0,0,1-.036.777,1.107,1.107,0,0,1-1.213.981,1.071,1.071,0,0,1-1.084-1.111c-.022-.65-.011-1.3-.012-1.952,0-3.437-.009-6.873.01-10.31,0-.479-.1-.664-.622-.708-1.673-.14-1.67-.168-1.67,1.524,0,1.875.005,3.749,0,5.624,0,.924-.43,1.428-1.174,1.421-.727-.007-1.164-.534-1.167-1.449-.008-2.291-.022-4.583.011-6.873.008-.564-.142-.786-.715-.914A31.032,31.032,0,0,1,5.209,48.976,30.327,30.327,0,0,1,.122,29.122,31.575,31.575,0,0,1,23.677,1.014,31.992,31.992,0,0,1,28.429.155c.161-.018.377.09.467-.155h5.312c1.184.2,2.372.383,3.55.613A31.134,31.134,0,0,1,52.526,7.89c.868.76.931,1.043.464,2.083a1.52,1.52,0,0,1-2.027-.307A29.209,29.209,0,0,0,18.054,5.7,29.272,29.272,0,1,0,60.8,29.267a28.675,28.675,0,0,0-5.936-15.422A1.54,1.54,0,0,1,54.7,11.8c1.118-.384,1.333-.32,2.048.613a30.785,30.785,0,0,1,6.034,13.766c.084.5.261.637.746.632,2.342-.022,4.685,0,7.027-.014a1.223,1.223,0,0,1,1.375.891,1.155,1.155,0,0,1-1.2,1.444c-1.039.042-2.082.015-3.123.015-1.3,0-2.6.012-3.9-.006-.4-.005-.528.1-.508.529.078,1.724.061,1.725,1.781,1.725q5.582,0,11.165,0c.666,0,1.186.2,1.361.9.208.835-.356,1.446-1.345,1.448-3.123.007-6.246,0-9.369,0-1.041,0-2.082.013-3.123-.007-.359-.007-.539.1-.528.471,0,.155-.016.312-.026.467-.081,1.311-.081,1.311,1.29,1.311q3.006,0,6.012,0a1.5,1.5,0,0,1,1.224.384,1.085,1.085,0,0,1,.244,1.222,1.146,1.146,0,0,1-1.166.74q-2.5,0-5,0c-.885,0-1.77.014-2.654-.007-.372-.009-.536.1-.629.488a31.174,31.174,0,0,1-5.83,12.2c-.231.3-.2.454.057.7q1.757,1.72,3.478,3.478c.253.258.406.333.753.072a2.025,2.025,0,0,1,2.88.244q5.4,5.367,10.774,10.756a1.292,1.292,0,0,1,.174,1.82c-.877.5-1.219.468-1.921-.228-1.107-1.1-2.215-2.2-3.3-3.314-.291-.3-.47-.361-.8-.027q-2.07,2.12-4.195,4.187c-.317.309-.314.484,0,.8q3.851,3.813,7.665,7.665c.3.307.472.333.787.009,1.322-1.361,2.651-2.717,4.026-4.024.469-.446.489-.684,0-1.127-.951-.869-.979-1.2-.414-2.133M64.066,59.134c-.113-.121-.2-.218-.289-.309-.366-.369-.759-.714-1.094-1.109s-.58-.438-.972-.023c-.962,1.021-1.986,1.981-2.966,2.985-.485.5-1.367.936-1.336,1.52.033.622.924,1.038,1.4,1.582.236.271.4.3.68.023,1.419-1.447,2.857-2.874,4.287-4.311.1-.105.189-.231.292-.358m-1.54,8.232c.143-.13.3-.262.444-.406Q64.6,65.334,66.215,63.7c1.278-1.281,1.267-1.269-.03-2.512-.318-.305-.5-.318-.811,0-1.142,1.171-2.312,2.314-3.47,3.469-1.122,1.12-1.124,1.124,0,2.228.177.174.309.42.624.476m-3.574-9.958c-.273-.331-.377-.477-.5-.6q-1.21-1.22-2.426-2.432c-1.235-1.236-1.218-1.219-2.462.023-.368.367-.285.557.036.868,1.01.977,2.031,1.946,2.972,2.988.528.585.858.539,1.332-.024a6.237,6.237,0,0,1,1.05-.82" transform="translate(0)" fill="#040404"/>
    <path id="Trazado_166295" data-name="Trazado 166295" d="M63.534,20.677a1.54,1.54,0,0,0,.16,2.047A28.677,28.677,0,0,1,69.63,38.146,29.28,29.28,0,1,1,26.884,14.575a29.209,29.209,0,0,1,32.91,3.971,1.52,1.52,0,0,0,2.027.307,7.837,7.837,0,0,1,1.713,1.825M23.843,60.294a1.367,1.367,0,0,0,.516,1.834,26.931,26.931,0,0,0,19.361,5.127A26.473,26.473,0,0,0,59.26,59.8,26.914,26.914,0,0,0,37.945,13.7a25.881,25.881,0,0,0-15.876,7.218,26.611,26.611,0,0,0-8.4,22.486,25.509,25.509,0,0,0,6.457,14.831c.672.769,1.115.792,1.936.181.394.817,1.271,1.178,1.784,1.882" transform="translate(-8.83 -8.879)" fill="#ff8628"/>
    <path id="Trazado_166296" data-name="Trazado 166296" d="M320.136,313.461c-.565.933-.538,1.264.414,2.134.486.443.465.682,0,1.127-1.375,1.307-2.7,2.663-4.026,4.024-.315.324-.482.3-.787-.009q-3.814-3.85-7.665-7.665c-.315-.312-.318-.488,0-.8q2.121-2.069,4.195-4.187c.327-.335.506-.273.8.027,1.087,1.118,2.2,2.216,3.3,3.314.7.7,1.043.73,1.921.228l1.853,1.8" transform="translate(-243.558 -243.583)" fill="#ff8628"/>
    <path id="Trazado_166297" data-name="Trazado 166297" d="M281.607,276.627a4.605,4.605,0,0,1-.292.358c-1.429,1.437-2.868,2.864-4.286,4.311-.275.28-.444.248-.68-.023-.474-.545-1.365-.96-1.4-1.582-.031-.584.851-1.023,1.336-1.52.98-1,2-1.965,2.966-2.985.391-.415.63-.38.971.023s.728.741,1.094,1.109c.091.091.176.188.289.309" transform="translate(-217.54 -217.493)" fill="#ff8628"/>
    <path id="Trazado_166298" data-name="Trazado 166298" d="M293.905,298.36c-.315-.056-.447-.3-.624-.476-1.124-1.1-1.122-1.107,0-2.228,1.158-1.155,2.328-2.3,3.47-3.469.311-.319.493-.305.811,0,1.3,1.243,1.308,1.23.03,2.512q-1.623,1.627-3.245,3.255c-.144.144-.3.276-.444.406" transform="translate(-231.378 -230.994)" fill="#fcf300"/>
    <path id="Trazado_166299" data-name="Trazado 166299" d="M261,259.969a6.241,6.241,0,0,0-1.05.82c-.474.563-.8.609-1.332.024-.941-1.041-1.962-2.011-2.972-2.988-.321-.311-.4-.5-.036-.868,1.244-1.242,1.227-1.259,2.462-.023q1.214,1.215,2.426,2.432c.125.126.228.273.5.6" transform="translate(-202.051 -202.561)" fill="#fcf300"/>
    <path id="Trazado_166300" data-name="Trazado 166300" d="M41.647,78.093c-.513-.7-1.39-1.065-1.784-1.883.491-.725.194-1.29-.306-1.882A23.593,23.593,0,0,1,33.944,54.96,24.42,24.42,0,0,1,63.679,34.371c9.575,2.239,15.895,8.328,18.34,17.836,2.483,9.654-.25,18.077-7.71,24.682a24.347,24.347,0,0,1-30.445,1.358c-1.074-.766-1.273-.78-2.216-.155m16.967-18.05q8.042,0,16.083,0a5.623,5.623,0,0,0,.933-.048,1.147,1.147,0,0,0-.048-2.275,5.308,5.308,0,0,0-1.091-.015c-.491.047-.617-.147-.611-.62.025-1.8.011-3.591.01-5.387,0-1.874-.554-2.435-2.4-2.436-2.056,0-4.112-.027-6.167.015-.645.013-.831-.155-.823-.813.037-2.992.025-5.985.012-8.977-.007-1.448-.664-2.091-2.11-2.1q-3.787-.013-7.573,0A1.8,1.8,0,0,0,52.8,39.406c-.02,1.093-.03,2.187.007,3.278.018.522-.162.656-.664.65-2.056-.025-4.112-.01-6.168-.01s-2.554.5-2.554,2.594c0,3.617-.023,7.235.018,10.851.008.742-.157.988-.93.946-1.283-.069-1.828.332-1.819,1.156s.554,1.172,1.842,1.172H58.615m4.077,7.245c.575,1.457,1.1,2.722,1.571,4a1.377,1.377,0,0,0,1.464,1.016c1.926-.024,3.852,0,5.778-.01.911,0,1.436-.441,1.434-1.172s-.535-1.166-1.441-1.17c-1.51-.006-3.02-.034-4.529.015a.873.873,0,0,1-.988-.7c-.68-1.823-1.423-3.622-2.113-5.44-.225-.593-.568-1.024-1.223-1.016s-.978.464-1.193,1.054q-1.465,4.021-2.976,8.026c-.091.241-.08.563-.4.714-.748-2.119-1.494-4.221-2.23-6.326-.193-.553-.48-.982-1.127-1.024a1.249,1.249,0,0,0-1.22.8c-.625,1.138-1.278,2.261-1.888,3.406a.816.816,0,0,1-.847.5c-1.561-.028-3.123-.016-4.685-.009-.9,0-1.445.467-1.434,1.186.01.694.539,1.15,1.385,1.154,1.926.009,3.852-.008,5.778.008a1.378,1.378,0,0,0,1.328-.775c.4-.727.806-1.448,1.252-2.248.14.368.256.654.359.945.735,2.079,1.458,4.162,2.2,6.237a1.183,1.183,0,0,0,1.836.74,1.723,1.723,0,0,0,.562-.911c1.09-2.943,2.184-5.884,3.345-9.006" transform="translate(-26.634 -26.678)" fill="#f1f1f1"/>
    <path id="Trazado_166301" data-name="Trazado 166301" d="M32.863,69.188c.943-.626,1.142-.612,2.216.155a24.347,24.347,0,0,0,30.445-1.358c7.46-6.606,10.193-15.028,7.71-24.682-2.445-9.508-8.765-15.6-18.34-17.836A24.42,24.42,0,0,0,25.159,46.055a23.594,23.594,0,0,0,5.614,19.368c.5.592.8,1.157.306,1.882-.821.612-1.264.588-1.936-.181a25.509,25.509,0,0,1-6.457-14.831,26.611,26.611,0,0,1,8.4-22.486,25.881,25.881,0,0,1,15.876-7.218A26.914,26.914,0,0,1,68.28,68.694a26.473,26.473,0,0,1-15.54,7.454,26.931,26.931,0,0,1-19.361-5.127,1.367,1.367,0,0,1-.516-1.834" transform="translate(-17.849 -17.772)" fill="#040404"/>
    <path id="Trazado_166302" data-name="Trazado 166302" d="M85.24,73.929H69.156c-1.288,0-1.833-.349-1.842-1.172s.536-1.225,1.819-1.155c.774.042.939-.2.93-.946-.041-3.617-.019-7.234-.018-10.851,0-2.092.495-2.594,2.554-2.594s4.112-.015,6.168.01c.5.006.681-.128.664-.65-.037-1.092-.027-2.186-.007-3.279a1.8,1.8,0,0,1,2.032-2.015q3.787-.019,7.573,0c1.446,0,2.1.647,2.11,2.1.014,2.992.025,5.985-.012,8.977-.008.658.178.826.823.813,2.055-.042,4.112-.016,6.168-.015,1.845,0,2.4.563,2.4,2.436,0,1.8.015,3.591-.01,5.387-.006.473.12.667.611.62a5.323,5.323,0,0,1,1.091.015,1.147,1.147,0,0,1,.048,2.275,5.623,5.623,0,0,1-.933.048q-8.042,0-16.083,0M81.776,62.59c0,2.759.01,5.519-.009,8.278,0,.508.09.745.674.733,1.926-.037,3.853-.029,5.779-.013.443,0,.582-.139.581-.581q-.018-8.395,0-16.79c0-.494-.168-.614-.632-.608-1.926.024-3.853.035-5.779.006-.561-.009-.626.234-.624.7.015,2.759.007,5.519.007,8.278m-9.392,3.048c0,1.77.01,3.54-.007,5.31,0,.44.072.659.59.651,1.952-.03,3.9-.027,5.857-.013.433,0,.589-.124.587-.574q-.022-5.427,0-10.855c0-.506-.191-.6-.641-.6-1.926.016-3.853.015-5.779-.014-.486-.007-.625.147-.619.624.024,1.822.01,3.644.009,5.466m22.227,5.986c0-.016,0-.033,0-.049.986,0,1.973-.013,2.959.006.423.008.605-.124.6-.575-.018-1.661-.016-3.323,0-4.985,0-.413-.166-.535-.557-.534-1.973.007-3.946.006-5.92-.016-.457-.005-.573.186-.569.6.015,1.662.017,3.323,0,4.985-.005.46.191.577.609.569.96-.018,1.921-.006,2.881-.006" transform="translate(-53.259 -40.564)" fill="#040404"/>
    <path id="Trazado_166303" data-name="Trazado 166303" d="M104.3,177.536c-1.16,3.123-2.255,6.064-3.345,9.006a1.723,1.723,0,0,1-.562.911,1.183,1.183,0,0,1-1.836-.74c-.745-2.075-1.468-4.158-2.2-6.237-.1-.291-.219-.578-.359-.945-.446.8-.854,1.521-1.252,2.248a1.379,1.379,0,0,1-1.328.775c-1.926-.016-3.852,0-5.778-.008-.845,0-1.374-.459-1.385-1.154-.01-.719.538-1.182,1.434-1.186,1.562-.007,3.124-.019,4.685.009a.816.816,0,0,0,.847-.5c.61-1.146,1.262-2.269,1.888-3.406a1.248,1.248,0,0,1,1.22-.8c.647.042.934.471,1.127,1.024.736,2.106,1.482,4.207,2.23,6.326.323-.151.312-.473.4-.714q1.506-4.006,2.976-8.026c.215-.59.533-1.046,1.193-1.054s1,.422,1.223,1.016c.69,1.819,1.433,3.618,2.113,5.44a.873.873,0,0,0,.988.7c1.508-.049,3.019-.021,4.529-.015.906,0,1.44.445,1.441,1.17s-.523,1.169-1.434,1.172c-1.926.006-3.853-.014-5.778.01a1.377,1.377,0,0,1-1.464-1.016c-.474-1.282-1-2.547-1.571-4" transform="translate(-68.247 -136.925)" fill="#040404"/>
    <path id="Trazado_166304" data-name="Trazado 166304" d="M136.546,71.457c0-2.759.008-5.519-.007-8.278,0-.463.063-.706.624-.7,1.926.03,3.853.018,5.779-.006.464-.006.633.114.632.608q-.023,8.395,0,16.79c0,.442-.138.585-.581.581-1.926-.016-3.853-.023-5.779.013-.584.011-.678-.226-.674-.734.019-2.759.009-5.519.009-8.278" transform="translate(-108.028 -49.431)" fill="#ff8628"/>
    <path id="Trazado_166305" data-name="Trazado 166305" d="M91.566,97.009c0-1.822.014-3.645-.01-5.466-.006-.476.133-.631.619-.624,1.926.029,3.853.029,5.779.013.449,0,.643.09.64.6q-.029,5.427,0,10.855c0,.45-.154.578-.588.574-1.952-.015-3.9-.018-5.857.013-.518.008-.594-.212-.59-.651.018-1.77.008-3.54.008-5.31" transform="translate(-72.439 -71.935)" fill="#007a64"/>
    <path id="Trazado_166306" data-name="Trazado 166306" d="M184.827,125.443c-.96,0-1.921-.013-2.881.006-.417.008-.614-.109-.609-.569.019-1.661.016-3.323,0-4.985,0-.417.112-.609.569-.6,1.973.022,3.946.024,5.92.016.391,0,.56.12.557.534-.014,1.661-.017,3.323,0,4.985,0,.451-.177.583-.6.575-.986-.019-1.972-.006-2.959-.006,0,.016,0,.032,0,.049" transform="translate(-143.474 -94.384)" fill="#fcf300"/>
  </g>
</svg>
