<svg xmlns="http://www.w3.org/2000/svg" xmlns:xlink="http://www.w3.org/1999/xlink" width="92.329" height="120" viewBox="0 0 92.329 120">
  <defs>
    <clipPath id="clip-path">
      <rect id="Rectángulo_37654" data-name="Rectángulo 37654" width="92.329" height="120" fill="none"/>
    </clipPath>
  </defs>
  <g id="Grupo_114842" data-name="Grupo 114842" transform="translate(0 0.001)">
    <g id="Grupo_114841" data-name="Grupo 114841" transform="translate(0 -0.001)" clip-path="url(#clip-path)">
      <path id="Trazado_165574" data-name="Trazado 165574" d="M47.119,0A10.278,10.278,0,0,1,49.1,2.066c11.479,14.857,23.1,29.608,34.4,44.6,6.806,9.024,9.544,19.439,8.671,30.722A45.037,45.037,0,0,1,78.9,106.314a44.748,44.748,0,0,1-26.614,13.252A44.893,44.893,0,0,1,16.9,109.435,44.833,44.833,0,0,1,1.2,84.04,45.8,45.8,0,0,1,4.59,53.707C7.172,48.158,11.123,43.559,14.838,38.8Q29.392,20.149,43.981,1.527C44.43.952,45.009.537,45.478,0ZM45.725,115.374c2.49-.168,4.479-.222,6.454-.52a40.52,40.52,0,0,0,23.457-11.913A40.536,40.536,0,0,0,87.53,76.306a39.362,39.362,0,0,0-7.85-26.938C68.914,35.146,57.887,21.122,47,6.991c-.612-.794-.84-.646-1.367.032Q34.982,20.7,24.289,34.338c-4.106,5.262-8.566,10.3-12.2,15.87C2.512,64.9,1.872,80.225,10.9,95.33,18.771,108.5,30.979,114.8,45.725,115.374" transform="translate(0 0)" fill="#030303"/>
      <path id="Trazado_165575" data-name="Trazado 165575" d="M56.549,130.894c-14.746-.579-26.954-6.872-34.826-20.044C12.7,95.746,13.336,80.42,22.914,65.728c3.633-5.573,8.093-10.608,12.2-15.87Q45.777,36.194,56.456,22.544c.528-.678.756-.826,1.367-.032C68.711,36.642,79.738,50.667,90.5,64.889a39.36,39.36,0,0,1,7.85,26.938A41.544,41.544,0,0,1,63,130.374c-1.975.3-3.963.353-6.454.52m-4.1-41.029c.864-1.621.678-2.476-.747-3.641a35.174,35.174,0,0,0-7.16-4.6,32.8,32.8,0,0,0-22.216-2.347A2.789,2.789,0,0,0,20,81.445a32.518,32.518,0,0,0-.344,14.5c2.469,11.481,9.369,19.537,19.577,24.968,1.465.779,2.517.468,3.508-.915.41.1.828.185,1.229.317a30.377,30.377,0,0,0,6.215,1.384,2.85,2.85,0,0,0,1.931,1.557,32.676,32.676,0,0,0,15.52.16,34.821,34.821,0,0,0,18.7-11.491q11.487-13.219,7.7-30.373a2.692,2.692,0,0,0-2.128-2.221,32.939,32.939,0,0,0-12.77-.646,34.578,34.578,0,0,0-18.769,9.262c-1.805,1.683-3.3,3.626-4.948,5.441-.818-1.32-2.112-2.238-2.969-3.524m23.6-33.384c.056-.536-.446-1.147-.926-1.766q-6.277-8.1-12.559-16.193a5.36,5.36,0,0,0-.874-.937,2.268,2.268,0,0,0-3.6,1.086,2.474,2.474,0,0,0,.594,2.488Q65.2,49.589,71.741,58a3.175,3.175,0,0,0,.565.59,2.164,2.164,0,0,0,2.418.265,2.4,2.4,0,0,0,1.325-2.377m2.344,8.588a2.294,2.294,0,0,0,2.292-2.408,2.439,2.439,0,0,0-2.438-2.314,2.363,2.363,0,0,0,.146,4.722" transform="translate(-10.824 -15.52)" fill="#b2fff2" opacity="0.997"/>
      <path id="Trazado_165576" data-name="Trazado 165576" d="M100.367,228.943c1.648-1.815,3.143-3.758,4.948-5.441a34.579,34.579,0,0,1,18.769-9.261,32.945,32.945,0,0,1,12.77.646,2.692,2.692,0,0,1,2.128,2.221q3.8,17.129-7.7,30.372a34.82,34.82,0,0,1-18.7,11.491,32.676,32.676,0,0,1-15.52-.16,2.849,2.849,0,0,1-1.931-1.557A34.544,34.544,0,0,1,94.008,248a1.357,1.357,0,0,0-.379-1.151q-6.667-6.587-13.279-13.231a7.829,7.829,0,0,1-.987-1.15,2.227,2.227,0,0,1,.289-2.885,2.193,2.193,0,0,1,2.887-.267,7.969,7.969,0,0,1,1.154.985q5.064,5.044,10.118,10.1c.294.293.52.684.977.811.456-1.414.883-2.82,1.362-4.206a42.515,42.515,0,0,1,4.217-8.058m2.085,26.031a24.314,24.314,0,0,0,7.006-.175,29.714,29.714,0,0,0,18.321-10.41,28.513,28.513,0,0,0,7.043-24.315c-.115-.717-.383-.949-1.078-1.069a28.087,28.087,0,0,0-9.209-.089A31.28,31.28,0,0,0,99.2,243.5a22.388,22.388,0,0,0-.259,8.026c.431-.407.742-.685,1.036-.979Q110.7,239.827,121.435,229.1c1.558-1.557,2.822-1.771,3.951-.678s.918,2.445-.668,4.031q-10.726,10.73-21.449,21.465c-.292.292-.69.514-.818,1.056" transform="translate(-55.772 -151.074)" fill="#020302"/>
      <path id="Trazado_165577" data-name="Trazado 165577" d="M75.611,240.281a42.5,42.5,0,0,0-4.217,8.058c-.48,1.387-.906,2.792-1.362,4.206-.457-.127-.683-.518-.977-.811q-5.066-5.041-10.118-10.1a7.948,7.948,0,0,0-1.154-.986,2.193,2.193,0,0,0-2.887.267,2.227,2.227,0,0,0-.289,2.885,7.828,7.828,0,0,0,.987,1.15q6.626,6.629,13.279,13.231a1.357,1.357,0,0,1,.379,1.151,34.545,34.545,0,0,0,1.126,9.257,30.375,30.375,0,0,1-6.215-1.384c-.4-.133-.819-.213-1.229-.317.478-1.712.106-2.524-1.707-3.435a32.232,32.232,0,0,1-10.918-9.013,28.426,28.426,0,0,1-5.951-23.154c.088-.534.247-.809.832-.912a29.135,29.135,0,0,1,23.73,6.359c1.452,1.182,2.365,1.166,3.723.02.857,1.287,2.151,2.2,2.969,3.524" transform="translate(-31.016 -162.411)" fill="#009e83"/>
      <path id="Trazado_165578" data-name="Trazado 165578" d="M61.274,225.385c-1.358,1.147-2.27,1.162-3.723-.02a29.135,29.135,0,0,0-23.73-6.359c-.585.1-.744.378-.832.912a28.427,28.427,0,0,0,5.951,23.154,32.231,32.231,0,0,0,10.918,9.013c1.814.911,2.185,1.723,1.707,3.435-.991,1.382-2.043,1.694-3.508.914C37.849,251,30.949,242.947,28.48,231.466a32.514,32.514,0,0,1,.344-14.5,2.789,2.789,0,0,1,2.326-2.169,32.8,32.8,0,0,1,22.216,2.347,35.175,35.175,0,0,1,7.16,4.6c1.425,1.164,1.611,2.02.747,3.641" transform="translate(-19.649 -151.04)" fill="#020302"/>
      <path id="Trazado_165579" data-name="Trazado 165579" d="M178.567,92.788a2.4,2.4,0,0,1-1.325,2.377,2.164,2.164,0,0,1-2.418-.265,3.174,3.174,0,0,1-.565-.59q-6.535-8.417-13.058-16.842a2.473,2.473,0,0,1-.594-2.488,2.268,2.268,0,0,1,3.6-1.087,5.373,5.373,0,0,1,.874.937q6.286,8.092,12.559,16.193c.48.619.981,1.23.926,1.766" transform="translate(-113.343 -51.827)" fill="#030303"/>
      <path id="Trazado_165580" data-name="Trazado 165580" d="M224.324,157.351a2.363,2.363,0,0,1-.146-4.722,2.439,2.439,0,0,1,2.438,2.314,2.294,2.294,0,0,1-2.292,2.408" transform="translate(-156.756 -107.802)" fill="#030303"/>
      <path id="Trazado_165581" data-name="Trazado 165581" d="M149.874,266.251c.127-.543.526-.764.818-1.056q10.718-10.739,21.449-21.465,2.378-2.379.668-4.031c-1.129-1.093-2.393-.879-3.951.678Q158.125,251.1,147.4,261.827c-.294.294-.6.572-1.036.979a22.389,22.389,0,0,1,.259-8.026,31.28,31.28,0,0,1,25.338-24.587,28.087,28.087,0,0,1,9.209.089c.7.12.964.352,1.078,1.069a28.513,28.513,0,0,1-7.043,24.315,29.715,29.715,0,0,1-18.321,10.41,24.316,24.316,0,0,1-7.006.175" transform="translate(-103.195 -162.35)" fill="#007a64"/>
    </g>
  </g>
</svg>
