<svg xmlns="http://www.w3.org/2000/svg" xmlns:xlink="http://www.w3.org/1999/xlink" width="101" height="101" viewBox="0 0 101 101">
  <defs>
    <clipPath id="clip-path">
      <rect id="Rectángulo_37661" data-name="Rectángulo 37661" width="67.309" height="70" fill="none"/>
    </clipPath>
  </defs>
  <g id="Grupo_114908" data-name="Grupo 114908" transform="translate(-750 -2756)">
    <g id="Elipse_4067" data-name="Elipse 4067" transform="translate(750 2756)" fill="#fff" stroke="#009e83" stroke-width="2">
      <circle cx="50.5" cy="50.5" r="50.5" stroke="none"/>
      <circle cx="50.5" cy="50.5" r="49.5" fill="none"/>
    </g>
    <g id="Grupo_114855" data-name="Grupo 114855" transform="translate(766.346 2771.6)">
      <g id="Grupo_114854" data-name="Grupo 114854" clip-path="url(#clip-path)">
        <path id="Trazado_165657" data-name="Trazado 165657" d="M18.03,63.855c-.364.855-.685,1.008-1.574.855a7.965,7.965,0,0,1-6.068-4.774c-.51-1.065-1.017-2.134-1.454-3.229a12.489,12.489,0,0,0-3.686-5Q3.835,50.52,2.52,49.221a8.141,8.141,0,0,1-2.3-7.887q.443-2.172.9-4.342c.5-2.38-.123-4.657-.622-6.946a11.889,11.889,0,0,1-.283-5.34,9.738,9.738,0,0,1,3.273-4.845c.519-.478,1.039-.959,1.589-1.4a12.912,12.912,0,0,0,3.97-5.372c.446-1.116.969-2.2,1.5-3.284A7.97,7.97,0,0,1,17.029,5.2c1.489-.2,2.983-.366,4.478-.518a10.812,10.812,0,0,0,4.356-1.47A33.548,33.548,0,0,1,30.717.591C31.32.364,31.945.2,32.56,0h2.051c2.54.495,4.655,1.906,6.819,3.2a11.906,11.906,0,0,0,5.018,1.574c1.143.114,1.143.114,1.158,1.244a3.409,3.409,0,0,0-.107.6c0,.3-.123.382-.414.351a15.839,15.839,0,0,1-5.541-1.316C39.8,4.777,38.2,3.632,36.423,2.8a6.076,6.076,0,0,0-5.275-.108,29.278,29.278,0,0,0-3.4,1.871A14.285,14.285,0,0,1,21.729,6.8c-1.381.142-2.762.293-4.142.446a6.149,6.149,0,0,0-5.264,3.689c-.467,1.01-.951,2.014-1.367,3.045a14.8,14.8,0,0,1-4.34,5.945,25.107,25.107,0,0,0-3.079,2.9,5.565,5.565,0,0,0-1.379,4.289,28.334,28.334,0,0,0,.67,3.689,15.052,15.052,0,0,1,.455,6.018c-.26,1.431-.534,2.863-.88,4.275A6.614,6.614,0,0,0,4.6,48.3c.715.6,1.375,1.266,2.093,1.862a14.251,14.251,0,0,1,4.166,5.657,38.674,38.674,0,0,0,1.64,3.595,5.78,5.78,0,0,0,4.323,3.209,1.247,1.247,0,0,1,1.213,1.236" transform="translate(0)" fill="#030303"/>
        <path id="Trazado_165658" data-name="Trazado 165658" d="M27.551,73.443a1.247,1.247,0,0,0-1.213-1.236A5.78,5.78,0,0,1,22.016,69a38.624,38.624,0,0,1-1.64-3.595,14.251,14.251,0,0,0-4.166-5.657c-.718-.6-1.378-1.262-2.093-1.862a6.615,6.615,0,0,1-2.194-7.195c.346-1.412.62-2.844.88-4.275a15.051,15.051,0,0,0-.455-6.018,28.306,28.306,0,0,1-.67-3.689,5.565,5.565,0,0,1,1.379-4.288,25.123,25.123,0,0,1,3.079-2.9,14.794,14.794,0,0,0,4.34-5.945c.416-1.031.9-2.035,1.367-3.045a6.149,6.149,0,0,1,5.264-3.689c1.38-.153,2.76-.3,4.142-.446a14.289,14.289,0,0,0,6.018-2.236,29.279,29.279,0,0,1,3.4-1.871,6.075,6.075,0,0,1,5.275.108c1.775.829,3.372,1.974,5.122,2.85a15.839,15.839,0,0,0,5.541,1.316c.291.031.413-.047.414-.351a3.415,3.415,0,0,1,.107-.6,20.817,20.817,0,0,1,3.1.272c-.138.4-.287.8-.411,1.213a1.048,1.048,0,1,0,1.97.716c.164-.37.3-.752.446-1.129A4.7,4.7,0,0,1,64.344,18.3c.1.122.171.265.329.326-.409.387-.828.766-1.225,1.165a1.069,1.069,0,0,0-.074,1.521,1.05,1.05,0,0,0,1.468.055c.3-.236.589-.49.883-.735q.5,1.117.991,2.233c.092.205.156.432.39.535a1.082,1.082,0,0,0-.407,1.41,1.07,1.07,0,0,0,1.366.528c.087.673.631,1.062.983,1.569.127.182.341.3.412.527-.371.828-.3,1.119.373,1.727,1.051.942,2.141,1.841,3.118,2.865a5.76,5.76,0,0,1,1.707,4.844,28.111,28.111,0,0,1-.516,2.885,16.57,16.57,0,0,0-.6,6.615c.264,1.453.543,2.906.89,4.342A6.622,6.622,0,0,1,72.216,57.9c-.681.57-1.308,1.2-1.993,1.768a14.721,14.721,0,0,0-4.371,6A24.461,24.461,0,0,1,64,69.541a5.543,5.543,0,0,1-3.479,2.554,20.811,20.811,0,0,1-3.78.528,15.306,15.306,0,0,0-7.534,2.334A27.548,27.548,0,0,1,45.947,76.8a6.06,6.06,0,0,1-5.272.112,31.24,31.24,0,0,1-3.693-2.045,14.291,14.291,0,0,0-6.4-2.14,1.26,1.26,0,0,0-1.49.862,4.453,4.453,0,0,1-1.537-.143m6.773-52.622c-.572-.651-.855-.712-1.665-.363A26.321,26.321,0,1,0,69.289,41.531a25.32,25.32,0,0,0-10.642-18.19,25.58,25.58,0,0,0-20.242-4.617c-1.135.2-1.327.391-1.4,1.386-.933.092-1.759.587-2.684.711" transform="translate(-9.521 -9.589)" fill="#96ffed"/>
        <path id="Trazado_165659" data-name="Trazado 165659" d="M107.073,142.223a1.26,1.26,0,0,1,1.49-.862,14.291,14.291,0,0,1,6.4,2.14,31.213,31.213,0,0,0,3.693,2.045,6.06,6.06,0,0,0,5.272-.112,27.566,27.566,0,0,0,3.264-1.841,15.305,15.305,0,0,1,7.534-2.334,20.812,20.812,0,0,0,3.78-.528,5.542,5.542,0,0,0,3.479-2.554,24.46,24.46,0,0,0,1.849-3.869,14.721,14.721,0,0,1,4.371-6c.685-.564,1.312-1.2,1.993-1.768a6.623,6.623,0,0,0,2.215-7.189c-.347-1.435-.626-2.888-.89-4.342a16.573,16.573,0,0,1,.6-6.615,28.116,28.116,0,0,0,.516-2.885,5.76,5.76,0,0,0-1.707-4.844c-.977-1.025-2.067-1.923-3.118-2.865-.678-.608-.745-.9-.373-1.727.775-.5,1.077-.483,1.751.119,1.036.926,2.093,1.827,3.083,2.806a8.154,8.154,0,0,1,2.323,7.882q-.439,2.173-.9,4.342c-.5,2.379.107,4.659.615,6.946a22.5,22.5,0,0,1,.456,2.758,7.765,7.765,0,0,1-2.256,6.282,32.408,32.408,0,0,1-2.909,2.69,12.632,12.632,0,0,0-3.737,5.045,38.919,38.919,0,0,1-1.735,3.774,7.994,7.994,0,0,1-6.33,4.321q-2.131.293-4.275.484a12.094,12.094,0,0,0-5.271,1.9c-.911.556-1.845,1.076-2.777,1.6a8.431,8.431,0,0,1-8.768-.057c-1.05-.591-2.1-1.179-3.126-1.812a11.812,11.812,0,0,0-5.205-1.688c-.941-.088-1.167-.312-1.313-1.244" transform="translate(-87.505 -78.226)" fill="#030303"/>
        <path id="Trazado_165660" data-name="Trazado 165660" d="M295.759,20.564c-.294.246-.581.5-.883.735a1.05,1.05,0,0,1-1.468-.055,1.069,1.069,0,0,1,.074-1.521c.4-.4.816-.777,1.225-1.165l6.942-6.253.151-.138c.694-.63,1.317-.687,1.779-.164.448.508.341,1.1-.321,1.705-1.177,1.073-2.362,2.136-3.538,3.21q-1.986,1.816-3.961,3.645" transform="translate(-239.556 -9.52)" fill="#030303"/>
        <path id="Trazado_165661" data-name="Trazado 165661" d="M313.66,64.783a1.07,1.07,0,0,1-1.366-.528,1.083,1.083,0,0,1,.407-1.41q3.085-1.351,6.171-2.7a1.1,1.1,0,0,1,1.539.388c.33.606.062,1.227-.714,1.573-1.886.841-3.779,1.667-5.669,2.5-.124.055-.245.118-.368.177" transform="translate(-255.117 -49.032)" fill="#030303"/>
        <path id="Trazado_165662" data-name="Trazado 165662" d="M277.365,11.5c-.148.377-.282.76-.446,1.129a1.048,1.048,0,1,1-1.97-.716c.125-.408.273-.809.411-1.213.55-1.486,1.093-2.974,1.655-4.456.284-.751.869-1.024,1.488-.73a1.065,1.065,0,0,1,.484,1.445c-.533,1.516-1.08,3.027-1.621,4.54" transform="translate(-224.655 -4.412)" fill="#030303"/>
        <path id="Trazado_165663" data-name="Trazado 165663" d="M104.213,58.28c.925-.124,1.751-.619,2.684-.711a1.255,1.255,0,0,0,1.556.739,23.908,23.908,0,0,1,16.011,2.406,23.125,23.125,0,0,1,5.511,4.063,11.532,11.532,0,0,0-2.843,1.846,5.526,5.526,0,0,0-1.932,4.939,11.018,11.018,0,0,0,1.3,3.924,22.261,22.261,0,0,1,1.5,2.98,3.021,3.021,0,0,1-.963,3.782c-.289.221-.541.489-.827.715-2.54,2-3.234,4.592-2.541,7.678a76.649,76.649,0,0,0,3.338,10.444.679.679,0,0,1-.326.98,23.936,23.936,0,0,1-21.067,3,17.979,17.979,0,0,1-3.643-1.541c.235-.2.41-.341.582-.488a18.524,18.524,0,0,0,5.377-7.289,6.944,6.944,0,0,0-.921-7.1c-.691-.937-1.49-1.781-2.247-2.662a7.925,7.925,0,0,1-1.369-2.029,3.153,3.153,0,0,1,1.093-3.991,18.725,18.725,0,0,1,1.68-1.041,30.521,30.521,0,0,0,2.618-1.6,6.393,6.393,0,0,0,.062-10.23,15.07,15.07,0,0,0-5.739-2.411,33.7,33.7,0,0,0-5.938-.722c.014-.086.006-.143.03-.165.2-.183.406-.366.619-.537a24.082,24.082,0,0,1,5.585-3.384c.856-.369,1.037-.758.812-1.6" transform="translate(-79.409 -47.048)" fill="#04d9b5"/>
        <path id="Trazado_165664" data-name="Trazado 165664" d="M57.589,50.086c.225.839.044,1.228-.812,1.6a24.082,24.082,0,0,0-5.585,3.384c-.213.171-.416.354-.619.537-.024.022-.016.079-.03.165a33.684,33.684,0,0,1,5.938.722A15.07,15.07,0,0,1,62.22,58.9a6.394,6.394,0,0,1-.062,10.23,30.547,30.547,0,0,1-2.618,1.6,18.726,18.726,0,0,0-1.68,1.041,3.153,3.153,0,0,0-1.093,3.991,7.925,7.925,0,0,0,1.369,2.029c.757.881,1.556,1.724,2.247,2.661a6.943,6.943,0,0,1,.921,7.1,18.524,18.524,0,0,1-5.377,7.289c-.173.146-.347.291-.582.488a17.98,17.98,0,0,0,3.643,1.541,23.936,23.936,0,0,0,21.067-3,.679.679,0,0,0,.326-.98,76.652,76.652,0,0,1-3.338-10.444c-.693-3.086,0-5.677,2.541-7.678.286-.225.538-.494.827-.714a3.021,3.021,0,0,0,.963-3.782,22.252,22.252,0,0,0-1.5-2.98,11.021,11.021,0,0,1-1.3-3.924,5.526,5.526,0,0,1,1.932-4.939,11.543,11.543,0,0,1,2.843-1.846,23.132,23.132,0,0,0-5.511-4.063,23.908,23.908,0,0,0-16.012-2.406,1.254,1.254,0,0,1-1.556-.739c.069-1,.262-1.188,1.4-1.386a25.58,25.58,0,0,1,20.242,4.617A25.321,25.321,0,0,1,92.554,70.8,26.309,26.309,0,1,1,55.924,49.722c.81-.349,1.093-.287,1.665.363m-2.5,8.338a39.656,39.656,0,0,0-5.63-.583,2.1,2.1,0,0,0-2.03.993,24.266,24.266,0,0,0,5.388,35.02c.245.171.442.359.774.107a15.317,15.317,0,0,0,3.155-3,13.238,13.238,0,0,0,2-2.907c1.554-2.955,1.32-4.82-.875-7.35-.686-.791-1.385-1.572-2.035-2.391a6.28,6.28,0,0,1-1.44-3.262,5.222,5.222,0,0,1,2.635-5.3c1.154-.724,2.387-1.328,3.511-2.093a4.257,4.257,0,0,0-.086-7.408,12.9,12.9,0,0,0-5.371-1.828M82.321,92.1c.171-.153.257-.225.339-.3,6.38-6.054,8.968-13.426,7.6-22.127a23.113,23.113,0,0,0-5.031-11.047c-.167-.207-.277-.442-.652-.266a10.163,10.163,0,0,0-2.811,1.779A3.471,3.471,0,0,0,80.7,63.368a9.378,9.378,0,0,0,1.113,3.059,19.175,19.175,0,0,1,1.636,3.367,4.963,4.963,0,0,1-1.51,5.739c-.623.532-1.239,1.075-1.82,1.652a4.143,4.143,0,0,0-1.173,3.763A62.707,62.707,0,0,0,82.321,92.1" transform="translate(-32.785 -38.853)" fill="#030303"/>
        <path id="Trazado_165665" data-name="Trazado 165665" d="M66.189,136.981a15.331,15.331,0,0,1-3.155,3c-.332.252-.529.064-.774-.107a24.266,24.266,0,0,1-5.388-35.02,2.1,2.1,0,0,1,2.03-.993,39.655,39.655,0,0,1,5.63.583,2.709,2.709,0,0,1-.585.986,23.446,23.446,0,0,0-3.726,8.053,22.994,22.994,0,0,0-.777,7.52,29.937,29.937,0,0,0,.368,3.508,25,25,0,0,0,3.488,8.886,14.914,14.914,0,0,0,2.889,3.587" transform="translate(-42.225 -84.872)" fill="#ff8628"/>
        <path id="Trazado_165666" data-name="Trazado 165666" d="M255.676,140.2a62.709,62.709,0,0,1-3.373-11.154,4.143,4.143,0,0,1,1.173-3.763c.581-.577,1.2-1.12,1.82-1.652a4.963,4.963,0,0,0,1.51-5.739,19.176,19.176,0,0,0-1.636-3.367,9.377,9.377,0,0,1-1.113-3.059,3.471,3.471,0,0,1,1.062-3.229,10.162,10.162,0,0,1,2.811-1.779c.375-.175.485.059.652.266a23.113,23.113,0,0,1,5.031,11.047c1.369,8.7-1.219,16.073-7.6,22.127-.082.077-.167.15-.339.3" transform="translate(-206.141 -86.955)" fill="#ff8628"/>
        <path id="Trazado_165667" data-name="Trazado 165667" d="M100.734,139.626a14.914,14.914,0,0,1-2.889-3.587,25,25,0,0,1-3.488-8.886,29.939,29.939,0,0,1-.368-3.508,23,23,0,0,1,.777-7.52,23.445,23.445,0,0,1,3.726-8.053,2.709,2.709,0,0,0,.585-.986,12.9,12.9,0,0,1,5.371,1.828,4.257,4.257,0,0,1,.086,7.408c-1.124.765-2.357,1.369-3.511,2.094a5.221,5.221,0,0,0-2.635,5.3,6.278,6.278,0,0,0,1.44,3.262c.65.82,1.349,1.6,2.035,2.391,2.2,2.53,2.43,4.395.876,7.35a13.256,13.256,0,0,1-2,2.907" transform="translate(-76.77 -87.517)" fill="#ff8628"/>
      </g>
    </g>
  </g>
</svg>
