<svg id="Grupo_114902" data-name="Grupo 114902" xmlns="http://www.w3.org/2000/svg" xmlns:xlink="http://www.w3.org/1999/xlink" width="79.982" height="80" viewBox="0 0 79.982 80">
  <defs>
    <clipPath id="clip-path">
      <rect id="Rectángulo_37691" data-name="Rectángulo 37691" width="79.982" height="80" fill="none"/>
    </clipPath>
  </defs>
  <g id="Grupo_114901" data-name="Grupo 114901" clip-path="url(#clip-path)">
    <path id="Trazado_166373" data-name="Trazado 166373" d="M0,233.772a3.332,3.332,0,0,1,2.424-1.84c.415-.041.226-.412.227-.628.013-3.2.007-6.4.009-9.606a4.053,4.053,0,0,1,4.4-4.432c.7,0,1.406-.012,2.108,0a3.978,3.978,0,0,1,4.145,4.2q.024,4.842-.008,9.684c0,.58.094.821.75.792,1.325-.058,2.655-.045,3.981,0,.537.017.632-.172.63-.659-.018-4.035-.012-8.07-.01-12.1,0-3,1.579-4.575,4.568-4.577.573,0,1.145,0,1.718,0a4.059,4.059,0,0,1,4.393,4.369c.006,4.061.02,8.122-.016,12.183-.006.669.18.817.815.792,1.3-.052,2.6-.042,3.9,0,.526.016.638-.155.636-.654-.019-4.529-.013-9.059-.01-13.589,0-2.81,1.589-4.4,4.389-4.406.755,0,1.51-.011,2.264,0a3.931,3.931,0,0,1,3.985,4.022q.026,6.912-.011,13.823c0,.654.157.832.808.8,1.3-.056,2.6-.041,3.9,0,.509.014.646-.128.643-.641-.022-4.061-.013-8.122-.011-12.183,0-2.882,1.619-4.52,4.48-4.511a16.99,16.99,0,0,1,2.883.081,3.88,3.88,0,0,1,3.251,3.411,24.837,24.837,0,0,1,.065,2.495c.006,3.566.013,7.133-.009,10.7,0,.5.121.664.64.649,1.3-.038,2.6-.047,3.9,0,.633.024.824-.133.822-.8-.025-7.627-.007-15.255-.024-22.882a4.133,4.133,0,0,1,1.385-3.337c1.629-1.414,6.149-1.444,7.812-.056a4.131,4.131,0,0,1,1.471,3.377c-.01,7.6,0,15.2-.015,22.8,0,.577.042.9.751,1.034a2.476,2.476,0,0,1,1.911,2.455c.027,1.379.032,2.76,0,4.139a2.643,2.643,0,0,1-2.6,2.591c-.26.01-.521,0-.781,0q-36.388,0-72.776.025c-1.669,0-3.012-.3-3.8-1.9Zm7.966-1.88c.649.007,1.3-.022,1.947.033.595.051.742-.167.736-.743-.028-2.885-.068-5.772,0-8.656.064-2.578-.476-2.686-2.845-2.492-1.567-.324-2.467.137-2.476,1.348-.026,3.347-.006,6.694-.016,10.041,0,.353.084.524.473.507.725-.031,1.451-.027,2.176-.037m47.95.005c.7.006,1.4-.006,2.106.023.431.018.593-.124.591-.573-.014-4.241-.008-8.482-.013-12.724a1.24,1.24,0,0,0-1.173-1.321,3.689,3.689,0,0,0-1.7.05c-1.572-.3-2.42.171-2.427,1.419-.023,4.205,0,8.411-.016,12.616,0,.4.113.562.528.542.7-.032,1.4-.024,2.1-.033m-32.2-14.557c-1.781-.284-2.379.205-2.379,1.95q0,2.265,0,4.53c0,2.473.016,4.947-.012,7.419-.006.546.147.739.7.695.672-.054,1.35-.04,2.025-.056.623.012,1.249-.014,1.867.048.639.063.775-.193.771-.791-.025-3.821-.013-7.641-.013-11.462,0-2.132-.373-2.493-2.5-2.411a3.368,3.368,0,0,0-.455.079m15.949-1.354c-2.017-.127-2.343.176-2.343,2.174,0,3.774-.009,7.549.007,11.323,0,.8-.36,1.908.154,2.309.576.449,1.644.144,2.5.1.7.009,1.4.005,2.1.031.377.014.562-.076.561-.51-.013-4.7,0-9.4-.017-14.1a1.272,1.272,0,0,0-1.327-1.334c-.544-.024-1.09.009-1.635.016m32.008-9.342c-.311-.012-.623-.046-.934-.033a1.312,1.312,0,0,0-1.416,1.415q-.014,11.674-.012,23.347c0,.372.057.584.5.559.726-.041,1.455-.034,2.182-.048.6.01,1.2-.02,1.791.041.677.071.872-.144.87-.847-.028-7.228-.051-14.456,0-21.683.019-2.659-.369-2.931-2.983-2.752M39.982,238.608q16.9,0,33.8,0c.988,0,1.977-.033,2.965-.018.4.006.549-.121.538-.533-.024-.962-.029-1.926,0-2.888.015-.462-.166-.57-.591-.564-1.066.015-2.133-.019-3.2-.019q-34.813,0-69.627,0a4.666,4.666,0,0,1-.546,0c-.491-.058-.7.1-.674.64a20.5,20.5,0,0,1,0,2.5c-.049.7.146.911.883.91q18.226-.038,36.452-.018" transform="translate(0 -161.295)" fill="#020203"/>
    <path id="Trazado_166374" data-name="Trazado 166374" d="M0,129.084c.857-1.771,2.4-2.957,3.736-4.307q5.881-5.936,11.81-11.824c2-2,4.223-2,6.216-.016q4.866,4.853,9.716,9.721c.4.408.6.425,1.009.007,2.761-2.8,5.552-5.565,8.335-8.34a4.092,4.092,0,0,1,6.308-.015c2.361,2.351,4.725,4.7,7.065,7.071.361.366.545.358.9,0q5.752-5.789,11.543-11.538c.336-.334.356-.467-.021-.811a3.667,3.667,0,0,1-1.085-4.179A3.614,3.614,0,0,1,68.95,102.2c2.834-.092,5.673-.072,8.509-.023a2.529,2.529,0,0,1,2.5,2.587c.026,2.681.048,5.363-.008,8.043a3.848,3.848,0,0,1-2.617,3.718,3.681,3.681,0,0,1-4.268-1.021c-.429-.467-.587-.239-.879.053q-7.145,7.157-14.3,14.3c-2.1,2.1-4.379,2.11-6.471.021-2.321-2.317-4.65-4.627-6.95-6.965-.386-.392-.575-.381-.956,0-2.782,2.813-5.59,5.6-8.393,8.394-2.02,2.012-4.25,2-6.279-.022-3.2-3.2-6.422-6.389-9.6-9.619-.5-.508-.716-.436-1.172.026-3.624,3.664-7.344,7.236-10.9,10.964a4.078,4.078,0,0,1-7.014-1.4c-.017-.059-.1-.1-.151-.15v-2.031m73.028-24.256c-1.171,0-2.343-.009-3.514,0-.919.009-1.48.461-1.544,1.209a1.409,1.409,0,0,0,1.365,1.428,1.46,1.46,0,0,1,1.437.98c.24.713-.155,1.179-.616,1.638Q63.023,117.2,55.9,124.319c-.962.96-1.548.959-2.506,0q-4.036-4.025-8.069-8.055c-1.073-1.071-1.612-1.073-2.682-.006q-4.7,4.688-9.394,9.379c-.975.972-1.584.966-2.567-.015q-5.36-5.352-10.717-10.707c-1.036-1.036-1.576-1.04-2.606-.011q-6.986,6.983-13.969,13.97a4.664,4.664,0,0,0-.428.454,1.2,1.2,0,0,0,.034,1.641,1.218,1.218,0,0,0,1.617.3,3.261,3.261,0,0,0,.713-.6q6.028-6.009,12.05-12.024c.984-.982,1.593-.984,2.571-.008Q25.306,124,30.663,129.359c1.059,1.058,1.591,1.056,2.669-.019q4.674-4.658,9.343-9.32c1.039-1.037,1.593-1.044,2.618-.021q3.98,3.971,7.956,7.947c1.159,1.158,1.632,1.16,2.782.01q8.061-8.062,16.116-16.13a1.452,1.452,0,0,1,1.606-.5,1.4,1.4,0,0,1,.9,1.416,1.271,1.271,0,0,0,1.286,1.369,1.364,1.364,0,0,0,1.356-1.419c.024-2.447,0-4.894.019-7.341,0-.409-.131-.541-.536-.535-1.249.02-2.5.007-3.748.007" transform="translate(0 -80.818)" fill="#020203"/>
    <path id="Trazado_166375" data-name="Trazado 166375" d="M130.335,0c1.618.678,2.235,1.643,1.883,2.984a2.33,2.33,0,0,1-.31.705,23.76,23.76,0,0,0-3.624,9.93,16.836,16.836,0,0,1-9.476,13.016,11.608,11.608,0,0,1-12.22-.664.646.646,0,0,0-.883.011,10.974,10.974,0,0,1-12.693-.08,15.155,15.155,0,0,1-6.736-11.084,16.272,16.272,0,0,0-2.743-7.129,2.28,2.28,0,0,1-.368-2.274,1.965,1.965,0,0,1,1.761-1.343c6.2-.246,12.178.593,17.711,3.609.478.26.931.567,1.387.865.209.136.347.227.57-.033,3.438-4,8.025-5.954,12.969-7.257a40.68,40.68,0,0,1,6.681-1.1c.16-.015.377.093.466-.155ZM105.214,20.481c.578-.673,1.042-1.233,1.527-1.773a56.215,56.215,0,0,1,10.783-8.813c.864-.58,1.625-.488,2.1.24.444.677.228,1.386-.617,1.977-1,.7-2.015,1.382-3.011,2.091a41.5,41.5,0,0,0-8.714,7.982c-.335.425-.408.663.068,1.047A8.652,8.652,0,0,0,116,24.852a13.687,13.687,0,0,0,9.436-10.779c.76-3.814,1.527-7.589,3.647-10.933.269-.424.035-.462-.322-.467a44.533,44.533,0,0,0-5.6.282,31.177,31.177,0,0,0-11.516,3.369,13.945,13.945,0,0,0-5.846,5.014,9.987,9.987,0,0,0-.586,9.145m-3.51-4.027a11.88,11.88,0,0,1,.622-3.855c.558-1.712.557-1.708-1.022-2.588A27.355,27.355,0,0,0,90.769,6.882a24.938,24.938,0,0,0-4.577-.138,1.726,1.726,0,0,0,.095.282,20.4,20.4,0,0,1,2.687,7.753,12.478,12.478,0,0,0,5.415,8.839,8.162,8.162,0,0,0,8.621.84c1.161-.53,1.143-.55.457-1.643a6.561,6.561,0,0,1-.71-1.3,3.709,3.709,0,0,0-1.2-1.6c-.748-.645-1.5-1.288-2.26-1.919a49.161,49.161,0,0,0-4.756-3.4c-.854-.552-1.08-1.262-.649-1.96.446-.722,1.229-.824,2.112-.269.242.152.476.318.714.475,1.666,1.1,3.269,2.287,4.985,3.608" transform="translate(-65.677)" fill="#020203"/>
    <path id="Trazado_166376" data-name="Trazado 166376" d="M49.99,355.085q-18.226,0-36.452.018c-.736,0-.931-.213-.883-.91a20.5,20.5,0,0,0,0-2.5c-.028-.538.183-.7.674-.64a4.663,4.663,0,0,0,.546,0q34.813,0,69.627,0c1.066,0,2.133.034,3.2.019.425-.006.606.1.591.564-.031.962-.026,1.926,0,2.888.01.412-.133.54-.538.533-.988-.015-1.977.018-2.965.018q-16.9,0-33.8,0" transform="translate(-10.008 -277.771)" fill="#014136"/>
    <path id="Trazado_166377" data-name="Trazado 166377" d="M343.377,217.091c2.614-.18,3,.092,2.983,2.751-.052,7.227-.029,14.456,0,21.683,0,.7-.192.918-.87.847-.592-.062-1.193-.031-1.791-.041q0-11.591,0-23.181a6.066,6.066,0,0,0-.327-2.059" transform="translate(-271.703 -171.743)" fill="#ff8628"/>
    <path id="Trazado_166378" data-name="Trazado 166378" d="M334.425,217.121a6.065,6.065,0,0,1,.328,2.059q-.017,11.591,0,23.181c-.727.013-1.456.006-2.182.047-.445.025-.5-.187-.5-.559q.012-11.674.012-23.347a1.312,1.312,0,0,1,1.416-1.415c.31-.013.622.021.934.033" transform="translate(-262.751 -171.773)" fill="#ff8628"/>
    <path id="Trazado_166379" data-name="Trazado 166379" d="M190.031,261.922c.545-.007,1.091-.039,1.635-.016a1.272,1.272,0,0,1,1.327,1.334c.016,4.7,0,9.4.017,14.1,0,.434-.184.524-.561.51-.7-.026-1.4-.022-2.1-.031,0-4.617-.008-9.234.008-13.851a5.387,5.387,0,0,0-.324-2.052" transform="translate(-150.366 -207.231)" fill="#ff8628"/>
    <path id="Trazado_166380" data-name="Trazado 166380" d="M180.714,261.919a5.388,5.388,0,0,1,.324,2.052c-.016,4.617-.008,9.234-.008,13.851-.854.049-1.922.353-2.5-.1-.515-.4-.151-1.513-.154-2.309-.016-3.774-.007-7.549-.007-11.323,0-2,.327-2.3,2.343-2.174" transform="translate(-141.049 -207.229)" fill="#ff8628"/>
    <path id="Trazado_166381" data-name="Trazado 166381" d="M113.619,268.163a3.38,3.38,0,0,1,.455-.079c2.128-.082,2.5.279,2.5,2.411,0,3.821-.012,7.642.013,11.462,0,.6-.132.854-.771.791-.618-.061-1.244-.035-1.867-.048,0-4.081-.012-8.162,0-12.243a8.04,8.04,0,0,0-.332-2.295" transform="translate(-89.903 -212.118)" fill="#ff8628"/>
    <path id="Trazado_166382" data-name="Trazado 166382" d="M267,268.093a3.684,3.684,0,0,1,1.7-.05,1.24,1.24,0,0,1,1.173,1.321c.005,4.241,0,8.482.013,12.723,0,.449-.16.592-.591.573-.7-.03-1.4-.018-2.106-.024q0-6.662.011-13.325a4.246,4.246,0,0,0-.2-1.219" transform="translate(-211.269 -212.036)" fill="#ff8628"/>
    <path id="Trazado_166383" data-name="Trazado 166383" d="M257.739,268.237a4.246,4.246,0,0,1,.2,1.219q-.016,6.663-.011,13.325c-.7.009-1.4,0-2.1.033-.415.019-.529-.144-.528-.543.011-4.205-.007-8.411.016-12.616.007-1.249.856-1.715,2.427-1.419" transform="translate(-202.008 -212.179)" fill="#ff8628"/>
    <path id="Trazado_166384" data-name="Trazado 166384" d="M104.553,268.216a8.04,8.04,0,0,1,.332,2.295c-.013,4.081,0,8.162,0,12.243-.675.016-1.353,0-2.025.056-.55.044-.7-.149-.7-.695.028-2.473.012-4.946.012-7.419q0-2.265,0-4.53c0-1.745.6-2.234,2.379-1.95" transform="translate(-80.837 -212.171)" fill="#ff8628"/>
    <path id="Trazado_166385" data-name="Trazado 166385" d="M37.41,281.17c2.369-.193,2.909-.085,2.845,2.492-.072,2.884-.032,5.771,0,8.656.006.576-.141.794-.736.743-.645-.055-1.3-.026-1.947-.033,0-2.485.021-4.969,0-7.454a22.7,22.7,0,0,0-.154-4.4" transform="translate(-29.601 -222.432)" fill="#ff8628"/>
    <path id="Trazado_166386" data-name="Trazado 166386" d="M27.965,281.026a22.7,22.7,0,0,1,.154,4.4c.025,2.485,0,4.97,0,7.454-.726.011-1.452.006-2.176.037-.389.017-.474-.154-.473-.507.01-3.347-.011-6.694.016-10.041.009-1.21.909-1.672,2.476-1.348" transform="translate(-20.156 -222.287)" fill="#ff8628"/>
    <path id="Trazado_166387" data-name="Trazado 166387" d="M83.09,115c1.249,0,2.5.012,3.748-.007.4-.006.538.126.536.535-.016,2.447.006,4.894-.019,7.34A1.363,1.363,0,0,1,86,124.288a1.271,1.271,0,0,1-1.286-1.369,1.4,1.4,0,0,0-.9-1.416,1.452,1.452,0,0,0-1.606.5q-8.05,8.073-16.116,16.13c-1.15,1.15-1.624,1.148-2.782-.01q-3.978-3.974-7.956-7.947c-1.025-1.023-1.579-1.015-2.618.021q-4.672,4.66-9.343,9.32c-1.079,1.075-1.61,1.077-2.669.019q-5.358-5.353-10.716-10.708c-.978-.977-1.587-.974-2.571.007q-6.025,6.012-12.05,12.024a3.248,3.248,0,0,1-.713.6,1.218,1.218,0,0,1-1.617-.3,1.2,1.2,0,0,1-.034-1.641,4.666,4.666,0,0,1,.428-.454q6.984-6.986,13.969-13.97c1.03-1.029,1.569-1.025,2.606.011q5.359,5.353,10.717,10.707c.982.981,1.592.987,2.567.015q4.7-4.687,9.394-9.379c1.069-1.067,1.608-1.065,2.682.006q4.036,4.026,8.069,8.055c.959.956,1.545.957,2.506,0q7.13-7.116,14.258-14.233c.461-.459.856-.925.616-1.638a1.46,1.46,0,0,0-1.437-.98,1.408,1.408,0,0,1-1.365-1.428c.064-.748.625-1.2,1.544-1.209,1.171-.012,2.342,0,3.514,0" transform="translate(-10.062 -90.99)" fill="#fcf300"/>
    <path id="Trazado_166388" data-name="Trazado 166388" d="M186.262,30.6a9.987,9.987,0,0,1,.586-9.145,13.941,13.941,0,0,1,5.846-5.014,31.177,31.177,0,0,1,11.516-3.369,44.531,44.531,0,0,1,5.6-.282c.357.005.591.043.322.467-2.12,3.343-2.887,7.119-3.647,10.933a13.687,13.687,0,0,1-9.436,10.779,8.652,8.652,0,0,1-8.649-1.62c-.477-.384-.4-.622-.068-1.047a41.5,41.5,0,0,1,8.714-7.982c1-.708,2.01-1.39,3.011-2.09.845-.591,1.061-1.3.617-1.977-.478-.729-1.239-.821-2.1-.24a56.212,56.212,0,0,0-10.783,8.813c-.486.54-.949,1.1-1.527,1.773" transform="translate(-146.725 -10.115)" fill="#04d9b5"/>
    <path id="Trazado_166389" data-name="Trazado 166389" d="M113.8,41.824c-1.716-1.321-3.319-2.509-4.985-3.608-.239-.158-.473-.323-.714-.475-.883-.555-1.666-.453-2.112.269-.43.7-.2,1.408.649,1.96a49.161,49.161,0,0,1,4.756,3.4c.76.631,1.511,1.274,2.26,1.919a3.709,3.709,0,0,1,1.2,1.6,6.562,6.562,0,0,0,.71,1.3c.687,1.093.7,1.113-.456,1.643a8.162,8.162,0,0,1-8.621-.84,12.478,12.478,0,0,1-5.415-8.839A20.4,20.4,0,0,0,98.38,32.4a1.728,1.728,0,0,1-.095-.282,24.938,24.938,0,0,1,4.577.138A27.355,27.355,0,0,1,113.4,35.381c1.578.88,1.58.876,1.022,2.588a11.88,11.88,0,0,0-.622,3.855" transform="translate(-77.77 -25.37)" fill="#04d9b5"/>
  </g>
</svg>
