<svg id="Grupo_114853" data-name="Grupo 114853" xmlns="http://www.w3.org/2000/svg" xmlns:xlink="http://www.w3.org/1999/xlink" width="119.977" height="120" viewBox="0 0 119.977 120">
  <defs>
    <clipPath id="clip-path">
      <rect id="Rectángulo_37660" data-name="Rectángulo 37660" width="119.977" height="120" fill="#fcf300"/>
    </clipPath>
  </defs>
  <g id="Grupo_114852" data-name="Grupo 114852" clip-path="url(#clip-path)">
    <path id="Trazado_165645" data-name="Trazado 165645" d="M64.181,0a23.121,23.121,0,0,0,4.064.62,61.305,61.305,0,0,1,50.407,47.506c3.464,16.379.067,31.542-9.384,45.265a59.714,59.714,0,0,1-33.727,24.331c-15.422,4.356-30.24,2.42-44.15-5.422A60.8,60.8,0,0,1,2.941,78,58.613,58.613,0,0,1,.25,65.46c-.031-.275.159-.644-.25-.811V55.28c.257-.061.22-.274.239-.46A58.558,58.558,0,0,1,13.312,22.974C23.271,10.715,36,3.107,51.686.621A14.145,14.145,0,0,0,55.28,0Zm-4.23,115.243c29.91.014,55.22-25.257,55.292-55.206.072-29.925-25.3-55.337-55.264-55.35C30.069,4.673,4.758,29.943,4.686,59.892c-.072,29.925,25.3,55.337,55.264,55.351" fill="#030302"/>
    <path id="Trazado_165646" data-name="Trazado 165646" d="M71.233,126.525C41.269,126.511,15.9,101.1,15.969,71.174c.072-29.949,25.382-55.22,55.292-55.205,29.964.014,55.336,25.426,55.264,55.351-.072,29.949-25.382,55.22-55.292,55.206m.609-105.883a49.868,49.868,0,0,0-24.565,6.278c-2.139,1.194-2.452,2.2-1.259,4.363q6.654,12.078,13.313,24.153c1.165,2.113,2.108,2.412,4.278,1.329a16.252,16.252,0,0,1,15.276,0c2.125,1.06,3.024.8,4.245-1.212Q90.5,43.411,97.859,31.262c1.227-2.026.9-3.171-1.149-4.288a54.17,54.17,0,0,0-24.867-6.331M104.8,68.67q-7.081,0-14.162,0c-2.1,0-2.913.771-3.01,2.85a17.463,17.463,0,0,1-1.495,6.447,16.76,16.76,0,0,1-6.375,7.281c-1.661,1.073-1.974,2.174-1.051,3.735q7.494,12.671,15.043,25.309a2.37,2.37,0,0,0,3.6.859,38.8,38.8,0,0,0,5.479-3.78c12.232-10.323,18.427-23.56,18.988-39.5.083-2.372-.747-3.2-3.094-3.2q-6.964-.005-13.928,0m-67.055,0q-7.023,0-14.046,0c-2.273,0-3.085.853-3.038,3.149a43.041,43.041,0,0,0,1.09,9.157,53.224,53.224,0,0,0,24.354,33.91c2.037,1.278,3.2.95,4.35-1.18q6.553-12.124,13.1-24.251c1.164-2.155.956-3.038-1.059-4.38a16.5,16.5,0,0,1-7.627-13.5c-.126-2.169-.89-2.906-3.077-2.908q-7.023-.007-14.046,0m45.209,2.551A11.71,11.71,0,1,0,71.3,82.958,11.846,11.846,0,0,0,82.957,71.221M120.83,61.49a1.594,1.594,0,0,0-.026-.266c-1.43-6.406-3.407-12.606-6.951-18.2a2.388,2.388,0,0,0-3.3-1.018,2.326,2.326,0,0,0-.666,3.455,48.129,48.129,0,0,1,4.892,11.181c.575,1.854.956,3.767,1.507,5.629a2.3,2.3,0,0,0,2.7,1.687,2.419,2.419,0,0,0,1.85-2.464m-13.057-24.4a2.328,2.328,0,1,0-2.344,2.282,2.4,2.4,0,0,0,2.344-2.282" transform="translate(-11.282 -11.282)" fill="#fcf300"/>
    <path id="Trazado_165647" data-name="Trazado 165647" d="M142.522,31.894a54.171,54.171,0,0,1,24.868,6.331c2.051,1.117,2.376,2.262,1.149,4.288q-7.36,12.15-14.729,24.293c-1.221,2.013-2.12,2.272-4.245,1.212a16.253,16.253,0,0,0-15.276,0c-2.17,1.083-3.112.784-4.278-1.329Q123.352,54.613,116.7,42.535c-1.192-2.165-.879-3.169,1.259-4.363a49.869,49.869,0,0,1,24.565-6.278m.07,4.68A45.7,45.7,0,0,0,122.442,41.1c-.749.365-.859.61-.452,1.341q5.464,9.814,10.842,19.675c.473.87.872,1.007,1.809.65a19.931,19.931,0,0,1,14.5-.026c.989.372,1.491.3,2.055-.64q5.922-9.887,11.951-19.709c.509-.831.1-1.051-.541-1.342a52.1,52.1,0,0,0-20.018-4.479" transform="translate(-81.962 -22.534)" fill="#020201"/>
    <path id="Trazado_165648" data-name="Trazado 165648" d="M254.612,195.538q6.964,0,13.928,0c2.348,0,3.178.833,3.094,3.2-.56,15.935-6.755,29.172-18.987,39.495a38.793,38.793,0,0,1-5.479,3.78,2.37,2.37,0,0,1-3.605-.858q-7.55-12.638-15.043-25.309c-.923-1.56-.611-2.662,1.051-3.735a16.756,16.756,0,0,0,6.375-7.281,17.463,17.463,0,0,0,1.494-6.447c.1-2.079.913-2.847,3.01-2.849q7.081-.009,14.162,0m-.165,4.678c-3.825,0-7.65.013-11.474-.012-.7,0-.989.137-1.111.927a20.605,20.605,0,0,1-7.461,13.222c-.759.621-.737,1.037-.269,1.815q5.966,9.925,11.836,19.907c.464.789.811.687,1.431.248a45.327,45.327,0,0,0,14.941-18.106,47.78,47.78,0,0,0,4.488-16.954c.076-1.026-.234-1.064-1.025-1.059-3.786.027-7.571.012-11.357.012" transform="translate(-161.091 -138.15)" fill="#020201"/>
    <path id="Trazado_165649" data-name="Trazado 165649" d="M49.045,195.537q7.023,0,14.046,0c2.187,0,2.951.739,3.077,2.908a16.5,16.5,0,0,0,7.627,13.5c2.016,1.341,2.223,2.224,1.059,4.38q-6.547,12.127-13.1,24.251c-1.151,2.13-2.313,2.458-4.349,1.18a53.225,53.225,0,0,1-24.355-33.91,43.057,43.057,0,0,1-1.09-9.157c-.047-2.3.765-3.147,3.038-3.149q7.023-.007,14.046,0m.12,4.686c-3.786,0-7.572.022-11.357-.017-.831-.008-1.083.106-1.013,1.063a40.42,40.42,0,0,0,2.068,10.156,48.826,48.826,0,0,0,18.611,24.838c.825.577,1.08.435,1.513-.376q5.3-9.9,10.684-19.754c.379-.7.387-1.073-.291-1.617a20.616,20.616,0,0,1-7.655-13.486c-.119-.789-.49-.816-1.087-.814-3.825.012-7.649.006-11.474.006" transform="translate(-22.579 -138.15)" fill="#020201"/>
    <path id="Trazado_165650" data-name="Trazado 165650" d="M187.84,176.1a11.71,11.71,0,1,1-11.707-11.684A11.848,11.848,0,0,1,187.84,176.1m-11.705,7.047a7.021,7.021,0,1,0-7.026-6.987,7.09,7.09,0,0,0,7.026,6.987" transform="translate(-116.165 -116.165)" fill="#020201"/>
    <path id="Trazado_165651" data-name="Trazado 165651" d="M345.762,123.4a2.419,2.419,0,0,1-1.85,2.464,2.3,2.3,0,0,1-2.7-1.687c-.551-1.862-.932-3.775-1.507-5.629a48.147,48.147,0,0,0-4.892-11.181,2.326,2.326,0,0,1,.666-3.455,2.388,2.388,0,0,1,3.3,1.018c3.544,5.6,5.522,11.8,6.951,18.2a1.615,1.615,0,0,1,.026.266" transform="translate(-236.215 -73.189)" fill="#030302"/>
    <path id="Trazado_165652" data-name="Trazado 165652" d="M317.567,82.233a2.328,2.328,0,1,1-2.253-2.373,2.4,2.4,0,0,1,2.253,2.373" transform="translate(-221.076 -56.421)" fill="#030302"/>
    <path id="Trazado_165653" data-name="Trazado 165653" d="M156.429,47.839a52.1,52.1,0,0,1,20.018,4.479c.643.291,1.051.511.541,1.342q-6.02,9.828-11.951,19.709c-.564.941-1.066,1.012-2.055.64a19.931,19.931,0,0,0-14.5.026c-.937.357-1.336.22-1.809-.65Q141.3,63.52,135.828,53.711c-.407-.732-.3-.976.452-1.341a45.7,45.7,0,0,1,20.149-4.531" transform="translate(-95.8 -33.799)" fill="#12263f"/>
    <path id="Trazado_165654" data-name="Trazado 165654" d="M268.395,211.45c3.786,0,7.572.015,11.357-.012.791-.006,1.1.033,1.025,1.059a47.779,47.779,0,0,1-4.488,16.954,45.327,45.327,0,0,1-14.941,18.106c-.621.44-.967.542-1.431-.248q-5.87-9.982-11.836-19.907c-.468-.778-.49-1.194.269-1.815a20.605,20.605,0,0,0,7.461-13.222c.122-.79.414-.931,1.111-.927,3.825.025,7.65.012,11.474.012" transform="translate(-175.039 -149.384)" fill="#12263f"/>
    <path id="Trazado_165655" data-name="Trazado 165655" d="M60.781,211.465c3.825,0,7.649.006,11.474-.006.6,0,.968.024,1.087.814A20.616,20.616,0,0,0,81,225.758c.678.544.671.921.291,1.617q-5.38,9.857-10.684,19.754c-.434.811-.689.954-1.513.376a48.827,48.827,0,0,1-18.611-24.838,40.422,40.422,0,0,1-2.068-10.156c-.07-.957.182-1.071,1.013-1.063,3.785.039,7.571.017,11.357.017" transform="translate(-34.195 -149.391)" fill="#12263f"/>
    <path id="Trazado_165656" data-name="Trazado 165656" d="M187.423,194.439a7.021,7.021,0,1,1,7.016-7,7.089,7.089,0,0,1-7.016,7" transform="translate(-127.454 -127.453)" fill="#12263f"/>
  </g>
</svg>
